<svg width="384" height="400" viewBox="0 0 384 400" fill="none" xmlns="http://www.w3.org/2000/svg">
<rect width="384" height="400" fill="#0C6BEA"/>
<path d="M193.618 304.988H206.706V239.606C206.706 233.752 208.899 230.48 214.657 230.48C215.609 230.48 216.96 230.48 216.96 230.48V219.441C216.96 219.441 217.359 219.441 214.657 219.441C198.578 219.441 193.618 227.668 193.618 239.307V304.988Z" fill="white"/>
<path d="M260.212 230.388H273.3V286.09C273.3 291.943 275.493 295.216 281.251 295.216C284.44 295.216 289.999 295.216 289.999 295.216V306.255C289.999 306.255 283.953 306.255 281.251 306.255C265.173 306.255 260.212 298.028 260.212 286.389V230.388Z" fill="white"/>
<path d="M226.882 230.388H239.97V286.09C239.97 291.943 242.163 295.216 247.921 295.216C251.11 295.216 251.487 295.216 251.487 295.216V306.255C251.487 306.255 250.623 306.255 247.921 306.255C231.842 306.255 226.882 298.028 226.882 286.389V230.388Z" fill="white"/>
<path d="M94 246.911H107.2C107.2 275.903 107.2 260.301 107.2 304.987H94V246.911Z" fill="white"/>
<path fill-rule="evenodd" clip-rule="evenodd" d="M164.472 289.961H164.716V304.987H177.805V270.211C177.805 254.931 170.718 246.266 154.085 246.266C138.782 246.266 131.163 253.595 128.904 265.602L141.594 267.376C143.278 260.439 147.198 257.72 153.62 257.72C161.571 257.72 164.738 262.168 164.738 270.326H147.596C133.179 270.326 126.823 278.231 126.823 289.178C126.823 300.632 134.286 306.232 144.917 306.232C154.816 306.255 161.792 300.632 164.472 289.961ZM164.716 280.512V282.425C164.716 289.685 158.847 295.031 149.811 295.031C142.347 295.031 139.778 291.206 139.778 287.011C139.778 282.932 143.189 280.512 149.567 280.512H164.716Z" fill="white"/>
<path d="M290 246.911H273.301C273.301 253.94 278.927 259.656 285.903 259.656H290V246.911Z" fill="white"/>
<path d="M125.006 259.656H107.2C107.2 252.627 112.847 246.911 119.801 246.911H125.006V259.656Z" fill="white"/>
<path d="M181.48 246.911H264.531V258.504H181.48V246.911Z" fill="white"/>
<path d="M140.773 197.652C152.467 192.992 166.092 171.442 166.092 145.729C166.092 116.607 152.434 95.5516 140.773 93H218.497V93.0308C232.234 93.9891 243.227 117.216 243.227 145.729C243.227 169.837 235.368 191.31 224.635 197.595C222.695 198.443 220.793 199.278 218.678 199.556C215.078 199.859 211.987 198.933 208.705 197.602C202.891 195.245 198.609 195.234 192.818 197.652C190.664 198.551 188.553 199.395 186.201 199.556C183.044 199.556 180.299 198.815 177.433 197.563C171.348 194.903 168.835 194.923 161.545 197.652C159.059 198.582 155.876 199.556 153.343 199.556C149.335 199.73 143.182 198.314 140.773 197.652Z" fill="white"/>
</svg>
