<svg width="72" height="73" viewBox="0 0 72 73" fill="none" xmlns="http://www.w3.org/2000/svg">
<path d="M62.3149 32.9053C62.3471 32.5102 62.3635 32.1111 62.3635 31.7086C62.3635 22.8883 54.4946 15.738 44.7879 15.738C38.5976 15.738 33.1548 18.646 30.0237 23.0406C27.7345 21.1491 24.693 19.9962 21.3552 19.9962C14.2369 19.9962 8.46639 25.2397 8.46639 31.7079C8.46639 32.3073 8.51593 32.8961 8.6115 33.4712C4.84241 35.6928 2.31348 39.7939 2.31348 44.4857C2.31348 51.5419 8.03367 57.2621 15.0899 57.2621H56.9103C63.9665 57.2621 69.6867 51.5419 69.6867 44.4857C69.6867 39.3611 66.6696 34.9412 62.3149 32.9053Z" fill="#FFF85A"/>
</svg>
