<svg width="73" height="72" viewBox="0 0 73 72" fill="none" xmlns="http://www.w3.org/2000/svg">
<path d="M31.2865 26.9848C31.2865 32.3194 26.9583 36.644 21.6192 36.644C16.2801 36.644 11.9519 32.3194 11.9519 26.9848C11.9519 21.6502 16.2801 17.3256 21.6192 17.3256C26.9583 17.3256 31.2865 21.6502 31.2865 26.9848Z" fill="#FFF85A"/>
<path d="M8.21802 54.6744C6.00888 54.6744 4.16237 52.847 4.79021 50.7289C6.75377 44.1048 13.5441 39.2197 21.6192 39.2197C29.6942 39.2197 36.4846 44.1048 38.4482 50.7289C39.076 52.847 37.2295 54.6744 35.0203 54.6744H8.21802Z" fill="#FFF85A"/>
<path d="M61.2865 26.9848C61.2865 32.3194 56.9583 36.644 51.6192 36.644C46.2801 36.644 41.9519 32.3194 41.9519 26.9848C41.9519 21.6502 46.2801 17.3256 51.6192 17.3256C56.9583 17.3256 61.2865 21.6502 61.2865 26.9848Z" fill="#FFF85A"/>
<path fill-rule="evenodd" clip-rule="evenodd" d="M51.6192 39.2197C54.5901 41.9663 60.4471 48.9023 60.1076 54.6744H65.0203C67.2295 54.6744 69.076 52.847 68.4482 50.7289C66.4846 44.1048 59.6942 39.2197 51.6192 39.2197Z" fill="#FFF85A"/>
<path d="M51.6192 39.2197C43.5441 39.2197 36.7538 44.1048 34.7902 50.7289C34.1624 52.847 36.0089 54.6744 38.218 54.6744H60.1076C60.4471 48.9023 54.5901 41.9663 51.6192 39.2197Z" fill="#FFF85A"/>
</svg>
