<svg width="1109" height="658" viewBox="0 0 1109 658" fill="none" xmlns="http://www.w3.org/2000/svg">
<path d="M80.5 108C80.5 98.0589 88.5589 90 98.5 90H1090.5C1100.44 90 1108.5 98.0589 1108.5 108V640C1108.5 649.941 1100.44 658 1090.5 658H98.5C88.5588 658 80.5 649.941 80.5 640V108Z" fill="#232B3F"/>
<circle opacity="0.2" cx="104.5" cy="114" r="8" fill="white"/>
<circle opacity="0.2" cx="130.5" cy="114" r="8" fill="white"/>
<circle opacity="0.2" cx="156.5" cy="114" r="8" fill="white"/>
<path d="M0.5 18C0.5 8.05886 8.55887 0 18.5 0H1010.5C1020.44 0 1028.5 8.05887 1028.5 18V550C1028.5 559.941 1020.44 568 1010.5 568H18.5C8.55885 568 0.5 559.941 0.5 550V18Z" fill="#0C6BEA"/>
<circle opacity="0.2" cx="24.5" cy="24" r="8" fill="white"/>
<circle opacity="0.2" cx="50.5" cy="24" r="8" fill="white"/>
<circle opacity="0.2" cx="76.5" cy="24" r="8" fill="white"/>
</svg>
