<svg width="73" height="72" viewBox="0 0 73 72" fill="none" xmlns="http://www.w3.org/2000/svg">
<path d="M65.6176 29.8118H48.4669V34.3201C48.4669 36.8258 46.5782 38.9424 44.063 39.2366L42.7437 39.3885L43.4935 40.3186C45.0786 42.2928 44.8887 45.2066 43.0854 46.9435L39.213 50.702C38.2828 51.6037 37.0489 52.0973 35.7297 52.0973C34.6382 52.0973 33.5657 51.7366 32.7019 51.0817L31.5725 50.218C31.5345 50.2275 31.506 50.2465 31.4681 50.256L31.3162 51.4993C31.022 53.986 28.896 55.8558 26.3713 55.8558H20.8948C20.0975 55.8558 19.3572 55.6565 18.6833 55.3148V56.9188C18.6833 59.0164 20.3823 60.7153 22.4799 60.7153H65.6176C67.7152 60.7153 69.4142 59.0164 69.4142 56.9188V33.6083C69.4142 31.5107 67.7152 29.8118 65.6176 29.8118Z" fill="#FFF85A"/>
<path d="M43.6265 27.8756L39.8679 27.439C39.4883 26.0532 38.9188 24.7339 38.1975 23.5191L40.5323 20.6432C40.893 20.1971 40.8455 19.5137 40.4374 19.1151L36.565 15.3566C36.1568 14.9579 35.4545 14.92 34.9894 15.2617L32.0281 17.5301C30.7753 16.8277 29.4275 16.2867 27.9944 15.9166L27.5483 12.2719C27.4818 11.7119 26.9503 11.2563 26.3714 11.2563H20.8949C20.3159 11.2563 19.7844 11.7119 19.718 12.2719L19.2624 15.9166C17.8292 16.2867 16.4815 16.8372 15.2286 17.5396L12.2578 15.2712C11.8118 14.92 11.1094 14.9579 10.7013 15.3566L6.82884 19.1151C6.42071 19.5137 6.38275 20.1971 6.73392 20.6432L9.06878 23.5286C8.34744 24.7434 7.78746 26.0627 7.39831 27.4484L3.64926 27.8756C3.07979 27.942 2.60522 28.4545 2.60522 29.024V34.3391C2.60522 34.8991 3.0703 35.4116 3.64926 35.4781L7.4078 35.9147C7.78745 37.3004 8.34744 38.6102 9.07827 39.8251L6.74342 42.7104C6.39224 43.1565 6.4302 43.8399 6.83833 44.2385L10.7013 47.997C11.1094 48.3957 11.8212 48.4336 12.2673 48.0919L15.2381 45.8235C16.4909 46.5259 17.8387 47.0764 19.2719 47.4465L19.7275 51.0912C19.7939 51.6512 20.3254 52.1067 20.9044 52.1067H26.3808C26.9598 52.1067 27.4913 51.6512 27.5578 51.0912L28.0133 47.4465C29.4465 47.0764 30.7943 46.5259 32.0471 45.8235L35.0179 48.0919C35.4735 48.4336 36.1758 48.3957 36.5839 47.997L40.4564 44.2385C40.8645 43.8399 40.912 43.1565 40.5513 42.7104L38.2164 39.8251C38.9378 38.6102 39.4978 37.3004 39.8869 35.9147L43.636 35.4781C44.2149 35.4116 44.68 34.8991 44.68 34.3391V29.024C44.6705 28.4545 44.2054 27.942 43.6265 27.8756ZM23.9606 40.5369C19.4807 40.5369 15.855 36.9112 15.855 32.4314C15.855 27.9515 19.4807 24.3258 23.9606 24.3258C28.4404 24.3258 32.0661 27.9515 32.0661 32.4314C32.0661 36.9017 28.4404 40.5369 23.9606 40.5369Z" fill="#FFF85A"/>
</svg>
