<svg width="237" height="234" viewBox="0 0 237 234" fill="none" xmlns="http://www.w3.org/2000/svg">
<path d="M154.755 33.3618L148.566 27.3046L146.415 35.6934L154.755 33.3618ZM135.759 28.4909L135.573 29.2174L135.759 28.4909ZM71.6159 95.8744L70.8843 96.0396L71.6159 95.8744ZM135.573 29.2174L148.03 32.4118L148.403 30.9588L135.945 27.7644L135.573 29.2174ZM92.1635 75.4498L95.3579 55.5767L93.8769 55.3386L90.6825 75.2117L92.1635 75.4498ZM70.8843 96.0396L73.0757 105.743L74.5388 105.413L72.3475 95.7092L70.8843 96.0396ZM81.4509 84.4641C86.7624 84.5298 91.3204 80.6944 92.1635 75.4498L90.6825 75.2117C89.9574 79.7222 86.0375 83.0207 81.4695 82.9642L81.4509 84.4641ZM135.945 27.7644C116.541 22.7889 97.0561 35.5604 93.8769 55.3386L95.3579 55.5767C98.397 36.6699 117.023 24.4611 135.573 29.2174L135.945 27.7644ZM81.4695 82.9642C74.545 82.8785 69.3589 89.2848 70.8843 96.0396L72.3475 95.7092C71.0356 89.8999 75.4958 84.3904 81.4509 84.4641L81.4695 82.9642Z" fill="white"/>
<path d="M21.0365 148.701L17.5401 150.136L21.8226 160.57L20.1964 161.238L15.914 150.803L12.4176 152.238L11.8541 150.865L20.4729 147.328L21.0365 148.701ZM34.8321 155.231L33.2601 155.877L30.8835 150.085C30.5967 149.387 30.2504 148.92 29.8445 148.686C29.4422 148.443 28.9971 148.421 28.5092 148.621C28.2984 148.708 28.112 148.82 27.95 148.956C27.7916 149.085 27.6426 149.262 27.5032 149.488C27.3613 149.708 27.2223 149.987 27.0863 150.324C26.9503 150.662 26.8028 151.074 26.644 151.561L29.1133 157.578L27.5413 158.223L22.3023 145.458L23.8743 144.813L25.3908 148.508L25.9224 149.958C26.0482 149.561 26.1878 149.215 26.3411 148.92C26.498 148.616 26.6679 148.353 26.8509 148.13C27.0399 147.905 27.2468 147.714 27.4714 147.559C27.6961 147.403 27.941 147.271 28.206 147.162C29.1094 146.792 29.9218 146.782 30.6431 147.133C31.3619 147.479 31.9487 148.206 32.4035 149.314L34.8321 155.231ZM43.3174 145.89C43.4089 146.113 43.4825 146.301 43.5383 146.454C43.5941 146.607 43.6431 146.753 43.6854 146.89L37.3162 149.504C37.6969 150.431 38.2488 151.039 38.9719 151.326C39.6925 151.607 40.5407 151.548 41.5164 151.147C41.7815 151.039 42.0428 150.921 42.3004 150.794C42.5555 150.661 42.7991 150.526 43.0312 150.389C43.2633 150.251 43.4821 150.116 43.6877 149.982C43.8968 149.84 44.0866 149.702 44.2571 149.569L44.7873 150.861C44.4091 151.157 43.9638 151.452 43.4514 151.747C42.9475 152.045 42.4064 152.313 41.8282 152.55C41.0512 152.869 40.3394 153.038 39.6928 153.057C39.0462 153.076 38.4606 152.961 37.9361 152.712C37.4151 152.454 36.9486 152.072 36.5367 151.566C36.1283 151.051 35.7733 150.426 35.4717 149.691C35.2097 149.052 35.0529 148.413 35.0012 147.773C34.9531 147.124 35.016 146.514 35.1898 145.943C35.3672 145.364 35.6599 144.842 36.0681 144.379C36.4762 143.916 37.0055 143.551 37.656 143.284C38.2884 143.025 38.8893 142.894 39.4587 142.893C40.0282 142.891 40.5539 143.006 41.0359 143.238C41.5215 143.461 41.9562 143.799 42.3399 144.254C42.7271 144.701 43.053 145.246 43.3174 145.89ZM41.5895 146.336C41.442 145.925 41.2521 145.573 41.0197 145.282C40.7849 144.984 40.5157 144.757 40.2121 144.6C39.9144 144.44 39.5879 144.356 39.2323 144.347C38.8743 144.332 38.4966 144.406 38.0991 144.57C37.7558 144.711 37.4698 144.905 37.2411 145.154C37.0124 145.403 36.8451 145.689 36.7392 146.014C36.6333 146.339 36.5863 146.696 36.5982 147.086C36.6101 147.475 36.6839 147.877 36.8194 148.293L41.5895 146.336ZM61.4708 131.093C60.574 131.257 59.8274 131.462 59.2312 131.706C57.8158 132.287 57.4121 133.318 58.0202 134.8L58.6727 136.39L62.6479 134.759L63.1855 136.069L59.2104 137.7L61.854 144.142L60.2549 144.798L57.6113 138.356L54.6932 139.554L54.1555 138.244L57.0736 137.046L56.4582 135.547C55.467 133.131 56.2302 131.407 58.7478 130.374C59.3741 130.117 60.0964 129.905 60.9146 129.738L61.4708 131.093ZM66.6132 128.782L63.93 129.883L63.3998 128.591L67.6731 126.838L72.3744 138.293L75.0757 137.185L75.6133 138.495L68.3407 141.479L67.803 140.169L70.7844 138.946L66.6132 128.782ZM84.0084 129.191C84.0998 129.414 84.1734 129.602 84.2292 129.755C84.285 129.908 84.334 130.053 84.3764 130.19L78.0071 132.804C78.3878 133.732 78.9397 134.339 79.6628 134.627C80.3835 134.908 81.2316 134.848 82.2074 134.448C82.4724 134.339 82.7337 134.221 82.9913 134.095C83.2464 133.962 83.49 133.827 83.7221 133.689C83.9542 133.552 84.173 133.416 84.3786 133.282C84.5877 133.14 84.7775 133.003 84.948 132.869L85.4782 134.161C85.1 134.457 84.6547 134.752 84.1423 135.047C83.6384 135.346 83.0973 135.613 82.5191 135.851C81.7422 136.169 81.0304 136.338 80.3837 136.358C79.7371 136.377 79.1515 136.262 78.627 136.012C78.106 135.755 77.6395 135.373 77.2276 134.866C76.8192 134.351 76.4642 133.726 76.1626 132.991C75.9006 132.353 75.7438 131.713 75.6921 131.073C75.644 130.424 75.7069 129.814 75.8807 129.243C76.0581 128.664 76.3508 128.143 76.759 127.68C77.1671 127.217 77.6964 126.852 78.3469 126.585C78.9793 126.325 79.5802 126.195 80.1496 126.193C80.7191 126.192 81.2448 126.307 81.7268 126.538C82.2124 126.761 82.6471 127.1 83.0308 127.555C83.418 128.001 83.7439 128.546 84.0084 129.191ZM82.2804 129.636C82.1329 129.225 81.943 128.874 81.7106 128.582C81.4759 128.284 81.2066 128.057 80.903 127.9C80.6054 127.741 80.2788 127.657 79.9233 127.648C79.5653 127.633 79.1875 127.707 78.79 127.87C78.4467 128.011 78.1607 128.206 77.932 128.454C77.7033 128.703 77.536 128.99 77.4301 129.315C77.3242 129.64 77.2772 129.997 77.2891 130.386C77.3011 130.775 77.3748 131.178 77.5103 131.594L82.2804 129.636ZM96.7538 129.819L94.6669 130.675L90.7985 128.22L89.7973 132.674L87.7646 133.508L89.4103 127.512L84.2047 124.371L86.2193 123.544L90.0356 126.052L90.9443 121.605L92.8867 120.807L91.3494 126.759L96.7538 129.819ZM98.6515 119.962L95.9683 121.063L95.4344 119.762L99.7077 118.008L102.893 125.769L105.594 124.66L106.132 125.97L98.8588 128.955L98.3212 127.645L101.303 126.421L98.6515 119.962ZM97.1078 114.631C97.2825 114.559 97.4587 114.526 97.6364 114.53C97.8117 114.529 97.9771 114.563 98.1324 114.633C98.2938 114.7 98.4355 114.797 98.5576 114.923C98.6831 115.04 98.7818 115.186 98.8535 115.361C98.9227 115.529 98.955 115.703 98.9506 115.88C98.9522 116.056 98.9192 116.224 98.8517 116.385C98.7903 116.544 98.6979 116.688 98.5745 116.816C98.4486 116.938 98.2984 117.035 98.1237 117.106C97.949 117.178 97.7741 117.215 97.5988 117.216C97.421 117.212 97.2514 117.176 97.09 117.108C96.9346 117.039 96.7929 116.942 96.6649 116.818C96.5429 116.693 96.4472 116.545 96.378 116.377C96.3063 116.202 96.271 116.03 96.2719 115.861C96.2763 115.683 96.3093 115.515 96.3707 115.356C96.4382 115.194 96.5349 115.053 96.6607 114.931C96.7841 114.803 96.9331 114.703 97.1078 114.631ZM114.747 116.945C115.056 117.698 115.227 118.416 115.261 119.099C115.298 119.773 115.21 120.397 114.995 120.971C114.783 121.536 114.449 122.043 113.993 122.49C113.534 122.932 112.961 123.294 112.274 123.576C111.738 123.796 111.169 123.97 110.567 124.097C109.965 124.224 109.344 124.289 108.704 124.291L103.684 112.059L105.256 111.414L106.698 114.928L107.316 116.638C107.518 115.844 107.824 115.219 108.235 114.762C108.649 114.296 109.151 113.943 109.741 113.7C110.259 113.488 110.759 113.41 111.239 113.466C111.72 113.522 112.174 113.694 112.602 113.983C113.028 114.266 113.422 114.66 113.784 115.166C114.144 115.665 114.465 116.259 114.747 116.945ZM113.168 117.678C112.973 117.202 112.758 116.78 112.522 116.412C112.293 116.042 112.045 115.746 111.778 115.525C111.511 115.303 111.228 115.163 110.929 115.102C110.627 115.036 110.314 115.07 109.989 115.203C109.79 115.285 109.602 115.401 109.424 115.551C109.244 115.695 109.074 115.889 108.913 116.131C108.755 116.364 108.604 116.655 108.458 117.003C108.316 117.343 108.18 117.75 108.052 118.226L109.857 122.625C110.214 122.62 110.567 122.588 110.916 122.529C111.262 122.464 111.58 122.372 111.869 122.254C112.23 122.105 112.55 121.907 112.828 121.659C113.113 121.409 113.324 121.101 113.462 120.734C113.604 120.359 113.657 119.923 113.621 119.424C113.588 118.916 113.438 118.334 113.168 117.678ZM118.997 111.612L116.314 112.713L115.78 111.412L120.053 109.658L123.238 117.419L125.939 116.31L126.477 117.62L119.204 120.605L118.667 119.295L121.648 118.071L118.997 111.612ZM117.453 106.281C117.628 106.21 117.804 106.176 117.982 106.18C118.157 106.179 118.323 106.213 118.478 106.283C118.639 106.35 118.781 106.447 118.903 106.573C119.029 106.69 119.127 106.836 119.199 107.011C119.268 107.18 119.3 107.353 119.296 107.531C119.298 107.706 119.265 107.874 119.197 108.036C119.136 108.195 119.043 108.338 118.92 108.466C118.794 108.588 118.644 108.685 118.469 108.757C118.294 108.828 118.12 108.865 117.944 108.867C117.766 108.862 117.597 108.826 117.435 108.759C117.28 108.689 117.138 108.592 117.01 108.469C116.888 108.343 116.793 108.196 116.723 108.027C116.652 107.852 116.616 107.68 116.617 107.511C116.622 107.333 116.655 107.165 116.716 107.006C116.784 106.845 116.88 106.703 117.006 106.581C117.13 106.453 117.279 106.353 117.453 106.281ZM127.65 103.733L124.966 104.834L124.436 103.542L128.709 101.788L133.411 113.244L136.112 112.135L136.65 113.445L129.377 116.43L128.839 115.12L131.821 113.897L127.65 103.733ZM139.342 103.262L136.659 104.363L136.125 103.062L140.399 101.309L143.584 109.069L146.285 107.961L146.822 109.271L139.55 112.255L139.012 110.945L141.993 109.722L139.342 103.262ZM137.799 97.9315C137.973 97.8598 138.15 97.8262 138.327 97.8307C138.503 97.8291 138.668 97.8633 138.823 97.9332C138.985 98.0007 139.126 98.0974 139.248 98.2232C139.374 98.3406 139.473 98.4866 139.544 98.6612C139.614 98.8299 139.646 99.0031 139.641 99.1809C139.643 99.3561 139.61 99.5245 139.543 99.6859C139.481 99.8448 139.389 99.9883 139.265 100.116C139.14 100.238 138.989 100.335 138.815 100.407C138.64 100.479 138.465 100.515 138.29 100.517C138.112 100.512 137.942 100.476 137.781 100.409C137.626 100.339 137.484 100.242 137.356 100.119C137.234 99.9931 137.138 99.8458 137.069 99.6772C136.997 99.5025 136.962 99.3305 136.963 99.1613C136.967 98.9835 137 98.8152 137.062 98.6562C137.129 98.4948 137.226 98.3531 137.352 98.2311C137.475 98.103 137.624 98.0032 137.799 97.9315ZM156.871 104.999C156.553 105.235 156.211 105.449 155.847 105.641C155.484 105.839 155.108 106.018 154.716 106.179C153.578 106.646 152.624 106.738 151.853 106.456C151.081 106.168 150.476 105.491 150.038 104.425L148.095 99.6911L145.557 100.733L145.015 99.4139L147.554 98.3721L146.531 95.8786L147.936 94.8269L149.126 97.7269L153.2 96.0548L153.742 97.3738L149.667 99.046L151.558 103.653C151.825 104.304 152.197 104.721 152.674 104.906C153.154 105.082 153.731 105.031 154.406 104.754C154.695 104.636 155.003 104.485 155.329 104.302C155.652 104.113 155.981 103.893 156.315 103.644L156.871 104.999ZM164.132 91.5684L164.372 100.949C164.391 101.905 164.352 102.752 164.253 103.489C164.16 104.224 163.99 104.864 163.742 105.409C163.497 105.96 163.171 106.425 162.763 106.803C162.355 107.182 161.853 107.493 161.257 107.738C161.1 107.802 160.958 107.857 160.829 107.903C160.7 107.949 160.557 107.997 160.402 108.047L159.816 106.619C159.956 106.583 160.107 106.539 160.268 106.486C160.432 106.44 160.602 106.381 160.776 106.31C161.065 106.191 161.316 106.039 161.528 105.853C161.747 105.665 161.928 105.429 162.072 105.145C162.218 104.866 162.332 104.535 162.413 104.15C162.494 103.764 162.543 103.318 162.56 102.812L155.215 95.2279L157.004 94.4938L161.76 99.5509L162.8 100.771L162.73 99.1106L162.406 92.2766L164.132 91.5684ZM186.137 87.7521C186.427 88.4568 186.593 89.145 186.636 89.8168C186.677 90.4826 186.598 91.1029 186.397 91.6778C186.194 92.2466 185.873 92.7585 185.434 93.2134C184.991 93.6622 184.43 94.0263 183.749 94.3056C183.099 94.5726 182.474 94.713 181.874 94.7268C181.278 94.7321 180.719 94.6132 180.197 94.37C179.681 94.1244 179.208 93.752 178.778 93.2529C178.354 92.7513 177.988 92.1241 177.679 91.3712C177.39 90.6665 177.226 89.9843 177.187 89.3245C177.146 88.6587 177.227 88.0414 177.43 87.4726C177.63 86.8977 177.952 86.3859 178.394 85.937C178.833 85.4821 179.394 85.115 180.074 84.8357C180.725 84.5688 181.348 84.4326 181.944 84.4273C182.543 84.4135 183.101 84.5294 183.617 84.7751C184.137 85.0122 184.609 85.3816 185.033 85.8832C185.463 86.3823 185.831 87.0052 186.137 87.7521ZM184.559 88.4843C184.329 87.9242 184.066 87.4623 183.769 87.0986C183.475 86.7264 183.157 86.4488 182.814 86.2657C182.469 86.0765 182.103 85.9807 181.715 85.9781C181.33 85.967 180.936 86.0443 180.533 86.2099C180.063 86.4027 179.698 86.6617 179.437 86.9868C179.18 87.3034 179.006 87.6598 178.915 88.056C178.83 88.4497 178.821 88.8723 178.887 89.3239C178.956 89.767 179.082 90.2113 179.265 90.657C179.495 91.2172 179.756 91.6833 180.05 92.0555C180.349 92.4252 180.672 92.7046 181.017 92.8938C181.359 93.0769 181.723 93.174 182.107 93.1851C182.489 93.1901 182.885 93.1086 183.295 92.9405C183.765 92.7477 184.128 92.493 184.385 92.1764C184.646 91.8512 184.819 91.4918 184.903 91.0981C184.994 90.702 185.005 90.2824 184.936 89.8393C184.87 89.3877 184.744 88.936 184.559 88.4843ZM193.716 76.8197C192.819 76.9836 192.073 77.188 191.477 77.4327C190.061 78.0136 189.658 79.0448 190.266 80.5265L190.918 82.1165L194.893 80.4851L195.431 81.7951L191.456 83.4265L194.099 89.868L192.5 90.5243L189.857 84.0828L186.939 85.2804L186.401 83.9704L189.319 82.7728L188.704 81.2731C187.712 78.8579 188.476 77.1337 190.993 76.1005C191.62 75.8434 192.342 75.6314 193.16 75.4645L193.716 76.8197ZM53.3237 171.275C53.0054 171.511 52.664 171.725 52.2994 171.917C51.9372 172.115 51.5604 172.294 51.1689 172.455C50.0306 172.922 49.0763 173.015 48.3061 172.733C47.5334 172.445 46.9283 171.768 46.4908 170.702L44.5479 165.968L42.0092 167.009L41.4679 165.69L44.0066 164.649L42.9833 162.155L44.3884 161.103L45.5786 164.003L49.6531 162.331L50.1944 163.65L46.1199 165.322L48.0108 169.93C48.2778 170.58 48.6497 170.998 49.1264 171.182C49.6068 171.358 50.1842 171.308 50.8588 171.031C51.1479 170.912 51.4555 170.761 51.7815 170.578C52.105 170.389 52.4337 170.17 52.7676 169.92L53.3237 171.275ZM63.5303 167.234L61.9583 167.879L59.5817 162.088C59.2949 161.39 58.9486 160.923 58.5427 160.689C58.1404 160.446 57.6953 160.424 57.2074 160.624C56.9966 160.711 56.8102 160.823 56.6482 160.959C56.4898 161.088 56.3408 161.265 56.2014 161.491C56.0595 161.711 55.9205 161.99 55.7845 162.327C55.6485 162.665 55.501 163.077 55.3422 163.564L57.8115 169.581L56.2395 170.226L51.0005 157.461L52.5725 156.816L54.089 160.511L54.6206 161.96C54.7464 161.564 54.886 161.218 55.0393 160.923C55.1962 160.619 55.3661 160.356 55.5491 160.133C55.7381 159.908 55.945 159.717 56.1696 159.562C56.3943 159.406 56.6392 159.274 56.9042 159.165C57.8076 158.795 58.62 158.785 59.3413 159.136C60.0601 159.482 60.6469 160.209 61.1017 161.317L63.5303 167.234ZM72.0156 157.893C72.1071 158.116 72.1807 158.304 72.2365 158.457C72.2923 158.61 72.3413 158.755 72.3836 158.893L66.0144 161.507C66.3951 162.434 66.947 163.042 67.6701 163.329C68.3907 163.61 69.2389 163.551 70.2146 163.15C70.4797 163.042 70.741 162.924 70.9985 162.797C71.2537 162.664 71.4973 162.529 71.7294 162.392C71.9615 162.254 72.1803 162.118 72.3859 161.985C72.595 161.843 72.7848 161.705 72.9553 161.572L73.4855 162.864C73.1073 163.16 72.662 163.455 72.1496 163.75C71.6457 164.048 71.1046 164.316 70.5264 164.553C69.7494 164.872 69.0376 165.041 68.391 165.06C67.7444 165.079 67.1588 164.964 66.6343 164.715C66.1133 164.457 65.6468 164.075 65.2349 163.568C64.8265 163.053 64.4715 162.429 64.1699 161.694C63.9079 161.055 63.7511 160.416 63.6994 159.776C63.6513 159.127 63.7142 158.517 63.888 157.946C64.0654 157.366 64.3581 156.845 64.7663 156.382C65.1744 155.919 65.7037 155.554 66.3542 155.287C66.9866 155.028 67.5875 154.897 68.1569 154.896C68.7264 154.894 69.2521 155.009 69.7341 155.241C70.2197 155.464 70.6544 155.802 71.0381 156.257C71.4253 156.703 71.7512 157.249 72.0156 157.893ZM70.2877 158.339C70.1402 157.928 69.9503 157.576 69.7179 157.285C69.4831 156.987 69.2139 156.759 68.9103 156.603C68.6126 156.443 68.2861 156.359 67.9305 156.35C67.5725 156.335 67.1948 156.409 66.7973 156.573C66.454 156.713 66.168 156.908 65.9393 157.157C65.7106 157.406 65.5433 157.692 65.4374 158.017C65.3315 158.342 65.2845 158.699 65.2964 159.089C65.3083 159.478 65.3821 159.88 65.5176 160.296L70.2877 158.339ZM93.6674 154.475C93.3221 154.8 92.9474 155.088 92.5434 155.338C92.1479 155.592 91.7213 155.812 91.2636 156C89.8301 156.589 88.5655 156.654 87.4697 156.196C86.3799 155.735 85.5285 154.758 84.9154 153.264C84.6213 152.547 84.4658 151.851 84.4489 151.176C84.4319 150.5 84.54 149.871 84.7729 149.29C85.0059 148.709 85.3568 148.192 85.8254 147.739C86.2916 147.281 86.862 146.913 87.5366 146.636C88.0064 146.443 88.4596 146.296 88.8964 146.194C89.3331 146.092 89.7691 146.04 90.2043 146.037L90.8198 147.537C90.3443 147.493 89.8832 147.51 89.4366 147.587C88.9935 147.657 88.5551 147.78 88.1215 147.958C87.7179 148.124 87.3676 148.359 87.0705 148.664C86.7769 148.96 86.554 149.309 86.4016 149.709C86.2492 150.11 86.18 150.55 86.194 151.029C86.2079 151.509 86.3224 152.011 86.5375 152.535C86.9873 153.631 87.5897 154.345 88.3447 154.675C89.1032 154.997 89.9552 154.964 90.9008 154.576C91.3285 154.401 91.7213 154.183 92.0792 153.924C92.4432 153.662 92.7724 153.358 93.0667 153.012L93.6674 154.475ZM95.3114 140.785L92.6282 141.886L92.098 140.594L96.3713 138.841L101.073 150.296L103.774 149.188L104.312 150.498L97.0389 153.482L96.5012 152.172L99.4826 150.949L95.3114 140.785ZM113.108 141.504C113.397 142.209 113.564 142.897 113.607 143.569C113.648 144.234 113.569 144.855 113.368 145.43C113.165 145.998 112.844 146.51 112.404 146.965C111.962 147.414 111.401 147.778 110.72 148.057C110.07 148.324 109.445 148.465 108.845 148.479C108.249 148.484 107.69 148.365 107.168 148.122C106.652 147.876 106.179 147.504 105.749 147.005C105.325 146.503 104.959 145.876 104.65 145.123C104.361 144.418 104.197 143.736 104.158 143.076C104.117 142.411 104.198 141.793 104.401 141.224C104.601 140.65 104.923 140.138 105.365 139.689C105.804 139.234 106.364 138.867 107.045 138.588C107.696 138.321 108.319 138.184 108.915 138.179C109.514 138.165 110.072 138.281 110.588 138.527C111.108 138.764 111.579 139.133 112.003 139.635C112.434 140.134 112.802 140.757 113.108 141.504ZM111.53 142.236C111.3 141.676 111.036 141.214 110.739 140.85C110.446 140.478 110.128 140.201 109.785 140.017C109.44 139.828 109.074 139.732 108.686 139.73C108.301 139.719 107.907 139.796 107.503 139.962C107.034 140.154 106.668 140.413 106.408 140.739C106.151 141.055 105.977 141.412 105.886 141.808C105.801 142.201 105.792 142.624 105.857 143.076C105.927 143.519 106.053 143.963 106.236 144.409C106.466 144.969 106.727 145.435 107.021 145.807C107.32 146.177 107.643 146.456 107.988 146.646C108.33 146.829 108.694 146.926 109.078 146.937C109.46 146.942 109.856 146.86 110.266 146.692C110.736 146.5 111.099 146.245 111.356 145.928C111.617 145.603 111.789 145.244 111.874 144.85C111.965 144.454 111.976 144.034 111.906 143.591C111.841 143.139 111.715 142.688 111.53 142.236ZM124.567 142.185L123.157 142.763L122.502 141.322C122.36 141.746 122.208 142.115 122.048 142.427C121.891 142.731 121.718 142.995 121.529 143.22C121.34 143.446 121.132 143.633 120.905 143.783C120.686 143.936 120.441 144.068 120.17 144.179C119.237 144.562 118.42 144.577 117.719 144.225C117.018 143.872 116.44 143.141 115.986 142.033L113.553 136.107L115.125 135.461L117.506 141.261C118.077 142.653 118.886 143.133 119.934 142.703C120.127 142.624 120.302 142.52 120.461 142.392C120.623 142.255 120.775 142.077 120.917 141.857C121.062 141.628 121.2 141.346 121.33 141.011C121.466 140.674 121.603 140.263 121.741 139.776L119.272 133.76L120.844 133.114L124.567 142.185ZM125.204 136.846C124.888 136.075 124.713 135.348 124.679 134.665C124.643 133.976 124.733 133.348 124.951 132.78C125.171 132.204 125.51 131.699 125.965 131.266C126.424 130.824 126.988 130.466 127.657 130.192C127.946 130.073 128.236 129.975 128.528 129.898C128.826 129.817 129.127 129.761 129.43 129.728L127.865 125.916L129.446 125.267L134.685 138.032L133.276 138.611L132.517 136.916C132.339 137.735 132.058 138.403 131.672 138.921C131.286 139.438 130.795 139.819 130.199 140.064C129.681 140.276 129.178 140.356 128.692 140.302C128.211 140.246 127.758 140.076 127.333 139.794C126.911 139.502 126.519 139.107 126.16 138.607C125.8 138.107 125.481 137.52 125.204 136.846ZM126.772 136.086C127.222 137.183 127.717 137.936 128.259 138.347C128.804 138.75 129.372 138.83 129.962 138.588C130.36 138.425 130.706 138.075 130.999 137.539C131.299 137.001 131.55 136.282 131.751 135.384L130.023 131.174C129.715 131.159 129.391 131.186 129.054 131.255C128.713 131.317 128.389 131.411 128.082 131.537C127.227 131.888 126.672 132.44 126.418 133.192C126.169 133.941 126.287 134.906 126.772 136.086ZM140.022 132.517C140.227 132.433 140.436 132.393 140.648 132.397C140.867 132.399 141.071 132.442 141.261 132.526C141.456 132.607 141.631 132.726 141.786 132.88C141.939 133.029 142.058 133.208 142.145 133.419C142.229 133.624 142.269 133.833 142.264 134.046C142.26 134.258 142.217 134.463 142.136 134.658C142.058 134.845 141.941 135.016 141.787 135.171C141.638 135.323 141.461 135.441 141.257 135.525C141.046 135.612 140.834 135.653 140.621 135.649C140.408 135.645 140.206 135.605 140.013 135.529C139.823 135.445 139.652 135.329 139.5 135.18C139.347 135.032 139.229 134.855 139.145 134.65C139.059 134.439 139.017 134.228 139.022 134.015C139.023 133.796 139.062 133.59 139.138 133.397C139.219 133.202 139.334 133.028 139.483 132.875C139.632 132.723 139.811 132.603 140.022 132.517ZM161.635 114.78L158.138 116.215L162.421 126.65L160.795 127.317L156.512 116.882L153.016 118.317L152.452 116.944L161.071 113.407L161.635 114.78ZM175.43 121.31L173.858 121.956L171.482 116.165C171.195 115.466 170.849 114.999 170.443 114.765C170.04 114.522 169.595 114.5 169.107 114.701C168.897 114.787 168.71 114.899 168.548 115.036C168.39 115.164 168.241 115.341 168.101 115.567C167.959 115.787 167.821 116.066 167.684 116.403C167.548 116.741 167.401 117.153 167.242 117.641L169.712 123.657L168.14 124.303L162.901 111.537L164.473 110.892L165.989 114.587L166.521 116.037C166.646 115.64 166.786 115.294 166.939 114.999C167.096 114.696 167.266 114.432 167.449 114.209C167.638 113.984 167.845 113.794 168.07 113.638C168.294 113.482 168.539 113.35 168.804 113.242C169.708 112.871 170.52 112.861 171.241 113.213C171.96 113.558 172.547 114.285 173.002 115.393L175.43 121.31ZM183.916 111.969C184.007 112.192 184.081 112.38 184.136 112.533C184.192 112.686 184.241 112.832 184.284 112.969L177.914 115.583C178.295 116.511 178.847 117.118 179.57 117.405C180.291 117.687 181.139 117.627 182.115 117.227C182.38 117.118 182.641 117 182.899 116.873C183.154 116.74 183.397 116.605 183.629 116.468C183.862 116.33 184.08 116.195 184.286 116.061C184.495 115.919 184.685 115.781 184.855 115.648L185.385 116.94C185.007 117.236 184.562 117.531 184.05 117.826C183.546 118.124 183.005 118.392 182.426 118.629C181.649 118.948 180.938 119.117 180.291 119.136C179.644 119.155 179.059 119.04 178.534 118.791C178.013 118.533 177.547 118.151 177.135 117.645C176.726 117.13 176.371 116.505 176.07 115.77C175.808 115.132 175.651 114.492 175.599 113.852C175.551 113.203 175.614 112.593 175.788 112.022C175.965 111.443 176.258 110.921 176.666 110.458C177.074 109.995 177.604 109.63 178.254 109.363C178.887 109.104 179.487 108.973 180.057 108.972C180.626 108.97 181.152 109.085 181.634 109.317C182.12 109.54 182.554 109.879 182.938 110.333C183.325 110.78 183.651 111.325 183.916 111.969ZM182.188 112.415C182.04 112.004 181.85 111.652 181.618 111.361C181.383 111.063 181.114 110.836 180.81 110.679C180.513 110.519 180.186 110.435 179.831 110.426C179.473 110.411 179.095 110.486 178.697 110.649C178.354 110.79 178.068 110.984 177.839 111.233C177.611 111.482 177.443 111.769 177.337 112.094C177.231 112.419 177.184 112.776 177.196 113.165C177.208 113.554 177.282 113.957 177.418 114.372L182.188 112.415ZM32.399 190.586C31.5022 190.75 30.7557 190.954 30.1594 191.199C28.744 191.779 28.3403 192.811 28.9484 194.292L29.601 195.882L33.5761 194.251L34.1137 195.561L30.1386 197.192L32.7822 203.634L31.1831 204.29L28.5395 197.849L25.6214 199.046L25.0838 197.736L28.0019 196.539L27.3864 195.039C26.3952 192.624 27.1584 190.9 29.676 189.866C30.3024 189.609 31.0247 189.397 31.8429 189.23L32.399 190.586ZM44.9876 198.625L44.451 197.42C44.1573 198.111 43.799 198.669 43.376 199.096C42.9591 199.521 42.4705 199.848 41.9104 200.078C41.3924 200.29 40.9226 200.406 40.5008 200.424C40.079 200.442 39.7007 200.386 39.3658 200.256C39.0346 200.118 38.7474 199.916 38.5045 199.649C38.2675 199.381 38.0736 199.063 37.9229 198.695C37.5496 197.786 37.5952 196.937 38.0597 196.148C38.5277 195.351 39.4242 194.68 40.7493 194.136L42.6284 193.365L42.3022 192.57C42.0822 192.034 41.735 191.677 41.2607 191.498C40.7839 191.314 40.1932 191.366 39.4885 191.656C38.9765 191.866 38.4941 192.131 38.0412 192.45C37.5943 192.767 37.149 193.14 36.7055 193.568L36.1234 192.15C36.2925 191.996 36.4839 191.837 36.6977 191.672C36.9149 191.498 37.148 191.328 37.3968 191.163C37.6455 190.998 37.9113 190.839 38.1941 190.688C38.4744 190.531 38.7651 190.39 39.0662 190.267C39.6143 190.042 40.1329 189.899 40.622 189.839C41.1111 189.779 41.5569 189.811 41.9594 189.934C42.3679 190.055 42.7301 190.269 43.046 190.576C43.3619 190.882 43.6236 191.289 43.8313 191.795L46.397 198.046L44.9876 198.625ZM43.1216 194.567L41.125 195.386C40.7335 195.547 40.4123 195.724 40.1613 195.919C39.9104 196.113 39.7242 196.32 39.6028 196.538C39.4815 196.757 39.4176 196.987 39.4113 197.229C39.4086 197.463 39.4591 197.706 39.5629 197.959C39.6346 198.133 39.7309 198.291 39.8519 198.431C39.9704 198.566 40.1158 198.671 40.2881 198.748C40.458 198.819 40.6542 198.852 40.8766 198.845C41.099 198.838 41.3487 198.778 41.6258 198.664C41.9871 198.516 42.3552 198.238 42.73 197.831C43.1083 197.415 43.4588 196.863 43.7815 196.175L43.1216 194.567ZM55.8018 194.187L53.1285 187.673C53.0124 187.39 52.9052 187.163 52.8069 186.992C52.7147 186.819 52.6235 186.691 52.5333 186.608C52.4466 186.517 52.3585 186.465 52.2689 186.453C52.1854 186.438 52.0924 186.451 51.99 186.493C51.8696 186.543 51.773 186.625 51.7002 186.739C51.6275 186.853 51.5643 187.016 51.5106 187.229C51.4629 187.438 51.4224 187.708 51.389 188.038C51.3593 188.36 51.3284 188.757 51.2963 189.227L53.6878 195.054L52.2513 195.644L49.6485 189.302C49.5125 188.97 49.3905 188.707 49.2824 188.512C49.1802 188.315 49.0816 188.169 48.9865 188.074C48.8973 187.977 48.808 187.922 48.7184 187.91C48.6288 187.897 48.5328 187.912 48.4305 187.954C48.322 187.999 48.232 188.071 48.1604 188.171C48.0887 188.27 48.0248 188.423 47.9686 188.629C47.9184 188.833 47.8767 189.1 47.8434 189.43C47.8101 189.761 47.7805 190.177 47.7548 190.681L50.1463 196.508L48.7008 197.101L44.9782 188.03L46.1798 187.537L46.9603 189.233C46.976 188.826 47.0066 188.472 47.0523 188.171C47.104 187.869 47.1785 187.613 47.2758 187.404C47.3706 187.189 47.4917 187.013 47.6392 186.875C47.7902 186.729 47.9741 186.611 48.191 186.522C48.6788 186.322 49.1147 186.329 49.4987 186.545C49.8827 186.76 50.2119 187.202 50.4862 187.871C50.5022 187.498 50.5301 187.163 50.5697 186.865C50.6069 186.561 50.6704 186.296 50.7603 186.069C50.8537 185.834 50.9795 185.634 51.1376 185.471C51.2933 185.302 51.4976 185.165 51.7505 185.061C52.8889 184.594 53.8177 185.237 54.537 186.989L57.2473 193.593L55.8018 194.187ZM59.407 183.629L56.7238 184.73L56.1899 183.429L60.4632 181.675L63.6481 189.436L66.3494 188.327L66.887 189.637L59.6143 192.622L59.0767 191.312L62.0581 190.088L59.407 183.629ZM57.8633 178.298C58.0379 178.227 58.2142 178.193 58.3919 178.197C58.5672 178.196 58.7325 178.23 58.8879 178.3C59.0493 178.368 59.191 178.464 59.3131 178.59C59.4386 178.707 59.5373 178.853 59.6089 179.028C59.6782 179.197 59.7105 179.37 59.7061 179.548C59.7076 179.723 59.6747 179.891 59.6072 180.053C59.5458 180.212 59.4534 180.355 59.33 180.483C59.2041 180.605 59.0539 180.702 58.8792 180.774C58.7045 180.845 58.5295 180.882 58.3543 180.884C58.1765 180.879 58.0069 180.843 57.8455 180.776C57.6901 180.706 57.5484 180.609 57.4204 180.486C57.2983 180.36 57.2027 180.213 57.1335 180.044C57.0618 179.869 57.0264 179.697 57.0274 179.528C57.0318 179.35 57.0648 179.182 57.1262 179.023C57.1937 178.862 57.2903 178.72 57.4162 178.598C57.5396 178.47 57.6886 178.37 57.8633 178.298ZM68.0596 175.75L65.3764 176.851L64.8462 175.559L69.1195 173.805L73.8208 185.261L76.5221 184.152L77.0597 185.462L69.7871 188.447L69.2494 187.137L72.2308 185.914L68.0596 175.75ZM79.7525 175.279L77.0693 176.38L76.5354 175.079L80.8086 173.326L83.9936 181.086L86.6948 179.978L87.2325 181.288L79.9598 184.272L79.4222 182.962L82.4035 181.739L79.7525 175.279ZM78.2087 169.949C78.3834 169.877 78.5596 169.843 78.7374 169.848C78.9127 169.846 79.078 169.88 79.2334 169.95C79.3948 170.018 79.5365 170.114 79.6585 170.24C79.7841 170.358 79.8827 170.504 79.9544 170.678C80.0236 170.847 80.056 171.02 80.0515 171.198C80.0531 171.373 80.0201 171.542 79.9527 171.703C79.8912 171.862 79.7988 172.005 79.6754 172.133C79.5496 172.255 79.3993 172.352 79.2246 172.424C79.05 172.496 78.875 172.532 78.6997 172.534C78.5219 172.529 78.3524 172.493 78.191 172.426C78.0356 172.356 77.8939 172.259 77.7658 172.136C77.6438 172.01 77.5482 171.863 77.479 171.694C77.4073 171.52 77.3719 171.348 77.3728 171.178C77.3773 171.001 77.4102 170.832 77.4717 170.673C77.5391 170.512 77.6358 170.37 77.7617 170.248C77.885 170.12 78.0341 170.02 78.2087 169.949ZM95.8513 177.75L95.3146 176.546C95.0209 177.236 94.6626 177.795 94.2397 178.222C93.8227 178.646 93.3342 178.973 92.774 179.203C92.2561 179.416 91.7862 179.531 91.3644 179.55C90.9426 179.568 90.5643 179.512 90.2295 179.382C89.8982 179.243 89.6111 179.041 89.3681 178.775C89.1311 178.506 88.9373 178.188 88.7865 177.821C88.4133 176.911 88.4589 176.062 88.9233 175.273C89.3913 174.476 90.2879 173.806 91.6129 173.262L93.4921 172.491L93.1658 171.696C92.9458 171.159 92.5986 170.802 92.1243 170.624C91.6476 170.44 91.0568 170.492 90.3521 170.781C89.8402 170.991 89.3577 171.256 88.9048 171.576C88.4579 171.893 88.0127 172.266 87.5692 172.694L86.9871 171.276C87.1562 171.122 87.3476 170.962 87.5613 170.797C87.7786 170.623 88.0116 170.454 88.2604 170.289C88.5092 170.123 88.775 169.965 89.0577 169.814C89.338 169.656 89.6287 169.516 89.9299 169.392C90.478 169.167 90.9966 169.025 91.4857 168.965C91.9748 168.905 92.4206 168.937 92.8231 169.06C93.2316 169.181 93.5938 169.395 93.9096 169.701C94.2255 170.008 94.4873 170.414 94.6949 170.92L97.2606 177.172L95.8513 177.75ZM93.9852 173.692L91.9886 174.512C91.5971 174.672 91.2759 174.85 91.0249 175.044C90.774 175.239 90.5878 175.445 90.4665 175.664C90.3451 175.883 90.2813 176.113 90.275 176.355C90.2722 176.588 90.3228 176.831 90.4266 177.084C90.4983 177.259 90.5946 177.417 90.7155 177.557C90.834 177.691 90.9794 177.797 91.1518 177.874C91.3217 177.945 91.5178 177.977 91.7402 177.97C91.9626 177.963 92.2123 177.903 92.4894 177.789C92.8508 177.641 93.2188 177.363 93.5936 176.956C93.972 176.541 94.3225 175.989 94.6452 175.3L93.9852 173.692ZM96.8447 166.744L98.2812 166.155L99.0123 167.808C99.2838 166.943 99.6192 166.26 100.019 165.759C100.424 165.254 100.892 164.894 101.422 164.676C102.361 164.29 103.197 164.303 103.928 164.713C104.666 165.122 105.262 165.932 105.718 167.146L104.128 167.798C103.82 166.996 103.466 166.469 103.068 166.217C102.672 165.957 102.234 165.926 101.752 166.124C101.541 166.21 101.343 166.337 101.159 166.505C100.978 166.663 100.807 166.874 100.647 167.137C100.491 167.391 100.34 167.699 100.193 168.062C100.047 168.425 99.9041 168.849 99.7658 169.335L102.157 175.162L100.567 175.815L96.8447 166.744ZM110.271 162.754L107.587 163.856L107.054 162.555L111.327 160.801L114.512 168.561L117.213 167.453L117.751 168.763L110.478 171.748L109.94 170.438L112.922 169.214L110.271 162.754ZM108.727 157.424C108.902 157.352 109.078 157.319 109.256 157.323C109.431 157.321 109.596 157.356 109.752 157.426C109.913 157.493 110.055 157.59 110.177 157.716C110.302 157.833 110.401 157.979 110.473 158.154C110.542 158.322 110.574 158.495 110.57 158.673C110.571 158.849 110.538 159.017 110.471 159.178C110.409 159.337 110.317 159.481 110.194 159.609C110.068 159.731 109.917 159.828 109.743 159.899C109.568 159.971 109.393 160.008 109.218 160.009C109.04 160.005 108.871 159.969 108.709 159.901C108.554 159.831 108.412 159.735 108.284 159.611C108.162 159.485 108.066 159.338 107.997 159.17C107.925 158.995 107.89 158.823 107.891 158.654C107.895 158.476 107.928 158.308 107.99 158.149C108.057 157.987 108.154 157.845 108.28 157.723C108.403 157.595 108.552 157.496 108.727 157.424ZM127.799 164.491C127.481 164.727 127.139 164.941 126.775 165.133C126.413 165.331 126.036 165.51 125.644 165.671C124.506 166.138 123.552 166.231 122.782 165.949C122.009 165.661 121.404 164.984 120.966 163.917L119.023 159.183L116.485 160.225L115.943 158.906L118.482 157.864L117.459 155.371L118.864 154.319L120.054 157.219L124.129 155.547L124.67 156.866L120.595 158.538L122.486 163.146C122.753 163.796 123.125 164.214 123.602 164.398C124.082 164.574 124.66 164.523 125.334 164.247C125.623 164.128 125.931 163.977 126.257 163.794C126.58 163.605 126.909 163.386 127.243 163.136L127.799 164.491ZM135.06 151.061L135.3 160.442C135.319 161.398 135.28 162.245 135.181 162.982C135.089 163.716 134.918 164.356 134.671 164.901C134.425 165.452 134.099 165.917 133.691 166.296C133.283 166.674 132.781 166.986 132.185 167.23C132.029 167.295 131.886 167.35 131.757 167.395C131.628 167.441 131.486 167.489 131.33 167.539L130.744 166.112C130.884 166.075 131.035 166.031 131.196 165.979C131.36 165.933 131.53 165.874 131.704 165.802C131.994 165.683 132.244 165.531 132.457 165.345C132.675 165.157 132.856 164.921 133 164.637C133.146 164.359 133.26 164.027 133.341 163.642C133.422 163.257 133.471 162.811 133.489 162.304L126.143 154.72L127.932 153.986L132.689 159.043L133.728 160.264L133.659 158.603L133.335 151.769L135.06 151.061ZM157.066 147.244C157.355 147.949 157.521 148.637 157.565 149.309C157.606 149.975 157.526 150.595 157.326 151.17C157.123 151.739 156.801 152.251 156.362 152.706C155.92 153.155 155.358 153.519 154.678 153.798C154.027 154.065 153.402 154.205 152.803 154.219C152.207 154.224 151.648 154.106 151.126 153.862C150.61 153.617 150.137 153.244 149.707 152.745C149.283 152.244 148.916 151.616 148.607 150.864C148.318 150.159 148.154 149.477 148.115 148.817C148.074 148.151 148.155 147.534 148.358 146.965C148.559 146.39 148.88 145.878 149.322 145.429C149.762 144.975 150.322 144.607 151.002 144.328C151.653 144.061 152.276 143.925 152.872 143.92C153.472 143.906 154.029 144.022 154.545 144.267C155.065 144.505 155.537 144.874 155.961 145.376C156.391 145.875 156.759 146.498 157.066 147.244ZM155.487 147.977C155.257 147.417 154.994 146.955 154.697 146.591C154.403 146.219 154.085 145.941 153.743 145.758C153.398 145.569 153.031 145.473 152.643 145.47C152.258 145.459 151.864 145.537 151.461 145.702C150.991 145.895 150.626 146.154 150.365 146.479C150.108 146.796 149.934 147.152 149.843 147.548C149.759 147.942 149.749 148.365 149.815 148.816C149.884 149.259 150.01 149.704 150.193 150.149C150.423 150.71 150.685 151.176 150.978 151.548C151.278 151.918 151.6 152.197 151.945 152.386C152.287 152.569 152.651 152.666 153.036 152.677C153.418 152.682 153.813 152.601 154.223 152.433C154.693 152.24 155.056 151.985 155.313 151.669C155.574 151.344 155.747 150.984 155.831 150.59C155.922 150.194 155.933 149.775 155.864 149.332C155.798 148.88 155.673 148.428 155.487 147.977ZM164.644 136.312C163.748 136.476 163.001 136.68 162.405 136.925C160.989 137.506 160.586 138.537 161.194 140.019L161.846 141.609L165.822 139.977L166.359 141.287L162.384 142.919L165.028 149.36L163.429 150.017L160.785 143.575L157.867 144.773L157.329 143.463L160.247 142.265L159.632 140.765C158.641 138.35 159.404 136.626 161.921 135.593C162.548 135.336 163.27 135.124 164.088 134.957L164.644 136.312ZM185.924 130.186L186.164 139.567C186.183 140.523 186.143 141.37 186.045 142.107C185.952 142.842 185.782 143.482 185.534 144.027C185.289 144.578 184.962 145.043 184.555 145.421C184.147 145.8 183.645 146.111 183.049 146.356C182.892 146.42 182.749 146.475 182.62 146.521C182.491 146.567 182.349 146.615 182.194 146.665L181.608 145.237C181.748 145.201 181.899 145.156 182.06 145.104C182.224 145.058 182.393 144.999 182.568 144.927C182.857 144.809 183.108 144.657 183.32 144.471C183.539 144.283 183.72 144.047 183.863 143.762C184.01 143.484 184.123 143.153 184.205 142.767C184.286 142.382 184.335 141.936 184.352 141.43L177.007 133.846L178.796 133.112L183.552 138.169L184.591 139.389L184.522 137.729L184.198 130.895L185.924 130.186ZM197.756 130.545C198.046 131.25 198.212 131.938 198.256 132.61C198.297 133.275 198.217 133.896 198.016 134.471C197.814 135.039 197.492 135.551 197.053 136.006C196.611 136.455 196.049 136.819 195.369 137.098C194.718 137.365 194.093 137.506 193.494 137.52C192.898 137.525 192.339 137.406 191.817 137.163C191.301 136.917 190.827 136.545 190.397 136.046C189.973 135.544 189.607 134.917 189.298 134.164C189.009 133.459 188.845 132.777 188.806 132.117C188.765 131.452 188.846 130.834 189.049 130.265C189.25 129.691 189.571 129.179 190.013 128.73C190.453 128.275 191.013 127.908 191.693 127.629C192.344 127.362 192.967 127.225 193.563 127.22C194.163 127.206 194.72 127.322 195.236 127.568C195.756 127.805 196.228 128.174 196.652 128.676C197.082 129.175 197.45 129.798 197.756 130.545ZM196.178 131.277C195.948 130.717 195.685 130.255 195.388 129.891C195.094 129.519 194.776 129.242 194.434 129.058C194.089 128.869 193.722 128.773 193.334 128.771C192.949 128.76 192.555 128.837 192.152 129.003C191.682 129.195 191.317 129.454 191.056 129.78C190.799 130.096 190.625 130.453 190.534 130.849C190.449 131.242 190.44 131.665 190.506 132.117C190.575 132.56 190.701 133.004 190.884 133.45C191.114 134.01 191.375 134.476 191.669 134.848C191.968 135.218 192.291 135.497 192.636 135.687C192.978 135.87 193.342 135.967 193.726 135.978C194.109 135.983 194.504 135.901 194.914 135.733C195.384 135.541 195.747 135.286 196.004 134.969C196.265 134.644 196.438 134.285 196.522 133.891C196.613 133.495 196.624 133.075 196.555 132.632C196.489 132.18 196.363 131.729 196.178 131.277ZM209.215 131.226L207.805 131.804L207.151 130.363C207.008 130.787 206.857 131.156 206.696 131.468C206.539 131.772 206.366 132.036 206.177 132.261C205.988 132.487 205.78 132.674 205.553 132.824C205.334 132.977 205.09 133.109 204.819 133.22C203.885 133.603 203.068 133.618 202.367 133.266C201.666 132.913 201.089 132.182 200.634 131.074L198.202 125.148L199.774 124.502L202.154 130.302C202.725 131.694 203.534 132.174 204.582 131.744C204.775 131.665 204.951 131.561 205.109 131.433C205.271 131.296 205.423 131.118 205.565 130.898C205.71 130.669 205.848 130.387 205.978 130.053C206.114 129.715 206.251 129.304 206.39 128.817L203.92 122.801L205.492 122.155L209.215 131.226ZM208.745 120.821L210.181 120.231L210.912 121.884C211.184 121.019 211.519 120.336 211.919 119.835C212.324 119.331 212.792 118.97 213.322 118.752C214.261 118.367 215.097 118.379 215.828 118.79C216.566 119.198 217.162 120.009 217.618 121.222L216.028 121.875C215.72 121.072 215.366 120.545 214.968 120.294C214.572 120.034 214.134 120.002 213.652 120.2C213.441 120.287 213.243 120.414 213.059 120.581C212.878 120.74 212.707 120.95 212.547 121.213C212.391 121.467 212.24 121.775 212.093 122.138C211.947 122.501 211.804 122.925 211.666 123.411L214.057 129.239L212.467 129.891L208.745 120.821ZM61.1533 202.365L58.47 203.466L57.9398 202.174L62.2131 200.42L66.9145 211.876L69.6158 210.767L70.1534 212.077L62.8807 215.062L62.3431 213.752L65.3244 212.529L61.1533 202.365ZM78.9501 203.084C79.2393 203.788 79.4057 204.477 79.4492 205.148C79.4902 205.814 79.4105 206.435 79.2101 207.009C79.0072 207.578 78.686 208.09 78.2463 208.545C77.8042 208.994 77.2429 209.358 76.5623 209.637C75.9118 209.904 75.2868 210.045 74.6872 210.058C74.0913 210.064 73.5322 209.945 73.0102 209.702C72.4942 209.456 72.0212 209.084 71.5911 208.584C71.1671 208.083 70.8006 207.456 70.4917 206.703C70.2025 205.998 70.0386 205.316 70 204.656C69.959 203.99 70.04 203.373 70.2428 202.804C70.4432 202.229 70.7645 201.717 71.2066 201.269C71.6462 200.814 72.2063 200.447 72.8869 200.167C73.5374 199.9 74.1606 199.764 74.7566 199.759C75.3562 199.745 75.914 199.861 76.43 200.107C76.9496 200.344 77.4213 200.713 77.8453 201.215C78.2754 201.714 78.6436 202.337 78.9501 203.084ZM77.3717 203.816C77.1418 203.256 76.8783 202.794 76.5813 202.43C76.2878 202.058 75.9698 201.78 75.6272 201.597C75.2822 201.408 74.9156 201.312 74.5275 201.31C74.1429 201.299 73.7489 201.376 73.3453 201.541C72.8755 201.734 72.5103 201.993 72.2497 202.318C71.9926 202.635 71.8186 202.991 71.7279 203.388C71.6431 203.781 71.6336 204.204 71.6993 204.655C71.7685 205.099 71.8946 205.543 72.0775 205.989C72.3074 206.549 72.5691 207.015 72.8626 207.387C73.1621 207.757 73.4844 208.036 73.8294 208.225C74.172 208.408 74.5355 208.506 74.9201 208.517C75.3022 208.522 75.698 208.44 76.1076 208.272C76.5774 208.079 76.9408 207.825 77.1979 207.508C77.4586 207.183 77.6313 206.823 77.716 206.43C77.8068 206.034 77.8175 205.614 77.7483 205.171C77.6826 204.719 77.5571 204.268 77.3717 203.816ZM90.0274 203.531C89.6821 203.855 89.3075 204.143 88.9035 204.393C88.508 204.647 88.0814 204.868 87.6236 205.055C86.1902 205.644 84.9255 205.709 83.8297 205.251C82.7399 204.79 81.8885 203.813 81.2755 202.319C80.9813 201.603 80.8258 200.906 80.8089 200.231C80.792 199.555 80.9 198.927 81.133 198.345C81.366 197.764 81.7168 197.247 82.1855 196.795C82.6517 196.336 83.2221 195.968 83.8966 195.691C84.3664 195.498 84.8197 195.351 85.2564 195.249C85.6932 195.147 86.1292 195.095 86.5644 195.092L87.1799 196.592C86.7043 196.548 86.2432 196.565 85.7966 196.643C85.3535 196.712 84.9152 196.835 84.4815 197.013C84.078 197.179 83.7276 197.414 83.4305 197.719C83.137 198.016 82.914 198.364 82.7616 198.764C82.6092 199.165 82.54 199.605 82.554 200.085C82.5679 200.564 82.6824 201.066 82.8975 201.59C83.3474 202.687 83.9498 203.4 84.7047 203.73C85.4632 204.053 86.3153 204.02 87.2609 203.631C87.6885 203.456 88.0813 203.238 88.4393 202.979C88.8033 202.717 89.1324 202.413 89.4267 202.067L90.0274 203.531ZM99.1177 200.191L98.581 198.986C98.2873 199.676 97.929 200.235 97.506 200.662C97.0891 201.086 96.6006 201.414 96.0404 201.643C95.5225 201.856 95.0526 201.971 94.6308 201.99C94.209 202.008 93.8307 201.952 93.4959 201.822C93.1646 201.684 92.8774 201.481 92.6345 201.215C92.3975 200.946 92.2037 200.628 92.0529 200.261C91.6796 199.351 91.7252 198.502 92.1897 197.713C92.6577 196.916 93.5543 196.246 94.8793 195.702L96.7585 194.931L96.4322 194.136C96.2122 193.6 95.865 193.242 95.3907 193.064C94.9139 192.88 94.3232 192.932 93.6185 193.221C93.1066 193.431 92.6241 193.696 92.1712 194.016C91.7243 194.333 91.2791 194.706 90.8356 195.134L90.2534 193.716C90.4225 193.562 90.6139 193.402 90.8277 193.237C91.045 193.064 91.278 192.894 91.5268 192.729C91.7756 192.563 92.0413 192.405 92.3241 192.254C92.6044 192.096 92.8951 191.956 93.1963 191.832C93.7443 191.607 94.2629 191.465 94.752 191.405C95.2412 191.345 95.687 191.377 96.0895 191.5C96.498 191.621 96.8602 191.835 97.176 192.141C97.4919 192.448 97.7537 192.854 97.9613 193.36L100.527 199.612L99.1177 200.191ZM97.2516 196.132L95.255 196.952C94.8635 197.112 94.5423 197.29 94.2913 197.484C94.0404 197.679 93.8542 197.885 93.7329 198.104C93.6115 198.323 93.5477 198.553 93.5414 198.795C93.5386 199.028 93.5891 199.271 93.693 199.524C93.7646 199.699 93.861 199.857 93.9819 199.997C94.1004 200.131 94.2458 200.237 94.4182 200.314C94.5881 200.385 94.7842 200.417 95.0066 200.41C95.229 200.404 95.4787 200.343 95.7558 200.23C96.1171 200.081 96.4852 199.804 96.86 199.396C97.2383 198.981 97.5889 198.429 97.9116 197.74L97.2516 196.132ZM101.844 185.665L99.1609 186.767L98.6307 185.475L102.904 183.721L107.605 195.177L110.307 194.068L110.844 195.378L103.572 198.363L103.034 197.053L106.015 195.829L101.844 185.665ZM130.277 187.403L127.604 180.889C127.488 180.606 127.381 180.379 127.282 180.208C127.19 180.035 127.099 179.907 127.009 179.824C126.922 179.733 126.834 179.681 126.744 179.669C126.661 179.654 126.568 179.667 126.465 179.709C126.345 179.759 126.248 179.841 126.176 179.955C126.103 180.069 126.04 180.232 125.986 180.444C125.938 180.654 125.898 180.924 125.865 181.254C125.835 181.576 125.804 181.972 125.772 182.443L128.163 188.27L126.727 188.86L124.124 182.518C123.988 182.186 123.866 181.923 123.758 181.728C123.656 181.531 123.557 181.385 123.462 181.29C123.373 181.193 123.283 181.138 123.194 181.126C123.104 181.113 123.008 181.128 122.906 181.17C122.798 181.215 122.707 181.287 122.636 181.387C122.564 181.486 122.5 181.639 122.444 181.845C122.394 182.049 122.352 182.316 122.319 182.646C122.286 182.976 122.256 183.393 122.23 183.896L124.622 189.724L123.176 190.317L119.454 181.246L120.655 180.753L121.436 182.449C121.451 182.042 121.482 181.688 121.528 181.387C121.579 181.085 121.654 180.829 121.751 180.62C121.846 180.405 121.967 180.229 122.115 180.091C122.266 179.944 122.45 179.827 122.666 179.738C123.154 179.538 123.59 179.545 123.974 179.761C124.358 179.976 124.687 180.418 124.962 181.086C124.978 180.714 125.006 180.379 125.045 180.081C125.082 179.777 125.146 179.512 125.236 179.285C125.329 179.05 125.455 178.85 125.613 178.687C125.769 178.517 125.973 178.381 126.226 178.277C127.364 177.81 128.293 178.453 129.012 180.205L131.723 186.809L130.277 187.403ZM139.809 183.491L139.272 182.286C138.978 182.977 138.62 183.535 138.197 183.962C137.78 184.387 137.291 184.714 136.731 184.944C136.213 185.156 135.743 185.272 135.322 185.29C134.9 185.308 134.522 185.253 134.187 185.123C133.855 184.984 133.568 184.782 133.325 184.515C133.088 184.247 132.895 183.929 132.744 183.561C132.371 182.652 132.416 181.803 132.881 181.014C133.349 180.217 134.245 179.546 135.57 179.002L137.449 178.231L137.123 177.436C136.903 176.9 136.556 176.543 136.082 176.365C135.605 176.18 135.014 176.233 134.309 176.522C133.797 176.732 133.315 176.997 132.862 177.316C132.415 177.633 131.97 178.006 131.526 178.435L130.944 177.016C131.113 176.862 131.305 176.703 131.519 176.538C131.736 176.364 131.969 176.195 132.218 176.029C132.466 175.864 132.732 175.705 133.015 175.554C133.295 175.397 133.586 175.256 133.887 175.133C134.435 174.908 134.954 174.765 135.443 174.705C135.932 174.645 136.378 174.677 136.78 174.8C137.189 174.921 137.551 175.135 137.867 175.442C138.183 175.749 138.445 176.155 138.652 176.661L141.218 182.913L139.809 183.491ZM137.942 179.433L135.946 180.252C135.554 180.413 135.233 180.59 134.982 180.785C134.731 180.979 134.545 181.186 134.424 181.405C134.302 181.623 134.239 181.854 134.232 182.095C134.23 182.329 134.28 182.572 134.384 182.825C134.456 183 134.552 183.157 134.673 183.297C134.791 183.432 134.937 183.537 135.109 183.615C135.279 183.686 135.475 183.718 135.698 183.711C135.92 183.704 136.17 183.644 136.447 183.53C136.808 183.382 137.176 183.104 137.551 182.697C137.929 182.281 138.28 181.729 138.602 181.041L137.942 179.433ZM151.064 178.481C150.718 178.806 150.344 179.093 149.94 179.344C149.544 179.597 149.118 179.818 148.66 180.006C147.227 180.594 145.962 180.66 144.866 180.201C143.776 179.741 142.925 178.764 142.312 177.27C142.018 176.553 141.862 175.857 141.845 175.181C141.828 174.506 141.936 173.877 142.169 173.296C142.402 172.715 142.753 172.198 143.222 171.745C143.688 171.286 144.258 170.919 144.933 170.642C145.403 170.449 145.856 170.302 146.293 170.2C146.73 170.098 147.166 170.046 147.601 170.043L148.216 171.543C147.741 171.499 147.28 171.516 146.833 171.593C146.39 171.663 145.952 171.786 145.518 171.964C145.114 172.13 144.764 172.365 144.467 172.67C144.173 172.966 143.95 173.315 143.798 173.715C143.646 174.115 143.576 174.555 143.59 175.035C143.604 175.515 143.719 176.017 143.934 176.541C144.384 177.637 144.986 178.351 145.741 178.681C146.5 179.003 147.352 178.97 148.297 178.582C148.725 178.407 149.118 178.189 149.476 177.93C149.84 177.668 150.169 177.364 150.463 177.018L151.064 178.481ZM161.618 174.541L160.046 175.186L157.669 169.395C157.382 168.696 157.036 168.229 156.63 167.995C156.228 167.752 155.783 167.73 155.295 167.931C155.084 168.017 154.898 168.129 154.736 168.266C154.577 168.394 154.428 168.571 154.289 168.797C154.147 169.017 154.008 169.296 153.872 169.633C153.736 169.971 153.588 170.383 153.429 170.871L155.899 176.888L154.327 177.533L149.088 164.767L150.66 164.122L152.176 167.817L152.708 169.267C152.834 168.87 152.973 168.524 153.127 168.229C153.283 167.926 153.453 167.662 153.636 167.439C153.825 167.214 154.032 167.024 154.257 166.868C154.482 166.713 154.726 166.58 154.992 166.472C155.895 166.101 156.707 166.091 157.429 166.443C158.147 166.788 158.734 167.515 159.189 168.623L161.618 174.541ZM164.401 164.32L161.717 165.421L161.184 164.12L165.457 162.367L168.642 170.127L171.343 169.019L171.881 170.329L164.608 173.313L164.07 172.003L167.052 170.78L164.401 164.32ZM162.857 158.99C163.032 158.918 163.208 158.884 163.386 158.889C163.561 158.887 163.726 158.921 163.882 158.991C164.043 159.059 164.185 159.155 164.307 159.281C164.432 159.399 164.531 159.545 164.603 159.719C164.672 159.888 164.704 160.061 164.7 160.239C164.701 160.414 164.668 160.583 164.601 160.744C164.539 160.903 164.447 161.046 164.324 161.174C164.198 161.296 164.048 161.393 163.873 161.465C163.698 161.537 163.523 161.573 163.348 161.575C163.17 161.57 163.001 161.534 162.839 161.467C162.684 161.397 162.542 161.3 162.414 161.177C162.292 161.051 162.196 160.904 162.127 160.735C162.055 160.561 162.02 160.389 162.021 160.219C162.025 160.042 162.058 159.873 162.12 159.714C162.187 159.553 162.284 159.411 162.41 159.289C162.533 159.161 162.682 159.061 162.857 158.99ZM170.95 160.112L172.35 159.538L173.014 160.975C173.15 160.553 173.3 160.189 173.463 159.883C173.623 159.571 173.795 159.303 173.978 159.081C174.167 158.855 174.375 158.668 174.602 158.518C174.827 158.363 175.072 158.231 175.337 158.122C176.271 157.739 177.089 157.727 177.792 158.085C178.499 158.436 179.08 159.165 179.534 160.273L181.963 166.191L180.391 166.836L178.014 161.045C177.723 160.334 177.375 159.865 176.972 159.636C176.566 159.401 176.101 159.392 175.577 159.607C175.384 159.686 175.207 159.794 175.045 159.931C174.886 160.059 174.737 160.236 174.598 160.462C174.456 160.682 174.317 160.961 174.181 161.299C174.051 161.633 173.916 162.041 173.775 162.521L176.244 168.538L174.672 169.183L170.95 160.112ZM190.448 156.85C190.54 157.073 190.613 157.261 190.669 157.414C190.725 157.567 190.774 157.712 190.816 157.849L184.447 160.463C184.828 161.391 185.38 161.998 186.103 162.286C186.824 162.567 187.672 162.507 188.647 162.107C188.912 161.998 189.174 161.88 189.431 161.753C189.686 161.621 189.93 161.485 190.162 161.348C190.394 161.211 190.613 161.075 190.819 160.941C191.028 160.799 191.218 160.662 191.388 160.528L191.918 161.82C191.54 162.116 191.095 162.411 190.582 162.706C190.078 163.004 189.537 163.272 188.959 163.51C188.182 163.828 187.47 163.997 186.824 164.016C186.177 164.036 185.592 163.92 185.067 163.671C184.546 163.414 184.08 163.031 183.668 162.525C183.259 162.01 182.904 161.385 182.603 160.65C182.341 160.012 182.184 159.372 182.132 158.732C182.084 158.083 182.147 157.473 182.321 156.902C182.498 156.323 182.791 155.802 183.199 155.339C183.607 154.876 184.136 154.511 184.787 154.244C185.419 153.984 186.02 153.854 186.59 153.852C187.159 153.851 187.685 153.966 188.167 154.197C188.652 154.42 189.087 154.759 189.471 155.214C189.858 155.66 190.184 156.205 190.448 156.85ZM188.72 157.295C188.573 156.884 188.383 156.533 188.151 156.241C187.916 155.943 187.647 155.716 187.343 155.559C187.045 155.4 186.719 155.316 186.363 155.307C186.005 155.292 185.628 155.366 185.23 155.529C184.887 155.67 184.601 155.865 184.372 156.113C184.143 156.362 183.976 156.649 183.87 156.974C183.764 157.299 183.717 157.656 183.729 158.045C183.741 158.434 183.815 158.837 183.95 159.253L188.72 157.295ZM197.418 156.523C197.623 156.439 197.832 156.399 198.045 156.403C198.264 156.405 198.468 156.447 198.657 156.532C198.852 156.613 199.028 156.731 199.183 156.886C199.335 157.035 199.454 157.214 199.541 157.425C199.625 157.63 199.665 157.839 199.661 158.051C199.657 158.264 199.614 158.468 199.532 158.664C199.454 158.851 199.338 159.021 199.183 159.176C199.035 159.329 198.858 159.447 198.653 159.531C198.442 159.618 198.23 159.659 198.018 159.655C197.805 159.651 197.602 159.611 197.409 159.535C197.22 159.451 197.049 159.335 196.896 159.186C196.744 159.037 196.626 158.861 196.542 158.656C196.455 158.445 196.414 158.233 196.418 158.021C196.42 157.802 196.458 157.596 196.534 157.403C196.616 157.208 196.731 157.034 196.879 156.881C197.028 156.729 197.208 156.609 197.418 156.523Z" fill="white"/>
</svg>
