<svg width="458" height="458" viewBox="0 0 458 458" fill="none" xmlns="http://www.w3.org/2000/svg">
<rect x="138.005" y="54.5" width="182.265" height="95.2699" rx="11.5" fill="#031959" stroke="#E8F2FF"/>
<path d="M173.062 114.84H171.829C171.756 114.485 171.628 114.174 171.446 113.905C171.267 113.637 171.048 113.411 170.79 113.229C170.535 113.043 170.251 112.904 169.94 112.811C169.628 112.719 169.303 112.672 168.965 112.672C168.349 112.672 167.79 112.828 167.29 113.14C166.793 113.451 166.397 113.91 166.102 114.517C165.81 115.123 165.664 115.867 165.664 116.749C165.664 117.631 165.81 118.375 166.102 118.981C166.397 119.588 166.793 120.047 167.29 120.358C167.79 120.67 168.349 120.826 168.965 120.826C169.303 120.826 169.628 120.779 169.94 120.686C170.251 120.594 170.535 120.456 170.79 120.274C171.048 120.088 171.267 119.861 171.446 119.593C171.628 119.321 171.756 119.009 171.829 118.658H173.062C172.969 119.178 172.8 119.644 172.555 120.055C172.31 120.466 172.005 120.816 171.64 121.104C171.275 121.389 170.866 121.606 170.412 121.755C169.961 121.904 169.479 121.979 168.965 121.979C168.097 121.979 167.325 121.767 166.649 121.343C165.972 120.918 165.44 120.315 165.053 119.533C164.665 118.751 164.471 117.823 164.471 116.749C164.471 115.675 164.665 114.747 165.053 113.965C165.44 113.183 165.972 112.579 166.649 112.155C167.325 111.731 168.097 111.519 168.965 111.519C169.479 111.519 169.961 111.593 170.412 111.743C170.866 111.892 171.275 112.11 171.64 112.399C172.005 112.684 172.31 113.032 172.555 113.443C172.8 113.85 172.969 114.316 173.062 114.84ZM177.997 121.999C177.308 121.999 176.703 121.835 176.183 121.507C175.666 121.179 175.261 120.72 174.97 120.13C174.681 119.54 174.537 118.85 174.537 118.061C174.537 117.266 174.681 116.572 174.97 115.978C175.261 115.385 175.666 114.924 176.183 114.596C176.703 114.268 177.308 114.104 177.997 114.104C178.687 114.104 179.29 114.268 179.807 114.596C180.327 114.924 180.732 115.385 181.02 115.978C181.312 116.572 181.458 117.266 181.458 118.061C181.458 118.85 181.312 119.54 181.02 120.13C180.732 120.72 180.327 121.179 179.807 121.507C179.29 121.835 178.687 121.999 177.997 121.999ZM177.997 120.945C178.521 120.945 178.952 120.811 179.29 120.542C179.628 120.274 179.878 119.921 180.041 119.483C180.203 119.046 180.284 118.572 180.284 118.061C180.284 117.551 180.203 117.075 180.041 116.635C179.878 116.194 179.628 115.837 179.29 115.566C178.952 115.294 178.521 115.158 177.997 115.158C177.474 115.158 177.043 115.294 176.705 115.566C176.367 115.837 176.117 116.194 175.954 116.635C175.792 117.075 175.71 117.551 175.71 118.061C175.71 118.572 175.792 119.046 175.954 119.483C176.117 119.921 176.367 120.274 176.705 120.542C177.043 120.811 177.474 120.945 177.997 120.945ZM184.422 117.246V121.84H183.249V114.203H184.382V115.397H184.482C184.661 115.009 184.932 114.697 185.297 114.462C185.662 114.223 186.132 114.104 186.709 114.104C187.226 114.104 187.678 114.21 188.066 114.422C188.454 114.631 188.756 114.949 188.971 115.377C189.186 115.801 189.294 116.338 189.294 116.988V121.84H188.121V117.067C188.121 116.467 187.965 116 187.653 115.665C187.342 115.327 186.914 115.158 186.371 115.158C185.996 115.158 185.662 115.239 185.367 115.402C185.075 115.564 184.845 115.801 184.676 116.113C184.506 116.424 184.422 116.802 184.422 117.246ZM194.54 121.999C193.824 121.999 193.208 121.83 192.691 121.492C192.174 121.154 191.776 120.688 191.498 120.095C191.219 119.502 191.08 118.824 191.08 118.061C191.08 117.286 191.223 116.601 191.508 116.008C191.796 115.412 192.197 114.946 192.711 114.611C193.228 114.273 193.831 114.104 194.521 114.104C195.057 114.104 195.541 114.203 195.972 114.402C196.403 114.601 196.756 114.88 197.031 115.238C197.306 115.596 197.477 116.013 197.543 116.49H196.37C196.28 116.142 196.082 115.834 195.773 115.566C195.468 115.294 195.057 115.158 194.54 115.158C194.083 115.158 193.682 115.277 193.337 115.516C192.996 115.751 192.729 116.084 192.537 116.515C192.348 116.943 192.253 117.445 192.253 118.022C192.253 118.612 192.346 119.125 192.532 119.563C192.721 120 192.986 120.34 193.327 120.582C193.672 120.824 194.076 120.945 194.54 120.945C194.845 120.945 195.122 120.892 195.371 120.786C195.619 120.68 195.83 120.527 196.002 120.328C196.174 120.13 196.297 119.891 196.37 119.613H197.543C197.477 120.063 197.313 120.469 197.051 120.831C196.793 121.189 196.449 121.474 196.022 121.686C195.598 121.895 195.104 121.999 194.54 121.999ZM204.071 118.718V114.203H205.244V121.84H204.071V120.547H203.991C203.812 120.935 203.534 121.265 203.156 121.537C202.778 121.805 202.301 121.939 201.724 121.939C201.247 121.939 200.823 121.835 200.452 121.626C200.08 121.414 199.789 121.096 199.577 120.672C199.364 120.244 199.258 119.705 199.258 119.056V114.203H200.432V118.976C200.432 119.533 200.588 119.977 200.899 120.309C201.214 120.64 201.615 120.806 202.102 120.806C202.394 120.806 202.69 120.731 202.992 120.582C203.297 120.433 203.552 120.204 203.758 119.896C203.967 119.588 204.071 119.195 204.071 118.718ZM207.393 121.84V114.203H208.527V115.357H208.606C208.745 114.979 208.997 114.672 209.362 114.437C209.727 114.202 210.138 114.084 210.595 114.084C210.681 114.084 210.789 114.086 210.918 114.089C211.047 114.092 211.145 114.097 211.211 114.104V115.297C211.172 115.287 211.08 115.272 210.938 115.252C210.799 115.229 210.651 115.218 210.495 115.218C210.124 115.218 209.793 115.296 209.501 115.451C209.213 115.604 208.984 115.816 208.815 116.088C208.649 116.356 208.566 116.663 208.566 117.007V121.84H207.393ZM212.602 121.84V114.203H213.736V115.357H213.815C213.954 114.979 214.206 114.672 214.571 114.437C214.936 114.202 215.347 114.084 215.804 114.084C215.89 114.084 215.998 114.086 216.127 114.089C216.256 114.092 216.354 114.097 216.42 114.104V115.297C216.381 115.287 216.289 115.272 216.147 115.252C216.008 115.229 215.86 115.218 215.704 115.218C215.333 115.218 215.002 115.296 214.71 115.451C214.422 115.604 214.193 115.816 214.024 116.088C213.858 116.356 213.775 116.663 213.775 117.007V121.84H212.602ZM220.78 121.999C220.045 121.999 219.41 121.837 218.876 121.512C218.346 121.184 217.937 120.726 217.648 120.14C217.363 119.55 217.221 118.864 217.221 118.081C217.221 117.299 217.363 116.61 217.648 116.013C217.937 115.413 218.338 114.946 218.851 114.611C219.369 114.273 219.972 114.104 220.661 114.104C221.059 114.104 221.452 114.17 221.839 114.303C222.227 114.435 222.58 114.651 222.898 114.949C223.217 115.244 223.47 115.635 223.659 116.123C223.848 116.61 223.942 117.21 223.942 117.922V118.419H218.056V117.405H222.749C222.749 116.974 222.663 116.59 222.491 116.252C222.322 115.914 222.08 115.647 221.765 115.451C221.453 115.256 221.085 115.158 220.661 115.158C220.194 115.158 219.789 115.274 219.448 115.506C219.11 115.735 218.85 116.033 218.668 116.401C218.485 116.769 218.394 117.163 218.394 117.584V118.26C218.394 118.837 218.494 119.326 218.692 119.727C218.895 120.125 219.175 120.428 219.533 120.637C219.891 120.842 220.306 120.945 220.78 120.945C221.089 120.945 221.367 120.902 221.616 120.816C221.868 120.726 222.085 120.594 222.267 120.418C222.449 120.239 222.59 120.017 222.69 119.752L223.823 120.07C223.704 120.454 223.503 120.792 223.222 121.084C222.94 121.373 222.592 121.598 222.177 121.76C221.763 121.919 221.297 121.999 220.78 121.999ZM226.9 117.246V121.84H225.727V114.203H226.861V115.397H226.96C227.139 115.009 227.411 114.697 227.775 114.462C228.14 114.223 228.611 114.104 229.187 114.104C229.704 114.104 230.157 114.21 230.545 114.422C230.932 114.631 231.234 114.949 231.449 115.377C231.665 115.801 231.773 116.338 231.773 116.988V121.84H230.599V117.067C230.599 116.467 230.444 116 230.132 115.665C229.82 115.327 229.393 115.158 228.849 115.158C228.475 115.158 228.14 115.239 227.845 115.402C227.553 115.564 227.323 115.801 227.154 116.113C226.985 116.424 226.9 116.802 226.9 117.246ZM237.238 114.203V115.198H233.28V114.203H237.238ZM234.434 112.374H235.607V119.652C235.607 119.984 235.655 120.232 235.751 120.398C235.851 120.56 235.977 120.67 236.129 120.726C236.285 120.779 236.449 120.806 236.621 120.806C236.75 120.806 236.857 120.799 236.939 120.786C237.022 120.769 237.089 120.756 237.138 120.746L237.377 121.8C237.297 121.83 237.186 121.86 237.044 121.89C236.901 121.923 236.721 121.939 236.502 121.939C236.17 121.939 235.846 121.868 235.527 121.725C235.213 121.583 234.951 121.366 234.742 121.074C234.536 120.783 234.434 120.415 234.434 119.971V112.374ZM244.67 121.84L242.343 114.203H243.576L245.227 120.05H245.307L246.937 114.203H248.19L249.801 120.03H249.88L251.531 114.203H252.764L250.437 121.84H249.284L247.613 115.973H247.494L245.824 121.84H244.67ZM257.158 121.999C256.468 121.999 255.863 121.835 255.343 121.507C254.826 121.179 254.422 120.72 254.13 120.13C253.842 119.54 253.697 118.85 253.697 118.061C253.697 117.266 253.842 116.572 254.13 115.978C254.422 115.385 254.826 114.924 255.343 114.596C255.863 114.268 256.468 114.104 257.158 114.104C257.847 114.104 258.45 114.268 258.967 114.596C259.488 114.924 259.892 115.385 260.18 115.978C260.472 116.572 260.618 117.266 260.618 118.061C260.618 118.85 260.472 119.54 260.18 120.13C259.892 120.72 259.488 121.179 258.967 121.507C258.45 121.835 257.847 121.999 257.158 121.999ZM257.158 120.945C257.681 120.945 258.112 120.811 258.45 120.542C258.788 120.274 259.039 119.921 259.201 119.483C259.363 119.046 259.445 118.572 259.445 118.061C259.445 117.551 259.363 117.075 259.201 116.635C259.039 116.194 258.788 115.837 258.45 115.566C258.112 115.294 257.681 115.158 257.158 115.158C256.634 115.158 256.203 115.294 255.865 115.566C255.527 115.837 255.277 116.194 255.114 116.635C254.952 117.075 254.871 117.551 254.871 118.061C254.871 118.572 254.952 119.046 255.114 119.483C255.277 119.921 255.527 120.274 255.865 120.542C256.203 120.811 256.634 120.945 257.158 120.945ZM262.409 121.84V114.203H263.542V115.357H263.622C263.761 114.979 264.013 114.672 264.378 114.437C264.742 114.202 265.153 114.084 265.611 114.084C265.697 114.084 265.804 114.086 265.934 114.089C266.063 114.092 266.161 114.097 266.227 114.104V115.297C266.187 115.287 266.096 115.272 265.954 115.252C265.814 115.229 265.667 115.218 265.511 115.218C265.14 115.218 264.808 115.296 264.517 115.451C264.228 115.604 264 115.816 263.831 116.088C263.665 116.356 263.582 116.663 263.582 117.007V121.84H262.409ZM268.712 119.056L268.692 117.604H268.93L272.271 114.203H273.723L270.163 117.803H270.064L268.712 119.056ZM267.618 121.84V111.658H268.791V121.84H267.618ZM272.47 121.84L269.487 118.061L270.322 117.246L273.962 121.84H272.47ZM282.273 121.999C281.583 121.999 280.979 121.835 280.458 121.507C279.941 121.179 279.537 120.72 279.245 120.13C278.957 119.54 278.813 118.85 278.813 118.061C278.813 117.266 278.957 116.572 279.245 115.978C279.537 115.385 279.941 114.924 280.458 114.596C280.979 114.268 281.583 114.104 282.273 114.104C282.962 114.104 283.565 114.268 284.082 114.596C284.603 114.924 285.007 115.385 285.296 115.978C285.587 116.572 285.733 117.266 285.733 118.061C285.733 118.85 285.587 119.54 285.296 120.13C285.007 120.72 284.603 121.179 284.082 121.507C283.565 121.835 282.962 121.999 282.273 121.999ZM282.273 120.945C282.796 120.945 283.227 120.811 283.565 120.542C283.903 120.274 284.154 119.921 284.316 119.483C284.479 119.046 284.56 118.572 284.56 118.061C284.56 117.551 284.479 117.075 284.316 116.635C284.154 116.194 283.903 115.837 283.565 115.566C283.227 115.294 282.796 115.158 282.273 115.158C281.749 115.158 281.318 115.294 280.98 115.566C280.642 115.837 280.392 116.194 280.229 116.635C280.067 117.075 279.986 117.551 279.986 118.061C279.986 118.572 280.067 119.046 280.229 119.483C280.392 119.921 280.642 120.274 280.98 120.542C281.318 120.811 281.749 120.945 282.273 120.945ZM288.697 117.246V121.84H287.524V114.203H288.658V115.397H288.757C288.936 115.009 289.208 114.697 289.572 114.462C289.937 114.223 290.408 114.104 290.984 114.104C291.501 114.104 291.954 114.21 292.342 114.422C292.729 114.631 293.031 114.949 293.246 115.377C293.462 115.801 293.57 116.338 293.57 116.988V121.84H292.396V117.067C292.396 116.467 292.24 116 291.929 115.665C291.617 115.327 291.19 115.158 290.646 115.158C290.272 115.158 289.937 115.239 289.642 115.402C289.35 115.564 289.12 115.801 288.951 116.113C288.782 116.424 288.697 116.802 288.697 117.246ZM175.011 137.84V130.203H176.145V131.397H176.244C176.403 130.989 176.66 130.672 177.015 130.447C177.37 130.218 177.795 130.104 178.293 130.104C178.796 130.104 179.216 130.218 179.55 130.447C179.888 130.672 180.152 130.989 180.341 131.397H180.42C180.616 131.002 180.909 130.689 181.3 130.457C181.692 130.222 182.161 130.104 182.707 130.104C183.39 130.104 183.949 130.318 184.383 130.745C184.817 131.17 185.034 131.831 185.034 132.729V137.84H183.861V132.729C183.861 132.166 183.707 131.763 183.398 131.521C183.09 131.279 182.727 131.158 182.31 131.158C181.773 131.158 181.357 131.32 181.062 131.645C180.767 131.967 180.619 132.374 180.619 132.868V137.84H179.426V132.61C179.426 132.176 179.285 131.826 179.004 131.561C178.722 131.292 178.359 131.158 177.915 131.158C177.61 131.158 177.325 131.239 177.06 131.402C176.798 131.564 176.586 131.789 176.423 132.078C176.264 132.363 176.185 132.693 176.185 133.067V137.84H175.011ZM191.992 134.718V130.203H193.165V137.84H191.992V136.547H191.912C191.733 136.935 191.455 137.265 191.077 137.537C190.699 137.805 190.222 137.939 189.645 137.939C189.168 137.939 188.744 137.835 188.373 137.626C188.001 137.414 187.71 137.096 187.498 136.672C187.285 136.244 187.179 135.705 187.179 135.056V130.203H188.353V134.976C188.353 135.533 188.508 135.977 188.82 136.309C189.135 136.64 189.536 136.806 190.023 136.806C190.315 136.806 190.611 136.731 190.913 136.582C191.218 136.433 191.473 136.204 191.679 135.896C191.887 135.588 191.992 135.195 191.992 134.718ZM196.487 127.658V137.84H195.314V127.658H196.487ZM201.957 130.203V131.198H198V130.203H201.957ZM199.153 128.374H200.327V135.652C200.327 135.984 200.375 136.232 200.471 136.398C200.57 136.56 200.696 136.67 200.849 136.726C201.004 136.779 201.169 136.806 201.341 136.806C201.47 136.806 201.576 136.799 201.659 136.786C201.742 136.769 201.808 136.756 201.858 136.746L202.097 137.8C202.017 137.83 201.906 137.86 201.763 137.89C201.621 137.923 201.44 137.939 201.222 137.939C200.89 137.939 200.565 137.868 200.247 137.725C199.932 137.583 199.67 137.366 199.462 137.074C199.256 136.783 199.153 136.415 199.153 135.971V128.374ZM203.722 137.84V130.203H204.896V137.84H203.722ZM204.319 128.931C204.09 128.931 203.893 128.853 203.727 128.697C203.565 128.541 203.484 128.354 203.484 128.135C203.484 127.917 203.565 127.729 203.727 127.574C203.893 127.418 204.09 127.34 204.319 127.34C204.548 127.34 204.743 127.418 204.906 127.574C205.071 127.729 205.154 127.917 205.154 128.135C205.154 128.354 205.071 128.541 204.906 128.697C204.743 128.853 204.548 128.931 204.319 128.931ZM207.045 140.703V130.203H208.178V131.417H208.317C208.403 131.284 208.523 131.115 208.675 130.909C208.831 130.701 209.053 130.515 209.341 130.353C209.633 130.187 210.028 130.104 210.525 130.104C211.168 130.104 211.734 130.265 212.225 130.586C212.715 130.908 213.098 131.364 213.373 131.953C213.648 132.543 213.786 133.239 213.786 134.042C213.786 134.85 213.648 135.551 213.373 136.145C213.098 136.734 212.717 137.192 212.23 137.517C211.743 137.838 211.181 137.999 210.545 137.999C210.054 137.999 209.661 137.918 209.366 137.755C209.071 137.59 208.844 137.402 208.685 137.194C208.526 136.981 208.403 136.806 208.317 136.667H208.218V140.703H207.045ZM208.198 134.022C208.198 134.598 208.282 135.107 208.452 135.548C208.621 135.985 208.867 136.328 209.192 136.577C209.517 136.822 209.915 136.945 210.385 136.945C210.876 136.945 211.285 136.816 211.613 136.557C211.945 136.295 212.193 135.944 212.359 135.503C212.528 135.059 212.613 134.565 212.613 134.022C212.613 133.485 212.53 133.001 212.364 132.57C212.202 132.136 211.955 131.793 211.623 131.541C211.295 131.286 210.883 131.158 210.385 131.158C209.908 131.158 209.507 131.279 209.182 131.521C208.858 131.76 208.612 132.094 208.447 132.525C208.281 132.953 208.198 133.452 208.198 134.022ZM216.749 127.658V137.84H215.576V127.658H216.749ZM222.1 137.999C221.364 137.999 220.729 137.837 220.196 137.512C219.665 137.184 219.256 136.726 218.968 136.14C218.683 135.55 218.54 134.864 218.54 134.081C218.54 133.299 218.683 132.61 218.968 132.013C219.256 131.413 219.657 130.946 220.171 130.611C220.688 130.273 221.291 130.104 221.98 130.104C222.378 130.104 222.771 130.17 223.159 130.303C223.547 130.435 223.9 130.651 224.218 130.949C224.536 131.244 224.789 131.635 224.978 132.123C225.167 132.61 225.262 133.21 225.262 133.922V134.419H219.375V133.405H224.069C224.069 132.974 223.982 132.59 223.81 132.252C223.641 131.914 223.399 131.647 223.084 131.451C222.773 131.256 222.405 131.158 221.98 131.158C221.513 131.158 221.109 131.274 220.767 131.506C220.429 131.735 220.169 132.033 219.987 132.401C219.805 132.769 219.713 133.163 219.713 133.584V134.26C219.713 134.837 219.813 135.326 220.012 135.727C220.214 136.125 220.494 136.428 220.852 136.637C221.21 136.842 221.626 136.945 222.1 136.945C222.408 136.945 222.686 136.902 222.935 136.816C223.187 136.726 223.404 136.594 223.586 136.418C223.769 136.239 223.909 136.017 224.009 135.752L225.142 136.07C225.023 136.454 224.823 136.792 224.541 137.084C224.259 137.373 223.911 137.598 223.497 137.76C223.083 137.919 222.617 137.999 222.1 137.999ZM234.385 130.203V131.198H230.268V130.203H234.385ZM231.501 137.84V129.15C231.501 128.712 231.604 128.347 231.809 128.056C232.015 127.764 232.282 127.545 232.61 127.4C232.938 127.254 233.284 127.181 233.649 127.181C233.937 127.181 234.172 127.204 234.355 127.25C234.537 127.297 234.673 127.34 234.762 127.38L234.424 128.394C234.365 128.374 234.282 128.349 234.176 128.319C234.073 128.289 233.937 128.275 233.768 128.275C233.38 128.275 233.1 128.372 232.928 128.568C232.759 128.763 232.674 129.05 232.674 129.428V137.84H231.501ZM238.916 137.999C238.18 137.999 237.546 137.837 237.012 137.512C236.482 137.184 236.072 136.726 235.784 136.14C235.499 135.55 235.357 134.864 235.357 134.081C235.357 133.299 235.499 132.61 235.784 132.013C236.072 131.413 236.473 130.946 236.987 130.611C237.504 130.273 238.107 130.104 238.797 130.104C239.195 130.104 239.587 130.17 239.975 130.303C240.363 130.435 240.716 130.651 241.034 130.949C241.352 131.244 241.606 131.635 241.795 132.123C241.984 132.61 242.078 133.21 242.078 133.922V134.419H236.192V133.405H240.885C240.885 132.974 240.799 132.59 240.626 132.252C240.457 131.914 240.215 131.647 239.901 131.451C239.589 131.256 239.221 131.158 238.797 131.158C238.33 131.158 237.925 131.274 237.584 131.506C237.246 131.735 236.986 132.033 236.803 132.401C236.621 132.769 236.53 133.163 236.53 133.584V134.26C236.53 134.837 236.629 135.326 236.828 135.727C237.03 136.125 237.31 136.428 237.668 136.637C238.026 136.842 238.442 136.945 238.916 136.945C239.224 136.945 239.503 136.902 239.751 136.816C240.003 136.726 240.22 136.594 240.403 136.418C240.585 136.239 240.726 136.017 240.825 135.752L241.959 136.07C241.839 136.454 241.639 136.792 241.357 137.084C241.076 137.373 240.728 137.598 240.313 137.76C239.899 137.919 239.433 137.999 238.916 137.999ZM246.11 138.019C245.626 138.019 245.187 137.928 244.793 137.745C244.398 137.56 244.085 137.293 243.853 136.945C243.621 136.594 243.505 136.169 243.505 135.672C243.505 135.235 243.591 134.88 243.763 134.608C243.936 134.333 244.166 134.118 244.455 133.962C244.743 133.806 245.061 133.69 245.409 133.614C245.76 133.534 246.113 133.471 246.468 133.425C246.932 133.365 247.308 133.321 247.597 133.291C247.888 133.258 248.1 133.203 248.233 133.127C248.369 133.051 248.437 132.918 248.437 132.729V132.689C248.437 132.199 248.303 131.818 248.034 131.546C247.769 131.274 247.366 131.138 246.826 131.138C246.266 131.138 245.827 131.261 245.509 131.506C245.19 131.751 244.967 132.013 244.837 132.292L243.724 131.894C243.923 131.43 244.188 131.069 244.519 130.81C244.854 130.548 245.219 130.366 245.613 130.263C246.011 130.157 246.402 130.104 246.786 130.104C247.031 130.104 247.313 130.134 247.631 130.194C247.953 130.25 248.263 130.368 248.561 130.547C248.863 130.725 249.113 130.996 249.312 131.357C249.511 131.718 249.61 132.202 249.61 132.809V137.84H248.437V136.806H248.377C248.298 136.971 248.165 137.149 247.979 137.338C247.794 137.527 247.547 137.687 247.239 137.82C246.93 137.953 246.554 138.019 246.11 138.019ZM246.289 136.965C246.753 136.965 247.144 136.874 247.462 136.691C247.784 136.509 248.026 136.274 248.188 135.985C248.354 135.697 248.437 135.394 248.437 135.076V134.002C248.387 134.061 248.278 134.116 248.109 134.166C247.943 134.212 247.751 134.254 247.532 134.29C247.317 134.323 247.106 134.353 246.901 134.38C246.698 134.403 246.534 134.423 246.408 134.439C246.103 134.479 245.818 134.544 245.553 134.633C245.291 134.719 245.079 134.85 244.917 135.026C244.758 135.198 244.678 135.434 244.678 135.732C244.678 136.14 244.829 136.448 245.131 136.657C245.436 136.862 245.822 136.965 246.289 136.965ZM255.073 130.203V131.198H251.115V130.203H255.073ZM252.269 128.374H253.442V135.652C253.442 135.984 253.49 136.232 253.586 136.398C253.686 136.56 253.811 136.67 253.964 136.726C254.12 136.779 254.284 136.806 254.456 136.806C254.585 136.806 254.691 136.799 254.774 136.786C254.857 136.769 254.923 136.756 254.973 136.746L255.212 137.8C255.132 137.83 255.021 137.86 254.879 137.89C254.736 137.923 254.556 137.939 254.337 137.939C254.005 137.939 253.681 137.868 253.362 137.725C253.048 137.583 252.786 137.366 252.577 137.074C252.371 136.783 252.269 136.415 252.269 135.971V128.374ZM261.65 134.718V130.203H262.823V137.84H261.65V136.547H261.57C261.392 136.935 261.113 137.265 260.735 137.537C260.357 137.805 259.88 137.939 259.303 137.939C258.826 137.939 258.402 137.835 258.031 137.626C257.66 137.414 257.368 137.096 257.156 136.672C256.944 136.244 256.838 135.705 256.838 135.056V130.203H258.011V134.976C258.011 135.533 258.167 135.977 258.478 136.309C258.793 136.64 259.194 136.806 259.681 136.806C259.973 136.806 260.27 136.731 260.571 136.582C260.876 136.433 261.131 136.204 261.337 135.896C261.546 135.588 261.65 135.195 261.65 134.718ZM264.972 137.84V130.203H266.106V131.357H266.185C266.325 130.979 266.576 130.672 266.941 130.437C267.306 130.202 267.717 130.084 268.174 130.084C268.26 130.084 268.368 130.086 268.497 130.089C268.626 130.092 268.724 130.097 268.79 130.104V131.297C268.751 131.287 268.66 131.272 268.517 131.252C268.378 131.229 268.23 131.218 268.075 131.218C267.703 131.218 267.372 131.296 267.08 131.451C266.792 131.604 266.563 131.816 266.394 132.088C266.228 132.356 266.146 132.663 266.146 133.007V137.84H264.972ZM273.151 137.999C272.415 137.999 271.78 137.837 271.246 137.512C270.716 137.184 270.307 136.726 270.018 136.14C269.733 135.55 269.591 134.864 269.591 134.081C269.591 133.299 269.733 132.61 270.018 132.013C270.307 131.413 270.708 130.946 271.222 130.611C271.739 130.273 272.342 130.104 273.031 130.104C273.429 130.104 273.822 130.17 274.21 130.303C274.597 130.435 274.95 130.651 275.268 130.949C275.587 131.244 275.84 131.635 276.029 132.123C276.218 132.61 276.312 133.21 276.312 133.922V134.419H270.426V133.405H275.119C275.119 132.974 275.033 132.59 274.861 132.252C274.692 131.914 274.45 131.647 274.135 131.451C273.823 131.256 273.455 131.158 273.031 131.158C272.564 131.158 272.16 131.274 271.818 131.506C271.48 131.735 271.22 132.033 271.038 132.401C270.855 132.769 270.764 133.163 270.764 133.584V134.26C270.764 134.837 270.864 135.326 271.062 135.727C271.265 136.125 271.545 136.428 271.903 136.637C272.261 136.842 272.677 136.945 273.151 136.945C273.459 136.945 273.737 136.902 273.986 136.816C274.238 136.726 274.455 136.594 274.637 136.418C274.819 136.239 274.96 136.017 275.06 135.752L276.193 136.07C276.074 136.454 275.873 136.792 275.592 137.084C275.31 137.373 274.962 137.598 274.548 137.76C274.133 137.919 273.668 137.999 273.151 137.999ZM283.506 131.914L282.452 132.212C282.386 132.036 282.288 131.866 282.159 131.7C282.033 131.531 281.861 131.392 281.642 131.282C281.423 131.173 281.143 131.118 280.802 131.118C280.335 131.118 279.945 131.226 279.634 131.441C279.325 131.654 279.171 131.924 279.171 132.252C279.171 132.543 279.277 132.774 279.489 132.943C279.701 133.112 280.033 133.253 280.484 133.365L281.617 133.644C282.3 133.81 282.809 134.063 283.143 134.404C283.478 134.743 283.646 135.178 283.646 135.712C283.646 136.15 283.52 136.541 283.268 136.885C283.019 137.23 282.671 137.502 282.224 137.701C281.776 137.9 281.256 137.999 280.663 137.999C279.884 137.999 279.239 137.83 278.729 137.492C278.218 137.154 277.895 136.66 277.759 136.01L278.873 135.732C278.979 136.143 279.179 136.451 279.474 136.657C279.773 136.862 280.162 136.965 280.643 136.965C281.19 136.965 281.624 136.849 281.945 136.617C282.27 136.382 282.433 136.1 282.433 135.772C282.433 135.507 282.34 135.284 282.154 135.105C281.969 134.923 281.683 134.787 281.299 134.698L280.026 134.4C279.327 134.234 278.813 133.977 278.485 133.629C278.16 133.278 277.998 132.838 277.998 132.311C277.998 131.881 278.119 131.499 278.361 131.168C278.606 130.837 278.939 130.576 279.36 130.387C279.784 130.199 280.265 130.104 280.802 130.104C281.558 130.104 282.151 130.27 282.582 130.601C283.016 130.933 283.324 131.37 283.506 131.914Z" fill="#E8F2FF"/>
<rect x="211.59" y="67.8857" width="35.0948" height="35.0948" rx="17.5474" fill="#E8F2FF" stroke="#E8F2FF"/>
<path d="M243.436 96.8615C240.136 92.5826 234.958 89.8262 229.136 89.8262C223.315 89.8262 218.137 92.5826 214.837 96.8615" stroke="#031959" stroke-width="1.5"/>
<rect x="222.147" y="72.1016" width="13.9792" height="13.9792" rx="6.98958" stroke="#031959" stroke-width="1.5"/>
<rect x="12.5" y="217.5" width="182.265" height="186.677" rx="11.5" fill="#031959" stroke="#E8F2FF"/>
<path d="M49.0759 357.459C49.0162 356.955 48.7743 356.564 48.35 356.286C47.9258 356.007 47.4054 355.868 46.789 355.868C46.3382 355.868 45.9438 355.941 45.6057 356.087C45.271 356.233 45.0091 356.433 44.8202 356.688C44.6346 356.943 44.5418 357.233 44.5418 357.558C44.5418 357.83 44.6064 358.064 44.7357 358.259C44.8683 358.452 45.0373 358.612 45.2428 358.742C45.4483 358.867 45.6637 358.972 45.8891 359.055C46.1145 359.134 46.3216 359.199 46.5106 359.249L47.5447 359.527C47.8098 359.597 48.1048 359.693 48.4296 359.815C48.7577 359.938 49.0709 360.105 49.3692 360.318C49.6708 360.526 49.9194 360.795 50.115 361.123C50.3105 361.451 50.4083 361.854 50.4083 362.331C50.4083 362.881 50.2641 363.378 49.9758 363.822C49.6907 364.267 49.2731 364.62 48.7229 364.881C48.176 365.143 47.5115 365.274 46.7293 365.274C46.0001 365.274 45.3688 365.157 44.8351 364.921C44.3048 364.686 43.8872 364.358 43.5823 363.937C43.2807 363.516 43.11 363.027 43.0702 362.47H44.3429C44.3761 362.855 44.5054 363.173 44.7307 363.425C44.9594 363.673 45.2478 363.859 45.5958 363.982C45.9471 364.101 46.325 364.161 46.7293 364.161C47.2 364.161 47.6225 364.084 47.9971 363.932C48.3716 363.776 48.6682 363.561 48.887 363.286C49.1057 363.007 49.2151 362.682 49.2151 362.311C49.2151 361.973 49.1206 361.698 48.9317 361.486C48.7428 361.274 48.4942 361.101 48.186 360.969C47.8777 360.836 47.5447 360.72 47.1867 360.621L45.9339 360.263C45.1384 360.034 44.5087 359.708 44.0447 359.283C43.5806 358.859 43.3486 358.304 43.3486 357.618C43.3486 357.048 43.5027 356.551 43.811 356.126C44.1225 355.699 44.5402 355.367 45.0638 355.132C45.5908 354.894 46.1791 354.774 46.8287 354.774C47.485 354.774 48.0683 354.892 48.5787 355.127C49.0892 355.359 49.4935 355.677 49.7918 356.082C50.0934 356.486 50.2525 356.945 50.2691 357.459H49.0759ZM55.3786 365.254C54.6892 365.254 54.0844 365.09 53.564 364.762C53.047 364.434 52.6426 363.975 52.3509 363.385C52.0626 362.795 51.9184 362.106 51.9184 361.317C51.9184 360.521 52.0626 359.827 52.3509 359.234C52.6426 358.64 53.047 358.18 53.564 357.852C54.0844 357.523 54.6892 357.359 55.3786 357.359C56.068 357.359 56.6712 357.523 57.1883 357.852C57.7087 358.18 58.113 358.64 58.4014 359.234C58.693 359.827 58.8389 360.521 58.8389 361.317C58.8389 362.106 58.693 362.795 58.4014 363.385C58.113 363.975 57.7087 364.434 57.1883 364.762C56.6712 365.09 56.068 365.254 55.3786 365.254ZM55.3786 364.2C55.9023 364.2 56.3332 364.066 56.6712 363.798C57.0093 363.529 57.2596 363.176 57.422 362.739C57.5844 362.301 57.6656 361.827 57.6656 361.317C57.6656 360.806 57.5844 360.331 57.422 359.89C57.2596 359.449 57.0093 359.093 56.6712 358.821C56.3332 358.549 55.9023 358.413 55.3786 358.413C54.855 358.413 54.4241 358.549 54.086 358.821C53.748 359.093 53.4977 359.449 53.3353 359.89C53.1729 360.331 53.0917 360.806 53.0917 361.317C53.0917 361.827 53.1729 362.301 53.3353 362.739C53.4977 363.176 53.748 363.529 54.086 363.798C54.4241 364.066 54.855 364.2 55.3786 364.2ZM65.4424 361.973V357.459H66.6157V365.095H65.4424V363.803H65.3628C65.1839 364.19 64.9054 364.52 64.5276 364.792C64.1498 365.06 63.6725 365.195 63.0958 365.195C62.6185 365.195 62.1943 365.09 61.8231 364.881C61.4518 364.669 61.1602 364.351 60.9481 363.927C60.7359 363.499 60.6299 362.961 60.6299 362.311V357.459H61.8032V362.232C61.8032 362.788 61.959 363.233 62.2705 363.564C62.5854 363.895 62.9864 364.061 63.4736 364.061C63.7653 364.061 64.0619 363.987 64.3635 363.837C64.6685 363.688 64.9237 363.46 65.1292 363.151C65.338 362.843 65.4424 362.45 65.4424 361.973ZM68.7646 365.095V357.459H69.8982V358.612H69.9777C70.1169 358.234 70.3688 357.928 70.7334 357.693C71.098 357.457 71.509 357.34 71.9663 357.34C72.0525 357.34 72.1602 357.341 72.2895 357.345C72.4188 357.348 72.5165 357.353 72.5828 357.359V358.553C72.5431 358.543 72.4519 358.528 72.3094 358.508C72.1702 358.485 72.0227 358.473 71.8669 358.473C71.4957 358.473 71.1643 358.551 70.8726 358.707C70.5842 358.859 70.3556 359.071 70.1865 359.343C70.0208 359.612 69.9379 359.918 69.9379 360.263V365.095H68.7646ZM76.8435 365.254C76.1276 365.254 75.5111 365.085 74.994 364.747C74.477 364.409 74.0793 363.943 73.8009 363.35C73.5225 362.757 73.3833 362.079 73.3833 361.317C73.3833 360.541 73.5258 359.857 73.8108 359.264C74.0992 358.667 74.5002 358.201 75.0139 357.867C75.531 357.528 76.1342 357.359 76.8236 357.359C77.3605 357.359 77.8444 357.459 78.2753 357.658C78.7062 357.857 79.0592 358.135 79.3342 358.493C79.6093 358.851 79.78 359.269 79.8463 359.746H78.673C78.5835 359.398 78.3847 359.09 78.0764 358.821C77.7715 358.549 77.3605 358.413 76.8435 358.413C76.3861 358.413 75.9851 358.533 75.6404 358.771C75.299 359.007 75.0322 359.34 74.8399 359.771C74.651 360.198 74.5565 360.7 74.5565 361.277C74.5565 361.867 74.6494 362.381 74.835 362.818C75.0239 363.256 75.289 363.595 75.6304 363.837C75.9751 364.079 76.3795 364.2 76.8435 364.2C77.1484 364.2 77.4252 364.147 77.6737 364.041C77.9223 363.935 78.1328 363.783 78.3051 363.584C78.4775 363.385 78.6001 363.146 78.673 362.868H79.8463C79.78 363.319 79.616 363.725 79.3541 364.086C79.0956 364.444 78.7526 364.729 78.325 364.941C77.9008 365.15 77.4069 365.254 76.8435 365.254ZM84.7632 365.254C84.0274 365.254 83.3927 365.092 82.8591 364.767C82.3288 364.439 81.9195 363.982 81.6311 363.395C81.3461 362.805 81.2036 362.119 81.2036 361.337C81.2036 360.554 81.3461 359.865 81.6311 359.269C81.9195 358.669 82.3205 358.201 82.8342 357.867C83.3513 357.528 83.9545 357.359 84.6439 357.359C85.0416 357.359 85.4344 357.426 85.8222 357.558C86.21 357.691 86.5629 357.906 86.8811 358.205C87.1993 358.5 87.4529 358.891 87.6418 359.378C87.8307 359.865 87.9252 360.465 87.9252 361.178V361.675H82.0388V360.661H86.732C86.732 360.23 86.6458 359.845 86.4735 359.507C86.3044 359.169 86.0625 358.902 85.7476 358.707C85.436 358.511 85.0681 358.413 84.6439 358.413C84.1766 358.413 83.7722 358.529 83.4308 358.761C83.0928 358.99 82.8326 359.288 82.6503 359.656C82.468 360.024 82.3769 360.419 82.3769 360.84V361.516C82.3769 362.092 82.4763 362.581 82.6752 362.982C82.8773 363.38 83.1574 363.683 83.5154 363.892C83.8733 364.098 84.2893 364.2 84.7632 364.2C85.0715 364.2 85.3499 364.157 85.5985 364.071C85.8503 363.982 86.0674 363.849 86.2497 363.673C86.432 363.494 86.5729 363.272 86.6723 363.007L87.8058 363.325C87.6865 363.71 87.486 364.048 87.2043 364.34C86.9226 364.628 86.5745 364.853 86.1602 365.016C85.7459 365.175 85.2803 365.254 84.7632 365.254ZM53.1228 381.254C52.4069 381.254 51.7904 381.085 51.2733 380.747C50.7563 380.409 50.3586 379.943 50.0802 379.35C49.8018 378.757 49.6625 378.079 49.6625 377.317C49.6625 376.541 49.8051 375.857 50.0901 375.264C50.3785 374.667 50.7795 374.201 51.2932 373.867C51.8103 373.528 52.4135 373.359 53.1029 373.359C53.6398 373.359 54.1237 373.459 54.5546 373.658C54.9855 373.857 55.3384 374.135 55.6135 374.493C55.8886 374.851 56.0593 375.269 56.1256 375.746H54.9523C54.8628 375.398 54.664 375.09 54.3557 374.821C54.0508 374.549 53.6398 374.413 53.1228 374.413C52.6654 374.413 52.2643 374.533 51.9197 374.771C51.5783 375.007 51.3115 375.34 51.1192 375.771C50.9303 376.198 50.8358 376.7 50.8358 377.277C50.8358 377.867 50.9286 378.381 51.1143 378.818C51.3032 379.256 51.5683 379.595 51.9097 379.837C52.2544 380.079 52.6588 380.2 53.1228 380.2C53.4277 380.2 53.7045 380.147 53.953 380.041C54.2016 379.935 54.4121 379.783 54.5844 379.584C54.7568 379.385 54.8794 379.146 54.9523 378.868H56.1256C56.0593 379.319 55.8953 379.725 55.6334 380.086C55.3749 380.444 55.0319 380.729 54.6043 380.941C54.1801 381.15 53.6862 381.254 53.1228 381.254ZM60.9431 381.254C60.2537 381.254 59.6488 381.09 59.1285 380.762C58.6114 380.434 58.2071 379.975 57.9154 379.385C57.627 378.795 57.4829 378.106 57.4829 377.317C57.4829 376.521 57.627 375.827 57.9154 375.234C58.2071 374.64 58.6114 374.18 59.1285 373.852C59.6488 373.523 60.2537 373.359 60.9431 373.359C61.6325 373.359 62.2357 373.523 62.7527 373.852C63.2731 374.18 63.6775 374.64 63.9658 375.234C64.2575 375.827 64.4033 376.521 64.4033 377.317C64.4033 378.106 64.2575 378.795 63.9658 379.385C63.6775 379.975 63.2731 380.434 62.7527 380.762C62.2357 381.09 61.6325 381.254 60.9431 381.254ZM60.9431 380.2C61.4668 380.2 61.8976 380.066 62.2357 379.798C62.5738 379.529 62.824 379.176 62.9864 378.739C63.1488 378.301 63.23 377.827 63.23 377.317C63.23 376.806 63.1488 376.331 62.9864 375.89C62.824 375.449 62.5738 375.093 62.2357 374.821C61.8976 374.549 61.4668 374.413 60.9431 374.413C60.4194 374.413 59.9885 374.549 59.6505 374.821C59.3124 375.093 59.0622 375.449 58.8998 375.89C58.7374 376.331 58.6562 376.806 58.6562 377.317C58.6562 377.827 58.7374 378.301 58.8998 378.739C59.0622 379.176 59.3124 379.529 59.6505 379.798C59.9885 380.066 60.4194 380.2 60.9431 380.2ZM69.0779 381.254C68.4415 381.254 67.8797 381.094 67.3925 380.772C66.9053 380.447 66.5241 379.99 66.249 379.4C65.9739 378.807 65.8364 378.106 65.8364 377.297C65.8364 376.495 65.9739 375.799 66.249 375.209C66.5241 374.619 66.9069 374.163 67.3975 373.842C67.888 373.52 68.4547 373.359 69.0977 373.359C69.5949 373.359 69.9877 373.442 70.276 373.608C70.5677 373.77 70.7897 373.956 70.9422 374.165C71.098 374.37 71.219 374.539 71.3051 374.672H71.4046V370.913H72.5779V381.095H71.4443V379.922H71.3051C71.219 380.061 71.0963 380.237 70.9372 380.449C70.7781 380.658 70.5511 380.845 70.2561 381.011C69.9611 381.173 69.5684 381.254 69.0779 381.254ZM69.2369 380.2C69.7076 380.2 70.1053 380.078 70.4301 379.832C70.7549 379.584 71.0019 379.241 71.1709 378.803C71.3399 378.362 71.4244 377.854 71.4244 377.277C71.4244 376.707 71.3416 376.208 71.1759 375.781C71.0101 375.35 70.7649 375.015 70.4401 374.776C70.1153 374.534 69.7142 374.413 69.2369 374.413C68.7398 374.413 68.3255 374.541 67.994 374.796C67.6659 375.048 67.419 375.391 67.2533 375.825C67.0909 376.256 67.0097 376.74 67.0097 377.277C67.0097 377.821 67.0925 378.314 67.2583 378.759C67.4273 379.199 67.6759 379.551 68.004 379.813C68.3354 380.071 68.7464 380.2 69.2369 380.2ZM78.0913 381.254C77.3556 381.254 76.7208 381.092 76.1872 380.767C75.6569 380.439 75.2476 379.982 74.9592 379.395C74.6742 378.805 74.5317 378.119 74.5317 377.337C74.5317 376.554 74.6742 375.865 74.9592 375.269C75.2476 374.669 75.6486 374.201 76.1624 373.867C76.6794 373.528 77.2826 373.359 77.972 373.359C78.3698 373.359 78.7625 373.426 79.1503 373.558C79.5381 373.691 79.8911 373.906 80.2092 374.205C80.5274 374.5 80.781 374.891 80.9699 375.378C81.1588 375.865 81.2533 376.465 81.2533 377.178V377.675H75.3669V376.661H80.0601C80.0601 376.23 79.9739 375.845 79.8016 375.507C79.6325 375.169 79.3906 374.902 79.0757 374.707C78.7642 374.511 78.3963 374.413 77.972 374.413C77.5047 374.413 77.1003 374.529 76.759 374.761C76.4209 374.99 76.1607 375.288 75.9784 375.656C75.7961 376.024 75.705 376.419 75.705 376.84V377.516C75.705 378.092 75.8044 378.581 76.0033 378.982C76.2055 379.38 76.4855 379.683 76.8435 379.892C77.2014 380.098 77.6174 380.2 78.0913 380.2C78.3996 380.2 78.678 380.157 78.9266 380.071C79.1785 379.982 79.3956 379.849 79.5779 379.673C79.7601 379.494 79.901 379.272 80.0004 379.007L81.134 379.325C81.0146 379.71 80.8141 380.048 80.5324 380.34C80.2507 380.628 79.9027 380.853 79.4884 381.016C79.0741 381.175 78.6084 381.254 78.0913 381.254Z" fill="#E8F2FF"/>
<path d="M65.4551 311.917L65.4551 339.377" stroke="#E8F2FF" stroke-dasharray="2 2"/>
<circle cx="65.4551" cy="342.383" r="3.00586" fill="#E8F2FF"/>
<path d="M130.599 365.095H127.457V354.913H130.738C131.726 354.913 132.571 355.117 133.274 355.525C133.976 355.929 134.515 356.511 134.889 357.27C135.264 358.026 135.451 358.93 135.451 359.984C135.451 361.045 135.262 361.958 134.885 362.724C134.507 363.486 133.956 364.073 133.234 364.484C132.511 364.891 131.633 365.095 130.599 365.095ZM128.69 364.001H130.519C131.361 364.001 132.059 363.839 132.612 363.514C133.166 363.189 133.579 362.727 133.85 362.127C134.122 361.527 134.258 360.813 134.258 359.984C134.258 359.162 134.124 358.455 133.855 357.862C133.587 357.265 133.186 356.808 132.652 356.489C132.119 356.168 131.454 356.007 130.659 356.007H128.69V364.001ZM139.608 365.274C139.124 365.274 138.684 365.183 138.29 365.001C137.896 364.815 137.582 364.548 137.35 364.2C137.118 363.849 137.002 363.425 137.002 362.928C137.002 362.49 137.089 362.135 137.261 361.864C137.433 361.589 137.664 361.373 137.952 361.217C138.24 361.062 138.559 360.946 138.907 360.869C139.258 360.79 139.611 360.727 139.965 360.68C140.429 360.621 140.806 360.576 141.094 360.546C141.386 360.513 141.598 360.458 141.73 360.382C141.866 360.306 141.934 360.173 141.934 359.984V359.945C141.934 359.454 141.8 359.073 141.532 358.801C141.266 358.529 140.864 358.394 140.323 358.394C139.763 358.394 139.324 358.516 139.006 358.761C138.688 359.007 138.464 359.269 138.335 359.547L137.221 359.149C137.42 358.685 137.685 358.324 138.017 358.065C138.351 357.804 138.716 357.621 139.11 357.519C139.508 357.412 139.899 357.359 140.284 357.359C140.529 357.359 140.811 357.389 141.129 357.449C141.45 357.505 141.76 357.623 142.059 357.802C142.36 357.981 142.61 358.251 142.809 358.612C143.008 358.974 143.108 359.457 143.108 360.064V365.095H141.934V364.061H141.875C141.795 364.227 141.662 364.404 141.477 364.593C141.291 364.782 141.044 364.943 140.736 365.075C140.428 365.208 140.052 365.274 139.608 365.274ZM139.786 364.22C140.251 364.22 140.642 364.129 140.96 363.947C141.281 363.764 141.523 363.529 141.686 363.241C141.851 362.952 141.934 362.649 141.934 362.331V361.257C141.885 361.317 141.775 361.371 141.606 361.421C141.44 361.468 141.248 361.509 141.029 361.545C140.814 361.579 140.603 361.608 140.398 361.635C140.196 361.658 140.032 361.678 139.906 361.695C139.601 361.734 139.316 361.799 139.051 361.889C138.789 361.975 138.577 362.106 138.414 362.281C138.255 362.454 138.176 362.689 138.176 362.987C138.176 363.395 138.327 363.703 138.628 363.912C138.933 364.117 139.319 364.22 139.786 364.22ZM148.57 357.459V358.453H144.613V357.459H148.57ZM145.766 355.629H146.939V362.908C146.939 363.239 146.987 363.488 147.084 363.653C147.183 363.816 147.309 363.925 147.461 363.982C147.617 364.035 147.781 364.061 147.954 364.061C148.083 364.061 148.189 364.054 148.272 364.041C148.355 364.025 148.421 364.011 148.471 364.001L148.709 365.055C148.63 365.085 148.519 365.115 148.376 365.145C148.234 365.178 148.053 365.195 147.834 365.195C147.503 365.195 147.178 365.123 146.86 364.981C146.545 364.838 146.283 364.621 146.074 364.33C145.869 364.038 145.766 363.67 145.766 363.226V355.629ZM152.582 365.274C152.098 365.274 151.659 365.183 151.265 365.001C150.87 364.815 150.557 364.548 150.325 364.2C150.093 363.849 149.977 363.425 149.977 362.928C149.977 362.49 150.063 362.135 150.236 361.864C150.408 361.589 150.638 361.373 150.927 361.217C151.215 361.062 151.533 360.946 151.881 360.869C152.232 360.79 152.585 360.727 152.94 360.68C153.404 360.621 153.78 360.576 154.069 360.546C154.36 360.513 154.572 360.458 154.705 360.382C154.841 360.306 154.909 360.173 154.909 359.984V359.945C154.909 359.454 154.775 359.073 154.506 358.801C154.241 358.529 153.838 358.394 153.298 358.394C152.738 358.394 152.299 358.516 151.981 358.761C151.662 359.007 151.439 359.269 151.309 359.547L150.196 359.149C150.395 358.685 150.66 358.324 150.991 358.065C151.326 357.804 151.691 357.621 152.085 357.519C152.483 357.412 152.874 357.359 153.258 357.359C153.504 357.359 153.785 357.389 154.103 357.449C154.425 357.505 154.735 357.623 155.033 357.802C155.335 357.981 155.585 358.251 155.784 358.612C155.983 358.974 156.082 359.457 156.082 360.064V365.095H154.909V364.061H154.849C154.77 364.227 154.637 364.404 154.451 364.593C154.266 364.782 154.019 364.943 153.711 365.075C153.402 365.208 153.026 365.274 152.582 365.274ZM152.761 364.22C153.225 364.22 153.616 364.129 153.934 363.947C154.256 363.764 154.498 363.529 154.66 363.241C154.826 362.952 154.909 362.649 154.909 362.331V361.257C154.859 361.317 154.75 361.371 154.581 361.421C154.415 361.468 154.223 361.509 154.004 361.545C153.789 361.579 153.578 361.608 153.373 361.635C153.17 361.658 153.006 361.678 152.88 361.695C152.576 361.734 152.29 361.799 152.025 361.889C151.763 361.975 151.551 362.106 151.389 362.281C151.23 362.454 151.15 362.689 151.15 362.987C151.15 363.395 151.301 363.703 151.603 363.912C151.908 364.117 152.294 364.22 152.761 364.22ZM122.945 375.169L121.891 375.467C121.825 375.292 121.727 375.121 121.598 374.955C121.472 374.786 121.3 374.647 121.081 374.538C120.862 374.428 120.582 374.374 120.241 374.374C119.773 374.374 119.384 374.481 119.072 374.697C118.764 374.909 118.61 375.179 118.61 375.507C118.61 375.799 118.716 376.029 118.928 376.198C119.14 376.367 119.472 376.508 119.923 376.621L121.056 376.899C121.739 377.065 122.248 377.318 122.582 377.66C122.917 377.998 123.084 378.434 123.084 378.967C123.084 379.405 122.958 379.796 122.707 380.141C122.458 380.485 122.11 380.757 121.663 380.956C121.215 381.155 120.695 381.254 120.101 381.254C119.323 381.254 118.678 381.085 118.168 380.747C117.657 380.409 117.334 379.915 117.198 379.266L118.312 378.987C118.418 379.398 118.618 379.706 118.913 379.912C119.212 380.117 119.601 380.22 120.082 380.22C120.628 380.22 121.063 380.104 121.384 379.872C121.709 379.637 121.871 379.355 121.871 379.027C121.871 378.762 121.779 378.54 121.593 378.361C121.407 378.179 121.122 378.043 120.738 377.953L119.465 377.655C118.766 377.489 118.252 377.232 117.924 376.884C117.599 376.533 117.437 376.094 117.437 375.567C117.437 375.136 117.558 374.755 117.8 374.423C118.045 374.092 118.378 373.832 118.799 373.643C119.223 373.454 119.704 373.359 120.241 373.359C120.996 373.359 121.59 373.525 122.021 373.857C122.455 374.188 122.763 374.626 122.945 375.169ZM128.172 373.459V374.453H124.214V373.459H128.172ZM125.368 371.629H126.541V378.908C126.541 379.239 126.589 379.488 126.685 379.653C126.785 379.816 126.91 379.925 127.063 379.982C127.219 380.035 127.383 380.061 127.555 380.061C127.684 380.061 127.79 380.054 127.873 380.041C127.956 380.025 128.022 380.011 128.072 380.001L128.311 381.055C128.231 381.085 128.12 381.115 127.978 381.145C127.835 381.178 127.655 381.195 127.436 381.195C127.104 381.195 126.78 381.123 126.461 380.981C126.147 380.838 125.885 380.621 125.676 380.33C125.47 380.038 125.368 379.67 125.368 379.226V371.629ZM132.957 381.254C132.267 381.254 131.663 381.09 131.142 380.762C130.625 380.434 130.221 379.975 129.929 379.385C129.641 378.795 129.497 378.106 129.497 377.317C129.497 376.521 129.641 375.827 129.929 375.234C130.221 374.64 130.625 374.18 131.142 373.852C131.663 373.523 132.267 373.359 132.957 373.359C133.646 373.359 134.249 373.523 134.766 373.852C135.287 374.18 135.691 374.64 135.98 375.234C136.271 375.827 136.417 376.521 136.417 377.317C136.417 378.106 136.271 378.795 135.98 379.385C135.691 379.975 135.287 380.434 134.766 380.762C134.249 381.09 133.646 381.254 132.957 381.254ZM132.957 380.2C133.48 380.2 133.911 380.066 134.249 379.798C134.587 379.529 134.838 379.176 135 378.739C135.163 378.301 135.244 377.827 135.244 377.317C135.244 376.806 135.163 376.331 135 375.89C134.838 375.449 134.587 375.093 134.249 374.821C133.911 374.549 133.48 374.413 132.957 374.413C132.433 374.413 132.002 374.549 131.664 374.821C131.326 375.093 131.076 375.449 130.913 375.89C130.751 376.331 130.67 376.806 130.67 377.317C130.67 377.827 130.751 378.301 130.913 378.739C131.076 379.176 131.326 379.529 131.664 379.798C132.002 380.066 132.433 380.2 132.957 380.2ZM138.208 381.095V373.459H139.342V374.612H139.421C139.56 374.234 139.812 373.928 140.177 373.693C140.541 373.457 140.952 373.34 141.41 373.34C141.496 373.34 141.604 373.341 141.733 373.345C141.862 373.348 141.96 373.353 142.026 373.359V374.553C141.986 374.543 141.895 374.528 141.753 374.508C141.614 374.485 141.466 374.473 141.31 374.473C140.939 374.473 140.608 374.551 140.316 374.707C140.028 374.859 139.799 375.071 139.63 375.343C139.464 375.612 139.381 375.918 139.381 376.263V381.095H138.208ZM145.664 381.274C145.18 381.274 144.741 381.183 144.347 381.001C143.952 380.815 143.639 380.548 143.407 380.2C143.175 379.849 143.059 379.425 143.059 378.928C143.059 378.49 143.145 378.135 143.318 377.864C143.49 377.589 143.72 377.373 144.009 377.217C144.297 377.062 144.615 376.946 144.963 376.869C145.314 376.79 145.667 376.727 146.022 376.68C146.486 376.621 146.862 376.576 147.151 376.546C147.442 376.513 147.654 376.458 147.787 376.382C147.923 376.306 147.991 376.173 147.991 375.984V375.945C147.991 375.454 147.857 375.073 147.588 374.801C147.323 374.529 146.92 374.394 146.38 374.394C145.82 374.394 145.381 374.516 145.063 374.761C144.744 375.007 144.521 375.269 144.391 375.547L143.278 375.149C143.477 374.685 143.742 374.324 144.073 374.065C144.408 373.804 144.773 373.621 145.167 373.519C145.565 373.412 145.956 373.359 146.34 373.359C146.586 373.359 146.867 373.389 147.185 373.449C147.507 373.505 147.817 373.623 148.115 373.802C148.417 373.981 148.667 374.251 148.866 374.612C149.065 374.974 149.164 375.457 149.164 376.064V381.095H147.991V380.061H147.931C147.852 380.227 147.719 380.404 147.533 380.593C147.348 380.782 147.101 380.943 146.793 381.075C146.484 381.208 146.108 381.274 145.664 381.274ZM145.843 380.22C146.307 380.22 146.698 380.129 147.016 379.947C147.338 379.764 147.58 379.529 147.742 379.241C147.908 378.952 147.991 378.649 147.991 378.331V377.257C147.941 377.317 147.832 377.371 147.663 377.421C147.497 377.468 147.305 377.509 147.086 377.545C146.871 377.579 146.66 377.608 146.455 377.635C146.252 377.658 146.088 377.678 145.962 377.695C145.658 377.734 145.372 377.799 145.107 377.889C144.846 377.975 144.633 378.106 144.471 378.281C144.312 378.454 144.232 378.689 144.232 378.987C144.232 379.395 144.383 379.703 144.685 379.912C144.99 380.117 145.376 380.22 145.843 380.22ZM154.388 384.118C153.821 384.118 153.334 384.045 152.926 383.899C152.519 383.757 152.179 383.568 151.907 383.332C151.639 383.1 151.425 382.852 151.266 382.587L152.201 381.93C152.307 382.07 152.441 382.229 152.603 382.408C152.766 382.59 152.988 382.747 153.269 382.88C153.554 383.016 153.927 383.084 154.388 383.084C155.005 383.084 155.513 382.935 155.914 382.636C156.315 382.338 156.516 381.871 156.516 381.234V379.683H156.416C156.33 379.822 156.208 379.995 156.049 380.2C155.893 380.403 155.667 380.583 155.372 380.742C155.081 380.898 154.686 380.976 154.189 380.976C153.573 380.976 153.019 380.83 152.529 380.538C152.041 380.247 151.655 379.822 151.37 379.266C151.089 378.709 150.948 378.033 150.948 377.237C150.948 376.455 151.085 375.774 151.36 375.194C151.635 374.611 152.018 374.16 152.509 373.842C152.999 373.52 153.566 373.359 154.209 373.359C154.706 373.359 155.101 373.442 155.392 373.608C155.687 373.77 155.913 373.956 156.068 374.165C156.228 374.37 156.35 374.539 156.436 374.672H156.556V373.459H157.689V381.314C157.689 381.97 157.54 382.504 157.242 382.915C156.947 383.329 156.549 383.632 156.049 383.825C155.551 384.02 154.998 384.118 154.388 384.118ZM154.348 379.922C154.819 379.922 155.217 379.814 155.541 379.599C155.866 379.383 156.113 379.073 156.282 378.669C156.451 378.265 156.536 377.781 156.536 377.217C156.536 376.667 156.453 376.182 156.287 375.761C156.121 375.34 155.876 375.01 155.551 374.771C155.227 374.533 154.826 374.413 154.348 374.413C153.851 374.413 153.437 374.539 153.105 374.791C152.777 375.043 152.53 375.381 152.365 375.805C152.202 376.23 152.121 376.7 152.121 377.217C152.121 377.748 152.204 378.217 152.37 378.624C152.539 379.029 152.787 379.347 153.115 379.579C153.447 379.808 153.858 379.922 154.348 379.922ZM163.039 381.254C162.303 381.254 161.668 381.092 161.135 380.767C160.604 380.439 160.195 379.982 159.907 379.395C159.621 378.805 159.479 378.119 159.479 377.337C159.479 376.554 159.621 375.865 159.907 375.269C160.195 374.669 160.596 374.201 161.11 373.867C161.627 373.528 162.23 373.359 162.919 373.359C163.317 373.359 163.71 373.426 164.098 373.558C164.485 373.691 164.838 373.906 165.157 374.205C165.475 374.5 165.728 374.891 165.917 375.378C166.106 375.865 166.201 376.465 166.201 377.178V377.675H160.314V376.661H165.007C165.007 376.23 164.921 375.845 164.749 375.507C164.58 375.169 164.338 374.902 164.023 374.707C163.711 374.511 163.344 374.413 162.919 374.413C162.452 374.413 162.048 374.529 161.706 374.761C161.368 374.99 161.108 375.288 160.926 375.656C160.743 376.024 160.652 376.419 160.652 376.84V377.516C160.652 378.092 160.752 378.581 160.951 378.982C161.153 379.38 161.433 379.683 161.791 379.892C162.149 380.098 162.565 380.2 163.039 380.2C163.347 380.2 163.625 380.157 163.874 380.071C164.126 379.982 164.343 379.849 164.525 379.673C164.707 379.494 164.848 379.272 164.948 379.007L166.081 379.325C165.962 379.71 165.761 380.048 165.48 380.34C165.198 380.628 164.85 380.853 164.436 381.016C164.021 381.175 163.556 381.254 163.039 381.254Z" fill="#E8F2FF"/>
<path d="M141.686 311.917L141.686 339.377" stroke="#E8F2FF" stroke-dasharray="2 2"/>
<circle cx="141.686" cy="342.383" r="3.00586" fill="#E8F2FF"/>
<rect x="26.9141" y="230.017" width="153.311" height="81.4005" rx="5.5" stroke="#E8F2FF"/>
<rect x="46.9551" y="265.09" width="37" height="31" rx="5.5" fill="#E8F2FF" stroke="#E8F2FF"/>
<path d="M59.7161 275.757C60.0318 275.489 60.0702 275.016 59.802 274.7C59.5338 274.384 59.0605 274.346 58.7448 274.614L59.7161 275.757ZM52.8691 280.591L52.3835 280.019C52.2158 280.161 52.1191 280.37 52.1191 280.591C52.1191 280.811 52.2158 281.02 52.3835 281.162L52.8691 280.591ZM58.7448 286.567C59.0605 286.835 59.5338 286.797 59.802 286.481C60.0702 286.166 60.0318 285.692 59.7161 285.424L58.7448 286.567ZM58.7448 274.614L52.3835 280.019L53.3548 281.162L59.7161 275.757L58.7448 274.614ZM52.3835 281.162L58.7448 286.567L59.7161 285.424L53.3548 280.019L52.3835 281.162Z" fill="#031959"/>
<path d="M71.1931 285.424C70.8774 285.692 70.839 286.166 71.1072 286.481C71.3754 286.797 71.8487 286.835 72.1643 286.567L71.1931 285.424ZM78.04 280.591L78.5257 281.162C78.6934 281.02 78.79 280.811 78.79 280.591C78.79 280.371 78.6934 280.162 78.5257 280.019L78.04 280.591ZM72.1643 274.614C71.8487 274.346 71.3754 274.384 71.1072 274.7C70.839 275.016 70.8774 275.489 71.1931 275.757L72.1643 274.614ZM72.1643 286.567L78.5257 281.162L77.5544 280.019L71.1931 285.424L72.1643 286.567ZM78.5257 280.019L72.1643 274.614L71.1931 275.757L77.5544 281.162L78.5257 280.019Z" fill="#031959"/>
<path d="M68.9752 270.938C69.1033 270.537 68.8886 270.123 68.4957 270.013C68.1027 269.903 67.6803 270.138 67.5522 270.538L68.9752 270.938ZM61.244 290.243C61.1159 290.644 61.3306 291.057 61.7236 291.168C62.1165 291.278 62.5389 291.043 62.667 290.643L61.244 290.243ZM67.5522 270.538L61.244 290.243L62.667 290.643L68.9752 270.938L67.5522 270.538Z" fill="#031959"/>
<path d="M77.0521 243.481H75.8192C75.7462 243.127 75.6186 242.815 75.4363 242.547C75.2574 242.278 75.0386 242.053 74.7801 241.871C74.5249 241.685 74.2415 241.546 73.93 241.453C73.6184 241.36 73.2936 241.314 72.9555 241.314C72.339 241.314 71.7806 241.47 71.2801 241.781C70.7829 242.093 70.3869 242.552 70.0919 243.158C69.8002 243.765 69.6544 244.509 69.6544 245.391C69.6544 246.272 69.8002 247.016 70.0919 247.623C70.3869 248.229 70.7829 248.688 71.2801 249C71.7806 249.311 72.339 249.467 72.9555 249.467C73.2936 249.467 73.6184 249.421 73.93 249.328C74.2415 249.235 74.5249 249.098 74.7801 248.915C75.0386 248.73 75.2574 248.503 75.4363 248.234C75.6186 247.963 75.7462 247.651 75.8192 247.3H77.0521C76.9593 247.82 76.7903 248.286 76.545 248.697C76.2997 249.108 75.9948 249.457 75.6302 249.746C75.2657 250.031 74.8563 250.248 74.4023 250.397C73.9515 250.546 73.4693 250.621 72.9555 250.621C72.0872 250.621 71.3149 250.409 70.6388 249.984C69.9626 249.56 69.4307 248.957 69.0429 248.175C68.6551 247.392 68.4612 246.464 68.4612 245.391C68.4612 244.317 68.6551 243.389 69.0429 242.606C69.4307 241.824 69.9626 241.221 70.6388 240.797C71.3149 240.373 72.0872 240.16 72.9555 240.16C73.4693 240.16 73.9515 240.235 74.4023 240.384C74.8563 240.533 75.2657 240.752 75.6302 241.04C75.9948 241.325 76.2997 241.673 76.545 242.084C76.7903 242.492 76.9593 242.958 77.0521 243.481ZM81.9877 250.641C81.2983 250.641 80.6934 250.476 80.173 250.148C79.656 249.82 79.2516 249.361 78.96 248.771C78.6716 248.181 78.5274 247.492 78.5274 246.703C78.5274 245.908 78.6716 245.213 78.96 244.62C79.2516 244.027 79.656 243.566 80.173 243.238C80.6934 242.91 81.2983 242.746 81.9877 242.746C82.6771 242.746 83.2803 242.91 83.7973 243.238C84.3177 243.566 84.722 244.027 85.0104 244.62C85.3021 245.213 85.4479 245.908 85.4479 246.703C85.4479 247.492 85.3021 248.181 85.0104 248.771C84.722 249.361 84.3177 249.82 83.7973 250.148C83.2803 250.476 82.6771 250.641 81.9877 250.641ZM81.9877 249.587C82.5113 249.587 82.9422 249.452 83.2803 249.184C83.6183 248.915 83.8686 248.562 84.031 248.125C84.1934 247.687 84.2746 247.213 84.2746 246.703C84.2746 246.193 84.1934 245.717 84.031 245.276C83.8686 244.835 83.6183 244.479 83.2803 244.207C82.9422 243.936 82.5113 243.8 81.9877 243.8C81.464 243.8 81.0331 243.936 80.695 244.207C80.357 244.479 80.1067 244.835 79.9443 245.276C79.7819 245.717 79.7007 246.193 79.7007 246.703C79.7007 247.213 79.7819 247.687 79.9443 248.125C80.1067 248.562 80.357 248.915 80.695 249.184C81.0331 249.452 81.464 249.587 81.9877 249.587ZM88.4122 245.888V250.481H87.2389V242.845H88.3724V244.038H88.4719C88.6508 243.65 88.9226 243.339 89.2872 243.104C89.6518 242.865 90.1224 242.746 90.6991 242.746C91.2162 242.746 91.6686 242.852 92.0564 243.064C92.4442 243.273 92.7458 243.591 92.9612 244.018C93.1766 244.443 93.2844 244.98 93.2844 245.629V250.481H92.1111V245.709C92.1111 245.109 91.9553 244.641 91.6437 244.307C91.3322 243.969 90.9046 243.8 90.3611 243.8C89.9865 243.8 89.6518 243.881 89.3568 244.043C89.0651 244.206 88.8348 244.443 88.6657 244.754C88.4967 245.066 88.4122 245.444 88.4122 245.888ZM98.7494 242.845V243.839H94.792V242.845H98.7494ZM95.9454 241.016H97.1187V248.294C97.1187 248.625 97.1668 248.874 97.2629 249.04C97.3623 249.202 97.4883 249.311 97.6407 249.368C97.7965 249.421 97.9606 249.447 98.1329 249.447C98.2622 249.447 98.3682 249.441 98.4511 249.427C98.5339 249.411 98.6002 249.398 98.6499 249.388L98.8886 250.442C98.809 250.472 98.698 250.501 98.5555 250.531C98.413 250.564 98.2323 250.581 98.0136 250.581C97.6821 250.581 97.3573 250.51 97.0392 250.367C96.7243 250.225 96.4624 250.007 96.2536 249.716C96.0481 249.424 95.9454 249.056 95.9454 248.612V241.016ZM102.761 250.66C102.278 250.66 101.838 250.569 101.444 250.387C101.05 250.201 100.736 249.935 100.504 249.587C100.272 249.235 100.156 248.811 100.156 248.314C100.156 247.876 100.243 247.522 100.415 247.25C100.587 246.975 100.818 246.759 101.106 246.604C101.394 246.448 101.712 246.332 102.06 246.256C102.412 246.176 102.765 246.113 103.119 246.067C103.583 246.007 103.96 245.962 104.248 245.932C104.54 245.899 104.752 245.845 104.884 245.768C105.02 245.692 105.088 245.56 105.088 245.371V245.331C105.088 244.84 104.954 244.459 104.685 244.187C104.42 243.916 104.018 243.78 103.477 243.78C102.917 243.78 102.478 243.902 102.16 244.148C101.842 244.393 101.618 244.655 101.489 244.933L100.375 244.535C100.574 244.071 100.839 243.71 101.171 243.452C101.505 243.19 101.87 243.007 102.264 242.905C102.662 242.799 103.053 242.746 103.438 242.746C103.683 242.746 103.965 242.775 104.283 242.835C104.604 242.891 104.914 243.009 105.212 243.188C105.514 243.367 105.764 243.637 105.963 243.998C106.162 244.36 106.261 244.844 106.261 245.45V250.481H105.088V249.447H105.028C104.949 249.613 104.816 249.79 104.631 249.979C104.445 250.168 104.198 250.329 103.89 250.462C103.582 250.594 103.206 250.66 102.761 250.66ZM102.94 249.606C103.404 249.606 103.796 249.515 104.114 249.333C104.435 249.151 104.677 248.915 104.84 248.627C105.005 248.339 105.088 248.035 105.088 247.717V246.643C105.038 246.703 104.929 246.758 104.76 246.807C104.594 246.854 104.402 246.895 104.183 246.932C103.968 246.965 103.757 246.995 103.552 247.021C103.35 247.044 103.186 247.064 103.06 247.081C102.755 247.121 102.47 247.185 102.205 247.275C101.943 247.361 101.731 247.492 101.568 247.668C101.409 247.84 101.33 248.075 101.33 248.373C101.33 248.781 101.48 249.089 101.782 249.298C102.087 249.504 102.473 249.606 102.94 249.606ZM108.403 250.481V242.845H109.576V250.481H108.403ZM109 241.572C108.771 241.572 108.574 241.494 108.408 241.339C108.246 241.183 108.164 240.996 108.164 240.777C108.164 240.558 108.246 240.371 108.408 240.215C108.574 240.059 108.771 239.981 109 239.981C109.228 239.981 109.424 240.059 109.586 240.215C109.752 240.371 109.835 240.558 109.835 240.777C109.835 240.996 109.752 241.183 109.586 241.339C109.424 241.494 109.228 241.572 109 241.572ZM112.899 245.888V250.481H111.725V242.845H112.859V244.038H112.958C113.137 243.65 113.409 243.339 113.774 243.104C114.138 242.865 114.609 242.746 115.185 242.746C115.703 242.746 116.155 242.852 116.543 243.064C116.93 243.273 117.232 243.591 117.448 244.018C117.663 244.443 117.771 244.98 117.771 245.629V250.481H116.597V245.709C116.597 245.109 116.442 244.641 116.13 244.307C115.819 243.969 115.391 243.8 114.847 243.8C114.473 243.8 114.138 243.881 113.843 244.043C113.551 244.206 113.321 244.443 113.152 244.754C112.983 245.066 112.899 245.444 112.899 245.888ZM123.116 250.641C122.381 250.641 121.746 250.478 121.212 250.153C120.682 249.825 120.273 249.368 119.984 248.781C119.699 248.191 119.557 247.505 119.557 246.723C119.557 245.941 119.699 245.251 119.984 244.655C120.273 244.055 120.674 243.588 121.187 243.253C121.704 242.915 122.308 242.746 122.997 242.746C123.395 242.746 123.788 242.812 124.175 242.945C124.563 243.077 124.916 243.293 125.234 243.591C125.552 243.886 125.806 244.277 125.995 244.764C126.184 245.251 126.278 245.851 126.278 246.564V247.061H120.392V246.047H125.085C125.085 245.616 124.999 245.231 124.827 244.893C124.658 244.555 124.416 244.288 124.101 244.093C123.789 243.897 123.421 243.8 122.997 243.8C122.53 243.8 122.125 243.916 121.784 244.148C121.446 244.376 121.186 244.675 121.003 245.043C120.821 245.41 120.73 245.805 120.73 246.226V246.902C120.73 247.479 120.829 247.967 121.028 248.369C121.23 248.766 121.511 249.07 121.869 249.278C122.226 249.484 122.642 249.587 123.116 249.587C123.425 249.587 123.703 249.543 123.952 249.457C124.204 249.368 124.421 249.235 124.603 249.06C124.785 248.881 124.926 248.659 125.025 248.393L126.159 248.712C126.04 249.096 125.839 249.434 125.557 249.726C125.276 250.014 124.928 250.239 124.513 250.402C124.099 250.561 123.633 250.641 123.116 250.641ZM128.063 250.481V242.845H129.197V243.998H129.276C129.415 243.621 129.667 243.314 130.032 243.079C130.396 242.843 130.807 242.726 131.265 242.726C131.351 242.726 131.459 242.727 131.588 242.731C131.717 242.734 131.815 242.739 131.881 242.746V243.939C131.842 243.929 131.75 243.914 131.608 243.894C131.469 243.871 131.321 243.859 131.165 243.859C130.794 243.859 130.463 243.937 130.171 244.093C129.883 244.245 129.654 244.458 129.485 244.729C129.319 244.998 129.236 245.304 129.236 245.649V250.481H128.063ZM138.681 244.555L137.627 244.854C137.561 244.678 137.463 244.507 137.334 244.342C137.208 244.172 137.036 244.033 136.817 243.924C136.598 243.815 136.318 243.76 135.977 243.76C135.509 243.76 135.12 243.868 134.808 244.083C134.5 244.295 134.346 244.565 134.346 244.893C134.346 245.185 134.452 245.415 134.664 245.584C134.876 245.753 135.208 245.894 135.658 246.007L136.792 246.285C137.475 246.451 137.984 246.705 138.318 247.046C138.653 247.384 138.82 247.82 138.82 248.354C138.82 248.791 138.694 249.182 138.443 249.527C138.194 249.872 137.846 250.143 137.399 250.342C136.951 250.541 136.431 250.641 135.837 250.641C135.059 250.641 134.414 250.472 133.903 250.133C133.393 249.795 133.07 249.302 132.934 248.652L134.048 248.373C134.154 248.784 134.354 249.093 134.649 249.298C134.948 249.504 135.337 249.606 135.818 249.606C136.364 249.606 136.799 249.49 137.12 249.258C137.445 249.023 137.607 248.741 137.607 248.413C137.607 248.148 137.515 247.926 137.329 247.747C137.143 247.565 136.858 247.429 136.474 247.339L135.201 247.041C134.502 246.875 133.988 246.619 133.66 246.271C133.335 245.919 133.173 245.48 133.173 244.953C133.173 244.522 133.294 244.141 133.536 243.81C133.781 243.478 134.114 243.218 134.535 243.029C134.959 242.84 135.44 242.746 135.977 242.746C136.732 242.746 137.326 242.911 137.756 243.243C138.191 243.574 138.499 244.012 138.681 244.555Z" fill="#E8F2FF"/>
<ellipse cx="141.686" cy="269.676" rx="12.2968" ry="3.97116" fill="#E8F2FF"/>
<path d="M141.686 294.069C148.478 294.069 153.983 292.291 153.983 290.098V269.605H129.39V290.098C129.39 292.291 134.895 294.069 141.686 294.069Z" fill="#E8F2FF"/>
<path d="M154.484 280.713C154.484 282.907 148.755 284.685 141.687 284.685C134.619 284.685 128.89 282.907 128.89 280.713" stroke="#031959"/>
<path d="M154.484 269.605C154.484 271.799 148.755 273.577 141.687 273.577C134.619 273.577 128.89 271.799 128.89 269.605" stroke="#031959"/>
<rect x="263.509" y="217.5" width="182.265" height="186.677" rx="11.5" fill="#031959" stroke="#E8F2FF"/>
<path d="M300.085 357.459C300.025 356.955 299.783 356.564 299.359 356.286C298.935 356.007 298.414 355.868 297.798 355.868C297.347 355.868 296.953 355.941 296.615 356.087C296.28 356.233 296.018 356.433 295.829 356.688C295.643 356.943 295.551 357.233 295.551 357.558C295.551 357.83 295.615 358.064 295.744 358.259C295.877 358.452 296.046 358.612 296.252 358.742C296.457 358.867 296.673 358.972 296.898 359.055C297.123 359.134 297.33 359.199 297.519 359.249L298.553 359.527C298.819 359.597 299.114 359.693 299.438 359.815C299.767 359.938 300.08 360.105 300.378 360.318C300.68 360.526 300.928 360.795 301.124 361.123C301.319 361.451 301.417 361.854 301.417 362.331C301.417 362.881 301.273 363.378 300.985 363.822C300.7 364.267 300.282 364.62 299.732 364.881C299.185 365.143 298.52 365.274 297.738 365.274C297.009 365.274 296.378 365.157 295.844 364.921C295.314 364.686 294.896 364.358 294.591 363.937C294.289 363.516 294.119 363.027 294.079 362.47H295.352C295.385 362.855 295.514 363.173 295.74 363.425C295.968 363.673 296.257 363.859 296.605 363.982C296.956 364.101 297.334 364.161 297.738 364.161C298.209 364.161 298.631 364.084 299.006 363.932C299.38 363.776 299.677 363.561 299.896 363.286C300.115 363.007 300.224 362.682 300.224 362.311C300.224 361.973 300.129 361.698 299.941 361.486C299.752 361.274 299.503 361.101 299.195 360.969C298.887 360.836 298.553 360.72 298.195 360.621L296.943 360.263C296.147 360.034 295.517 359.708 295.053 359.283C294.589 358.859 294.357 358.304 294.357 357.618C294.357 357.048 294.512 356.551 294.82 356.126C295.131 355.699 295.549 355.367 296.073 355.132C296.6 354.894 297.188 354.774 297.838 354.774C298.494 354.774 299.077 354.892 299.588 355.127C300.098 355.359 300.502 355.677 300.801 356.082C301.102 356.486 301.261 356.945 301.278 357.459H300.085ZM306.387 365.254C305.698 365.254 305.093 365.09 304.573 364.762C304.056 364.434 303.651 363.975 303.36 363.385C303.071 362.795 302.927 362.106 302.927 361.317C302.927 360.521 303.071 359.827 303.36 359.234C303.651 358.64 304.056 358.18 304.573 357.852C305.093 357.523 305.698 357.359 306.387 357.359C307.077 357.359 307.68 357.523 308.197 357.852C308.717 358.18 309.122 358.64 309.41 359.234C309.702 359.827 309.848 360.521 309.848 361.317C309.848 362.106 309.702 362.795 309.41 363.385C309.122 363.975 308.717 364.434 308.197 364.762C307.68 365.09 307.077 365.254 306.387 365.254ZM306.387 364.2C306.911 364.2 307.342 364.066 307.68 363.798C308.018 363.529 308.268 363.176 308.431 362.739C308.593 362.301 308.674 361.827 308.674 361.317C308.674 360.806 308.593 360.331 308.431 359.89C308.268 359.449 308.018 359.093 307.68 358.821C307.342 358.549 306.911 358.413 306.387 358.413C305.864 358.413 305.433 358.549 305.095 358.821C304.757 359.093 304.507 359.449 304.344 359.89C304.182 360.331 304.1 360.806 304.1 361.317C304.1 361.827 304.182 362.301 304.344 362.739C304.507 363.176 304.757 363.529 305.095 363.798C305.433 364.066 305.864 364.2 306.387 364.2ZM316.451 361.973V357.459H317.624V365.095H316.451V363.803H316.372C316.193 364.19 315.914 364.52 315.536 364.792C315.159 365.06 314.681 365.195 314.105 365.195C313.627 365.195 313.203 365.09 312.832 364.881C312.461 364.669 312.169 364.351 311.957 363.927C311.745 363.499 311.639 362.961 311.639 362.311V357.459H312.812V362.232C312.812 362.788 312.968 363.233 313.279 363.564C313.594 363.895 313.995 364.061 314.482 364.061C314.774 364.061 315.071 363.987 315.372 363.837C315.677 363.688 315.932 363.46 316.138 363.151C316.347 362.843 316.451 362.45 316.451 361.973ZM319.773 365.095V357.459H320.907V358.612H320.987C321.126 358.234 321.378 357.928 321.742 357.693C322.107 357.457 322.518 357.34 322.975 357.34C323.061 357.34 323.169 357.341 323.298 357.345C323.428 357.348 323.525 357.353 323.592 357.359V358.553C323.552 358.543 323.461 358.528 323.318 358.508C323.179 358.485 323.031 358.473 322.876 358.473C322.504 358.473 322.173 358.551 321.881 358.707C321.593 358.859 321.364 359.071 321.195 359.343C321.03 359.612 320.947 359.918 320.947 360.263V365.095H319.773ZM327.852 365.254C327.136 365.254 326.52 365.085 326.003 364.747C325.486 364.409 325.088 363.943 324.81 363.35C324.531 362.757 324.392 362.079 324.392 361.317C324.392 360.541 324.535 359.857 324.82 359.264C325.108 358.667 325.509 358.201 326.023 357.867C326.54 357.528 327.143 357.359 327.832 357.359C328.369 357.359 328.853 357.459 329.284 357.658C329.715 357.857 330.068 358.135 330.343 358.493C330.618 358.851 330.789 359.269 330.855 359.746H329.682C329.592 359.398 329.393 359.09 329.085 358.821C328.78 358.549 328.369 358.413 327.852 358.413C327.395 358.413 326.994 358.533 326.649 358.771C326.308 359.007 326.041 359.34 325.849 359.771C325.66 360.198 325.565 360.7 325.565 361.277C325.565 361.867 325.658 362.381 325.844 362.818C326.033 363.256 326.298 363.595 326.639 363.837C326.984 364.079 327.388 364.2 327.852 364.2C328.157 364.2 328.434 364.147 328.683 364.041C328.931 363.935 329.142 363.783 329.314 363.584C329.486 363.385 329.609 363.146 329.682 362.868H330.855C330.789 363.319 330.625 363.725 330.363 364.086C330.104 364.444 329.761 364.729 329.334 364.941C328.91 365.15 328.416 365.254 327.852 365.254ZM335.772 365.254C335.036 365.254 334.402 365.092 333.868 364.767C333.338 364.439 332.928 363.982 332.64 363.395C332.355 362.805 332.212 362.119 332.212 361.337C332.212 360.554 332.355 359.865 332.64 359.269C332.928 358.669 333.329 358.201 333.843 357.867C334.36 357.528 334.963 357.359 335.653 357.359C336.05 357.359 336.443 357.426 336.831 357.558C337.219 357.691 337.572 357.906 337.89 358.205C338.208 358.5 338.462 358.891 338.651 359.378C338.839 359.865 338.934 360.465 338.934 361.178V361.675H333.048V360.661H337.741C337.741 360.23 337.655 359.845 337.482 359.507C337.313 359.169 337.071 358.902 336.756 358.707C336.445 358.511 336.077 358.413 335.653 358.413C335.185 358.413 334.781 358.529 334.44 358.761C334.102 358.99 333.841 359.288 333.659 359.656C333.477 360.024 333.386 360.419 333.386 360.84V361.516C333.386 362.092 333.485 362.581 333.684 362.982C333.886 363.38 334.166 363.683 334.524 363.892C334.882 364.098 335.298 364.2 335.772 364.2C336.08 364.2 336.359 364.157 336.607 364.071C336.859 363.982 337.076 363.849 337.259 363.673C337.441 363.494 337.582 363.272 337.681 363.007L338.815 363.325C338.695 363.71 338.495 364.048 338.213 364.34C337.931 364.628 337.583 364.853 337.169 365.016C336.755 365.175 336.289 365.254 335.772 365.254ZM304.132 381.254C303.416 381.254 302.799 381.085 302.282 380.747C301.765 380.409 301.367 379.943 301.089 379.35C300.811 378.757 300.671 378.079 300.671 377.317C300.671 376.541 300.814 375.857 301.099 375.264C301.387 374.667 301.788 374.201 302.302 373.867C302.819 373.528 303.422 373.359 304.112 373.359C304.649 373.359 305.133 373.459 305.563 373.658C305.994 373.857 306.347 374.135 306.622 374.493C306.897 374.851 307.068 375.269 307.134 375.746H305.961C305.872 375.398 305.673 375.09 305.365 374.821C305.06 374.549 304.649 374.413 304.132 374.413C303.674 374.413 303.273 374.533 302.928 374.771C302.587 375.007 302.32 375.34 302.128 375.771C301.939 376.198 301.845 376.7 301.845 377.277C301.845 377.867 301.937 378.381 302.123 378.818C302.312 379.256 302.577 379.595 302.918 379.837C303.263 380.079 303.668 380.2 304.132 380.2C304.436 380.2 304.713 380.147 304.962 380.041C305.21 379.935 305.421 379.783 305.593 379.584C305.766 379.385 305.888 379.146 305.961 378.868H307.134C307.068 379.319 306.904 379.725 306.642 380.086C306.384 380.444 306.041 380.729 305.613 380.941C305.189 381.15 304.695 381.254 304.132 381.254ZM311.952 381.254C311.262 381.254 310.658 381.09 310.137 380.762C309.62 380.434 309.216 379.975 308.924 379.385C308.636 378.795 308.492 378.106 308.492 377.317C308.492 376.521 308.636 375.827 308.924 375.234C309.216 374.64 309.62 374.18 310.137 373.852C310.658 373.523 311.262 373.359 311.952 373.359C312.641 373.359 313.244 373.523 313.762 373.852C314.282 374.18 314.686 374.64 314.975 375.234C315.266 375.827 315.412 376.521 315.412 377.317C315.412 378.106 315.266 378.795 314.975 379.385C314.686 379.975 314.282 380.434 313.762 380.762C313.244 381.09 312.641 381.254 311.952 381.254ZM311.952 380.2C312.476 380.2 312.906 380.066 313.244 379.798C313.583 379.529 313.833 379.176 313.995 378.739C314.158 378.301 314.239 377.827 314.239 377.317C314.239 376.806 314.158 376.331 313.995 375.89C313.833 375.449 313.583 375.093 313.244 374.821C312.906 374.549 312.476 374.413 311.952 374.413C311.428 374.413 310.997 374.549 310.659 374.821C310.321 375.093 310.071 375.449 309.909 375.89C309.746 376.331 309.665 376.806 309.665 377.317C309.665 377.827 309.746 378.301 309.909 378.739C310.071 379.176 310.321 379.529 310.659 379.798C310.997 380.066 311.428 380.2 311.952 380.2ZM320.087 381.254C319.45 381.254 318.888 381.094 318.401 380.772C317.914 380.447 317.533 379.99 317.258 379.4C316.983 378.807 316.845 378.106 316.845 377.297C316.845 376.495 316.983 375.799 317.258 375.209C317.533 374.619 317.916 374.163 318.406 373.842C318.897 373.52 319.464 373.359 320.107 373.359C320.604 373.359 320.996 373.442 321.285 373.608C321.576 373.77 321.799 373.956 321.951 374.165C322.107 374.37 322.228 374.539 322.314 374.672H322.413V370.913H323.587V381.095H322.453V379.922H322.314C322.228 380.061 322.105 380.237 321.946 380.449C321.787 380.658 321.56 380.845 321.265 381.011C320.97 381.173 320.577 381.254 320.087 381.254ZM320.246 380.2C320.716 380.2 321.114 380.078 321.439 379.832C321.764 379.584 322.011 379.241 322.18 378.803C322.349 378.362 322.433 377.854 322.433 377.277C322.433 376.707 322.35 376.208 322.185 375.781C322.019 375.35 321.774 375.015 321.449 374.776C321.124 374.534 320.723 374.413 320.246 374.413C319.749 374.413 319.334 374.541 319.003 374.796C318.675 375.048 318.428 375.391 318.262 375.825C318.1 376.256 318.018 376.74 318.018 377.277C318.018 377.821 318.101 378.314 318.267 378.759C318.436 379.199 318.685 379.551 319.013 379.813C319.344 380.071 319.755 380.2 320.246 380.2ZM329.1 381.254C328.364 381.254 327.73 381.092 327.196 380.767C326.666 380.439 326.256 379.982 325.968 379.395C325.683 378.805 325.54 378.119 325.54 377.337C325.54 376.554 325.683 375.865 325.968 375.269C326.256 374.669 326.657 374.201 327.171 373.867C327.688 373.528 328.291 373.359 328.981 373.359C329.379 373.359 329.771 373.426 330.159 373.558C330.547 373.691 330.9 373.906 331.218 374.205C331.536 374.5 331.79 374.891 331.979 375.378C332.168 375.865 332.262 376.465 332.262 377.178V377.675H326.376V376.661H331.069C331.069 376.23 330.983 375.845 330.81 375.507C330.641 375.169 330.399 374.902 330.085 374.707C329.773 374.511 329.405 374.413 328.981 374.413C328.513 374.413 328.109 374.529 327.768 374.761C327.43 374.99 327.17 375.288 326.987 375.656C326.805 376.024 326.714 376.419 326.714 376.84V377.516C326.714 378.092 326.813 378.581 327.012 378.982C327.214 379.38 327.494 379.683 327.852 379.892C328.21 380.098 328.626 380.2 329.1 380.2C329.408 380.2 329.687 380.157 329.935 380.071C330.187 379.982 330.404 379.849 330.587 379.673C330.769 379.494 330.91 379.272 331.009 379.007L332.143 379.325C332.023 379.71 331.823 380.048 331.541 380.34C331.259 380.628 330.911 380.853 330.497 381.016C330.083 381.175 329.617 381.254 329.1 381.254Z" fill="#E8F2FF"/>
<path d="M316.464 311.917L316.464 339.377" stroke="#E8F2FF" stroke-dasharray="2 2"/>
<circle cx="316.464" cy="342.383" r="3.00586" fill="#E8F2FF"/>
<path d="M381.608 365.095H378.466V354.913H381.747C382.735 354.913 383.58 355.117 384.283 355.525C384.985 355.929 385.524 356.511 385.898 357.27C386.273 358.026 386.46 358.93 386.46 359.984C386.46 361.045 386.271 361.958 385.893 362.724C385.515 363.486 384.965 364.073 384.243 364.484C383.52 364.891 382.642 365.095 381.608 365.095ZM379.699 364.001H381.528C382.37 364.001 383.068 363.839 383.621 363.514C384.175 363.189 384.587 362.727 384.859 362.127C385.131 361.527 385.267 360.813 385.267 359.984C385.267 359.162 385.133 358.455 384.864 357.862C384.596 357.265 384.195 356.808 383.661 356.489C383.127 356.168 382.463 356.007 381.667 356.007H379.699V364.001ZM390.616 365.274C390.132 365.274 389.693 365.183 389.299 365.001C388.904 364.815 388.591 364.548 388.359 364.2C388.127 363.849 388.011 363.425 388.011 362.928C388.011 362.49 388.097 362.135 388.27 361.864C388.442 361.589 388.672 361.373 388.961 361.217C389.249 361.062 389.567 360.946 389.915 360.869C390.267 360.79 390.62 360.727 390.974 360.68C391.438 360.621 391.814 360.576 392.103 360.546C392.394 360.513 392.607 360.458 392.739 360.382C392.875 360.306 392.943 360.173 392.943 359.984V359.945C392.943 359.454 392.809 359.073 392.54 358.801C392.275 358.529 391.872 358.394 391.332 358.394C390.772 358.394 390.333 358.516 390.015 358.761C389.697 359.007 389.473 359.269 389.344 359.547L388.23 359.149C388.429 358.685 388.694 358.324 389.025 358.065C389.36 357.804 389.725 357.621 390.119 357.519C390.517 357.412 390.908 357.359 391.292 357.359C391.538 357.359 391.819 357.389 392.138 357.449C392.459 357.505 392.769 357.623 393.067 357.802C393.369 357.981 393.619 358.251 393.818 358.612C394.017 358.974 394.116 359.457 394.116 360.064V365.095H392.943V364.061H392.883C392.804 364.227 392.671 364.404 392.486 364.593C392.3 364.782 392.053 364.943 391.745 365.075C391.437 365.208 391.06 365.274 390.616 365.274ZM390.795 364.22C391.259 364.22 391.65 364.129 391.969 363.947C392.29 363.764 392.532 363.529 392.694 363.241C392.86 362.952 392.943 362.649 392.943 362.331V361.257C392.893 361.317 392.784 361.371 392.615 361.421C392.449 361.468 392.257 361.509 392.038 361.545C391.823 361.579 391.612 361.608 391.407 361.635C391.205 361.658 391.041 361.678 390.915 361.695C390.61 361.734 390.325 361.799 390.059 361.889C389.798 361.975 389.586 362.106 389.423 362.281C389.264 362.454 389.184 362.689 389.184 362.987C389.184 363.395 389.335 363.703 389.637 363.912C389.942 364.117 390.328 364.22 390.795 364.22ZM399.579 357.459V358.453H395.621V357.459H399.579ZM396.775 355.629H397.948V362.908C397.948 363.239 397.996 363.488 398.092 363.653C398.192 363.816 398.318 363.925 398.47 363.982C398.626 364.035 398.79 364.061 398.962 364.061C399.092 364.061 399.198 364.054 399.281 364.041C399.363 364.025 399.43 364.011 399.479 364.001L399.718 365.055C399.639 365.085 399.527 365.115 399.385 365.145C399.242 365.178 399.062 365.195 398.843 365.195C398.512 365.195 398.187 365.123 397.869 364.981C397.554 364.838 397.292 364.621 397.083 364.33C396.878 364.038 396.775 363.67 396.775 363.226V355.629ZM403.591 365.274C403.107 365.274 402.668 365.183 402.273 365.001C401.879 364.815 401.566 364.548 401.334 364.2C401.102 363.849 400.986 363.425 400.986 362.928C400.986 362.49 401.072 362.135 401.244 361.864C401.417 361.589 401.647 361.373 401.935 361.217C402.224 361.062 402.542 360.946 402.89 360.869C403.241 360.79 403.594 360.727 403.949 360.68C404.413 360.621 404.789 360.576 405.077 360.546C405.369 360.513 405.581 360.458 405.714 360.382C405.85 360.306 405.918 360.173 405.918 359.984V359.945C405.918 359.454 405.783 359.073 405.515 358.801C405.25 358.529 404.847 358.394 404.307 358.394C403.747 358.394 403.308 358.516 402.989 358.761C402.671 359.007 402.447 359.269 402.318 359.547L401.205 359.149C401.403 358.685 401.669 358.324 402 358.065C402.335 357.804 402.699 357.621 403.094 357.519C403.491 357.412 403.883 357.359 404.267 357.359C404.512 357.359 404.794 357.389 405.112 357.449C405.434 357.505 405.744 357.623 406.042 357.802C406.344 357.981 406.594 358.251 406.793 358.612C406.991 358.974 407.091 359.457 407.091 360.064V365.095H405.918V364.061H405.858C405.778 364.227 405.646 364.404 405.46 364.593C405.275 364.782 405.028 364.943 404.719 365.075C404.411 365.208 404.035 365.274 403.591 365.274ZM403.77 364.22C404.234 364.22 404.625 364.129 404.943 363.947C405.265 363.764 405.507 363.529 405.669 363.241C405.835 362.952 405.918 362.649 405.918 362.331V361.257C405.868 361.317 405.759 361.371 405.589 361.421C405.424 361.468 405.232 361.509 405.013 361.545C404.797 361.579 404.587 361.608 404.381 361.635C404.179 361.658 404.015 361.678 403.889 361.695C403.584 361.734 403.299 361.799 403.034 361.889C402.772 361.975 402.56 362.106 402.398 362.281C402.239 362.454 402.159 362.689 402.159 362.987C402.159 363.395 402.31 363.703 402.612 363.912C402.916 364.117 403.303 364.22 403.77 364.22ZM373.954 375.169L372.9 375.467C372.834 375.292 372.736 375.121 372.607 374.955C372.481 374.786 372.308 374.647 372.09 374.538C371.871 374.428 371.591 374.374 371.249 374.374C370.782 374.374 370.393 374.481 370.081 374.697C369.773 374.909 369.619 375.179 369.619 375.507C369.619 375.799 369.725 376.029 369.937 376.198C370.149 376.367 370.481 376.508 370.931 376.621L372.065 376.899C372.748 377.065 373.256 377.318 373.591 377.66C373.926 377.998 374.093 378.434 374.093 378.967C374.093 379.405 373.967 379.796 373.715 380.141C373.467 380.485 373.119 380.757 372.671 380.956C372.224 381.155 371.704 381.254 371.11 381.254C370.331 381.254 369.687 381.085 369.176 380.747C368.666 380.409 368.343 379.915 368.207 379.266L369.321 378.987C369.427 379.398 369.627 379.706 369.922 379.912C370.22 380.117 370.61 380.22 371.09 380.22C371.637 380.22 372.071 380.104 372.393 379.872C372.718 379.637 372.88 379.355 372.88 379.027C372.88 378.762 372.787 378.54 372.602 378.361C372.416 378.179 372.131 378.043 371.747 377.953L370.474 377.655C369.775 377.489 369.261 377.232 368.933 376.884C368.608 376.533 368.446 376.094 368.446 375.567C368.446 375.136 368.566 374.755 368.808 374.423C369.054 374.092 369.387 373.832 369.808 373.643C370.232 373.454 370.713 373.359 371.249 373.359C372.005 373.359 372.598 373.525 373.029 373.857C373.463 374.188 373.772 374.626 373.954 375.169ZM379.18 373.459V374.453H375.223V373.459H379.18ZM376.376 371.629H377.55V378.908C377.55 379.239 377.598 379.488 377.694 379.653C377.793 379.816 377.919 379.925 378.072 379.982C378.228 380.035 378.392 380.061 378.564 380.061C378.693 380.061 378.799 380.054 378.882 380.041C378.965 380.025 379.031 380.011 379.081 380.001L379.32 381.055C379.24 381.085 379.129 381.115 378.987 381.145C378.844 381.178 378.663 381.195 378.445 381.195C378.113 381.195 377.788 381.123 377.47 380.981C377.155 380.838 376.893 380.621 376.685 380.33C376.479 380.038 376.376 379.67 376.376 379.226V371.629ZM383.966 381.254C383.276 381.254 382.671 381.09 382.151 380.762C381.634 380.434 381.23 379.975 380.938 379.385C380.65 378.795 380.505 378.106 380.505 377.317C380.505 376.521 380.65 375.827 380.938 375.234C381.23 374.64 381.634 374.18 382.151 373.852C382.671 373.523 383.276 373.359 383.966 373.359C384.655 373.359 385.258 373.523 385.775 373.852C386.296 374.18 386.7 374.64 386.988 375.234C387.28 375.827 387.426 376.521 387.426 377.317C387.426 378.106 387.28 378.795 386.988 379.385C386.7 379.975 386.296 380.434 385.775 380.762C385.258 381.09 384.655 381.254 383.966 381.254ZM383.966 380.2C384.489 380.2 384.92 380.066 385.258 379.798C385.596 379.529 385.846 379.176 386.009 378.739C386.171 378.301 386.252 377.827 386.252 377.317C386.252 376.806 386.171 376.331 386.009 375.89C385.846 375.449 385.596 375.093 385.258 374.821C384.92 374.549 384.489 374.413 383.966 374.413C383.442 374.413 383.011 374.549 382.673 374.821C382.335 375.093 382.085 375.449 381.922 375.89C381.76 376.331 381.679 376.806 381.679 377.317C381.679 377.827 381.76 378.301 381.922 378.739C382.085 379.176 382.335 379.529 382.673 379.798C383.011 380.066 383.442 380.2 383.966 380.2ZM389.217 381.095V373.459H390.35V374.612H390.43C390.569 374.234 390.821 373.928 391.186 373.693C391.55 373.457 391.961 373.34 392.419 373.34C392.505 373.34 392.612 373.341 392.742 373.345C392.871 373.348 392.969 373.353 393.035 373.359V374.553C392.995 374.543 392.904 374.528 392.762 374.508C392.622 374.485 392.475 374.473 392.319 374.473C391.948 374.473 391.616 374.551 391.325 374.707C391.036 374.859 390.808 375.071 390.639 375.343C390.473 375.612 390.39 375.918 390.39 376.263V381.095H389.217ZM396.673 381.274C396.189 381.274 395.75 381.183 395.355 381.001C394.961 380.815 394.648 380.548 394.416 380.2C394.184 379.849 394.068 379.425 394.068 378.928C394.068 378.49 394.154 378.135 394.326 377.864C394.499 377.589 394.729 377.373 395.017 377.217C395.306 377.062 395.624 376.946 395.972 376.869C396.323 376.79 396.676 376.727 397.031 376.68C397.495 376.621 397.871 376.576 398.159 376.546C398.451 376.513 398.663 376.458 398.796 376.382C398.932 376.306 399 376.173 399 375.984V375.945C399 375.454 398.865 375.073 398.597 374.801C398.332 374.529 397.929 374.394 397.389 374.394C396.829 374.394 396.39 374.516 396.071 374.761C395.753 375.007 395.529 375.269 395.4 375.547L394.287 375.149C394.485 374.685 394.751 374.324 395.082 374.065C395.417 373.804 395.781 373.621 396.176 373.519C396.574 373.412 396.965 373.359 397.349 373.359C397.594 373.359 397.876 373.389 398.194 373.449C398.516 373.505 398.826 373.623 399.124 373.802C399.426 373.981 399.676 374.251 399.875 374.612C400.074 374.974 400.173 375.457 400.173 376.064V381.095H399V380.061H398.94C398.86 380.227 398.728 380.404 398.542 380.593C398.357 380.782 398.11 380.943 397.802 381.075C397.493 381.208 397.117 381.274 396.673 381.274ZM396.852 380.22C397.316 380.22 397.707 380.129 398.025 379.947C398.347 379.764 398.589 379.529 398.751 379.241C398.917 378.952 399 378.649 399 378.331V377.257C398.95 377.317 398.841 377.371 398.672 377.421C398.506 377.468 398.314 377.509 398.095 377.545C397.879 377.579 397.669 377.608 397.463 377.635C397.261 377.658 397.097 377.678 396.971 377.695C396.666 377.734 396.381 377.799 396.116 377.889C395.854 377.975 395.642 378.106 395.48 378.281C395.321 378.454 395.241 378.689 395.241 378.987C395.241 379.395 395.392 379.703 395.694 379.912C395.998 380.117 396.385 380.22 396.852 380.22ZM405.397 384.118C404.83 384.118 404.343 384.045 403.935 383.899C403.528 383.757 403.188 383.568 402.916 383.332C402.648 383.1 402.434 382.852 402.275 382.587L403.209 381.93C403.315 382.07 403.45 382.229 403.612 382.408C403.774 382.59 403.997 382.747 404.278 382.88C404.563 383.016 404.936 383.084 405.397 383.084C406.013 383.084 406.522 382.935 406.923 382.636C407.324 382.338 407.525 381.871 407.525 381.234V379.683H407.425C407.339 379.822 407.216 379.995 407.057 380.2C406.902 380.403 406.676 380.583 406.381 380.742C406.09 380.898 405.695 380.976 405.198 380.976C404.582 380.976 404.028 380.83 403.537 380.538C403.05 380.247 402.664 379.822 402.379 379.266C402.097 378.709 401.957 378.033 401.957 377.237C401.957 376.455 402.094 375.774 402.369 375.194C402.644 374.611 403.027 374.16 403.518 373.842C404.008 373.52 404.575 373.359 405.218 373.359C405.715 373.359 406.109 373.442 406.401 373.608C406.696 373.77 406.921 373.956 407.077 374.165C407.236 374.37 407.359 374.539 407.445 374.672H407.564V373.459H408.698V381.314C408.698 381.97 408.549 382.504 408.251 382.915C407.956 383.329 407.558 383.632 407.057 383.825C406.56 384.02 406.007 384.118 405.397 384.118ZM405.357 379.922C405.828 379.922 406.225 379.814 406.55 379.599C406.875 379.383 407.122 379.073 407.291 378.669C407.46 378.265 407.545 377.781 407.545 377.217C407.545 376.667 407.462 376.182 407.296 375.761C407.13 375.34 406.885 375.01 406.56 374.771C406.235 374.533 405.834 374.413 405.357 374.413C404.86 374.413 404.446 374.539 404.114 374.791C403.786 375.043 403.539 375.381 403.373 375.805C403.211 376.23 403.13 376.7 403.13 377.217C403.13 377.748 403.213 378.217 403.378 378.624C403.547 379.029 403.796 379.347 404.124 379.579C404.456 379.808 404.867 379.922 405.357 379.922ZM414.047 381.254C413.312 381.254 412.677 381.092 412.143 380.767C411.613 380.439 411.204 379.982 410.915 379.395C410.63 378.805 410.488 378.119 410.488 377.337C410.488 376.554 410.63 375.865 410.915 375.269C411.204 374.669 411.605 374.201 412.118 373.867C412.635 373.528 413.239 373.359 413.928 373.359C414.326 373.359 414.719 373.426 415.106 373.558C415.494 373.691 415.847 373.906 416.165 374.205C416.483 374.5 416.737 374.891 416.926 375.378C417.115 375.865 417.209 376.465 417.209 377.178V377.675H411.323V376.661H416.016C416.016 376.23 415.93 375.845 415.758 375.507C415.589 375.169 415.347 374.902 415.032 374.707C414.72 374.511 414.352 374.413 413.928 374.413C413.461 374.413 413.056 374.529 412.715 374.761C412.377 374.99 412.117 375.288 411.934 375.656C411.752 376.024 411.661 376.419 411.661 376.84V377.516C411.661 378.092 411.76 378.581 411.959 378.982C412.162 379.38 412.442 379.683 412.8 379.892C413.158 380.098 413.573 380.2 414.047 380.2C414.356 380.2 414.634 380.157 414.883 380.071C415.135 379.982 415.352 379.849 415.534 379.673C415.716 379.494 415.857 379.272 415.957 379.007L417.09 379.325C416.971 379.71 416.77 380.048 416.488 380.34C416.207 380.628 415.859 380.853 415.444 381.016C415.03 381.175 414.564 381.254 414.047 381.254Z" fill="#E8F2FF"/>
<path d="M392.694 311.917L392.694 339.377" stroke="#E8F2FF" stroke-dasharray="2 2"/>
<circle cx="392.694" cy="342.383" r="3.00586" fill="#E8F2FF"/>
<rect x="277.923" y="230.017" width="153.311" height="81.4005" rx="5.5" stroke="#E8F2FF"/>
<rect x="297.964" y="265.09" width="37" height="31" rx="5.5" fill="#E8F2FF" stroke="#E8F2FF"/>
<path d="M310.726 275.757C311.042 275.489 311.08 275.016 310.812 274.7C310.544 274.384 310.07 274.346 309.755 274.614L310.726 275.757ZM303.879 280.591L303.393 280.019C303.226 280.161 303.129 280.37 303.129 280.591C303.129 280.811 303.226 281.02 303.393 281.162L303.879 280.591ZM309.755 286.567C310.07 286.835 310.544 286.797 310.812 286.481C311.08 286.166 311.042 285.692 310.726 285.424L309.755 286.567ZM309.755 274.614L303.393 280.019L304.365 281.162L310.726 275.757L309.755 274.614ZM303.393 281.162L309.755 286.567L310.726 285.424L304.365 280.019L303.393 281.162Z" fill="#031959"/>
<path d="M322.203 285.424C321.887 285.692 321.849 286.166 322.117 286.481C322.385 286.797 322.858 286.835 323.174 286.567L322.203 285.424ZM329.05 280.591L329.535 281.162C329.703 281.02 329.8 280.811 329.8 280.591C329.8 280.371 329.703 280.162 329.535 280.019L329.05 280.591ZM323.174 274.614C322.858 274.346 322.385 274.384 322.117 274.7C321.849 275.016 321.887 275.489 322.203 275.757L323.174 274.614ZM323.174 286.567L329.535 281.162L328.564 280.019L322.203 285.424L323.174 286.567ZM329.535 280.019L323.174 274.614L322.203 275.757L328.564 281.162L329.535 280.019Z" fill="#031959"/>
<path d="M319.985 270.938C320.113 270.537 319.898 270.123 319.505 270.013C319.113 269.903 318.69 270.138 318.562 270.538L319.985 270.938ZM312.254 290.243C312.126 290.644 312.34 291.057 312.733 291.168C313.126 291.278 313.549 291.043 313.677 290.643L312.254 290.243ZM318.562 270.538L312.254 290.243L313.677 290.643L319.985 270.938L318.562 270.538Z" fill="#031959"/>
<path d="M328.061 243.481H326.828C326.755 243.127 326.627 242.815 326.445 242.547C326.266 242.278 326.047 242.053 325.789 241.871C325.534 241.685 325.25 241.546 324.939 241.453C324.627 241.36 324.302 241.314 323.964 241.314C323.348 241.314 322.789 241.47 322.289 241.781C321.792 242.093 321.396 242.552 321.101 243.158C320.809 243.765 320.663 244.509 320.663 245.391C320.663 246.272 320.809 247.016 321.101 247.623C321.396 248.229 321.792 248.688 322.289 249C322.789 249.311 323.348 249.467 323.964 249.467C324.302 249.467 324.627 249.421 324.939 249.328C325.25 249.235 325.534 249.098 325.789 248.915C326.047 248.73 326.266 248.503 326.445 248.234C326.627 247.963 326.755 247.651 326.828 247.3H328.061C327.968 247.82 327.799 248.286 327.554 248.697C327.309 249.108 327.004 249.457 326.639 249.746C326.274 250.031 325.865 250.248 325.411 250.397C324.96 250.546 324.478 250.621 323.964 250.621C323.096 250.621 322.324 250.409 321.648 249.984C320.971 249.56 320.439 248.957 320.052 248.175C319.664 247.392 319.47 246.464 319.47 245.391C319.47 244.317 319.664 243.389 320.052 242.606C320.439 241.824 320.971 241.221 321.648 240.797C322.324 240.373 323.096 240.16 323.964 240.16C324.478 240.16 324.96 240.235 325.411 240.384C325.865 240.533 326.274 240.752 326.639 241.04C327.004 241.325 327.309 241.673 327.554 242.084C327.799 242.492 327.968 242.958 328.061 243.481ZM332.996 250.641C332.307 250.641 331.702 250.476 331.182 250.148C330.665 249.82 330.26 249.361 329.969 248.771C329.68 248.181 329.536 247.492 329.536 246.703C329.536 245.908 329.68 245.213 329.969 244.62C330.26 244.027 330.665 243.566 331.182 243.238C331.702 242.91 332.307 242.746 332.996 242.746C333.686 242.746 334.289 242.91 334.806 243.238C335.326 243.566 335.731 244.027 336.019 244.62C336.311 245.213 336.457 245.908 336.457 246.703C336.457 247.492 336.311 248.181 336.019 248.771C335.731 249.361 335.326 249.82 334.806 250.148C334.289 250.476 333.686 250.641 332.996 250.641ZM332.996 249.587C333.52 249.587 333.951 249.452 334.289 249.184C334.627 248.915 334.877 248.562 335.04 248.125C335.202 247.687 335.283 247.213 335.283 246.703C335.283 246.193 335.202 245.717 335.04 245.276C334.877 244.835 334.627 244.479 334.289 244.207C333.951 243.936 333.52 243.8 332.996 243.8C332.473 243.8 332.042 243.936 331.704 244.207C331.366 244.479 331.116 244.835 330.953 245.276C330.791 245.717 330.71 246.193 330.71 246.703C330.71 247.213 330.791 247.687 330.953 248.125C331.116 248.562 331.366 248.915 331.704 249.184C332.042 249.452 332.473 249.587 332.996 249.587ZM339.421 245.888V250.481H338.248V242.845H339.381V244.038H339.481C339.66 243.65 339.931 243.339 340.296 243.104C340.661 242.865 341.131 242.746 341.708 242.746C342.225 242.746 342.677 242.852 343.065 243.064C343.453 243.273 343.755 243.591 343.97 244.018C344.185 244.443 344.293 244.98 344.293 245.629V250.481H343.12V245.709C343.12 245.109 342.964 244.641 342.653 244.307C342.341 243.969 341.913 243.8 341.37 243.8C340.995 243.8 340.661 243.881 340.366 244.043C340.074 244.206 339.844 244.443 339.675 244.754C339.506 245.066 339.421 245.444 339.421 245.888ZM349.758 242.845V243.839H345.801V242.845H349.758ZM346.954 241.016H348.127V248.294C348.127 248.625 348.176 248.874 348.272 249.04C348.371 249.202 348.497 249.311 348.65 249.368C348.805 249.421 348.969 249.447 349.142 249.447C349.271 249.447 349.377 249.441 349.46 249.427C349.543 249.411 349.609 249.398 349.659 249.388L349.897 250.442C349.818 250.472 349.707 250.501 349.564 250.531C349.422 250.564 349.241 250.581 349.022 250.581C348.691 250.581 348.366 250.51 348.048 250.367C347.733 250.225 347.471 250.007 347.262 249.716C347.057 249.424 346.954 249.056 346.954 248.612V241.016ZM353.77 250.66C353.286 250.66 352.847 250.569 352.453 250.387C352.058 250.201 351.745 249.935 351.513 249.587C351.281 249.235 351.165 248.811 351.165 248.314C351.165 247.876 351.251 247.522 351.424 247.25C351.596 246.975 351.826 246.759 352.115 246.604C352.403 246.448 352.721 246.332 353.069 246.256C353.421 246.176 353.774 246.113 354.128 246.067C354.592 246.007 354.968 245.962 355.257 245.932C355.548 245.899 355.761 245.845 355.893 245.768C356.029 245.692 356.097 245.56 356.097 245.371V245.331C356.097 244.84 355.963 244.459 355.694 244.187C355.429 243.916 355.026 243.78 354.486 243.78C353.926 243.78 353.487 243.902 353.169 244.148C352.85 244.393 352.627 244.655 352.498 244.933L351.384 244.535C351.583 244.071 351.848 243.71 352.179 243.452C352.514 243.19 352.879 243.007 353.273 242.905C353.671 242.799 354.062 242.746 354.446 242.746C354.692 242.746 354.973 242.775 355.292 242.835C355.613 242.891 355.923 243.009 356.221 243.188C356.523 243.367 356.773 243.637 356.972 243.998C357.171 244.36 357.27 244.844 357.27 245.45V250.481H356.097V249.447H356.037C355.958 249.613 355.825 249.79 355.64 249.979C355.454 250.168 355.207 250.329 354.899 250.462C354.591 250.594 354.214 250.66 353.77 250.66ZM353.949 249.606C354.413 249.606 354.804 249.515 355.123 249.333C355.444 249.151 355.686 248.915 355.848 248.627C356.014 248.339 356.097 248.035 356.097 247.717V246.643C356.047 246.703 355.938 246.758 355.769 246.807C355.603 246.854 355.411 246.895 355.192 246.932C354.977 246.965 354.766 246.995 354.561 247.021C354.359 247.044 354.194 247.064 354.069 247.081C353.764 247.121 353.479 247.185 353.213 247.275C352.952 247.361 352.739 247.492 352.577 247.668C352.418 247.84 352.338 248.075 352.338 248.373C352.338 248.781 352.489 249.089 352.791 249.298C353.096 249.504 353.482 249.606 353.949 249.606ZM359.412 250.481V242.845H360.585V250.481H359.412ZM360.008 241.572C359.78 241.572 359.582 241.494 359.417 241.339C359.254 241.183 359.173 240.996 359.173 240.777C359.173 240.558 359.254 240.371 359.417 240.215C359.582 240.059 359.78 239.981 360.008 239.981C360.237 239.981 360.433 240.059 360.595 240.215C360.761 240.371 360.844 240.558 360.844 240.777C360.844 240.996 360.761 241.183 360.595 241.339C360.433 241.494 360.237 241.572 360.008 241.572ZM363.907 245.888V250.481H362.734V242.845H363.868V244.038H363.967C364.146 243.65 364.418 243.339 364.782 243.104C365.147 242.865 365.618 242.746 366.194 242.746C366.711 242.746 367.164 242.852 367.551 243.064C367.939 243.273 368.241 243.591 368.456 244.018C368.672 244.443 368.779 244.98 368.779 245.629V250.481H367.606V245.709C367.606 245.109 367.45 244.641 367.139 244.307C366.827 243.969 366.4 243.8 365.856 243.8C365.482 243.8 365.147 243.881 364.852 244.043C364.56 244.206 364.33 244.443 364.161 244.754C363.992 245.066 363.907 245.444 363.907 245.888ZM374.125 250.641C373.389 250.641 372.755 250.478 372.221 250.153C371.691 249.825 371.281 249.368 370.993 248.781C370.708 248.191 370.566 247.505 370.566 246.723C370.566 245.941 370.708 245.251 370.993 244.655C371.281 244.055 371.682 243.588 372.196 243.253C372.713 242.915 373.316 242.746 374.006 242.746C374.404 242.746 374.796 242.812 375.184 242.945C375.572 243.077 375.925 243.293 376.243 243.591C376.561 243.886 376.815 244.277 377.004 244.764C377.193 245.251 377.287 245.851 377.287 246.564V247.061H371.401V246.047H376.094C376.094 245.616 376.008 245.231 375.835 244.893C375.666 244.555 375.424 244.288 375.11 244.093C374.798 243.897 374.43 243.8 374.006 243.8C373.539 243.8 373.134 243.916 372.793 244.148C372.455 244.376 372.195 244.675 372.012 245.043C371.83 245.41 371.739 245.805 371.739 246.226V246.902C371.739 247.479 371.838 247.967 372.037 248.369C372.239 248.766 372.519 249.07 372.877 249.278C373.235 249.484 373.651 249.587 374.125 249.587C374.433 249.587 374.712 249.543 374.96 249.457C375.212 249.368 375.429 249.235 375.612 249.06C375.794 248.881 375.935 248.659 376.034 248.393L377.168 248.712C377.048 249.096 376.848 249.434 376.566 249.726C376.285 250.014 375.936 250.239 375.522 250.402C375.108 250.561 374.642 250.641 374.125 250.641ZM379.072 250.481V242.845H380.205V243.998H380.285C380.424 243.621 380.676 243.314 381.041 243.079C381.405 242.843 381.816 242.726 382.274 242.726C382.36 242.726 382.468 242.727 382.597 242.731C382.726 242.734 382.824 242.739 382.89 242.746V243.939C382.85 243.929 382.759 243.914 382.617 243.894C382.477 243.871 382.33 243.859 382.174 243.859C381.803 243.859 381.472 243.937 381.18 244.093C380.892 244.245 380.663 244.458 380.494 244.729C380.328 244.998 380.245 245.304 380.245 245.649V250.481H379.072ZM389.69 244.555L388.636 244.854C388.57 244.678 388.472 244.507 388.343 244.342C388.217 244.172 388.044 244.033 387.826 243.924C387.607 243.815 387.327 243.76 386.985 243.76C386.518 243.76 386.129 243.868 385.817 244.083C385.509 244.295 385.355 244.565 385.355 244.893C385.355 245.185 385.461 245.415 385.673 245.584C385.885 245.753 386.217 245.894 386.667 246.007L387.801 246.285C388.484 246.451 388.992 246.705 389.327 247.046C389.662 247.384 389.829 247.82 389.829 248.354C389.829 248.791 389.703 249.182 389.451 249.527C389.203 249.872 388.855 250.143 388.407 250.342C387.96 250.541 387.44 250.641 386.846 250.641C386.067 250.641 385.423 250.472 384.912 250.133C384.402 249.795 384.079 249.302 383.943 248.652L385.056 248.373C385.163 248.784 385.363 249.093 385.658 249.298C385.956 249.504 386.346 249.606 386.826 249.606C387.373 249.606 387.807 249.49 388.129 249.258C388.454 249.023 388.616 248.741 388.616 248.413C388.616 248.148 388.523 247.926 388.338 247.747C388.152 247.565 387.867 247.429 387.483 247.339L386.21 247.041C385.511 246.875 384.997 246.619 384.669 246.271C384.344 245.919 384.181 245.48 384.181 244.953C384.181 244.522 384.302 244.141 384.544 243.81C384.79 243.478 385.123 243.218 385.544 243.029C385.968 242.84 386.449 242.746 386.985 242.746C387.741 242.746 388.334 242.911 388.765 243.243C389.199 243.574 389.508 244.012 389.69 244.555Z" fill="#E8F2FF"/>
<ellipse cx="392.695" cy="269.676" rx="12.2968" ry="3.97116" fill="#E8F2FF"/>
<path d="M392.695 294.069C399.487 294.069 404.992 292.291 404.992 290.098V269.605H380.398V290.098C380.398 292.291 385.904 294.069 392.695 294.069Z" fill="#E8F2FF"/>
<path d="M405.493 280.713C405.493 282.907 399.763 284.685 392.696 284.685C385.628 284.685 379.898 282.907 379.898 280.713" stroke="#031959"/>
<path d="M405.493 269.605C405.493 271.799 399.763 273.577 392.696 273.577C385.628 273.577 379.898 271.799 379.898 269.605" stroke="#031959"/>
<path d="M254.1 240.327L249.1 237.44V243.214L254.1 240.327ZM229.549 217.941V159H228.549V217.941H229.549ZM251.435 239.827C239.348 239.827 229.549 230.029 229.549 217.941H228.549C228.549 230.581 238.796 240.827 251.435 240.827V239.827Z" fill="#E8F2FF"/>
<path d="M204 240.327L209 237.44V243.214L204 240.327ZM228.55 217.941V159H229.55V217.941H228.55ZM206.664 239.827C218.752 239.827 228.55 230.029 228.55 217.941H229.55C229.55 230.581 219.304 240.827 206.664 240.827V239.827Z" fill="#E8F2FF"/>
</svg>
