<svg width="458" height="458" viewBox="0 0 458 458" fill="none" xmlns="http://www.w3.org/2000/svg">
<rect x="215.013" y="393.5" width="23.9891" height="23.9891" rx="11.9945" fill="#E8F2FF" stroke="#E8F2FF"/>
<path d="M236.906 413.406C234.621 410.444 231.037 408.536 227.006 408.536C222.976 408.536 219.391 410.444 217.106 413.406" stroke="#031959"/>
<rect x="222.168" y="396.265" width="9.67803" height="9.67803" rx="4.83901" stroke="#031959"/>
<rect x="194.5" y="420.895" width="23.9891" height="23.9891" rx="11.9945" fill="#E8F2FF" stroke="#E8F2FF"/>
<path d="M216.393 440.801C214.109 437.839 210.524 435.931 206.494 435.931C202.463 435.931 198.878 437.839 196.594 440.801" stroke="#031959"/>
<rect x="201.655" y="423.66" width="9.67803" height="9.67803" rx="4.83901" stroke="#031959"/>
<rect x="239.489" y="420.895" width="23.9891" height="23.9891" rx="11.9945" fill="#E8F2FF" stroke="#E8F2FF"/>
<path d="M261.383 440.801C259.098 437.839 255.513 435.931 251.483 435.931C247.452 435.931 243.868 437.839 241.583 440.801" stroke="#031959"/>
<rect x="246.645" y="423.66" width="9.67803" height="9.67803" rx="4.83901" stroke="#031959"/>
<rect x="137.5" y="12.5" width="182.265" height="95.2699" rx="11.5" fill="#031959" stroke="#E8F2FF"/>
<rect x="211.086" y="24.54" width="35.0948" height="35.0948" rx="17.5474" fill="#E8F2FF" stroke="#E8F2FF"/>
<path d="M242.932 53.5158C239.632 49.2369 234.454 46.4805 228.632 46.4805C222.811 46.4805 217.633 49.2369 214.333 53.5158" stroke="#031959" stroke-width="1.5"/>
<rect x="221.644" y="28.7559" width="13.9792" height="13.9792" rx="6.98958" stroke="#031959" stroke-width="1.5"/>
<path d="M198.167 79.8398V69.658H201.607C202.402 69.658 203.055 69.7939 203.566 70.0657C204.076 70.3342 204.454 70.7037 204.699 71.1744C204.944 71.645 205.067 72.1803 205.067 72.7802C205.067 73.3801 204.944 73.912 204.699 74.3761C204.454 74.8401 204.078 75.2047 203.571 75.4698C203.064 75.7317 202.416 75.8626 201.627 75.8626H198.843V74.7489H201.587C202.131 74.7489 202.568 74.6694 202.9 74.5103C203.234 74.3512 203.476 74.1258 203.625 73.8342C203.778 73.5392 203.854 73.1879 203.854 72.7802C203.854 72.3725 203.778 72.0162 203.625 71.7113C203.473 71.4064 203.229 71.171 202.895 71.0053C202.56 70.8363 202.117 70.7518 201.567 70.7518H199.4V79.8398H198.167ZM202.959 75.266L205.465 79.8398H204.033L201.567 75.266H202.959ZM210.082 79.9989C209.346 79.9989 208.712 79.8365 208.178 79.5117C207.648 79.1836 207.238 78.7262 206.95 78.1396C206.665 77.5496 206.523 76.8635 206.523 76.0813C206.523 75.2991 206.665 74.6097 206.95 74.0131C207.238 73.4132 207.64 72.9459 208.153 72.6112C208.67 72.2731 209.273 72.104 209.963 72.104C210.361 72.104 210.753 72.1703 211.141 72.3029C211.529 72.4355 211.882 72.6509 212.2 72.9492C212.518 73.2442 212.772 73.6353 212.961 74.1225C213.15 74.6097 213.244 75.2096 213.244 75.9222V76.4194H207.358V75.4052H212.051C212.051 74.9743 211.965 74.5898 211.792 74.2518C211.623 73.9137 211.381 73.6469 211.067 73.4513C210.755 73.2558 210.387 73.158 209.963 73.158C209.496 73.158 209.091 73.274 208.75 73.506C208.412 73.7347 208.152 74.033 207.969 74.4009C207.787 74.7688 207.696 75.1632 207.696 75.5842V76.2603C207.696 76.837 207.795 77.3259 207.994 77.7269C208.196 78.1246 208.476 78.4279 208.834 78.6367C209.192 78.8422 209.608 78.945 210.082 78.945C210.39 78.945 210.669 78.9019 210.917 78.8157C211.169 78.7262 211.386 78.5936 211.569 78.418C211.751 78.239 211.892 78.0169 211.991 77.7518L213.125 78.07C213.006 78.4544 212.805 78.7925 212.523 79.0842C212.242 79.3725 211.894 79.5979 211.479 79.7603C211.065 79.9194 210.599 79.9989 210.082 79.9989ZM217.276 80.0188C216.792 80.0188 216.353 79.9277 215.959 79.7454C215.564 79.5598 215.251 79.293 215.019 78.945C214.787 78.5936 214.671 78.1694 214.671 77.6722C214.671 77.2347 214.757 76.8801 214.93 76.6083C215.102 76.3332 215.332 76.1178 215.621 75.962C215.909 75.8062 216.227 75.6902 216.575 75.614C216.926 75.5344 217.279 75.4715 217.634 75.4251C218.098 75.3654 218.474 75.3207 218.763 75.2908C219.054 75.2577 219.266 75.203 219.399 75.1268C219.535 75.0505 219.603 74.918 219.603 74.729V74.6893C219.603 74.1987 219.469 73.8176 219.2 73.5458C218.935 73.274 218.532 73.1381 217.992 73.1381C217.432 73.1381 216.993 73.2608 216.675 73.506C216.356 73.7513 216.133 74.0131 216.003 74.2915L214.89 73.8938C215.089 73.4298 215.354 73.0685 215.685 72.81C216.02 72.5482 216.385 72.3659 216.779 72.2631C217.177 72.1571 217.568 72.104 217.952 72.104C218.198 72.104 218.479 72.1339 218.797 72.1935C219.119 72.2499 219.429 72.3675 219.727 72.5465C220.029 72.7255 220.279 72.9956 220.478 73.3569C220.677 73.7182 220.776 74.2021 220.776 74.8086V79.8398H219.603V78.8058H219.543C219.464 78.9715 219.331 79.1488 219.145 79.3377C218.96 79.5266 218.713 79.6874 218.405 79.82C218.096 79.9525 217.72 80.0188 217.276 80.0188ZM217.455 78.9648C217.919 78.9648 218.31 78.8737 218.628 78.6914C218.95 78.5091 219.192 78.2738 219.354 77.9854C219.52 77.6971 219.603 77.3938 219.603 77.0756V76.0018C219.553 76.0614 219.444 76.1161 219.275 76.1658C219.109 76.2122 218.917 76.2537 218.698 76.2901C218.483 76.3233 218.272 76.3531 218.067 76.3796C217.864 76.4028 217.7 76.4227 217.574 76.4393C217.269 76.479 216.984 76.5437 216.719 76.6332C216.457 76.7193 216.245 76.8503 216.083 77.0259C215.924 77.1983 215.844 77.4336 215.844 77.7319C215.844 78.1396 215.995 78.4478 216.297 78.6566C216.602 78.8621 216.988 78.9648 217.455 78.9648ZM224.091 69.658V79.8398H222.918V69.658H224.091ZM230.615 74.9279V76.0217H226.16V74.9279H230.615ZM236 72.2035V73.1978H232.043V72.2035H236ZM233.196 70.3739H234.37V77.6523C234.37 77.9838 234.418 78.2324 234.514 78.3981C234.613 78.5605 234.739 78.6699 234.892 78.7262C235.047 78.7792 235.212 78.8058 235.384 78.8058C235.513 78.8058 235.619 78.7991 235.702 78.7859C235.785 78.7693 235.851 78.756 235.901 78.7461L236.14 79.8001C236.06 79.8299 235.949 79.8597 235.806 79.8896C235.664 79.9227 235.483 79.9393 235.265 79.9393C234.933 79.9393 234.608 79.868 234.29 79.7255C233.975 79.583 233.713 79.3659 233.505 79.0742C233.299 78.7826 233.196 78.4147 233.196 77.9705V70.3739ZM237.765 79.8398V72.2035H238.939V79.8398H237.765ZM238.362 70.9308C238.133 70.9308 237.936 70.8529 237.77 70.6971C237.608 70.5413 237.527 70.354 237.527 70.1353C237.527 69.9165 237.608 69.7293 237.77 69.5735C237.936 69.4177 238.133 69.3398 238.362 69.3398C238.591 69.3398 238.786 69.4177 238.949 69.5735C239.114 69.7293 239.197 69.9165 239.197 70.1353C239.197 70.354 239.114 70.5413 238.949 70.6971C238.786 70.8529 238.591 70.9308 238.362 70.9308ZM241.088 79.8398V72.2035H242.221V73.3967H242.32C242.48 72.989 242.736 72.6725 243.091 72.4471C243.446 72.2184 243.872 72.104 244.369 72.104C244.873 72.104 245.292 72.2184 245.627 72.4471C245.965 72.6725 246.228 72.989 246.417 73.3967H246.497C246.692 73.0022 246.985 72.689 247.377 72.457C247.768 72.2217 248.237 72.104 248.784 72.104C249.466 72.104 250.025 72.3178 250.459 72.7454C250.893 73.1696 251.11 73.8308 251.11 74.729V79.8398H249.937V74.729C249.937 74.1656 249.783 73.7629 249.475 73.521C249.166 73.279 248.803 73.158 248.386 73.158C247.849 73.158 247.433 73.3204 247.138 73.6452C246.843 73.9667 246.695 74.3744 246.695 74.8683V79.8398H245.502V74.6097C245.502 74.1755 245.361 73.8259 245.08 73.5607C244.798 73.2923 244.435 73.158 243.991 73.158C243.686 73.158 243.401 73.2392 243.136 73.4016C242.874 73.564 242.662 73.7894 242.499 74.0778C242.34 74.3628 242.261 74.6926 242.261 75.0671V79.8398H241.088ZM256.457 79.9989C255.721 79.9989 255.087 79.8365 254.553 79.5117C254.023 79.1836 253.613 78.7262 253.325 78.1396C253.04 77.5496 252.898 76.8635 252.898 76.0813C252.898 75.2991 253.04 74.6097 253.325 74.0131C253.613 73.4132 254.015 72.9459 254.528 72.6112C255.045 72.2731 255.648 72.104 256.338 72.104C256.736 72.104 257.128 72.1703 257.516 72.3029C257.904 72.4355 258.257 72.6509 258.575 72.9492C258.893 73.2442 259.147 73.6353 259.336 74.1225C259.525 74.6097 259.619 75.2096 259.619 75.9222V76.4194H253.733V75.4052H258.426C258.426 74.9743 258.34 74.5898 258.167 74.2518C257.998 73.9137 257.756 73.6469 257.442 73.4513C257.13 73.2558 256.762 73.158 256.338 73.158C255.871 73.158 255.466 73.274 255.125 73.506C254.787 73.7347 254.527 74.033 254.344 74.4009C254.162 74.7688 254.071 75.1632 254.071 75.5842V76.2603C254.071 76.837 254.17 77.3259 254.369 77.7269C254.571 78.1246 254.851 78.4279 255.209 78.6367C255.567 78.8422 255.983 78.945 256.457 78.945C256.765 78.945 257.044 78.9019 257.292 78.8157C257.544 78.7262 257.761 78.5936 257.944 78.418C258.126 78.239 258.267 78.0169 258.366 77.7518L259.5 78.07C259.381 78.4544 259.18 78.7925 258.898 79.0842C258.617 79.3725 258.269 79.5979 257.854 79.7603C257.44 79.9194 256.974 79.9989 256.457 79.9989ZM189.906 95.9989C189.19 95.9989 188.573 95.8299 188.056 95.4918C187.539 95.1538 187.141 94.6881 186.863 94.0948C186.585 93.5015 186.445 92.8237 186.445 92.0614C186.445 91.2859 186.588 90.6014 186.873 90.0082C187.161 89.4116 187.562 88.9459 188.076 88.6112C188.593 88.2731 189.196 88.104 189.886 88.104C190.423 88.104 190.907 88.2035 191.337 88.4023C191.768 88.6012 192.121 88.8796 192.396 89.2376C192.671 89.5955 192.842 90.0131 192.908 90.4904H191.735C191.646 90.1424 191.447 89.8342 191.139 89.5657C190.834 89.2939 190.423 89.158 189.906 89.158C189.448 89.158 189.047 89.2773 188.703 89.516C188.361 89.7513 188.094 90.0844 187.902 90.5153C187.713 90.9428 187.619 91.445 187.619 92.0217C187.619 92.6116 187.711 93.1254 187.897 93.5629C188.086 94.0004 188.351 94.3401 188.693 94.582C189.037 94.824 189.442 94.945 189.906 94.945C190.211 94.945 190.487 94.8919 190.736 94.7859C190.984 94.6798 191.195 94.5273 191.367 94.3285C191.54 94.1296 191.662 93.891 191.735 93.6126H192.908C192.842 94.0633 192.678 94.4693 192.416 94.8306C192.158 95.1886 191.815 95.4736 191.387 95.6857C190.963 95.8945 190.469 95.9989 189.906 95.9989ZM197.726 95.9989C197.037 95.9989 196.432 95.8349 195.911 95.5067C195.394 95.1786 194.99 94.7196 194.698 94.1296C194.41 93.5397 194.266 92.8503 194.266 92.0614C194.266 91.266 194.41 90.5716 194.698 89.9783C194.99 89.3851 195.394 88.9244 195.911 88.5962C196.432 88.2681 197.037 88.104 197.726 88.104C198.415 88.104 199.019 88.2681 199.536 88.5962C200.056 88.9244 200.46 89.3851 200.749 89.9783C201.04 90.5716 201.186 91.266 201.186 92.0614C201.186 92.8503 201.04 93.5397 200.749 94.1296C200.46 94.7196 200.056 95.1786 199.536 95.5067C199.019 95.8349 198.415 95.9989 197.726 95.9989ZM197.726 94.945C198.25 94.945 198.68 94.8107 199.019 94.5423C199.357 94.2738 199.607 93.9208 199.769 93.4833C199.932 93.0458 200.013 92.5719 200.013 92.0614C200.013 91.551 199.932 91.0754 199.769 90.6346C199.607 90.1938 199.357 89.8375 199.019 89.5657C198.68 89.2939 198.25 89.158 197.726 89.158C197.202 89.158 196.771 89.2939 196.433 89.5657C196.095 89.8375 195.845 90.1938 195.683 90.6346C195.52 91.0754 195.439 91.551 195.439 92.0614C195.439 92.5719 195.52 93.0458 195.683 93.4833C195.845 93.9208 196.095 94.2738 196.433 94.5423C196.771 94.8107 197.202 94.945 197.726 94.945ZM204.15 85.658V95.8398H202.977V85.658H204.15ZM207.473 85.658V95.8398H206.299V85.658H207.473ZM211.869 96.0188C211.385 96.0188 210.946 95.9277 210.551 95.7454C210.157 95.5598 209.844 95.293 209.612 94.945C209.38 94.5936 209.264 94.1694 209.264 93.6722C209.264 93.2347 209.35 92.8801 209.522 92.6083C209.695 92.3332 209.925 92.1178 210.213 91.962C210.502 91.8062 210.82 91.6902 211.168 91.614C211.519 91.5344 211.872 91.4715 212.227 91.4251C212.691 91.3654 213.067 91.3207 213.355 91.2908C213.647 91.2577 213.859 91.203 213.992 91.1268C214.128 91.0505 214.196 90.918 214.196 90.729V90.6893C214.196 90.1987 214.061 89.8176 213.793 89.5458C213.528 89.274 213.125 89.1381 212.585 89.1381C212.025 89.1381 211.585 89.2608 211.267 89.506C210.949 89.7513 210.725 90.0131 210.596 90.2915L209.483 89.8938C209.681 89.4298 209.947 89.0685 210.278 88.81C210.613 88.5482 210.977 88.3659 211.372 88.2631C211.769 88.1571 212.161 88.104 212.545 88.104C212.79 88.104 213.072 88.1339 213.39 88.1935C213.712 88.2499 214.022 88.3675 214.32 88.5465C214.621 88.7255 214.872 88.9956 215.071 89.3569C215.269 89.7182 215.369 90.2021 215.369 90.8086V95.8398H214.196V94.8058H214.136C214.056 94.9715 213.924 95.1488 213.738 95.3377C213.553 95.5266 213.306 95.6874 212.997 95.82C212.689 95.9525 212.313 96.0188 211.869 96.0188ZM212.048 94.9648C212.512 94.9648 212.903 94.8737 213.221 94.6914C213.543 94.5091 213.785 94.2738 213.947 93.9854C214.113 93.6971 214.196 93.3938 214.196 93.0756V92.0018C214.146 92.0614 214.036 92.1161 213.867 92.1658C213.702 92.2122 213.509 92.2537 213.291 92.2901C213.075 92.3233 212.865 92.3531 212.659 92.3796C212.457 92.4028 212.293 92.4227 212.167 92.4393C211.862 92.479 211.577 92.5437 211.312 92.6332C211.05 92.7193 210.838 92.8503 210.676 93.0259C210.517 93.1983 210.437 93.4336 210.437 93.7319C210.437 94.1396 210.588 94.4478 210.889 94.6566C211.194 94.8621 211.581 94.9648 212.048 94.9648ZM217.669 95.8398V85.658H218.843V89.4165H218.942C219.028 89.284 219.148 89.1149 219.3 88.9094C219.456 88.7006 219.678 88.515 219.966 88.3526C220.258 88.1869 220.652 88.104 221.15 88.104C221.793 88.104 222.359 88.2648 222.85 88.5863C223.34 88.9078 223.723 89.3635 223.998 89.9535C224.273 90.5434 224.411 91.2395 224.411 92.0415C224.411 92.8503 224.273 93.5513 223.998 94.1445C223.723 94.7345 223.342 95.1919 222.855 95.5167C222.368 95.8382 221.806 95.9989 221.169 95.9989C220.679 95.9989 220.286 95.9177 219.991 95.7553C219.696 95.5896 219.469 95.4023 219.31 95.1935C219.151 94.9814 219.028 94.8058 218.942 94.6665H218.803V95.8398H217.669ZM218.823 92.0217C218.823 92.5984 218.907 93.1071 219.076 93.5479C219.245 93.9854 219.492 94.3285 219.817 94.5771C220.142 94.8223 220.54 94.945 221.01 94.945C221.501 94.945 221.91 94.8157 222.238 94.5572C222.57 94.2953 222.818 93.944 222.984 93.5032C223.153 93.0591 223.238 92.5652 223.238 92.0217C223.238 91.4847 223.155 91.0008 222.989 90.57C222.827 90.1358 222.58 89.7927 222.248 89.5408C221.92 89.2856 221.508 89.158 221.01 89.158C220.533 89.158 220.132 89.279 219.807 89.521C219.482 89.7596 219.237 90.0943 219.071 90.5252C218.906 90.9528 218.823 91.4516 218.823 92.0217ZM229.308 95.9989C228.619 95.9989 228.014 95.8349 227.493 95.5067C226.976 95.1786 226.572 94.7196 226.28 94.1296C225.992 93.5397 225.848 92.8503 225.848 92.0614C225.848 91.266 225.992 90.5716 226.28 89.9783C226.572 89.3851 226.976 88.9244 227.493 88.5962C228.014 88.2681 228.619 88.104 229.308 88.104C229.997 88.104 230.601 88.2681 231.118 88.5962C231.638 88.9244 232.042 89.3851 232.331 89.9783C232.622 90.5716 232.768 91.266 232.768 92.0614C232.768 92.8503 232.622 93.5397 232.331 94.1296C232.042 94.7196 231.638 95.1786 231.118 95.5067C230.601 95.8349 229.997 95.9989 229.308 95.9989ZM229.308 94.945C229.832 94.945 230.263 94.8107 230.601 94.5423C230.939 94.2738 231.189 93.9208 231.351 93.4833C231.514 93.0458 231.595 92.5719 231.595 92.0614C231.595 91.551 231.514 91.0754 231.351 90.6346C231.189 90.1938 230.939 89.8375 230.601 89.5657C230.263 89.2939 229.832 89.158 229.308 89.158C228.784 89.158 228.353 89.2939 228.015 89.5657C227.677 89.8375 227.427 90.1938 227.265 90.6346C227.102 91.0754 227.021 91.551 227.021 92.0614C227.021 92.5719 227.102 93.0458 227.265 93.4833C227.427 93.9208 227.677 94.2738 228.015 94.5423C228.353 94.8107 228.784 94.945 229.308 94.945ZM234.559 95.8398V88.2035H235.693V89.3569H235.772C235.911 88.979 236.163 88.6725 236.528 88.4371C236.893 88.2018 237.304 88.0842 237.761 88.0842C237.847 88.0842 237.955 88.0858 238.084 88.0891C238.213 88.0924 238.311 88.0974 238.377 88.104V89.2972C238.338 89.2873 238.246 89.2724 238.104 89.2525C237.965 89.2293 237.817 89.2177 237.661 89.2177C237.29 89.2177 236.959 89.2956 236.667 89.4513C236.379 89.6038 236.15 89.8159 235.981 90.0877C235.815 90.3562 235.733 90.6628 235.733 91.0075V95.8398H234.559ZM242.015 96.0188C241.531 96.0188 241.092 95.9277 240.698 95.7454C240.303 95.5598 239.99 95.293 239.758 94.945C239.526 94.5936 239.41 94.1694 239.41 93.6722C239.41 93.2347 239.496 92.8801 239.669 92.6083C239.841 92.3332 240.071 92.1178 240.36 91.962C240.648 91.8062 240.966 91.6902 241.314 91.614C241.666 91.5344 242.019 91.4715 242.373 91.4251C242.837 91.3654 243.214 91.3207 243.502 91.2908C243.794 91.2577 244.006 91.203 244.138 91.1268C244.274 91.0505 244.342 90.918 244.342 90.729V90.6893C244.342 90.1987 244.208 89.8176 243.939 89.5458C243.674 89.274 243.272 89.1381 242.731 89.1381C242.171 89.1381 241.732 89.2608 241.414 89.506C241.096 89.7513 240.872 90.0131 240.743 90.2915L239.629 89.8938C239.828 89.4298 240.093 89.0685 240.424 88.81C240.759 88.5482 241.124 88.3659 241.518 88.2631C241.916 88.1571 242.307 88.104 242.691 88.104C242.937 88.104 243.218 88.1339 243.537 88.1935C243.858 88.2499 244.168 88.3675 244.466 88.5465C244.768 88.7255 245.018 88.9956 245.217 89.3569C245.416 89.7182 245.515 90.2021 245.515 90.8086V95.8398H244.342V94.8058H244.282C244.203 94.9715 244.07 95.1488 243.885 95.3377C243.699 95.5266 243.452 95.6874 243.144 95.82C242.836 95.9525 242.459 96.0188 242.015 96.0188ZM242.194 94.9648C242.658 94.9648 243.049 94.8737 243.368 94.6914C243.689 94.5091 243.931 94.2738 244.093 93.9854C244.259 93.6971 244.342 93.3938 244.342 93.0756V92.0018C244.292 92.0614 244.183 92.1161 244.014 92.1658C243.848 92.2122 243.656 92.2537 243.437 92.2901C243.222 92.3233 243.011 92.3531 242.806 92.3796C242.604 92.4028 242.44 92.4227 242.314 92.4393C242.009 92.479 241.724 92.5437 241.459 92.6332C241.197 92.7193 240.985 92.8503 240.822 93.0259C240.663 93.1983 240.584 93.4336 240.584 93.7319C240.584 94.1396 240.734 94.4478 241.036 94.6566C241.341 94.8621 241.727 94.9648 242.194 94.9648ZM250.978 88.2035V89.1978H247.021V88.2035H250.978ZM248.174 86.3739H249.347V93.6523C249.347 93.9838 249.395 94.2324 249.491 94.3981C249.591 94.5605 249.717 94.6699 249.869 94.7262C250.025 94.7792 250.189 94.8058 250.361 94.8058C250.491 94.8058 250.597 94.7991 250.68 94.7859C250.762 94.7693 250.829 94.756 250.878 94.7461L251.117 95.8001C251.038 95.8299 250.927 95.8597 250.784 95.8896C250.641 95.9227 250.461 95.9393 250.242 95.9393C249.911 95.9393 249.586 95.868 249.268 95.7255C248.953 95.583 248.691 95.3659 248.482 95.0742C248.277 94.7826 248.174 94.4147 248.174 93.9705V86.3739ZM252.743 95.8398V88.2035H253.916V95.8398H252.743ZM253.339 86.9308C253.111 86.9308 252.914 86.8529 252.748 86.6971C252.585 86.5413 252.504 86.354 252.504 86.1353C252.504 85.9165 252.585 85.7293 252.748 85.5735C252.914 85.4177 253.111 85.3398 253.339 85.3398C253.568 85.3398 253.764 85.4177 253.926 85.5735C254.092 85.7293 254.175 85.9165 254.175 86.1353C254.175 86.354 254.092 86.5413 253.926 86.6971C253.764 86.8529 253.568 86.9308 253.339 86.9308ZM259.167 95.9989C258.478 95.9989 257.873 95.8349 257.353 95.5067C256.836 95.1786 256.431 94.7196 256.14 94.1296C255.851 93.5397 255.707 92.8503 255.707 92.0614C255.707 91.266 255.851 90.5716 256.14 89.9783C256.431 89.3851 256.836 88.9244 257.353 88.5962C257.873 88.2681 258.478 88.104 259.167 88.104C259.857 88.104 260.46 88.2681 260.977 88.5962C261.497 88.9244 261.902 89.3851 262.19 89.9783C262.482 90.5716 262.628 91.266 262.628 92.0614C262.628 92.8503 262.482 93.5397 262.19 94.1296C261.902 94.7196 261.497 95.1786 260.977 95.5067C260.46 95.8349 259.857 95.9989 259.167 95.9989ZM259.167 94.945C259.691 94.945 260.122 94.8107 260.46 94.5423C260.798 94.2738 261.048 93.9208 261.211 93.4833C261.373 93.0458 261.454 92.5719 261.454 92.0614C261.454 91.551 261.373 91.0754 261.211 90.6346C261.048 90.1938 260.798 89.8375 260.46 89.5657C260.122 89.2939 259.691 89.158 259.167 89.158C258.644 89.158 258.213 89.2939 257.875 89.5657C257.537 89.8375 257.286 90.1938 257.124 90.6346C256.962 91.0754 256.88 91.551 256.88 92.0614C256.88 92.5719 256.962 93.0458 257.124 93.4833C257.286 93.9208 257.537 94.2738 257.875 94.5423C258.213 94.8107 258.644 94.945 259.167 94.945ZM265.592 91.2461V95.8398H264.419V88.2035H265.552V89.3967H265.652C265.831 89.0089 266.102 88.6973 266.467 88.462C266.831 88.2234 267.302 88.104 267.879 88.104C268.396 88.104 268.848 88.2101 269.236 88.4222C269.624 88.631 269.925 88.9492 270.141 89.3768C270.356 89.801 270.464 90.3379 270.464 90.9876V95.8398H269.291V91.0671C269.291 90.4672 269.135 89.9999 268.823 89.6651C268.512 89.3271 268.084 89.158 267.541 89.158C267.166 89.158 266.831 89.2392 266.536 89.4016C266.245 89.564 266.014 89.801 265.845 90.1126C265.676 90.4241 265.592 90.802 265.592 91.2461Z" fill="#E8F2FF"/>
<rect x="137.5" y="175.738" width="182.265" height="186.677" rx="11.5" fill="#031959" stroke="#E8F2FF"/>
<path d="M174.076 315.697C174.016 315.193 173.774 314.802 173.35 314.524C172.926 314.245 172.405 314.106 171.789 314.106C171.338 314.106 170.944 314.179 170.606 314.325C170.271 314.471 170.009 314.671 169.82 314.927C169.635 315.182 169.542 315.472 169.542 315.797C169.542 316.068 169.606 316.302 169.736 316.498C169.868 316.69 170.037 316.851 170.243 316.98C170.448 317.106 170.664 317.21 170.889 317.293C171.114 317.373 171.322 317.437 171.511 317.487L172.545 317.765C172.81 317.835 173.105 317.931 173.43 318.054C173.758 318.176 174.071 318.344 174.369 318.556C174.671 318.765 174.919 319.033 175.115 319.361C175.311 319.689 175.408 320.092 175.408 320.569C175.408 321.119 175.264 321.617 174.976 322.061C174.691 322.505 174.273 322.858 173.723 323.12C173.176 323.382 172.512 323.512 171.729 323.512C171 323.512 170.369 323.395 169.835 323.159C169.305 322.924 168.887 322.596 168.582 322.175C168.281 321.754 168.11 321.265 168.07 320.708H169.343C169.376 321.093 169.505 321.411 169.731 321.663C169.959 321.912 170.248 322.097 170.596 322.22C170.947 322.339 171.325 322.399 171.729 322.399C172.2 322.399 172.623 322.323 172.997 322.17C173.372 322.014 173.668 321.799 173.887 321.524C174.106 321.245 174.215 320.921 174.215 320.549C174.215 320.211 174.121 319.936 173.932 319.724C173.743 319.512 173.494 319.34 173.186 319.207C172.878 319.074 172.545 318.958 172.187 318.859L170.934 318.501C170.138 318.272 169.509 317.946 169.045 317.522C168.581 317.097 168.349 316.542 168.349 315.856C168.349 315.286 168.503 314.789 168.811 314.365C169.123 313.937 169.54 313.606 170.064 313.37C170.591 313.132 171.179 313.012 171.829 313.012C172.485 313.012 173.068 313.13 173.579 313.365C174.089 313.597 174.494 313.916 174.792 314.32C175.093 314.724 175.253 315.183 175.269 315.697H174.076ZM180.379 323.493C179.689 323.493 179.084 323.329 178.564 323C178.047 322.672 177.643 322.213 177.351 321.623C177.063 321.033 176.918 320.344 176.918 319.555C176.918 318.76 177.063 318.065 177.351 317.472C177.643 316.879 178.047 316.418 178.564 316.09C179.084 315.762 179.689 315.598 180.379 315.598C181.068 315.598 181.671 315.762 182.188 316.09C182.709 316.418 183.113 316.879 183.401 317.472C183.693 318.065 183.839 318.76 183.839 319.555C183.839 320.344 183.693 321.033 183.401 321.623C183.113 322.213 182.709 322.672 182.188 323C181.671 323.329 181.068 323.493 180.379 323.493ZM180.379 322.439C180.902 322.439 181.333 322.304 181.671 322.036C182.009 321.767 182.26 321.414 182.422 320.977C182.584 320.539 182.666 320.066 182.666 319.555C182.666 319.045 182.584 318.569 182.422 318.128C182.26 317.687 182.009 317.331 181.671 317.059C181.333 316.788 180.902 316.652 180.379 316.652C179.855 316.652 179.424 316.788 179.086 317.059C178.748 317.331 178.498 317.687 178.335 318.128C178.173 318.569 178.092 319.045 178.092 319.555C178.092 320.066 178.173 320.539 178.335 320.977C178.498 321.414 178.748 321.767 179.086 322.036C179.424 322.304 179.855 322.439 180.379 322.439ZM190.442 320.211V315.697H191.616V323.333H190.442V322.041H190.363C190.184 322.429 189.905 322.758 189.528 323.03C189.15 323.299 188.672 323.433 188.096 323.433C187.619 323.433 187.194 323.329 186.823 323.12C186.452 322.908 186.16 322.589 185.948 322.165C185.736 321.738 185.63 321.199 185.63 320.549V315.697H186.803V320.47C186.803 321.027 186.959 321.471 187.271 321.802C187.585 322.134 187.986 322.299 188.474 322.299C188.765 322.299 189.062 322.225 189.364 322.076C189.668 321.927 189.924 321.698 190.129 321.39C190.338 321.081 190.442 320.689 190.442 320.211ZM193.765 323.333V315.697H194.898V316.851H194.978C195.117 316.473 195.369 316.166 195.733 315.931C196.098 315.695 196.509 315.578 196.966 315.578C197.053 315.578 197.16 315.579 197.29 315.583C197.419 315.586 197.517 315.591 197.583 315.598V316.791C197.543 316.781 197.452 316.766 197.309 316.746C197.17 316.723 197.023 316.711 196.867 316.711C196.496 316.711 196.164 316.789 195.873 316.945C195.584 317.097 195.356 317.31 195.187 317.581C195.021 317.85 194.938 318.156 194.938 318.501V323.333H193.765ZM201.843 323.493C201.128 323.493 200.511 323.324 199.994 322.985C199.477 322.647 199.079 322.182 198.801 321.588C198.522 320.995 198.383 320.317 198.383 319.555C198.383 318.78 198.526 318.095 198.811 317.502C199.099 316.905 199.5 316.44 200.014 316.105C200.531 315.767 201.134 315.598 201.824 315.598C202.361 315.598 202.844 315.697 203.275 315.896C203.706 316.095 204.059 316.373 204.334 316.731C204.609 317.089 204.78 317.507 204.846 317.984H203.673C203.584 317.636 203.385 317.328 203.076 317.059C202.772 316.788 202.361 316.652 201.843 316.652C201.386 316.652 200.985 316.771 200.64 317.01C200.299 317.245 200.032 317.578 199.84 318.009C199.651 318.436 199.557 318.939 199.557 319.515C199.557 320.105 199.649 320.619 199.835 321.057C200.024 321.494 200.289 321.834 200.63 322.076C200.975 322.318 201.379 322.439 201.843 322.439C202.148 322.439 202.425 322.386 202.674 322.28C202.922 322.173 203.133 322.021 203.305 321.822C203.477 321.623 203.6 321.385 203.673 321.106H204.846C204.78 321.557 204.616 321.963 204.354 322.324C204.096 322.682 203.753 322.967 203.325 323.179C202.901 323.388 202.407 323.493 201.843 323.493ZM209.763 323.493C209.027 323.493 208.393 323.33 207.859 323.005C207.329 322.677 206.919 322.22 206.631 321.633C206.346 321.043 206.204 320.357 206.204 319.575C206.204 318.793 206.346 318.103 206.631 317.507C206.919 316.907 207.321 316.44 207.834 316.105C208.351 315.767 208.955 315.598 209.644 315.598C210.042 315.598 210.434 315.664 210.822 315.797C211.21 315.929 211.563 316.145 211.881 316.443C212.199 316.738 212.453 317.129 212.642 317.616C212.831 318.103 212.925 318.703 212.925 319.416V319.913H207.039V318.899H211.732C211.732 318.468 211.646 318.083 211.473 317.745C211.304 317.407 211.062 317.141 210.748 316.945C210.436 316.749 210.068 316.652 209.644 316.652C209.177 316.652 208.772 316.768 208.431 317C208.093 317.228 207.833 317.527 207.65 317.895C207.468 318.262 207.377 318.657 207.377 319.078V319.754C207.377 320.331 207.476 320.82 207.675 321.221C207.877 321.618 208.157 321.922 208.515 322.13C208.873 322.336 209.289 322.439 209.763 322.439C210.071 322.439 210.35 322.396 210.598 322.309C210.85 322.22 211.067 322.087 211.25 321.912C211.432 321.733 211.573 321.511 211.672 321.245L212.806 321.564C212.687 321.948 212.486 322.286 212.204 322.578C211.923 322.866 211.575 323.092 211.16 323.254C210.746 323.413 210.28 323.493 209.763 323.493ZM178.123 339.493C177.407 339.493 176.79 339.324 176.273 338.985C175.756 338.647 175.359 338.182 175.08 337.588C174.802 336.995 174.663 336.317 174.663 335.555C174.663 334.78 174.805 334.095 175.09 333.502C175.378 332.905 175.779 332.44 176.293 332.105C176.81 331.767 177.413 331.598 178.103 331.598C178.64 331.598 179.124 331.697 179.555 331.896C179.985 332.095 180.338 332.373 180.614 332.731C180.889 333.089 181.059 333.507 181.126 333.984H179.952C179.863 333.636 179.664 333.328 179.356 333.059C179.051 332.788 178.64 332.652 178.123 332.652C177.665 332.652 177.264 332.771 176.92 333.01C176.578 333.245 176.311 333.578 176.119 334.009C175.93 334.436 175.836 334.939 175.836 335.515C175.836 336.105 175.929 336.619 176.114 337.057C176.303 337.494 176.568 337.834 176.91 338.076C177.254 338.318 177.659 338.439 178.123 338.439C178.428 338.439 178.704 338.386 178.953 338.28C179.202 338.173 179.412 338.021 179.584 337.822C179.757 337.623 179.879 337.385 179.952 337.106H181.126C181.059 337.557 180.895 337.963 180.633 338.324C180.375 338.682 180.032 338.967 179.604 339.179C179.18 339.388 178.686 339.493 178.123 339.493ZM185.943 339.493C185.254 339.493 184.649 339.329 184.128 339C183.611 338.672 183.207 338.213 182.915 337.623C182.627 337.033 182.483 336.344 182.483 335.555C182.483 334.76 182.627 334.065 182.915 333.472C183.207 332.879 183.611 332.418 184.128 332.09C184.649 331.762 185.254 331.598 185.943 331.598C186.632 331.598 187.236 331.762 187.753 332.09C188.273 332.418 188.677 332.879 188.966 333.472C189.257 334.065 189.403 334.76 189.403 335.555C189.403 336.344 189.257 337.033 188.966 337.623C188.677 338.213 188.273 338.672 187.753 339C187.236 339.329 186.632 339.493 185.943 339.493ZM185.943 338.439C186.467 338.439 186.898 338.304 187.236 338.036C187.574 337.767 187.824 337.414 187.986 336.977C188.149 336.539 188.23 336.066 188.23 335.555C188.23 335.045 188.149 334.569 187.986 334.128C187.824 333.687 187.574 333.331 187.236 333.059C186.898 332.788 186.467 332.652 185.943 332.652C185.419 332.652 184.989 332.788 184.65 333.059C184.312 333.331 184.062 333.687 183.9 334.128C183.737 334.569 183.656 335.045 183.656 335.555C183.656 336.066 183.737 336.539 183.9 336.977C184.062 337.414 184.312 337.767 184.65 338.036C184.989 338.304 185.419 338.439 185.943 338.439ZM194.078 339.493C193.441 339.493 192.88 339.332 192.392 339.01C191.905 338.686 191.524 338.228 191.249 337.638C190.974 337.045 190.836 336.344 190.836 335.535C190.836 334.733 190.974 334.037 191.249 333.447C191.524 332.857 191.907 332.401 192.397 332.08C192.888 331.758 193.455 331.598 194.098 331.598C194.595 331.598 194.988 331.681 195.276 331.846C195.568 332.009 195.79 332.194 195.942 332.403C196.098 332.609 196.219 332.778 196.305 332.91H196.405V329.152H197.578V339.333H196.444V338.16H196.305C196.219 338.299 196.096 338.475 195.937 338.687C195.778 338.896 195.551 339.083 195.256 339.249C194.961 339.411 194.568 339.493 194.078 339.493ZM194.237 338.439C194.708 338.439 195.105 338.316 195.43 338.071C195.755 337.822 196.002 337.479 196.171 337.042C196.34 336.601 196.424 336.092 196.424 335.515C196.424 334.945 196.342 334.446 196.176 334.019C196.01 333.588 195.765 333.253 195.44 333.015C195.115 332.773 194.714 332.652 194.237 332.652C193.74 332.652 193.325 332.779 192.994 333.034C192.666 333.286 192.419 333.629 192.253 334.064C192.091 334.494 192.01 334.978 192.01 335.515C192.01 336.059 192.093 336.553 192.258 336.997C192.427 337.438 192.676 337.789 193.004 338.051C193.335 338.309 193.746 338.439 194.237 338.439ZM203.091 339.493C202.356 339.493 201.721 339.33 201.187 339.005C200.657 338.677 200.248 338.22 199.959 337.633C199.674 337.043 199.532 336.357 199.532 335.575C199.532 334.793 199.674 334.103 199.959 333.507C200.248 332.907 200.649 332.44 201.162 332.105C201.679 331.767 202.283 331.598 202.972 331.598C203.37 331.598 203.763 331.664 204.15 331.797C204.538 331.929 204.891 332.145 205.209 332.443C205.527 332.738 205.781 333.129 205.97 333.616C206.159 334.103 206.253 334.703 206.253 335.416V335.913H200.367V334.899H205.06C205.06 334.468 204.974 334.083 204.802 333.745C204.633 333.407 204.391 333.141 204.076 332.945C203.764 332.749 203.396 332.652 202.972 332.652C202.505 332.652 202.1 332.768 201.759 333C201.421 333.228 201.161 333.527 200.978 333.895C200.796 334.262 200.705 334.657 200.705 335.078V335.754C200.705 336.331 200.804 336.82 201.003 337.221C201.205 337.618 201.486 337.922 201.843 338.13C202.201 338.336 202.617 338.439 203.091 338.439C203.4 338.439 203.678 338.396 203.927 338.309C204.178 338.22 204.396 338.087 204.578 337.912C204.76 337.733 204.901 337.511 205 337.245L206.134 337.564C206.015 337.948 205.814 338.286 205.532 338.578C205.251 338.866 204.903 339.092 204.488 339.254C204.074 339.413 203.608 339.493 203.091 339.493Z" fill="#E8F2FF"/>
<path d="M190.455 270.155L190.455 297.615" stroke="#E8F2FF" stroke-dasharray="2 2"/>
<circle cx="190.455" cy="300.621" r="3.00586" fill="#E8F2FF"/>
<path d="M255.599 323.333H252.457V313.152H255.738C256.726 313.152 257.571 313.356 258.274 313.763C258.976 314.168 259.515 314.749 259.889 315.508C260.264 316.264 260.451 317.169 260.451 318.223C260.451 319.283 260.262 320.196 259.885 320.962C259.507 321.724 258.956 322.311 258.234 322.722C257.511 323.13 256.633 323.333 255.599 323.333ZM253.69 322.24H255.519C256.361 322.24 257.059 322.077 257.612 321.753C258.166 321.428 258.579 320.965 258.85 320.365C259.122 319.766 259.258 319.051 259.258 318.223C259.258 317.401 259.124 316.693 258.855 316.1C258.587 315.503 258.186 315.046 257.652 314.728C257.119 314.406 256.454 314.245 255.659 314.245H253.69V322.24ZM264.608 323.512C264.124 323.512 263.684 323.421 263.29 323.239C262.896 323.053 262.582 322.787 262.35 322.439C262.118 322.087 262.002 321.663 262.002 321.166C262.002 320.728 262.089 320.374 262.261 320.102C262.433 319.827 262.664 319.611 262.952 319.456C263.24 319.3 263.559 319.184 263.907 319.108C264.258 319.028 264.611 318.965 264.965 318.919C265.429 318.859 265.806 318.814 266.094 318.784C266.386 318.751 266.598 318.697 266.73 318.62C266.866 318.544 266.934 318.412 266.934 318.223V318.183C266.934 317.692 266.8 317.311 266.532 317.039C266.266 316.768 265.864 316.632 265.323 316.632C264.763 316.632 264.324 316.754 264.006 317C263.688 317.245 263.464 317.507 263.335 317.785L262.221 317.387C262.42 316.923 262.685 316.562 263.017 316.304C263.351 316.042 263.716 315.86 264.11 315.757C264.508 315.651 264.899 315.598 265.284 315.598C265.529 315.598 265.811 315.628 266.129 315.687C266.45 315.744 266.76 315.861 267.059 316.04C267.36 316.219 267.61 316.489 267.809 316.851C268.008 317.212 268.108 317.696 268.108 318.302V323.333H266.934V322.299H266.875C266.795 322.465 266.662 322.642 266.477 322.831C266.291 323.02 266.044 323.181 265.736 323.314C265.428 323.446 265.052 323.512 264.608 323.512ZM264.786 322.458C265.251 322.458 265.642 322.367 265.96 322.185C266.281 322.003 266.523 321.767 266.686 321.479C266.851 321.191 266.934 320.887 266.934 320.569V319.495C266.885 319.555 266.775 319.61 266.606 319.659C266.44 319.706 266.248 319.747 266.029 319.784C265.814 319.817 265.603 319.847 265.398 319.873C265.196 319.896 265.032 319.916 264.906 319.933C264.601 319.973 264.316 320.037 264.051 320.127C263.789 320.213 263.577 320.344 263.414 320.52C263.255 320.692 263.176 320.927 263.176 321.226C263.176 321.633 263.327 321.941 263.628 322.15C263.933 322.356 264.319 322.458 264.786 322.458ZM273.57 315.697V316.691H269.613V315.697H273.57ZM270.766 313.868H271.939V321.146C271.939 321.477 271.987 321.726 272.084 321.892C272.183 322.054 272.309 322.164 272.461 322.22C272.617 322.273 272.781 322.299 272.954 322.299C273.083 322.299 273.189 322.293 273.272 322.28C273.355 322.263 273.421 322.25 273.471 322.24L273.709 323.294C273.63 323.324 273.519 323.353 273.376 323.383C273.234 323.416 273.053 323.433 272.834 323.433C272.503 323.433 272.178 323.362 271.86 323.219C271.545 323.077 271.283 322.86 271.074 322.568C270.869 322.276 270.766 321.908 270.766 321.464V313.868ZM277.582 323.512C277.098 323.512 276.659 323.421 276.265 323.239C275.87 323.053 275.557 322.787 275.325 322.439C275.093 322.087 274.977 321.663 274.977 321.166C274.977 320.728 275.063 320.374 275.236 320.102C275.408 319.827 275.638 319.611 275.927 319.456C276.215 319.3 276.533 319.184 276.881 319.108C277.232 319.028 277.585 318.965 277.94 318.919C278.404 318.859 278.78 318.814 279.069 318.784C279.36 318.751 279.572 318.697 279.705 318.62C279.841 318.544 279.909 318.412 279.909 318.223V318.183C279.909 317.692 279.775 317.311 279.506 317.039C279.241 316.768 278.838 316.632 278.298 316.632C277.738 316.632 277.299 316.754 276.981 317C276.662 317.245 276.439 317.507 276.309 317.785L275.196 317.387C275.395 316.923 275.66 316.562 275.991 316.304C276.326 316.042 276.691 315.86 277.085 315.757C277.483 315.651 277.874 315.598 278.258 315.598C278.504 315.598 278.785 315.628 279.103 315.687C279.425 315.744 279.735 315.861 280.033 316.04C280.335 316.219 280.585 316.489 280.784 316.851C280.983 317.212 281.082 317.696 281.082 318.302V323.333H279.909V322.299H279.849C279.77 322.465 279.637 322.642 279.451 322.831C279.266 323.02 279.019 323.181 278.711 323.314C278.402 323.446 278.026 323.512 277.582 323.512ZM277.761 322.458C278.225 322.458 278.616 322.367 278.934 322.185C279.256 322.003 279.498 321.767 279.66 321.479C279.826 321.191 279.909 320.887 279.909 320.569V319.495C279.859 319.555 279.75 319.61 279.581 319.659C279.415 319.706 279.223 319.747 279.004 319.784C278.789 319.817 278.578 319.847 278.373 319.873C278.17 319.896 278.006 319.916 277.88 319.933C277.576 319.973 277.29 320.037 277.025 320.127C276.763 320.213 276.551 320.344 276.389 320.52C276.23 320.692 276.15 320.927 276.15 321.226C276.15 321.633 276.301 321.941 276.603 322.15C276.908 322.356 277.294 322.458 277.761 322.458ZM247.945 333.407L246.891 333.706C246.825 333.53 246.727 333.359 246.598 333.194C246.472 333.025 246.3 332.885 246.081 332.776C245.862 332.667 245.582 332.612 245.241 332.612C244.773 332.612 244.384 332.72 244.072 332.935C243.764 333.147 243.61 333.417 243.61 333.745C243.61 334.037 243.716 334.267 243.928 334.436C244.14 334.606 244.472 334.746 244.923 334.859L246.056 335.137C246.739 335.303 247.248 335.557 247.582 335.898C247.917 336.236 248.084 336.672 248.084 337.206C248.084 337.643 247.958 338.034 247.707 338.379C247.458 338.724 247.11 338.995 246.663 339.194C246.215 339.393 245.695 339.493 245.101 339.493C244.323 339.493 243.678 339.324 243.168 338.985C242.657 338.647 242.334 338.154 242.198 337.504L243.312 337.226C243.418 337.637 243.618 337.945 243.913 338.15C244.212 338.356 244.601 338.458 245.082 338.458C245.628 338.458 246.063 338.342 246.384 338.11C246.709 337.875 246.871 337.593 246.871 337.265C246.871 337 246.779 336.778 246.593 336.599C246.407 336.417 246.122 336.281 245.738 336.191L244.465 335.893C243.766 335.727 243.252 335.471 242.924 335.123C242.599 334.771 242.437 334.332 242.437 333.805C242.437 333.374 242.558 332.993 242.8 332.662C243.045 332.33 243.378 332.07 243.799 331.881C244.223 331.692 244.704 331.598 245.241 331.598C245.996 331.598 246.59 331.763 247.021 332.095C247.455 332.426 247.763 332.864 247.945 333.407ZM253.172 331.697V332.691H249.214V331.697H253.172ZM250.368 329.868H251.541V337.146C251.541 337.477 251.589 337.726 251.685 337.892C251.785 338.054 251.91 338.164 252.063 338.22C252.219 338.273 252.383 338.299 252.555 338.299C252.684 338.299 252.79 338.293 252.873 338.28C252.956 338.263 253.022 338.25 253.072 338.24L253.311 339.294C253.231 339.324 253.12 339.353 252.978 339.383C252.835 339.416 252.655 339.433 252.436 339.433C252.104 339.433 251.78 339.362 251.461 339.219C251.147 339.077 250.885 338.86 250.676 338.568C250.47 338.276 250.368 337.908 250.368 337.464V329.868ZM257.957 339.493C257.267 339.493 256.663 339.329 256.142 339C255.625 338.672 255.221 338.213 254.929 337.623C254.641 337.033 254.497 336.344 254.497 335.555C254.497 334.76 254.641 334.065 254.929 333.472C255.221 332.879 255.625 332.418 256.142 332.09C256.663 331.762 257.267 331.598 257.957 331.598C258.646 331.598 259.249 331.762 259.766 332.09C260.287 332.418 260.691 332.879 260.98 333.472C261.271 334.065 261.417 334.76 261.417 335.555C261.417 336.344 261.271 337.033 260.98 337.623C260.691 338.213 260.287 338.672 259.766 339C259.249 339.329 258.646 339.493 257.957 339.493ZM257.957 338.439C258.48 338.439 258.911 338.304 259.249 338.036C259.587 337.767 259.838 337.414 260 336.977C260.163 336.539 260.244 336.066 260.244 335.555C260.244 335.045 260.163 334.569 260 334.128C259.838 333.687 259.587 333.331 259.249 333.059C258.911 332.788 258.48 332.652 257.957 332.652C257.433 332.652 257.002 332.788 256.664 333.059C256.326 333.331 256.076 333.687 255.913 334.128C255.751 334.569 255.67 335.045 255.67 335.555C255.67 336.066 255.751 336.539 255.913 336.977C256.076 337.414 256.326 337.767 256.664 338.036C257.002 338.304 257.433 338.439 257.957 338.439ZM263.208 339.333V331.697H264.342V332.851H264.421C264.56 332.473 264.812 332.166 265.177 331.931C265.541 331.695 265.952 331.578 266.41 331.578C266.496 331.578 266.604 331.579 266.733 331.583C266.862 331.586 266.96 331.591 267.026 331.598V332.791C266.986 332.781 266.895 332.766 266.753 332.746C266.614 332.723 266.466 332.711 266.31 332.711C265.939 332.711 265.608 332.789 265.316 332.945C265.028 333.097 264.799 333.31 264.63 333.581C264.464 333.85 264.381 334.156 264.381 334.501V339.333H263.208ZM270.664 339.512C270.18 339.512 269.741 339.421 269.347 339.239C268.952 339.053 268.639 338.787 268.407 338.439C268.175 338.087 268.059 337.663 268.059 337.166C268.059 336.728 268.145 336.374 268.318 336.102C268.49 335.827 268.72 335.611 269.009 335.456C269.297 335.3 269.615 335.184 269.963 335.108C270.314 335.028 270.667 334.965 271.022 334.919C271.486 334.859 271.862 334.814 272.151 334.784C272.442 334.751 272.654 334.697 272.787 334.62C272.923 334.544 272.991 334.412 272.991 334.223V334.183C272.991 333.692 272.857 333.311 272.588 333.039C272.323 332.768 271.92 332.632 271.38 332.632C270.82 332.632 270.381 332.754 270.063 333C269.744 333.245 269.521 333.507 269.391 333.785L268.278 333.387C268.477 332.923 268.742 332.562 269.073 332.304C269.408 332.042 269.773 331.86 270.167 331.757C270.565 331.651 270.956 331.598 271.34 331.598C271.586 331.598 271.867 331.628 272.185 331.687C272.507 331.744 272.817 331.861 273.115 332.04C273.417 332.219 273.667 332.489 273.866 332.851C274.065 333.212 274.164 333.696 274.164 334.302V339.333H272.991V338.299H272.931C272.852 338.465 272.719 338.642 272.533 338.831C272.348 339.02 272.101 339.181 271.793 339.314C271.484 339.446 271.108 339.512 270.664 339.512ZM270.843 338.458C271.307 338.458 271.698 338.367 272.016 338.185C272.338 338.003 272.58 337.767 272.742 337.479C272.908 337.191 272.991 336.887 272.991 336.569V335.495C272.941 335.555 272.832 335.61 272.663 335.659C272.497 335.706 272.305 335.747 272.086 335.784C271.871 335.817 271.66 335.847 271.455 335.873C271.252 335.896 271.088 335.916 270.962 335.933C270.658 335.973 270.372 336.037 270.107 336.127C269.846 336.213 269.633 336.344 269.471 336.52C269.312 336.692 269.232 336.927 269.232 337.226C269.232 337.633 269.383 337.941 269.685 338.15C269.99 338.356 270.376 338.458 270.843 338.458ZM279.388 342.356C278.821 342.356 278.334 342.283 277.926 342.137C277.519 341.995 277.179 341.806 276.907 341.571C276.639 341.339 276.425 341.09 276.266 340.825L277.201 340.169C277.307 340.308 277.441 340.467 277.603 340.646C277.766 340.828 277.988 340.986 278.269 341.118C278.554 341.254 278.927 341.322 279.388 341.322C280.005 341.322 280.513 341.173 280.914 340.875C281.315 340.576 281.516 340.109 281.516 339.473V337.922H281.416C281.33 338.061 281.208 338.233 281.049 338.439C280.893 338.641 280.667 338.821 280.372 338.981C280.081 339.136 279.686 339.214 279.189 339.214C278.573 339.214 278.019 339.068 277.529 338.777C277.041 338.485 276.655 338.061 276.37 337.504C276.089 336.947 275.948 336.271 275.948 335.476C275.948 334.693 276.085 334.012 276.36 333.432C276.635 332.849 277.018 332.398 277.509 332.08C277.999 331.758 278.566 331.598 279.209 331.598C279.706 331.598 280.101 331.681 280.392 331.846C280.687 332.009 280.913 332.194 281.068 332.403C281.228 332.609 281.35 332.778 281.436 332.91H281.556V331.697H282.689V339.552C282.689 340.208 282.54 340.742 282.242 341.153C281.947 341.567 281.549 341.871 281.049 342.063C280.551 342.258 279.998 342.356 279.388 342.356ZM279.348 338.16C279.819 338.16 280.217 338.052 280.541 337.837C280.866 337.622 281.113 337.312 281.282 336.907C281.451 336.503 281.536 336.019 281.536 335.456C281.536 334.905 281.453 334.42 281.287 333.999C281.121 333.578 280.876 333.248 280.551 333.01C280.227 332.771 279.826 332.652 279.348 332.652C278.851 332.652 278.437 332.778 278.105 333.03C277.777 333.281 277.53 333.619 277.365 334.044C277.202 334.468 277.121 334.939 277.121 335.456C277.121 335.986 277.204 336.455 277.37 336.863C277.539 337.267 277.787 337.585 278.115 337.817C278.447 338.046 278.858 338.16 279.348 338.16ZM288.039 339.493C287.303 339.493 286.668 339.33 286.135 339.005C285.604 338.677 285.195 338.22 284.907 337.633C284.621 337.043 284.479 336.357 284.479 335.575C284.479 334.793 284.621 334.103 284.907 333.507C285.195 332.907 285.596 332.44 286.11 332.105C286.627 331.767 287.23 331.598 287.919 331.598C288.317 331.598 288.71 331.664 289.098 331.797C289.485 331.929 289.838 332.145 290.157 332.443C290.475 332.738 290.728 333.129 290.917 333.616C291.106 334.103 291.201 334.703 291.201 335.416V335.913H285.314V334.899H290.007C290.007 334.468 289.921 334.083 289.749 333.745C289.58 333.407 289.338 333.141 289.023 332.945C288.711 332.749 288.344 332.652 287.919 332.652C287.452 332.652 287.048 332.768 286.706 333C286.368 333.228 286.108 333.527 285.926 333.895C285.743 334.262 285.652 334.657 285.652 335.078V335.754C285.652 336.331 285.752 336.82 285.951 337.221C286.153 337.618 286.433 337.922 286.791 338.13C287.149 338.336 287.565 338.439 288.039 338.439C288.347 338.439 288.625 338.396 288.874 338.309C289.126 338.22 289.343 338.087 289.525 337.912C289.707 337.733 289.848 337.511 289.948 337.245L291.081 337.564C290.962 337.948 290.761 338.286 290.48 338.578C290.198 338.866 289.85 339.092 289.436 339.254C289.021 339.413 288.556 339.493 288.039 339.493Z" fill="#E8F2FF"/>
<path d="M266.686 270.155L266.686 297.615" stroke="#E8F2FF" stroke-dasharray="2 2"/>
<circle cx="266.686" cy="300.621" r="3.00586" fill="#E8F2FF"/>
<rect x="151.914" y="188.255" width="153.311" height="81.4005" rx="5.5" stroke="#E8F2FF"/>
<rect x="171.955" y="223.329" width="37" height="31" rx="5.5" fill="#E8F2FF" stroke="#E8F2FF"/>
<path d="M184.716 233.995C185.032 233.727 185.07 233.254 184.802 232.938C184.534 232.623 184.061 232.584 183.745 232.852L184.716 233.995ZM177.869 238.829L177.384 238.257C177.216 238.4 177.119 238.609 177.119 238.829C177.119 239.049 177.216 239.258 177.384 239.4L177.869 238.829ZM183.745 244.805C184.061 245.074 184.534 245.035 184.802 244.719C185.07 244.404 185.032 243.931 184.716 243.662L183.745 244.805ZM183.745 232.852L177.384 238.257L178.355 239.4L184.716 233.995L183.745 232.852ZM177.384 239.4L183.745 244.805L184.716 243.662L178.355 238.257L177.384 239.4Z" fill="#031959"/>
<path d="M196.193 243.662C195.877 243.931 195.839 244.404 196.107 244.72C196.375 245.035 196.849 245.074 197.164 244.805L196.193 243.662ZM203.04 238.829L203.526 239.4C203.693 239.258 203.79 239.049 203.79 238.829C203.79 238.609 203.693 238.4 203.526 238.257L203.04 238.829ZM197.164 232.852C196.849 232.584 196.375 232.623 196.107 232.938C195.839 233.254 195.877 233.727 196.193 233.995L197.164 232.852ZM197.164 244.805L203.526 239.4L202.554 238.257L196.193 243.662L197.164 244.805ZM203.526 238.257L197.164 232.852L196.193 233.995L202.554 239.4L203.526 238.257Z" fill="#031959"/>
<path d="M193.975 229.176C194.103 228.776 193.889 228.362 193.496 228.251C193.103 228.141 192.68 228.376 192.552 228.776L193.975 229.176ZM186.244 248.482C186.116 248.882 186.331 249.296 186.724 249.406C187.116 249.516 187.539 249.281 187.667 248.881L186.244 248.482ZM192.552 228.776L186.244 248.482L187.667 248.881L193.975 229.176L192.552 228.776Z" fill="#031959"/>
<path d="M202.052 201.72H200.819C200.746 201.365 200.619 201.054 200.436 200.785C200.257 200.517 200.039 200.291 199.78 200.109C199.525 199.923 199.242 199.784 198.93 199.691C198.618 199.599 198.294 199.552 197.956 199.552C197.339 199.552 196.781 199.708 196.28 200.019C195.783 200.331 195.387 200.79 195.092 201.397C194.8 202.003 194.654 202.747 194.654 203.629C194.654 204.51 194.8 205.255 195.092 205.861C195.387 206.468 195.783 206.927 196.28 207.238C196.781 207.55 197.339 207.706 197.956 207.706C198.294 207.706 198.618 207.659 198.93 207.566C199.242 207.474 199.525 207.336 199.78 207.154C200.039 206.968 200.257 206.741 200.436 206.473C200.619 206.201 200.746 205.889 200.819 205.538H202.052C201.959 206.058 201.79 206.524 201.545 206.935C201.3 207.346 200.995 207.696 200.63 207.984C200.266 208.269 199.856 208.486 199.402 208.635C198.951 208.784 198.469 208.859 197.956 208.859C197.087 208.859 196.315 208.647 195.639 208.223C194.963 207.798 194.431 207.195 194.043 206.413C193.655 205.631 193.461 204.703 193.461 203.629C193.461 202.555 193.655 201.627 194.043 200.845C194.431 200.063 194.963 199.459 195.639 199.035C196.315 198.611 197.087 198.399 197.956 198.399C198.469 198.399 198.951 198.473 199.402 198.622C199.856 198.772 200.266 198.99 200.63 199.279C200.995 199.564 201.3 199.912 201.545 200.323C201.79 200.73 201.959 201.196 202.052 201.72ZM206.988 208.879C206.298 208.879 205.693 208.715 205.173 208.387C204.656 208.059 204.252 207.599 203.96 207.009C203.672 206.42 203.527 205.73 203.527 204.941C203.527 204.146 203.672 203.451 203.96 202.858C204.252 202.265 204.656 201.804 205.173 201.476C205.693 201.148 206.298 200.984 206.988 200.984C207.677 200.984 208.28 201.148 208.797 201.476C209.318 201.804 209.722 202.265 210.01 202.858C210.302 203.451 210.448 204.146 210.448 204.941C210.448 205.73 210.302 206.42 210.01 207.009C209.722 207.599 209.318 208.059 208.797 208.387C208.28 208.715 207.677 208.879 206.988 208.879ZM206.988 207.825C207.511 207.825 207.942 207.691 208.28 207.422C208.618 207.154 208.869 206.801 209.031 206.363C209.193 205.926 209.275 205.452 209.275 204.941C209.275 204.431 209.193 203.955 209.031 203.514C208.869 203.074 208.618 202.717 208.28 202.446C207.942 202.174 207.511 202.038 206.988 202.038C206.464 202.038 206.033 202.174 205.695 202.446C205.357 202.717 205.107 203.074 204.944 203.514C204.782 203.955 204.701 204.431 204.701 204.941C204.701 205.452 204.782 205.926 204.944 206.363C205.107 206.801 205.357 207.154 205.695 207.422C206.033 207.691 206.464 207.825 206.988 207.825ZM213.412 204.126V208.72H212.239V201.083H213.372V202.277H213.472C213.651 201.889 213.923 201.577 214.287 201.342C214.652 201.103 215.122 200.984 215.699 200.984C216.216 200.984 216.669 201.09 217.056 201.302C217.444 201.511 217.746 201.829 217.961 202.257C218.177 202.681 218.284 203.218 218.284 203.867V208.72H217.111V203.947C217.111 203.347 216.955 202.88 216.644 202.545C216.332 202.207 215.905 202.038 215.361 202.038C214.987 202.038 214.652 202.119 214.357 202.282C214.065 202.444 213.835 202.681 213.666 202.992C213.497 203.304 213.412 203.682 213.412 204.126ZM223.749 201.083V202.078H219.792V201.083H223.749ZM220.945 199.254H222.119V206.532C222.119 206.864 222.167 207.112 222.263 207.278C222.362 207.44 222.488 207.55 222.641 207.606C222.796 207.659 222.961 207.686 223.133 207.686C223.262 207.686 223.368 207.679 223.451 207.666C223.534 207.649 223.6 207.636 223.65 207.626L223.889 208.68C223.809 208.71 223.698 208.74 223.555 208.769C223.413 208.803 223.232 208.819 223.014 208.819C222.682 208.819 222.357 208.748 222.039 208.605C221.724 208.463 221.462 208.246 221.254 207.954C221.048 207.662 220.945 207.295 220.945 206.85V199.254ZM227.761 208.899C227.278 208.899 226.838 208.808 226.444 208.625C226.05 208.44 225.736 208.173 225.504 207.825C225.272 207.474 225.156 207.049 225.156 206.552C225.156 206.115 225.243 205.76 225.415 205.488C225.587 205.213 225.818 204.998 226.106 204.842C226.394 204.686 226.712 204.57 227.06 204.494C227.412 204.414 227.765 204.351 228.119 204.305C228.583 204.245 228.96 204.201 229.248 204.171C229.54 204.138 229.752 204.083 229.884 204.007C230.02 203.93 230.088 203.798 230.088 203.609V203.569C230.088 203.079 229.954 202.697 229.685 202.426C229.42 202.154 229.018 202.018 228.477 202.018C227.917 202.018 227.478 202.141 227.16 202.386C226.842 202.631 226.618 202.893 226.489 203.171L225.375 202.774C225.574 202.31 225.839 201.948 226.171 201.69C226.505 201.428 226.87 201.246 227.264 201.143C227.662 201.037 228.053 200.984 228.438 200.984C228.683 200.984 228.965 201.014 229.283 201.073C229.604 201.13 229.914 201.247 230.212 201.426C230.514 201.605 230.764 201.876 230.963 202.237C231.162 202.598 231.261 203.082 231.261 203.688V208.72H230.088V207.686H230.028C229.949 207.851 229.816 208.029 229.631 208.218C229.445 208.407 229.198 208.567 228.89 208.7C228.582 208.832 228.206 208.899 227.761 208.899ZM227.94 207.845C228.404 207.845 228.796 207.754 229.114 207.571C229.435 207.389 229.677 207.154 229.84 206.865C230.005 206.577 230.088 206.274 230.088 205.956V204.882C230.038 204.941 229.929 204.996 229.76 205.046C229.594 205.092 229.402 205.134 229.183 205.17C228.968 205.203 228.757 205.233 228.552 205.259C228.35 205.283 228.186 205.303 228.06 205.319C227.755 205.359 227.47 205.424 227.205 205.513C226.943 205.599 226.731 205.73 226.568 205.906C226.409 206.078 226.33 206.313 226.33 206.612C226.33 207.019 226.48 207.328 226.782 207.536C227.087 207.742 227.473 207.845 227.94 207.845ZM233.403 208.72V201.083H234.576V208.72H233.403ZM234 199.811C233.771 199.811 233.574 199.733 233.408 199.577C233.246 199.421 233.164 199.234 233.164 199.015C233.164 198.796 233.246 198.609 233.408 198.453C233.574 198.298 233.771 198.22 234 198.22C234.228 198.22 234.424 198.298 234.586 198.453C234.752 198.609 234.835 198.796 234.835 199.015C234.835 199.234 234.752 199.421 234.586 199.577C234.424 199.733 234.228 199.811 234 199.811ZM237.899 204.126V208.72H236.725V201.083H237.859V202.277H237.958C238.137 201.889 238.409 201.577 238.774 201.342C239.138 201.103 239.609 200.984 240.185 200.984C240.703 200.984 241.155 201.09 241.543 201.302C241.93 201.511 242.232 201.829 242.448 202.257C242.663 202.681 242.771 203.218 242.771 203.867V208.72H241.597V203.947C241.597 203.347 241.442 202.88 241.13 202.545C240.819 202.207 240.391 202.038 239.847 202.038C239.473 202.038 239.138 202.119 238.843 202.282C238.551 202.444 238.321 202.681 238.152 202.992C237.983 203.304 237.899 203.682 237.899 204.126ZM248.116 208.879C247.381 208.879 246.746 208.716 246.212 208.392C245.682 208.063 245.273 207.606 244.984 207.019C244.699 206.429 244.557 205.743 244.557 204.961C244.557 204.179 244.699 203.49 244.984 202.893C245.273 202.293 245.674 201.826 246.187 201.491C246.704 201.153 247.308 200.984 247.997 200.984C248.395 200.984 248.788 201.05 249.175 201.183C249.563 201.315 249.916 201.531 250.234 201.829C250.552 202.124 250.806 202.515 250.995 203.002C251.184 203.49 251.278 204.09 251.278 204.802V205.299H245.392V204.285H250.085C250.085 203.854 249.999 203.47 249.827 203.132C249.658 202.794 249.416 202.527 249.101 202.331C248.789 202.136 248.421 202.038 247.997 202.038C247.53 202.038 247.125 202.154 246.784 202.386C246.446 202.615 246.186 202.913 246.003 203.281C245.821 203.649 245.73 204.043 245.73 204.464V205.14C245.73 205.717 245.829 206.206 246.028 206.607C246.23 207.005 246.511 207.308 246.869 207.517C247.226 207.722 247.642 207.825 248.116 207.825C248.425 207.825 248.703 207.782 248.952 207.696C249.204 207.606 249.421 207.474 249.603 207.298C249.785 207.119 249.926 206.897 250.025 206.632L251.159 206.95C251.04 207.334 250.839 207.672 250.557 207.964C250.276 208.252 249.928 208.478 249.513 208.64C249.099 208.799 248.633 208.879 248.116 208.879ZM253.063 208.72V201.083H254.197V202.237H254.276C254.415 201.859 254.667 201.552 255.032 201.317C255.396 201.082 255.807 200.964 256.265 200.964C256.351 200.964 256.459 200.966 256.588 200.969C256.717 200.972 256.815 200.977 256.881 200.984V202.177C256.842 202.167 256.75 202.152 256.608 202.132C256.469 202.109 256.321 202.098 256.165 202.098C255.794 202.098 255.463 202.175 255.171 202.331C254.883 202.484 254.654 202.696 254.485 202.968C254.319 203.236 254.236 203.543 254.236 203.887V208.72H253.063ZM263.681 202.794L262.627 203.092C262.561 202.916 262.463 202.746 262.334 202.58C262.208 202.411 262.036 202.272 261.817 202.162C261.598 202.053 261.318 201.998 260.977 201.998C260.509 201.998 260.12 202.106 259.808 202.321C259.5 202.533 259.346 202.804 259.346 203.132C259.346 203.423 259.452 203.654 259.664 203.823C259.876 203.992 260.208 204.133 260.658 204.245L261.792 204.524C262.475 204.689 262.984 204.943 263.318 205.284C263.653 205.622 263.82 206.058 263.82 206.592C263.82 207.029 263.694 207.42 263.443 207.765C263.194 208.11 262.846 208.382 262.399 208.581C261.951 208.779 261.431 208.879 260.837 208.879C260.059 208.879 259.414 208.71 258.903 208.372C258.393 208.034 258.07 207.54 257.934 206.89L259.048 206.612C259.154 207.023 259.354 207.331 259.649 207.536C259.948 207.742 260.337 207.845 260.818 207.845C261.364 207.845 261.799 207.729 262.12 207.497C262.445 207.261 262.607 206.98 262.607 206.652C262.607 206.386 262.515 206.164 262.329 205.985C262.143 205.803 261.858 205.667 261.474 205.578L260.201 205.279C259.502 205.114 258.988 204.857 258.66 204.509C258.335 204.157 258.173 203.718 258.173 203.191C258.173 202.76 258.294 202.379 258.536 202.048C258.781 201.716 259.114 201.456 259.535 201.267C259.959 201.078 260.44 200.984 260.977 200.984C261.732 200.984 262.326 201.15 262.756 201.481C263.191 201.813 263.499 202.25 263.681 202.794Z" fill="#E8F2FF"/>
<ellipse cx="266.686" cy="227.915" rx="12.2968" ry="3.97116" fill="#E8F2FF"/>
<path d="M266.686 252.307C273.478 252.307 278.983 250.529 278.983 248.336V227.844H254.39V248.336C254.39 250.529 259.895 252.307 266.686 252.307Z" fill="#E8F2FF"/>
<path d="M279.484 238.952C279.484 241.145 273.755 242.923 266.687 242.923C259.619 242.923 253.89 241.145 253.89 238.952" stroke="#031959"/>
<path d="M279.484 227.844C279.484 230.037 273.755 231.815 266.687 231.815C259.619 231.815 253.89 230.037 253.89 227.844" stroke="#031959"/>
<path d="M229 165.009L231.887 160.009L226.113 160.009L229 165.009ZM228.5 117L228.5 160.509L229.5 160.509L229.5 117L228.5 117Z" fill="#E8F2FF"/>
<path d="M229 386.131L231.887 381.131L226.113 381.131L229 386.131ZM228.5 363L228.5 381.631L229.5 381.631L229.5 363L228.5 363Z" fill="#E8F2FF"/>
</svg>
