<svg width="72" height="72" viewBox="0 0 72 72" fill="none" xmlns="http://www.w3.org/2000/svg">
<path fill-rule="evenodd" clip-rule="evenodd" d="M70.701 52.8677C70.7013 52.8677 70.7015 52.8675 70.7015 52.8673V14.5488C70.7015 12.3397 68.9106 10.5488 66.7014 10.5488L5.29856 10.5488C3.08942 10.5488 1.29855 12.3397 1.29855 14.5488V48.8677C1.29855 51.0768 3.08942 52.8677 5.29855 52.8677L49.9407 52.8677C50.6539 52.8677 51.3541 53.0583 51.9688 53.4199L64.6726 60.8928C67.3391 62.4613 70.7006 60.5387 70.7006 57.445V52.8681C70.7006 52.8679 70.7007 52.8678 70.7008 52.8677C70.7009 52.8677 70.701 52.8677 70.701 52.8677ZM59.6208 18.3398C61.2777 18.3398 62.6208 19.683 62.6208 21.3398C62.6208 22.9967 61.2777 24.3398 59.6208 24.3398L12.3802 24.3398C10.7234 24.3398 9.38024 22.9967 9.38024 21.3398C9.38024 19.683 10.7234 18.3398 12.3802 18.3398L59.6208 18.3398ZM62.6208 35.3398C62.6208 33.683 61.2777 32.3398 59.6208 32.3398L12.3802 32.3398C10.7234 32.3398 9.38024 33.683 9.38024 35.3398C9.38024 36.9967 10.7234 38.3398 12.3802 38.3398L59.6208 38.3398C61.2777 38.3398 62.6208 36.9967 62.6208 35.3398Z" fill="#FFF85A"/>
</svg>
