<svg width="236" height="257" viewBox="0 0 236 257" fill="none" xmlns="http://www.w3.org/2000/svg">
<path d="M92.5607 31.4439L99.4846 26.242L100.528 34.8392L92.5607 31.4439ZM155.452 82.0297L156.199 81.9621L155.452 82.0297ZM174.394 106.168L175.11 106.394L174.394 106.168ZM113.316 29.6813L99.3519 31.3755L99.1713 29.8864L113.135 28.1922L113.316 29.6813ZM154.705 82.0972L152.855 61.6508L154.349 61.5156L156.199 81.9621L154.705 82.0972ZM175.11 106.394L172.3 115.307L170.87 114.857L173.679 105.943L175.11 106.394ZM165.07 92.6988C159.537 92.0724 155.207 87.643 154.705 82.0972L156.199 81.9621C156.636 86.7989 160.413 90.662 165.239 91.2084L165.07 92.6988ZM113.135 28.1922C133.814 25.6832 152.473 40.7695 154.349 61.5156L152.855 61.6508C151.055 41.7476 133.155 27.2743 113.316 29.6813L113.135 28.1922ZM165.239 91.2084C172.573 92.0388 177.328 99.3539 175.11 106.394L173.679 105.943C175.614 99.8031 171.467 93.4231 165.07 92.6988L165.239 91.2084Z" fill="white"/>
<path d="M57.1183 90.8464L53.7719 89.0902L48.5305 99.0777L46.974 98.2609L52.2154 88.2733L48.8689 86.5172L49.5587 85.2028L57.8081 89.532L57.1183 90.8464ZM60.9825 105.612L59.4779 104.823L62.3867 99.2799C62.7377 98.6112 62.8725 98.046 62.7913 97.5843C62.7189 97.1198 62.4492 96.7651 61.9823 96.52C61.7805 96.4141 61.5751 96.3431 61.3662 96.307C61.166 96.2681 60.9345 96.2679 60.6716 96.3065C60.4118 96.3392 60.109 96.4119 59.7632 96.5245C59.4173 96.6371 59.0066 96.7892 58.5311 96.9808L55.5088 102.74L54.0042 101.95L60.4164 89.7317L61.921 90.5213L60.0649 94.058L59.2961 95.3971C59.6807 95.2386 60.0353 95.1233 60.36 95.051C60.6934 94.9761 61.0043 94.937 61.2927 94.9339C61.5868 94.9339 61.8656 94.97 62.1292 95.0421C62.3928 95.1143 62.6514 95.2169 62.9051 95.35C63.7698 95.8038 64.2994 96.4199 64.4937 97.1984C64.6912 97.971 64.5115 98.8877 63.9549 99.9485L60.9825 105.612ZM73.5924 106.109C73.4804 106.322 73.3838 106.499 73.3024 106.641C73.221 106.782 73.1412 106.913 73.0632 107.033L66.9669 103.834C66.501 104.722 66.3904 105.535 66.635 106.274C66.8827 107.007 67.4735 107.618 68.4074 108.108C68.6611 108.241 68.9193 108.366 69.182 108.482C69.4478 108.592 69.7079 108.691 69.9624 108.781C70.2169 108.87 70.4614 108.951 70.6959 109.022C70.9391 109.091 71.1666 109.148 71.3783 109.193L70.7294 110.43C70.2596 110.33 69.7471 110.179 69.192 109.976C68.6396 109.781 68.0867 109.539 67.5332 109.249C66.7896 108.858 66.2026 108.422 65.7724 107.939C65.3421 107.455 65.0539 106.933 64.9077 106.371C64.7703 105.806 64.7632 105.203 64.8864 104.562C65.0185 103.918 65.269 103.245 65.6381 102.541C65.9588 101.93 66.3478 101.399 66.8051 100.948C67.2712 100.494 67.7789 100.15 68.328 99.9164C68.886 99.6798 69.4735 99.569 70.0906 99.5841C70.7076 99.5991 71.3275 99.77 71.9501 100.097C72.5554 100.414 73.0416 100.791 73.4087 101.226C73.7758 101.661 74.0256 102.138 74.1582 102.656C74.2995 103.171 74.3192 103.722 74.2174 104.308C74.1244 104.892 73.9161 105.492 73.5924 106.109ZM72.1407 105.071C72.3607 104.694 72.5077 104.323 72.5819 103.957C72.6591 103.586 72.6602 103.234 72.5852 102.9C72.516 102.57 72.3705 102.266 72.1488 101.988C71.9302 101.704 71.6306 101.462 71.2501 101.262C70.9215 101.09 70.5885 100.996 70.251 100.981C69.9135 100.965 69.5862 101.021 69.2692 101.149C68.9522 101.277 68.6484 101.47 68.358 101.73C68.0675 101.989 67.8065 102.304 67.575 102.675L72.1407 105.071ZM96.5962 110.505C95.8941 109.924 95.2577 109.483 94.687 109.183C93.3323 108.472 92.2828 108.826 91.5386 110.244L90.7399 111.766L94.5447 113.763L93.8867 115.017L90.0819 113.02L86.8463 119.185L85.3158 118.382L88.5513 112.217L85.7583 110.751L86.4163 109.497L89.2093 110.963L89.9627 109.527C91.1758 107.216 92.9872 106.692 95.3969 107.957C95.9965 108.271 96.6231 108.689 97.2769 109.208L96.5962 110.505ZM101.672 112.959L99.1036 111.611L99.7525 110.375L103.843 112.521L98.0885 123.486L100.674 124.843L100.016 126.097L93.055 122.444L93.713 121.19L96.5666 122.687L101.672 112.959ZM112.539 126.548C112.428 126.761 112.331 126.938 112.249 127.08C112.168 127.221 112.088 127.352 112.01 127.472L105.914 124.273C105.448 125.161 105.337 125.974 105.582 126.713C105.83 127.446 106.421 128.057 107.354 128.547C107.608 128.68 107.866 128.805 108.129 128.921C108.395 129.031 108.655 129.13 108.909 129.22C109.164 129.309 109.408 129.39 109.643 129.461C109.886 129.53 110.114 129.587 110.325 129.632L109.676 130.869C109.207 130.769 108.694 130.618 108.139 130.415C107.587 130.22 107.034 129.978 106.48 129.688C105.737 129.297 105.15 128.861 104.719 128.378C104.289 127.894 104.001 127.372 103.855 126.81C103.717 126.245 103.71 125.642 103.833 125.001C103.966 124.357 104.216 123.684 104.585 122.98C104.906 122.369 105.295 121.838 105.752 121.387C106.218 120.933 106.726 120.589 107.275 120.355C107.833 120.119 108.421 120.008 109.038 120.023C109.655 120.038 110.275 120.209 110.897 120.536C111.502 120.853 111.989 121.23 112.356 121.665C112.723 122.1 112.973 122.577 113.105 123.095C113.247 123.61 113.266 124.161 113.164 124.747C113.072 125.331 112.863 125.931 112.539 126.548ZM111.088 125.51C111.308 125.133 111.455 124.762 111.529 124.396C111.606 124.025 111.607 123.673 111.532 123.339C111.463 123.009 111.318 122.705 111.096 122.427C110.877 122.143 110.578 121.901 110.197 121.701C109.869 121.529 109.536 121.435 109.198 121.42C108.861 121.404 108.533 121.46 108.216 121.588C107.899 121.716 107.595 121.909 107.305 122.169C107.015 122.428 106.754 122.743 106.522 123.114L111.088 125.51ZM120.251 136.716L118.253 135.667L117.648 131.126L113.592 133.221L111.647 132.2L117.297 129.607L116.358 123.6L118.287 124.612L118.818 129.148L122.809 126.986L124.668 127.961L119.121 130.609L120.251 136.716ZM129.022 131.834L126.453 130.486L127.107 129.241L131.197 131.387L127.299 138.815L129.884 140.172L129.226 141.426L122.265 137.773L122.923 136.519L125.777 138.017L129.022 131.834ZM132.113 127.225C132.28 127.313 132.419 127.426 132.53 127.565C132.644 127.698 132.724 127.847 132.77 128.011C132.822 128.178 132.839 128.349 132.821 128.523C132.812 128.695 132.764 128.864 132.676 129.031C132.591 129.193 132.479 129.329 132.34 129.44C132.207 129.554 132.057 129.637 131.89 129.689C131.729 129.744 131.559 129.765 131.382 129.753C131.208 129.735 131.037 129.682 130.87 129.594C130.702 129.507 130.562 129.396 130.448 129.263C130.337 129.124 130.256 128.971 130.204 128.804C130.157 128.64 130.14 128.469 130.153 128.292C130.171 128.117 130.222 127.949 130.307 127.788C130.394 127.621 130.503 127.483 130.634 127.375C130.773 127.264 130.923 127.181 131.084 127.126C131.251 127.074 131.422 127.057 131.596 127.075C131.774 127.087 131.946 127.137 132.113 127.225ZM141.677 142.225C141.299 142.946 140.859 143.539 140.358 144.003C139.866 144.465 139.331 144.799 138.753 145.003C138.184 145.204 137.581 145.274 136.945 145.212C136.311 145.144 135.666 144.938 135.009 144.593C134.496 144.324 133.997 143.999 133.512 143.62C133.027 143.241 132.579 142.807 132.166 142.318L138.31 130.61L139.815 131.399L138.05 134.763L137.137 136.335C137.874 135.98 138.55 135.813 139.165 135.833C139.787 135.851 140.381 136.009 140.946 136.305C141.442 136.565 141.823 136.897 142.089 137.302C142.354 137.706 142.514 138.165 142.568 138.678C142.625 139.186 142.576 139.741 142.422 140.344C142.27 140.941 142.022 141.568 141.677 142.225ZM140.102 141.487C140.341 141.031 140.526 140.595 140.656 140.178C140.792 139.765 140.86 139.384 140.858 139.038C140.856 138.691 140.782 138.384 140.635 138.116C140.492 137.843 140.265 137.624 139.954 137.461C139.764 137.361 139.554 137.291 139.324 137.252C139.098 137.207 138.841 137.2 138.552 137.232C138.272 137.262 137.951 137.333 137.591 137.445C137.239 137.554 136.84 137.713 136.393 137.919L134.183 142.131C134.417 142.4 134.668 142.65 134.938 142.879C135.21 143.103 135.484 143.287 135.761 143.433C136.107 143.614 136.464 143.732 136.833 143.786C137.208 143.843 137.58 143.806 137.949 143.677C138.327 143.544 138.696 143.304 139.055 142.956C139.423 142.605 139.772 142.115 140.102 141.487ZM148.495 142.053L145.927 140.706L146.58 139.46L150.67 141.607L146.772 149.035L149.358 150.392L148.7 151.645L141.739 147.992L142.397 146.739L145.25 148.236L148.495 142.053ZM151.587 137.444C151.754 137.532 151.893 137.646 152.004 137.785C152.117 137.918 152.197 138.067 152.244 138.231C152.296 138.398 152.313 138.568 152.295 138.743C152.286 138.914 152.237 139.084 152.149 139.251C152.065 139.412 151.953 139.548 151.814 139.659C151.681 139.773 151.53 139.856 151.363 139.908C151.202 139.963 151.033 139.985 150.855 139.972C150.681 139.954 150.51 139.902 150.343 139.814C150.176 139.726 150.035 139.616 149.922 139.482C149.811 139.343 149.729 139.19 149.677 139.023C149.631 138.859 149.614 138.689 149.626 138.511C149.644 138.337 149.695 138.169 149.78 138.007C149.868 137.84 149.977 137.703 150.107 137.595C150.246 137.484 150.396 137.401 150.558 137.346C150.725 137.294 150.895 137.277 151.07 137.295C151.247 137.307 151.419 137.357 151.587 137.444ZM160.092 143.618L157.524 142.27L158.173 141.033L162.263 143.18L156.509 154.145L159.095 155.501L158.437 156.755L151.476 153.102L152.134 151.848L154.987 153.346L160.092 143.618ZM167.969 152.273L165.4 150.925L166.054 149.68L170.144 151.826L166.246 159.254L168.831 160.611L168.173 161.865L161.212 158.212L161.87 156.958L164.724 158.456L167.969 152.273ZM171.06 147.664C171.227 147.752 171.366 147.865 171.477 148.004C171.591 148.137 171.671 148.286 171.717 148.45C171.769 148.617 171.786 148.788 171.768 148.962C171.759 149.134 171.711 149.303 171.623 149.47C171.538 149.632 171.426 149.768 171.287 149.879C171.154 149.993 171.004 150.076 170.837 150.128C170.676 150.183 170.506 150.204 170.329 150.192C170.155 150.174 169.984 150.121 169.817 150.033C169.649 149.946 169.509 149.835 169.395 149.702C169.284 149.563 169.203 149.41 169.151 149.243C169.104 149.079 169.087 148.908 169.1 148.731C169.118 148.556 169.169 148.388 169.254 148.227C169.341 148.06 169.45 147.922 169.581 147.814C169.72 147.703 169.87 147.62 170.031 147.565C170.198 147.513 170.369 147.496 170.543 147.514C170.721 147.526 170.893 147.576 171.06 147.664ZM177.905 166.817C177.519 166.725 177.136 166.601 176.754 166.445C176.37 166.295 175.99 166.122 175.616 165.925C174.526 165.353 173.842 164.682 173.563 163.91C173.287 163.133 173.417 162.234 173.952 161.214L176.33 156.683L173.9 155.408L174.563 154.145L176.993 155.42L178.245 153.034L179.954 153.434L178.497 156.21L182.397 158.257L181.735 159.519L177.835 157.472L175.52 161.883C175.194 162.505 175.113 163.058 175.278 163.542C175.452 164.023 175.862 164.433 176.508 164.772C176.784 164.917 177.098 165.056 177.447 165.188C177.8 165.314 178.179 165.425 178.585 165.52L177.905 166.817ZM192.86 163.748L185.828 169.961C185.108 170.59 184.434 171.104 183.806 171.502C183.183 171.904 182.584 172.185 182.007 172.345C181.427 172.511 180.861 172.56 180.309 172.491C179.757 172.422 179.196 172.237 178.625 171.938C178.475 171.859 178.341 171.785 178.223 171.716C178.105 171.647 177.977 171.568 177.839 171.481L178.556 170.115C178.674 170.199 178.805 170.286 178.949 170.376C179.089 170.472 179.243 170.564 179.41 170.652C179.687 170.797 179.965 170.891 180.244 170.934C180.528 170.981 180.825 170.968 181.136 170.895C181.443 170.828 181.77 170.702 182.117 170.517C182.464 170.332 182.838 170.083 183.237 169.77L184.325 159.269L186.038 160.167L185.221 167.062L184.954 168.642L186.181 167.522L191.209 162.881L192.86 163.748ZM209.928 178.153C209.574 178.827 209.153 179.397 208.667 179.862C208.183 180.321 207.657 180.659 207.087 180.875C206.521 181.085 205.923 181.168 205.292 181.124C204.663 181.073 204.024 180.877 203.372 180.536C202.75 180.209 202.24 179.82 201.845 179.37C201.457 178.917 201.189 178.412 201.04 177.856C200.896 177.303 200.878 176.701 200.984 176.051C201.095 175.403 201.34 174.719 201.718 173.999C202.072 173.324 202.49 172.76 202.97 172.307C203.454 171.847 203.979 171.513 204.545 171.302C205.114 171.086 205.713 171.004 206.341 171.054C206.972 171.098 207.613 171.291 208.265 171.633C208.887 171.96 209.392 172.35 209.779 172.803C210.175 173.253 210.445 173.755 210.589 174.308C210.741 174.859 210.761 175.458 210.649 176.105C210.543 176.755 210.303 177.438 209.928 178.153ZM208.352 177.414C208.634 176.878 208.818 176.379 208.906 175.918C209.002 175.454 209.011 175.032 208.931 174.652C208.854 174.266 208.692 173.923 208.444 173.624C208.205 173.322 207.893 173.07 207.507 172.868C207.057 172.632 206.624 172.518 206.207 172.528C205.799 172.534 205.415 172.63 205.053 172.815C204.697 173.003 204.367 173.268 204.063 173.608C203.768 173.946 203.509 174.328 203.285 174.755C203.004 175.291 202.815 175.791 202.718 176.255C202.627 176.722 202.621 177.149 202.697 177.534C202.777 177.915 202.937 178.256 203.175 178.557C203.417 178.853 203.734 179.104 204.126 179.31C204.576 179.546 205.004 179.66 205.412 179.654C205.829 179.645 206.215 179.546 206.571 179.358C206.933 179.173 207.261 178.911 207.556 178.573C207.86 178.233 208.125 177.846 208.352 177.414ZM223.174 176.932C222.472 176.35 221.836 175.91 221.265 175.61C219.91 174.899 218.861 175.253 218.117 176.671L217.318 178.193L221.123 180.19L220.465 181.443L216.66 179.447L213.424 185.612L211.894 184.809L215.129 178.643L212.336 177.178L212.994 175.924L215.787 177.39L216.541 175.954C217.754 173.642 219.565 173.119 221.975 174.384C222.574 174.698 223.201 175.115 223.855 175.635L223.174 176.932ZM60.577 130.091C60.1915 129.999 59.8081 129.875 59.4267 129.719C59.0424 129.568 58.6628 129.395 58.2881 129.198C57.1986 128.626 56.5143 127.955 56.2353 127.184C55.9594 126.406 56.0891 125.508 56.6246 124.487L59.0025 119.956L56.5726 118.681L57.2352 117.418L59.6651 118.694L60.9175 116.307L62.6264 116.707L61.1697 119.483L65.0696 121.53L64.407 122.792L60.5071 120.746L58.1928 125.156C57.866 125.778 57.7853 126.332 57.9505 126.815C58.1245 127.296 58.5344 127.706 59.18 128.045C59.4567 128.19 59.77 128.329 60.1197 128.461C60.4725 128.587 60.8518 128.698 61.2577 128.794L60.577 130.091ZM70.2329 135.312L68.7283 134.523L71.6371 128.98C71.9881 128.311 72.1229 127.746 72.0417 127.284C71.9693 126.82 71.6996 126.465 71.2327 126.22C71.0309 126.114 70.8255 126.043 70.6166 126.007C70.4164 125.968 70.1849 125.968 69.9221 126.006C69.6622 126.039 69.3594 126.112 69.0136 126.224C68.6677 126.337 68.257 126.489 67.7815 126.681L64.7592 132.44L63.2546 131.65L69.6668 119.432L71.1714 120.221L69.3153 123.758L68.5465 125.097C68.9311 124.939 69.2857 124.823 69.6104 124.751C69.9438 124.676 70.2547 124.637 70.5431 124.634C70.8372 124.634 71.1161 124.67 71.3796 124.742C71.6432 124.814 71.9018 124.917 72.1555 125.05C73.0202 125.504 73.5498 126.12 73.7442 126.898C73.9416 127.671 73.7619 128.588 73.2053 129.648L70.2329 135.312ZM82.8428 135.809C82.7308 136.022 82.6342 136.199 82.5528 136.341C82.4714 136.482 82.3916 136.613 82.3136 136.733L76.2173 133.534C75.7514 134.422 75.6408 135.235 75.8854 135.974C76.1331 136.707 76.7239 137.318 77.6578 137.808C77.9115 137.941 78.1697 138.066 78.4324 138.182C78.6982 138.292 78.9583 138.391 79.2128 138.481C79.4673 138.57 79.7118 138.651 79.9463 138.722C80.1895 138.791 80.417 138.848 80.6287 138.893L79.9798 140.13C79.51 140.03 78.9975 139.879 78.4424 139.676C77.89 139.481 77.3371 139.239 76.7836 138.949C76.04 138.558 75.453 138.122 75.0228 137.639C74.5926 137.155 74.3043 136.633 74.1581 136.071C74.0207 135.506 74.0136 134.903 74.1368 134.262C74.2689 133.618 74.5194 132.945 74.8885 132.241C75.2092 131.63 75.5982 131.099 76.0555 130.648C76.5217 130.194 77.0293 129.85 77.5784 129.616C78.1364 129.38 78.7239 129.269 79.341 129.284C79.958 129.299 80.5779 129.47 81.2005 129.797C81.8058 130.114 82.292 130.491 82.6591 130.926C83.0262 131.361 83.276 131.838 83.4086 132.356C83.5499 132.871 83.5696 133.422 83.4678 134.008C83.3748 134.592 83.1665 135.192 82.8428 135.809ZM81.3911 134.771C81.6111 134.394 81.7582 134.023 81.8323 133.657C81.9095 133.286 81.9106 132.934 81.8356 132.6C81.7664 132.27 81.6209 131.966 81.3992 131.688C81.1806 131.404 80.881 131.162 80.5005 130.962C80.1719 130.79 79.8389 130.696 79.5014 130.681C79.1639 130.665 78.8366 130.721 78.5196 130.849C78.2026 130.977 77.8988 131.17 77.6084 131.43C77.3179 131.689 77.0569 132.004 76.8254 132.375L81.3911 134.771ZM99.3776 150.199C98.907 150.143 98.446 150.041 97.9946 149.892C97.546 149.753 97.1026 149.568 96.6645 149.338C95.2924 148.618 94.4297 147.691 94.0763 146.557C93.7287 145.426 93.93 144.146 94.6803 142.716C95.0403 142.03 95.4737 141.463 95.9804 141.016C96.4872 140.569 97.0381 140.248 97.633 140.053C98.228 139.857 98.8496 139.794 99.4976 139.862C100.149 139.924 100.797 140.125 101.443 140.464C101.892 140.7 102.297 140.952 102.655 141.221C103.014 141.49 103.334 141.791 103.616 142.123L102.863 143.558C102.591 143.165 102.282 142.823 101.935 142.531C101.597 142.236 101.221 141.979 100.806 141.762C100.419 141.559 100.014 141.442 99.5895 141.41C99.1738 141.376 98.7636 141.429 98.359 141.569C97.9543 141.71 97.5727 141.94 97.2141 142.259C96.8554 142.578 96.5445 142.988 96.2813 143.49C95.7307 144.539 95.5714 145.459 95.8034 146.25C96.0442 147.038 96.6171 147.67 97.5222 148.145C97.9315 148.359 98.3506 148.52 98.7795 148.628C99.2141 148.738 99.6586 148.795 100.113 148.798L99.3776 150.199ZM110.922 142.659L108.354 141.311L109.003 140.075L113.093 142.221L107.339 153.186L109.924 154.543L109.266 155.797L102.305 152.144L102.963 150.89L105.817 152.387L110.922 142.659ZM121.81 156.755C121.456 157.43 121.036 157.999 120.549 158.464C120.066 158.924 119.539 159.261 118.97 159.477C118.404 159.688 117.805 159.77 117.174 159.726C116.546 159.676 115.907 159.48 115.255 159.138C114.633 158.811 114.123 158.423 113.727 157.972C113.34 157.519 113.072 157.014 112.923 156.458C112.779 155.905 112.76 155.303 112.866 154.653C112.978 154.006 113.223 153.322 113.601 152.601C113.955 151.927 114.373 151.363 114.853 150.909C115.337 150.45 115.862 150.115 116.428 149.905C116.997 149.689 117.596 149.606 118.224 149.656C118.855 149.701 119.496 149.894 120.148 150.236C120.77 150.562 121.275 150.952 121.662 151.405C122.058 151.856 122.328 152.358 122.471 152.911C122.624 153.461 122.644 154.06 122.532 154.707C122.426 155.358 122.186 156.04 121.81 156.755ZM120.235 156.016C120.516 155.48 120.701 154.982 120.789 154.52C120.885 154.056 120.893 153.634 120.813 153.254C120.737 152.868 120.574 152.526 120.327 152.227C120.088 151.925 119.776 151.673 119.389 151.47C118.94 151.234 118.507 151.121 118.09 151.13C117.682 151.137 117.297 151.232 116.936 151.418C116.58 151.606 116.25 151.87 115.946 152.211C115.651 152.548 115.392 152.931 115.168 153.357C114.886 153.893 114.697 154.393 114.601 154.857C114.51 155.325 114.503 155.751 114.58 156.137C114.66 156.517 114.819 156.858 115.058 157.16C115.3 157.456 115.617 157.707 116.009 157.912C116.458 158.148 116.887 158.263 117.295 158.256C117.711 158.247 118.098 158.148 118.454 157.96C118.816 157.775 119.144 157.514 119.439 157.176C119.743 156.835 120.008 156.449 120.235 156.016ZM128.653 165.971L127.305 165.263L127.988 163.835C127.571 163.998 127.192 164.119 126.849 164.197C126.516 164.272 126.202 164.309 125.908 164.309C125.614 164.309 125.337 164.271 125.076 164.193C124.818 164.123 124.56 164.021 124.3 163.885C123.407 163.416 122.87 162.8 122.69 162.036C122.509 161.272 122.698 160.36 123.254 159.299L126.231 153.627L127.736 154.416L124.823 159.968C124.124 161.3 124.276 162.229 125.279 162.755C125.463 162.852 125.656 162.92 125.856 162.959C126.065 162.995 126.299 162.996 126.559 162.964C126.828 162.928 127.132 162.853 127.472 162.737C127.818 162.624 128.221 162.465 128.683 162.258L131.705 156.499L133.21 157.289L128.653 165.971ZM133.154 163.028C133.541 162.29 133.985 161.688 134.486 161.224C134.991 160.753 135.53 160.418 136.105 160.22C136.688 160.019 137.292 159.954 137.917 160.024C138.551 160.092 139.187 160.294 139.827 160.63C140.104 160.775 140.366 160.934 140.613 161.108C140.866 161.285 141.102 161.479 141.322 161.69L143.237 158.041L144.751 158.835L138.338 171.053L136.989 170.345L137.8 168.675C137.058 169.065 136.365 169.279 135.721 169.316C135.077 169.353 134.469 169.221 133.899 168.922C133.403 168.662 133.019 168.328 132.747 167.921C132.482 167.517 132.32 167.061 132.263 166.553C132.215 166.042 132.267 165.488 132.418 164.892C132.57 164.295 132.815 163.673 133.154 163.028ZM134.743 163.74C134.192 164.79 133.934 165.654 133.967 166.333C134.009 167.009 134.312 167.496 134.877 167.792C135.258 167.992 135.748 168.032 136.347 167.913C136.952 167.797 137.664 167.527 138.481 167.103L140.596 163.073C140.409 162.828 140.18 162.598 139.911 162.383C139.644 162.162 139.364 161.975 139.07 161.82C138.251 161.391 137.472 161.32 136.733 161.608C135.999 161.9 135.336 162.61 134.743 163.74ZM145.994 171.597C146.19 171.7 146.355 171.834 146.488 172C146.628 172.168 146.726 172.352 146.783 172.551C146.846 172.754 146.868 172.964 146.849 173.182C146.834 173.394 146.773 173.601 146.667 173.803C146.564 173.999 146.43 174.164 146.264 174.297C146.098 174.431 145.914 174.529 145.712 174.592C145.519 174.652 145.313 174.673 145.095 174.654C144.883 174.639 144.679 174.579 144.483 174.476C144.281 174.37 144.113 174.235 143.98 174.069C143.846 173.903 143.746 173.722 143.68 173.526C143.623 173.327 143.602 173.121 143.618 172.909C143.634 172.696 143.693 172.492 143.796 172.296C143.902 172.094 144.038 171.927 144.203 171.793C144.372 171.654 144.555 171.551 144.751 171.485C144.953 171.422 145.16 171.398 145.373 171.414C145.585 171.43 145.792 171.491 145.994 171.597ZM173.473 176.754L170.127 174.997L164.885 184.985L163.329 184.168L168.57 174.181L165.224 172.424L165.913 171.11L174.163 175.439L173.473 176.754ZM177.337 191.52L175.833 190.73L178.742 185.187C179.092 184.518 179.227 183.953 179.146 183.491C179.074 183.027 178.804 182.672 178.337 182.427C178.135 182.321 177.93 182.25 177.721 182.214C177.521 182.175 177.289 182.175 177.026 182.214C176.767 182.246 176.464 182.319 176.118 182.432C175.772 182.544 175.361 182.696 174.886 182.888L171.864 188.647L170.359 187.857L176.771 175.639L178.276 176.429L176.42 179.965L175.651 181.304C176.035 181.146 176.39 181.03 176.715 180.958C177.048 180.883 177.359 180.844 177.647 180.841C177.942 180.841 178.22 180.877 178.484 180.949C178.748 181.021 179.006 181.124 179.26 181.257C180.125 181.711 180.654 182.327 180.849 183.106C181.046 183.878 180.866 184.795 180.31 185.856L177.337 191.52ZM189.947 192.016C189.835 192.229 189.739 192.407 189.657 192.548C189.576 192.689 189.496 192.82 189.418 192.941L183.322 189.741C182.856 190.629 182.745 191.442 182.99 192.181C183.238 192.914 183.828 193.525 184.762 194.015C185.016 194.149 185.274 194.273 185.537 194.389C185.803 194.499 186.063 194.599 186.317 194.688C186.572 194.778 186.816 194.858 187.051 194.93C187.294 194.998 187.521 195.055 187.733 195.1L187.084 196.337C186.614 196.237 186.102 196.086 185.547 195.883C184.994 195.689 184.441 195.446 183.888 195.156C183.144 194.766 182.557 194.329 182.127 193.846C181.697 193.363 181.409 192.84 181.263 192.278C181.125 191.713 181.118 191.11 181.241 190.469C181.373 189.825 181.624 189.152 181.993 188.448C182.314 187.837 182.703 187.306 183.16 186.855C183.626 186.401 184.134 186.057 184.683 185.824C185.241 185.587 185.828 185.476 186.445 185.491C187.062 185.506 187.682 185.677 188.305 186.004C188.91 186.322 189.396 186.698 189.764 187.133C190.131 187.569 190.38 188.045 190.513 188.563C190.654 189.079 190.674 189.629 190.572 190.216C190.479 190.799 190.271 191.399 189.947 192.016ZM188.495 190.979C188.715 190.601 188.863 190.23 188.937 189.865C189.014 189.493 189.015 189.141 188.94 188.808C188.871 188.477 188.725 188.173 188.504 187.895C188.285 187.611 187.985 187.369 187.605 187.17C187.276 186.997 186.943 186.903 186.606 186.888C186.268 186.872 185.941 186.929 185.624 187.056C185.307 187.184 185.003 187.378 184.713 187.637C184.422 187.896 184.161 188.211 183.93 188.583L188.495 190.979ZM32.3345 126.472C31.6324 125.891 30.9961 125.45 30.4253 125.15C29.0706 124.439 28.0211 124.793 27.2769 126.211L26.4782 127.733L30.283 129.73L29.625 130.984L25.8202 128.987L22.5846 135.152L21.0541 134.349L24.2897 128.184L21.4966 126.718L22.1546 125.464L24.9477 126.93L25.701 125.494C26.9141 123.183 28.7255 122.659 31.1352 123.924C31.7348 124.238 32.3614 124.656 33.0152 125.175L32.3345 126.472ZM34.267 141.283L34.8451 140.098C34.1273 140.317 33.469 140.401 32.87 140.352C32.2769 140.305 31.7122 140.141 31.1761 139.86C30.6803 139.6 30.2899 139.314 30.0048 139.002C29.7197 138.691 29.5194 138.365 29.4037 138.025C29.2969 137.682 29.2674 137.332 29.3151 136.975C29.3687 136.621 29.4877 136.268 29.6723 135.916C30.1291 135.046 30.8089 134.535 31.7117 134.384C32.6233 134.23 33.7133 134.486 34.9815 135.151L36.7801 136.095L37.1795 135.334C37.4487 134.821 37.4992 134.326 37.331 133.848C37.1657 133.364 36.7459 132.945 36.0714 132.591C35.5814 132.334 35.0684 132.135 34.5325 131.993C34.0023 131.854 33.4306 131.753 32.8174 131.689L33.5298 130.331C33.7564 130.362 34.0016 130.406 34.2655 130.463C34.5381 130.518 34.8178 130.588 35.1044 130.672C35.3911 130.756 35.6832 130.858 35.9808 130.977C36.2814 131.091 36.5758 131.224 36.8641 131.375C37.3887 131.65 37.8311 131.956 38.1915 132.292C38.5518 132.628 38.8141 132.99 38.9783 133.378C39.1482 133.768 39.2173 134.183 39.1853 134.622C39.1534 135.061 39.0104 135.523 38.7563 136.007L35.616 141.991L34.267 141.283ZM36.1766 137.245L34.2655 136.242C33.8908 136.046 33.5483 135.914 33.2381 135.847C32.9278 135.779 32.6499 135.769 32.4043 135.817C32.1588 135.865 31.9413 135.964 31.752 136.114C31.5715 136.262 31.4177 136.457 31.2906 136.699C31.2029 136.867 31.1441 137.042 31.1143 137.224C31.0875 137.402 31.1 137.581 31.1518 137.762C31.2066 137.938 31.308 138.109 31.4562 138.275C31.6044 138.441 31.8111 138.594 32.0762 138.733C32.4221 138.914 32.8715 139.018 33.4243 139.043C33.9859 139.066 34.6341 138.98 35.3688 138.784L36.1766 137.245ZM44.6177 146.715L47.8896 140.481C48.0318 140.21 48.1368 139.982 48.2045 139.797C48.2779 139.615 48.3173 139.462 48.3226 139.34C48.3367 139.215 48.3198 139.114 48.2718 139.038C48.2295 138.964 48.1594 138.902 48.0614 138.85C47.9461 138.79 47.8213 138.768 47.687 138.786C47.5527 138.804 47.3871 138.86 47.1901 138.955C46.9989 139.054 46.766 139.196 46.4915 139.383C46.2258 139.567 45.9024 139.798 45.5213 140.076L42.5943 145.653L41.2194 144.932L44.405 138.861C44.5714 138.544 44.6945 138.282 44.7743 138.074C44.8599 137.869 44.9084 137.699 44.9197 137.565C44.9369 137.435 44.9214 137.331 44.8734 137.254C44.8254 137.178 44.7524 137.114 44.6544 137.062C44.5506 137.008 44.4375 136.985 44.315 136.994C44.1925 137.004 44.0343 137.053 43.8404 137.142C43.6522 137.235 43.4208 137.374 43.1463 137.561C42.8718 137.748 42.5336 137.993 42.1316 138.297L39.2046 143.874L37.821 143.148L42.3772 134.467L43.5272 135.07L42.7297 136.758C43.052 136.508 43.3428 136.304 43.6022 136.146C43.8673 135.991 44.1111 135.884 44.3336 135.824C44.5592 135.759 44.7721 135.738 44.9726 135.762C45.1819 135.784 45.3902 135.849 45.5978 135.958C46.0647 136.203 46.3391 136.542 46.4209 136.975C46.5027 137.407 46.3756 137.943 46.0398 138.583C46.3355 138.356 46.6101 138.162 46.8637 138.001C47.1204 137.834 47.3645 137.712 47.596 137.635C47.8364 137.556 48.07 137.524 48.2968 137.54C48.5267 137.55 48.7627 137.619 49.0048 137.746C50.0943 138.318 50.1989 139.443 49.3186 141.12L46.0013 147.441L44.6177 146.715ZM55.0231 142.691L52.4549 141.343L53.1083 140.098L57.1985 142.245L53.3004 149.673L55.8859 151.029L55.2279 152.283L48.2669 148.63L48.9249 147.376L51.7785 148.874L55.0231 142.691ZM58.1145 138.082C58.2817 138.17 58.4207 138.283 58.5316 138.422C58.6454 138.556 58.7255 138.704 58.7718 138.868C58.8238 139.035 58.8409 139.206 58.8229 139.38C58.8137 139.552 58.7652 139.721 58.6775 139.889C58.5928 140.05 58.4809 140.186 58.3419 140.297C58.2086 140.411 58.0584 140.494 57.8914 140.546C57.7302 140.601 57.5609 140.622 57.3835 140.61C57.2091 140.592 57.0383 140.539 56.8711 140.452C56.704 140.364 56.5634 140.253 56.4496 140.12C56.3387 139.981 56.2573 139.828 56.2052 139.661C56.1589 139.497 56.1419 139.326 56.1541 139.149C56.1721 138.975 56.2235 138.807 56.3082 138.645C56.3959 138.478 56.5049 138.34 56.6351 138.232C56.7742 138.121 56.9243 138.039 57.0856 137.983C57.2526 137.931 57.4233 137.914 57.5977 137.932C57.7751 137.945 57.9474 137.995 58.1145 138.082ZM66.6204 144.256L64.0522 142.908L64.7011 141.671L68.7913 143.818L63.0371 154.782L65.6226 156.139L64.9646 157.393L58.0036 153.74L58.6616 152.486L61.5152 153.984L66.6204 144.256ZM74.4966 152.911L71.9284 151.563L72.5819 150.318L76.672 152.464L72.7739 159.892L75.3594 161.249L74.7014 162.503L67.7404 158.85L68.3984 157.596L71.252 159.093L74.4966 152.911ZM77.5881 148.302C77.7552 148.39 77.8943 148.503 78.0051 148.642C78.119 148.775 78.199 148.924 78.2453 149.088C78.2974 149.255 78.3144 149.426 78.2964 149.6C78.2872 149.772 78.2388 149.941 78.151 150.108C78.0663 150.27 77.9544 150.406 77.8154 150.517C77.6821 150.63 77.532 150.713 77.365 150.765C77.2037 150.82 77.0344 150.842 76.857 150.83C76.6826 150.812 76.5118 150.759 76.3447 150.671C76.1775 150.583 76.037 150.473 75.9231 150.34C75.8122 150.201 75.7308 150.048 75.6787 149.881C75.6325 149.717 75.6154 149.546 75.6277 149.368C75.6456 149.194 75.697 149.026 75.7817 148.865C75.8694 148.698 75.9784 148.56 76.1087 148.452C76.2477 148.341 76.3979 148.258 76.5591 148.203C76.7261 148.151 76.8968 148.134 77.0712 148.152C77.2486 148.164 77.4209 148.214 77.5881 148.302ZM82.9509 166.832L83.5289 165.646C82.8111 165.865 82.1528 165.95 81.5539 165.9C80.9607 165.854 80.3961 165.69 79.8599 165.408C79.3642 165.148 78.9737 164.862 78.6886 164.551C78.4035 164.24 78.2032 163.914 78.0875 163.574C77.9807 163.231 77.9512 162.881 77.999 162.524C78.0525 162.17 78.1716 161.817 78.3561 161.465C78.8129 160.595 79.4927 160.084 80.3955 159.933C81.3071 159.779 82.3971 160.034 83.6653 160.7L85.464 161.644L85.8633 160.883C86.1325 160.37 86.183 159.874 86.0148 159.396C85.8496 158.913 85.4297 158.494 84.7552 158.14C84.2652 157.883 83.7522 157.683 83.2163 157.542C82.6861 157.403 82.1144 157.302 81.5012 157.237L82.2137 155.88C82.4402 155.91 82.6854 155.954 82.9493 156.012C83.2219 156.067 83.5016 156.136 83.7882 156.221C84.0749 156.305 84.367 156.407 84.6646 156.526C84.9652 156.64 85.2597 156.772 85.5479 156.924C86.0725 157.199 86.515 157.505 86.8753 157.841C87.2356 158.177 87.4979 158.539 87.6621 158.926C87.8321 159.317 87.9011 159.732 87.8692 160.171C87.8372 160.61 87.6942 161.072 87.4401 161.556L84.2998 167.54L82.9509 166.832ZM84.8604 162.794L82.9494 161.791C82.5747 161.594 82.2322 161.463 81.9219 161.395C81.6116 161.328 81.3337 161.318 81.0881 161.366C80.8426 161.413 80.6252 161.512 80.4358 161.663C80.2553 161.811 80.1015 162.006 79.9744 162.248C79.8867 162.415 79.8279 162.59 79.7981 162.773C79.7713 162.95 79.7838 163.13 79.8356 163.311C79.8904 163.487 79.9919 163.658 80.14 163.824C80.2882 163.99 80.4949 164.142 80.7601 164.282C81.106 164.463 81.5553 164.567 82.1081 164.592C82.6697 164.615 83.3179 164.528 84.0526 164.333L84.8604 162.794ZM92.0208 160.519L93.3957 161.241L92.5994 162.863C93.4362 162.515 94.1751 162.333 94.8161 162.317C95.4628 162.303 96.0399 162.43 96.5472 162.696C97.4465 163.168 97.9739 163.816 98.1296 164.64C98.291 165.467 98.0534 166.446 97.4167 167.575L95.8948 166.776C96.3115 166.024 96.488 165.415 96.4243 164.947C96.3695 164.477 96.1115 164.122 95.6503 163.879C95.4485 163.774 95.2242 163.704 94.9773 163.67C94.7393 163.633 94.4684 163.638 94.1646 163.684C93.8696 163.728 93.536 163.81 93.1638 163.931C92.7916 164.052 92.3748 164.216 91.9136 164.422L88.9866 169.999L87.4647 169.201L92.0208 160.519ZM103.707 168.24L101.139 166.892L101.792 165.647L105.882 167.793L101.984 175.221L104.57 176.578L103.912 177.832L96.9507 174.179L97.6087 172.925L100.462 174.423L103.707 168.24ZM106.798 163.631C106.966 163.719 107.105 163.832 107.215 163.971C107.329 164.104 107.409 164.253 107.456 164.417C107.508 164.584 107.525 164.755 107.507 164.929C107.498 165.101 107.449 165.27 107.361 165.437C107.277 165.599 107.165 165.735 107.026 165.846C106.892 165.96 106.742 166.043 106.575 166.095C106.414 166.15 106.245 166.171 106.067 166.159C105.893 166.141 105.722 166.088 105.555 166C105.388 165.913 105.247 165.802 105.133 165.669C105.023 165.53 104.941 165.377 104.889 165.21C104.843 165.046 104.826 164.875 104.838 164.698C104.856 164.523 104.907 164.355 104.992 164.194C105.08 164.027 105.189 163.889 105.319 163.781C105.458 163.67 105.608 163.587 105.769 163.532C105.936 163.48 106.107 163.463 106.281 163.481C106.459 163.493 106.631 163.543 106.798 163.631ZM113.643 182.784C113.257 182.692 112.874 182.568 112.493 182.412C112.108 182.262 111.729 182.089 111.354 181.892C110.264 181.32 109.58 180.649 109.301 179.877C109.025 179.1 109.155 178.201 109.69 177.181L112.068 172.65L109.638 171.375L110.301 170.112L112.731 171.387L113.983 169.001L115.692 169.401L114.236 172.177L118.135 174.224L117.473 175.486L113.573 173.44L111.259 177.85C110.932 178.472 110.851 179.025 111.016 179.509C111.19 179.99 111.6 180.4 112.246 180.739C112.523 180.884 112.836 181.023 113.186 181.155C113.538 181.281 113.918 181.392 114.324 181.487L113.643 182.784ZM128.599 179.715L121.566 185.928C120.846 186.557 120.172 187.071 119.544 187.469C118.922 187.871 118.322 188.152 117.745 188.312C117.165 188.478 116.599 188.527 116.047 188.458C115.496 188.389 114.934 188.204 114.363 187.905C114.214 187.826 114.08 187.752 113.962 187.683C113.844 187.614 113.716 187.535 113.577 187.448L114.294 186.082C114.412 186.166 114.543 186.253 114.687 186.343C114.828 186.439 114.982 186.531 115.149 186.619C115.426 186.764 115.703 186.858 115.982 186.901C116.266 186.948 116.564 186.935 116.874 186.862C117.181 186.795 117.508 186.669 117.855 186.484C118.203 186.299 118.576 186.05 118.975 185.737L120.064 175.236L121.776 176.134L120.959 183.029L120.692 184.609L121.92 183.489L126.947 178.848L128.599 179.715ZM145.666 194.12C145.312 194.794 144.892 195.364 144.405 195.829C143.921 196.288 143.395 196.626 142.826 196.842C142.259 197.052 141.661 197.135 141.03 197.091C140.402 197.04 139.762 196.844 139.111 196.503C138.488 196.176 137.979 195.787 137.583 195.337C137.196 194.884 136.928 194.379 136.778 193.823C136.635 193.27 136.616 192.668 136.722 192.018C136.834 191.37 137.079 190.686 137.457 189.966C137.811 189.291 138.228 188.727 138.709 188.274C139.192 187.814 139.717 187.48 140.284 187.269C140.853 187.053 141.451 186.971 142.079 187.021C142.71 187.065 143.352 187.258 144.003 187.6C144.626 187.927 145.131 188.317 145.518 188.77C145.914 189.22 146.183 189.722 146.327 190.275C146.479 190.826 146.499 191.425 146.388 192.072C146.282 192.722 146.041 193.405 145.666 194.12ZM144.091 193.381C144.372 192.845 144.556 192.346 144.644 191.885C144.741 191.421 144.749 190.999 144.669 190.619C144.592 190.233 144.43 189.89 144.182 189.591C143.944 189.29 143.631 189.037 143.245 188.835C142.795 188.599 142.362 188.485 141.946 188.495C141.538 188.501 141.153 188.597 140.791 188.782C140.435 188.97 140.105 189.235 139.801 189.575C139.507 189.913 139.247 190.295 139.023 190.722C138.742 191.258 138.553 191.758 138.456 192.222C138.366 192.689 138.359 193.116 138.436 193.501C138.516 193.882 138.675 194.223 138.914 194.524C139.155 194.82 139.472 195.071 139.864 195.277C140.314 195.513 140.743 195.627 141.15 195.621C141.567 195.612 141.953 195.513 142.309 195.325C142.671 195.14 143 194.878 143.295 194.54C143.598 194.2 143.864 193.813 144.091 193.381ZM158.912 192.899C158.21 192.317 157.574 191.877 157.003 191.577C155.649 190.866 154.599 191.22 153.855 192.638L153.056 194.16L156.861 196.157L156.203 197.41L152.398 195.414L149.163 201.579L147.632 200.776L150.868 194.61L148.075 193.145L148.733 191.891L151.526 193.357L152.279 191.921C153.492 189.61 155.303 189.086 157.713 190.351C158.313 190.665 158.939 191.082 159.593 191.602L158.912 192.899ZM177.282 205.263L170.25 211.477C169.53 212.106 168.856 212.62 168.228 213.018C167.605 213.419 167.006 213.7 166.429 213.861C165.849 214.027 165.283 214.076 164.731 214.007C164.179 213.937 163.618 213.753 163.047 213.454C162.897 213.375 162.763 213.301 162.645 213.232C162.527 213.162 162.399 213.084 162.261 212.997L162.978 211.631C163.096 211.715 163.227 211.802 163.371 211.892C163.511 211.988 163.665 212.08 163.833 212.167C164.109 212.313 164.387 212.407 164.666 212.45C164.95 212.497 165.248 212.483 165.558 212.411C165.865 212.344 166.192 212.218 166.539 212.033C166.886 211.847 167.26 211.598 167.659 211.286L168.748 200.784L170.46 201.683L169.643 208.577L169.376 210.158L170.604 209.037L175.631 204.397L177.282 205.263ZM184.613 214.559C184.259 215.233 183.839 215.803 183.352 216.268C182.868 216.727 182.342 217.065 181.773 217.281C181.207 217.491 180.608 217.574 179.977 217.53C179.349 217.479 178.709 217.283 178.058 216.942C177.435 216.615 176.926 216.226 176.53 215.776C176.143 215.323 175.875 214.818 175.725 214.262C175.582 213.709 175.563 213.107 175.669 212.457C175.781 211.809 176.026 211.125 176.404 210.405C176.758 209.73 177.175 209.166 177.656 208.713C178.139 208.253 178.664 207.919 179.231 207.708C179.8 207.492 180.398 207.41 181.026 207.46C181.657 207.504 182.299 207.697 182.95 208.039C183.573 208.366 184.078 208.756 184.465 209.209C184.861 209.659 185.13 210.161 185.274 210.714C185.426 211.265 185.446 211.864 185.335 212.511C185.229 213.161 184.988 213.844 184.613 214.559ZM183.038 213.82C183.319 213.284 183.503 212.785 183.591 212.324C183.688 211.86 183.696 211.438 183.616 211.058C183.539 210.672 183.377 210.329 183.129 210.03C182.891 209.729 182.578 209.476 182.192 209.274C181.742 209.038 181.309 208.924 180.893 208.934C180.485 208.94 180.1 209.036 179.738 209.221C179.382 209.409 179.052 209.674 178.748 210.014C178.454 210.352 178.194 210.734 177.97 211.161C177.689 211.697 177.5 212.197 177.404 212.661C177.313 213.128 177.306 213.555 177.383 213.94C177.463 214.321 177.622 214.662 177.861 214.963C178.102 215.259 178.419 215.51 178.811 215.716C179.261 215.952 179.69 216.066 180.097 216.06C180.514 216.051 180.9 215.952 181.256 215.764C181.618 215.579 181.947 215.317 182.242 214.979C182.545 214.639 182.811 214.252 183.038 213.82ZM191.456 223.774L190.107 223.066L190.79 221.638C190.374 221.802 189.994 221.923 189.652 222C189.318 222.075 189.005 222.113 188.711 222.113C188.416 222.113 188.139 222.074 187.879 221.996C187.621 221.927 187.362 221.824 187.103 221.688C186.209 221.219 185.672 220.603 185.492 219.839C185.312 219.076 185.5 218.164 186.057 217.103L189.034 211.43L190.539 212.22L187.625 217.772C186.926 219.103 187.078 220.032 188.082 220.559C188.266 220.655 188.458 220.723 188.658 220.762C188.867 220.798 189.102 220.8 189.362 220.767C189.63 220.732 189.935 220.656 190.275 220.541C190.621 220.428 191.024 220.268 191.485 220.062L194.508 214.303L196.012 215.093L191.456 223.774ZM199.125 216.726L200.5 217.448L199.704 219.07C200.541 218.723 201.279 218.541 201.92 218.524C202.567 218.511 203.144 218.637 203.652 218.903C204.551 219.375 205.078 220.023 205.234 220.847C205.395 221.675 205.158 222.653 204.521 223.782L202.999 222.983C203.416 222.231 203.592 221.622 203.529 221.155C203.474 220.685 203.216 220.329 202.755 220.087C202.553 219.981 202.329 219.911 202.082 219.877C201.844 219.84 201.573 219.845 201.269 219.892C200.974 219.935 200.64 220.018 200.268 220.138C199.896 220.259 199.479 220.423 199.018 220.629L196.091 226.207L194.569 225.408L199.125 216.726ZM41.7922 156.071L39.2239 154.724L39.8729 153.487L43.963 155.633L38.2089 166.598L40.7944 167.955L40.1364 169.209L33.1754 165.556L33.8334 164.302L36.687 165.799L41.7922 156.071ZM52.6804 170.167C52.3264 170.842 51.9061 171.411 51.4194 171.877C50.9357 172.336 50.4092 172.674 49.84 172.89C49.2739 173.1 48.6753 173.183 48.0442 173.138C47.4162 173.088 46.7765 172.892 46.125 172.55C45.5024 172.223 44.9932 171.835 44.5972 171.384C44.2101 170.931 43.9419 170.427 43.7926 169.87C43.6492 169.317 43.6304 168.715 43.7364 168.065C43.8481 167.418 44.093 166.734 44.4712 166.013C44.8251 165.339 45.2425 164.775 45.7231 164.321C46.2068 163.862 46.7317 163.527 47.2979 163.317C47.8671 163.101 48.4657 163.018 49.0937 163.068C49.7248 163.113 50.366 163.306 51.0175 163.648C51.6401 163.975 52.1449 164.364 52.5321 164.818C52.928 165.268 53.1977 165.77 53.3412 166.323C53.4935 166.874 53.5138 167.472 53.402 168.12C53.2961 168.77 53.0555 169.452 52.6804 170.167ZM51.1049 169.429C51.3862 168.892 51.5708 168.394 51.6584 167.932C51.7549 167.468 51.7632 167.046 51.6833 166.666C51.6064 166.28 51.4443 165.938 51.1968 165.639C50.9581 165.337 50.6456 165.085 50.2594 164.882C49.8097 164.646 49.3766 164.533 48.96 164.542C48.5521 164.549 48.1673 164.645 47.8055 164.83C47.4494 165.018 47.1195 165.282 46.8158 165.623C46.5209 165.961 46.2615 166.343 46.0376 166.769C45.7563 167.305 45.5673 167.806 45.4709 168.27C45.3802 168.737 45.3732 169.163 45.4501 169.549C45.53 169.929 45.6893 170.27 45.928 170.572C46.1697 170.868 46.4866 171.119 46.8786 171.324C47.3282 171.56 47.757 171.675 48.1648 171.669C48.5814 171.659 48.9678 171.561 49.3238 171.372C49.6856 171.187 50.014 170.926 50.309 170.588C50.6127 170.247 50.878 169.861 51.1049 169.429ZM59.4579 178.94C58.9872 178.885 58.5262 178.782 58.0748 178.634C57.6262 178.494 57.1828 178.309 56.7447 178.079C55.3726 177.359 54.5099 176.432 54.1565 175.298C53.8089 174.167 54.0102 172.887 54.7605 171.457C55.1205 170.771 55.5539 170.205 56.0607 169.757C56.5674 169.31 57.1183 168.989 57.7133 168.794C58.3083 168.599 58.9298 168.535 59.5778 168.603C60.2289 168.666 60.8773 168.866 61.523 169.205C61.9726 169.441 62.3768 169.694 62.7355 169.963C63.0943 170.232 63.4145 170.532 63.6963 170.864L62.943 172.299C62.6712 171.907 62.3619 171.564 62.0153 171.272C61.6775 170.977 61.301 170.721 60.8859 170.503C60.4997 170.3 60.0943 170.183 59.6698 170.152C59.254 170.117 58.8438 170.17 58.4392 170.311C58.0345 170.451 57.6529 170.681 57.2943 171C56.9356 171.319 56.6247 171.73 56.3615 172.231C55.8109 173.281 55.6516 174.201 55.8836 174.991C56.1244 175.779 56.6973 176.411 57.6024 176.886C58.0117 177.101 58.4308 177.262 58.8597 177.369C59.2943 177.48 59.7388 177.537 60.193 177.54L59.4579 178.94ZM67.8593 183.758L68.4374 182.572C67.7196 182.791 67.0613 182.876 66.4624 182.826C65.8692 182.779 65.3046 182.615 64.7684 182.334C64.2727 182.074 63.8822 181.788 63.5971 181.477C63.312 181.165 63.1117 180.84 62.996 180.5C62.8892 180.157 62.8597 179.807 62.9074 179.449C62.961 179.095 63.08 178.742 63.2646 178.391C63.7214 177.52 64.4012 177.009 65.304 176.858C66.2156 176.704 67.3056 176.96 68.5738 177.626L70.3724 178.569L70.7718 177.809C71.041 177.295 71.0915 176.8 70.9233 176.322C70.7581 175.838 70.3382 175.419 69.6637 175.065C69.1737 174.808 68.6607 174.609 68.1248 174.467C67.5946 174.329 67.0229 174.227 66.4097 174.163L67.1222 172.805C67.3487 172.836 67.5939 172.88 67.8578 172.938C68.1304 172.992 68.4101 173.062 68.6967 173.146C68.9834 173.231 69.2755 173.332 69.5731 173.452C69.8737 173.565 70.1682 173.698 70.4564 173.849C70.981 174.124 71.4235 174.43 71.7838 174.766C72.1441 175.102 72.4064 175.464 72.5706 175.852C72.7405 176.243 72.8096 176.657 72.7776 177.097C72.7457 177.536 72.6027 177.997 72.3486 178.482L69.2083 184.465L67.8593 183.758ZM69.7689 179.72L67.8579 178.717C67.4831 178.52 67.1407 178.388 66.8304 178.321C66.5201 178.254 66.2422 178.244 65.9966 178.291C65.7511 178.339 65.5336 178.438 65.3443 178.589C65.1638 178.737 65.01 178.932 64.8829 179.174C64.7952 179.341 64.7364 179.516 64.7066 179.699C64.6798 179.876 64.6923 180.055 64.7441 180.237C64.7989 180.413 64.9004 180.584 65.0485 180.749C65.1967 180.915 65.4034 181.068 65.6686 181.207C66.0144 181.389 66.4638 181.492 67.0166 181.518C67.5782 181.54 68.2264 181.454 68.9611 181.259L69.7689 179.72ZM80.7392 176.51L78.171 175.163L78.8199 173.926L82.9101 176.072L77.1559 187.037L79.7414 188.394L79.0834 189.648L72.1224 185.995L72.7804 184.741L75.634 186.238L80.7392 176.51ZM97.6836 199.409L100.955 193.174C101.098 192.903 101.203 192.675 101.27 192.49C101.344 192.308 101.383 192.156 101.388 192.034C101.403 191.909 101.386 191.808 101.338 191.732C101.295 191.658 101.225 191.595 101.127 191.544C101.012 191.484 100.887 191.462 100.753 191.48C100.619 191.498 100.453 191.554 100.256 191.649C100.065 191.747 99.8319 191.89 99.5574 192.077C99.2917 192.261 98.9682 192.492 98.5871 192.77L95.6601 198.347L94.2852 197.626L97.4709 191.555C97.6373 191.238 97.7604 190.976 97.8402 190.767C97.9257 190.562 97.9742 190.393 97.9856 190.259C98.0027 190.129 97.9873 190.025 97.9393 189.948C97.8913 189.872 97.8183 189.808 97.7203 189.756C97.6165 189.702 97.5034 189.679 97.3809 189.688C97.2584 189.698 97.1002 189.747 96.9062 189.836C96.718 189.929 96.4867 190.068 96.2122 190.255C95.9377 190.442 95.5994 190.687 95.1974 190.991L92.2704 196.568L90.8869 195.842L95.443 187.16L96.5931 187.764L95.7955 189.452C96.1178 189.202 96.4087 188.998 96.668 188.84C96.9332 188.685 97.177 188.578 97.3995 188.518C97.625 188.452 97.838 188.432 98.0384 188.456C98.2477 188.478 98.4561 188.543 98.6636 188.652C99.1306 188.897 99.4049 189.236 99.4867 189.668C99.5685 190.101 99.4415 190.637 99.1057 191.277C99.4013 191.05 99.676 190.856 99.9296 190.695C100.186 190.528 100.43 190.406 100.662 190.329C100.902 190.25 101.136 190.218 101.363 190.234C101.593 190.244 101.828 190.313 102.071 190.44C103.16 191.012 103.265 192.136 102.384 193.814L99.0671 200.135L97.6836 199.409ZM106.806 204.197L107.384 203.011C106.667 203.23 106.008 203.315 105.409 203.265C104.816 203.218 104.252 203.054 103.715 202.773C103.22 202.513 102.829 202.227 102.544 201.916C102.259 201.604 102.059 201.279 101.943 200.939C101.836 200.596 101.807 200.246 101.855 199.888C101.908 199.534 102.027 199.181 102.212 198.83C102.668 197.959 103.348 197.448 104.251 197.297C105.163 197.143 106.253 197.399 107.521 198.065L109.32 199.008L109.719 198.248C109.988 197.734 110.039 197.239 109.87 196.761C109.705 196.277 109.285 195.858 108.611 195.504C108.121 195.247 107.608 195.048 107.072 194.906C106.542 194.768 105.97 194.666 105.357 194.602L106.069 193.244C106.296 193.275 106.541 193.319 106.805 193.377C107.077 193.431 107.357 193.501 107.644 193.585C107.93 193.67 108.223 193.771 108.52 193.891C108.821 194.004 109.115 194.137 109.403 194.288C109.928 194.563 110.371 194.869 110.731 195.205C111.091 195.541 111.353 195.903 111.518 196.291C111.688 196.682 111.757 197.096 111.725 197.536C111.693 197.975 111.55 198.436 111.296 198.921L108.155 204.904L106.806 204.197ZM108.716 200.159L106.805 199.156C106.43 198.959 106.088 198.827 105.777 198.76C105.467 198.693 105.189 198.683 104.944 198.73C104.698 198.778 104.481 198.877 104.291 199.028C104.111 199.176 103.957 199.371 103.83 199.613C103.742 199.78 103.683 199.955 103.654 200.138C103.627 200.315 103.639 200.494 103.691 200.676C103.746 200.852 103.847 201.022 103.996 201.188C104.144 201.354 104.35 201.507 104.616 201.646C104.962 201.828 105.411 201.931 105.964 201.957C106.525 201.979 107.173 201.893 107.908 201.698L108.716 200.159ZM117.878 209.599C117.408 209.543 116.947 209.441 116.495 209.292C116.047 209.152 115.603 208.968 115.165 208.738C113.793 208.018 112.931 207.091 112.577 205.957C112.229 204.826 112.431 203.545 113.181 202.116C113.541 201.43 113.974 200.863 114.481 200.416C114.988 199.969 115.539 199.647 116.134 199.452C116.729 199.257 117.35 199.194 117.998 199.262C118.65 199.324 119.298 199.525 119.944 199.864C120.393 200.1 120.797 200.352 121.156 200.621C121.515 200.89 121.835 201.191 122.117 201.522L121.364 202.958C121.092 202.565 120.783 202.223 120.436 201.931C120.098 201.636 119.722 201.379 119.307 201.162C118.92 200.959 118.515 200.842 118.09 200.81C117.675 200.776 117.264 200.829 116.86 200.969C116.455 201.11 116.073 201.34 115.715 201.659C115.356 201.978 115.045 202.388 114.782 202.89C114.232 203.939 114.072 204.859 114.304 205.65C114.545 206.438 115.118 207.069 116.023 207.544C116.432 207.759 116.851 207.92 117.28 208.028C117.715 208.138 118.159 208.195 118.614 208.198L117.878 209.599ZM127.681 215.151L126.176 214.362L129.085 208.819C129.436 208.15 129.571 207.585 129.49 207.123C129.417 206.659 129.147 206.304 128.681 206.059C128.479 205.953 128.273 205.882 128.064 205.846C127.864 205.807 127.633 205.807 127.37 205.845C127.11 205.878 126.807 205.951 126.461 206.063C126.116 206.176 125.705 206.328 125.229 206.52L122.207 212.279L120.702 211.489L127.115 199.271L128.619 200.06L126.763 203.597L125.994 204.936C126.379 204.777 126.734 204.662 127.058 204.59C127.392 204.515 127.703 204.476 127.991 204.473C128.285 204.473 128.564 204.509 128.827 204.581C129.091 204.653 129.35 204.756 129.603 204.889C130.468 205.343 130.998 205.959 131.192 206.737C131.389 207.51 131.21 208.427 130.653 209.487L127.681 215.151ZM137.299 210.714L134.731 209.366L135.384 208.121L139.475 210.268L135.576 217.696L138.162 219.052L137.504 220.306L130.543 216.653L131.201 215.399L134.055 216.897L137.299 210.714ZM140.391 206.105C140.558 206.193 140.697 206.306 140.808 206.445C140.922 206.579 141.002 206.727 141.048 206.891C141.1 207.058 141.117 207.229 141.099 207.403C141.09 207.575 141.041 207.745 140.954 207.912C140.869 208.073 140.757 208.209 140.618 208.32C140.485 208.434 140.335 208.517 140.168 208.569C140.006 208.624 139.837 208.645 139.66 208.633C139.485 208.615 139.314 208.562 139.147 208.475C138.98 208.387 138.84 208.276 138.726 208.143C138.615 208.004 138.533 207.851 138.481 207.684C138.435 207.52 138.418 207.349 138.43 207.172C138.448 206.998 138.5 206.83 138.584 206.668C138.672 206.501 138.781 206.363 138.911 206.255C139.05 206.145 139.2 206.062 139.362 206.006C139.529 205.954 139.699 205.937 139.874 205.955C140.051 205.968 140.223 206.018 140.391 206.105ZM144.732 213.027L146.072 213.73L145.398 215.163C145.809 214.996 146.184 214.877 146.523 214.805C146.865 214.727 147.181 214.687 147.469 214.684C147.763 214.684 148.04 214.722 148.301 214.8C148.565 214.873 148.823 214.975 149.077 215.108C149.97 215.577 150.506 216.196 150.683 216.966C150.869 217.732 150.683 218.646 150.127 219.707L147.154 225.371L145.65 224.581L148.559 219.038C148.916 218.358 149.052 217.79 148.968 217.334C148.886 216.872 148.595 216.51 148.094 216.247C147.909 216.15 147.712 216.083 147.503 216.047C147.303 216.008 147.072 216.008 146.809 216.047C146.549 216.079 146.246 216.152 145.9 216.265C145.56 216.38 145.161 216.538 144.703 216.739L141.681 222.498L140.176 221.709L144.732 213.027ZM159.764 225.867C159.652 226.081 159.556 226.258 159.474 226.399C159.393 226.54 159.313 226.671 159.235 226.792L153.139 223.592C152.673 224.48 152.562 225.293 152.807 226.032C153.055 226.765 153.645 227.376 154.579 227.867C154.833 228 155.091 228.124 155.354 228.24C155.62 228.35 155.88 228.45 156.134 228.539C156.389 228.629 156.633 228.709 156.868 228.781C157.111 228.85 157.338 228.906 157.55 228.951L156.901 230.188C156.431 230.088 155.919 229.937 155.364 229.734C154.811 229.54 154.258 229.297 153.705 229.007C152.961 228.617 152.374 228.18 151.944 227.697C151.514 227.214 151.226 226.691 151.079 226.129C150.942 225.564 150.935 224.962 151.058 224.32C151.19 223.676 151.441 223.003 151.81 222.3C152.131 221.688 152.52 221.157 152.977 220.706C153.443 220.252 153.951 219.909 154.5 219.675C155.058 219.438 155.645 219.327 156.262 219.342C156.879 219.357 157.499 219.528 158.122 219.855C158.727 220.173 159.213 220.549 159.58 220.984C159.948 221.42 160.197 221.896 160.33 222.414C160.471 222.93 160.491 223.481 160.389 224.067C160.296 224.65 160.088 225.25 159.764 225.867ZM158.312 224.83C158.532 224.453 158.68 224.081 158.754 223.716C158.831 223.345 158.832 222.992 158.757 222.659C158.688 222.328 158.542 222.024 158.321 221.746C158.102 221.462 157.802 221.22 157.422 221.021C157.093 220.848 156.76 220.754 156.423 220.739C156.085 220.724 155.758 220.78 155.441 220.908C155.124 221.035 154.82 221.229 154.53 221.488C154.239 221.747 153.978 222.063 153.747 222.434L158.312 224.83ZM164.495 230.997C164.691 231.1 164.855 231.234 164.989 231.4C165.128 231.568 165.227 231.752 165.284 231.951C165.347 232.154 165.369 232.364 165.35 232.582C165.334 232.794 165.274 233.001 165.168 233.203C165.065 233.399 164.931 233.564 164.765 233.697C164.599 233.831 164.415 233.929 164.213 233.992C164.02 234.052 163.814 234.073 163.596 234.054C163.384 234.038 163.179 233.979 162.983 233.876C162.782 233.77 162.614 233.635 162.48 233.469C162.347 233.303 162.247 233.122 162.181 232.926C162.124 232.727 162.103 232.521 162.119 232.309C162.135 232.096 162.194 231.892 162.297 231.696C162.403 231.494 162.539 231.327 162.704 231.193C162.873 231.054 163.055 230.951 163.252 230.885C163.454 230.822 163.661 230.798 163.874 230.814C164.086 230.83 164.293 230.891 164.495 230.997Z" fill="white"/>
</svg>
