<svg width="628" height="629" viewBox="0 0 628 629" fill="none" xmlns="http://www.w3.org/2000/svg">
<g clip-path="url(#clip0_15_6561)">
<rect y="0.0117188" width="628" height="628" rx="18" fill="#0C6BEA"/>
<path fill-rule="evenodd" clip-rule="evenodd" d="M882 365.34H573.4L565.021 365.338L556.577 365.29L548.08 365.107L539.522 364.743L530.909 364.164L522.245 363.356L513.53 362.305L504.77 360.979L495.959 359.369L487.107 357.481L478.212 355.335L469.28 352.947L460.309 350.331L451.303 347.509L442.264 344.502L433.194 341.337L424.099 338.051L414.974 334.683L405.824 331.279L396.654 327.892L387.466 324.582L378.258 321.411L369.034 318.451L359.798 315.775L350.552 313.457L341.296 311.573L332.034 310.183L322.769 309.34L313.5 309.079L304.231 309.411L294.966 310.319L285.704 311.77L276.448 313.709L267.199 316.073L257.966 318.788L248.742 321.777L239.534 324.968L230.346 328.292L221.176 331.685L212.026 335.088L202.901 338.449L193.806 341.725L184.736 344.874L175.697 347.861L166.691 350.661L157.72 353.25L148.788 355.61L139.893 357.728L131.041 359.583L122.23 361.159L113.47 362.449L104.755 363.471L96.0909 364.25L87.4783 364.799L78.92 365.14L70.4225 365.301L61.9794 365.34H53.6003H-255V347.121H53.6003H61.9794L70.4225 347.08L78.92 346.921L87.4783 346.589L96.0909 346.047L104.755 345.249L113.47 344.18L122.23 342.846L131.041 341.255L139.893 339.406L148.788 337.31L157.72 334.971L166.691 332.409L175.697 329.642L184.736 326.685L193.806 323.567L202.901 320.32L212.026 316.983L221.176 313.6L230.346 310.221L239.534 306.914L248.742 303.755L257.966 300.819L267.202 298.176L276.448 295.895L285.704 294.036L294.966 292.652L304.231 291.788L313.5 291.473L322.769 291.722L332.034 292.523L341.296 293.847L350.552 295.653L359.798 297.887L369.034 300.489L378.258 303.394L387.466 306.531L396.654 309.822L405.824 313.195L414.974 316.58L424.099 319.924L433.194 323.184L442.264 326.318L451.303 329.293L460.309 332.084L469.28 334.67L478.212 337.036L487.107 339.162L495.959 341.04L504.77 342.663L513.53 344.028L522.245 345.131L530.909 345.961L539.522 346.533L548.08 346.888L556.577 347.068L565.021 347.12L573.4 347.121H882V365.34ZM882 396.696H573.4L565.021 396.694L556.577 396.641L548.08 396.45L539.522 396.081L530.909 395.503L522.245 394.69L513.53 393.625L504.77 392.304L495.959 390.724L487.107 388.889L478.212 386.803L469.28 384.476L460.309 381.892L451.303 379.046L442.264 375.981L433.194 372.743L424.099 369.388L414.974 365.953L405.824 362.486L396.654 359.045L387.466 355.689L378.258 352.481L369.034 349.491L359.798 346.793L350.552 344.457L341.296 342.554L332.034 341.151L322.769 340.297L313.5 340.033L304.231 340.368L294.966 341.289L285.704 342.754L276.448 344.71L267.199 347.093L257.966 349.831L248.742 352.851L239.534 356.08L230.346 359.451L221.176 362.899L212.026 366.365L202.901 369.794L193.806 373.14L184.736 376.36L175.697 379.404L166.691 382.22L157.72 384.772L148.788 387.072L139.893 389.128L131.041 390.934L122.23 392.482L113.47 393.772L104.755 394.805L96.0909 395.589L87.4783 396.139L78.92 396.485L70.4225 396.653L61.9794 396.696H53.6003H-255V378.477H53.6003H61.9794L70.4225 378.439L78.92 378.275L87.4783 377.931L96.0909 377.371L104.755 376.587L113.47 375.564L122.23 374.293L131.041 372.767L139.893 370.965L148.788 368.869L157.72 366.497L166.691 363.879L175.697 361.049L184.736 358.028L193.806 354.848L202.901 351.546L212.026 348.158L221.176 344.73L230.346 341.317L239.534 337.977L248.742 334.773L257.966 331.776L267.202 329.055L276.448 326.687L285.704 324.738L294.966 323.28L304.231 322.362L313.5 322.027L322.769 322.291L332.034 323.142L341.296 324.54L350.552 326.433L359.798 328.757L369.034 331.438L378.258 334.407L387.466 337.589L396.654 340.915L405.824 344.322L414.974 347.749L424.099 351.144L433.194 354.459L442.264 357.653L451.303 360.693L460.309 363.546L469.28 366.19L478.212 368.594L487.107 370.723L495.959 372.56L504.77 374.118L513.53 375.419L522.245 376.471L530.909 377.285L539.522 377.872L548.08 378.242L556.577 378.427L565.021 378.475L573.4 378.477H882V396.696ZM573.4 428.054H882V409.835H573.4L565.021 409.833L556.577 409.78L548.08 409.592L539.522 409.222L530.909 408.637L522.245 407.816L513.53 406.747L504.77 405.421L495.959 403.829L487.107 401.978L478.212 399.875L469.28 397.534L460.309 394.965L451.303 392.185L442.264 389.2L433.194 386.003L424.099 382.641L414.974 379.176L405.824 375.675L396.654 372.203L387.466 368.814L378.258 365.578L369.034 362.565L359.798 359.847L350.552 357.496L341.296 355.582L332.034 354.17L322.769 353.311L313.5 353.046L304.231 353.382L294.966 354.307L285.704 355.782L276.448 357.752L267.202 360.151L257.966 362.907L248.742 365.951L239.534 369.21L230.346 372.612L221.176 376.093L212.026 379.592L202.901 383.049L193.806 386.397L184.736 389.571L175.697 392.531L166.691 395.289L157.72 397.831L148.788 400.145L139.893 402.22L131.041 404.04L122.23 405.601L113.47 406.895L104.755 407.932L96.0909 408.723L87.4783 409.281L78.92 409.625L70.4225 409.793L61.9794 409.835H53.6003H-255V428.054H53.6003H61.9794L70.4225 428.016L78.92 427.852L87.4783 427.5L96.0909 426.934L104.755 426.133L113.47 425.086L122.23 423.783L131.041 422.223L139.893 420.401L148.788 418.322L157.72 415.991L166.691 413.425L175.697 410.642L184.736 407.669L193.806 404.533L202.901 401.268L212.026 397.909L221.176 394.465L230.346 390.986L239.534 387.554L248.742 384.253L257.966 381.167L267.199 378.374L276.448 375.944L285.704 373.949L294.966 372.456L304.231 371.518L313.5 371.177L322.769 371.447L332.034 372.315L341.296 373.746L350.552 375.685L359.798 378.068L369.034 380.821L378.258 383.875L387.466 387.153L396.654 390.573L405.824 394.05L414.974 397.503L424.099 400.871L433.194 404.146L442.264 407.299L451.303 410.293L460.309 413.098L469.28 415.69L478.212 418.05L487.107 420.159L495.959 422.012L504.77 423.604L513.53 424.937L522.245 426.016L530.909 426.846L539.522 427.441L548.08 427.817L556.577 428.003L565.021 428.052L573.4 428.054ZM882 459.411H573.4L565.021 459.409L556.577 459.355L548.08 459.165L539.522 458.793L530.909 458.204L522.245 457.381L513.53 456.299L504.77 454.955L495.959 453.349L487.107 451.48L478.212 449.359L469.28 446.991L460.309 444.393L451.303 441.578L442.264 438.573L433.194 435.404L424.099 432.1L414.974 428.702L405.824 425.27L396.654 421.854L387.466 418.517L378.258 415.326L369.034 412.349L359.798 409.659L350.552 407.328L341.296 405.414L332.034 403.991L322.769 403.124L313.5 402.853L304.231 403.194L294.966 404.131L285.704 405.616L276.448 407.583L267.199 409.96L257.966 412.688L248.742 415.693L239.534 418.906L230.346 422.257L221.176 425.678L212.026 429.112L202.901 432.502L193.806 435.793L184.736 438.944L175.697 441.93L166.691 444.721L157.72 447.293L148.788 449.631L139.893 451.724L131.041 453.561L122.23 455.136L113.47 456.449L104.755 457.499L96.0909 458.291L87.4783 458.851L78.92 459.198L70.4225 459.367L61.9794 459.411H53.6003H-255V441.192H53.6003H61.9794L70.4225 441.153L78.92 440.987L87.4783 440.64L96.0909 440.071L104.755 439.27L113.47 438.22L122.23 436.913L131.041 435.346L139.893 433.516L148.788 431.431L157.72 429.098L166.691 426.527L175.697 423.735L184.736 420.745L193.806 417.591L202.901 414.308L212.026 410.938L221.176 407.53L230.346 404.135L239.534 400.789L248.742 397.537L257.966 394.463L267.202 391.659L276.448 389.211L285.704 387.199L294.966 385.693L304.231 384.748L313.5 384.403L322.769 384.675L332.034 385.552L341.296 386.994L350.552 388.95L359.798 391.35L369.034 394.116L378.258 397.162L387.466 400.397L396.654 403.735L405.824 407.125L414.974 410.533L424.099 413.909L433.194 417.204L442.264 420.373L451.303 423.383L460.309 426.2L469.28 428.796L478.212 431.159L487.107 433.274L495.959 435.133L504.77 436.733L513.53 438.071L522.245 439.152L530.909 439.983L539.522 440.581L548.08 440.954L556.577 441.14L565.021 441.19L573.4 441.192H882V459.411ZM573.4 490.768H882V472.549H573.4L565.021 472.548L556.577 472.493L548.08 472.302L539.522 471.928L530.909 471.339L522.245 470.512L513.53 469.438L504.77 468.105L495.959 466.508L487.107 464.644L478.212 462.524L469.28 460.155L460.309 457.551L451.303 454.731L442.264 451.716L433.194 448.536L424.099 445.227L414.974 441.831L405.824 438.39L396.654 434.956L387.466 431.601L378.258 428.389L369.034 425.393L359.798 422.687L350.552 420.344L341.296 418.437L332.034 417.028L322.769 416.173L313.5 415.907L304.231 416.243L294.966 417.166L285.704 418.637L276.448 420.599L267.202 422.989L257.966 425.734L248.742 428.76L239.534 431.992L230.346 435.361L221.176 438.801L212.026 442.239L202.901 445.628L193.806 448.925L184.736 452.088L175.697 455.084L166.691 457.88L157.72 460.456L148.788 462.796L139.893 464.888L131.041 466.72L122.23 468.285L113.47 469.586L104.755 470.629L96.0909 471.425L87.4783 471.986L78.92 472.337L70.4225 472.507L61.9794 472.549H53.6003H-255V490.768H53.6003H61.9794L70.4225 490.729L78.92 490.562L87.4783 490.21L96.0909 489.644L104.755 488.849L113.47 487.811L122.23 486.518L131.041 484.961L139.893 483.142L148.788 481.063L157.72 478.724L166.691 476.134L175.697 473.326L184.736 470.316L193.806 467.139L202.901 463.829L212.026 460.424L221.176 456.971L230.346 453.527L239.534 450.153L248.742 446.914L257.966 443.878L267.199 441.117L276.448 438.709L285.704 436.732L294.966 435.25L304.231 434.32L313.5 433.98L322.769 434.249L332.034 435.111L341.296 436.531L350.552 438.452L359.798 440.812L369.034 443.535L378.258 446.544L387.466 449.76L396.654 453.122L405.824 456.559L414.974 460.012L424.099 463.426L433.194 466.748L442.264 469.943L451.303 472.971L460.309 475.806L469.28 478.42L478.212 480.791L487.107 482.9L495.959 484.75L504.77 486.34L513.53 487.664L522.245 488.734L530.909 489.556L539.522 490.15L548.08 490.529L556.577 490.715L565.021 490.766L573.4 490.768ZM882 522.126H573.4L565.021 522.122L556.577 522.072L548.08 521.89L539.522 521.524L530.909 520.942L522.245 520.124L513.53 519.05L504.77 517.709L495.959 516.104L487.107 514.242L478.212 512.123L469.28 509.759L460.309 507.158L451.303 504.335L442.264 501.319L433.194 498.139L424.099 494.815L414.974 491.387L405.824 487.918L396.654 484.461L387.466 481.079L378.258 477.842L369.034 474.821L359.798 472.09L350.552 469.722L341.296 467.793L332.034 466.368L322.769 465.502L313.5 465.233L304.231 465.574L294.966 466.509L285.704 467.995L276.448 469.979L267.199 472.395L257.966 475.165L248.742 478.216L239.534 481.474L230.346 484.869L221.176 488.33L212.026 491.8L202.901 495.22L193.806 498.528L184.736 501.693L175.697 504.689L166.691 507.486L157.72 510.06L148.788 512.397L139.893 514.484L131.041 516.315L122.23 517.888L113.47 519.199L104.755 520.24L96.0909 521.028L87.4783 521.582L78.92 521.922L70.4225 522.085L61.9794 522.126H53.6003H-255V503.907H53.6003H61.9794L70.4225 503.866L78.92 503.702L87.4783 503.36L96.0909 502.801L104.755 502.006L113.47 500.963L122.23 499.662L131.041 498.101L139.893 496.277L148.788 494.192L157.72 491.858L166.691 489.286L175.697 486.482L184.736 483.471L193.806 480.291L202.901 476.973L212.026 473.561L221.176 470.105L230.346 466.655L239.534 463.27L248.742 460.02L257.966 456.979L267.202 454.216L276.448 451.81L285.704 449.832L294.966 448.35L304.231 447.416L313.5 447.076L322.769 447.344L332.034 448.211L341.296 449.63L350.552 451.554L359.798 453.913L369.034 456.635L378.258 459.648L387.466 462.877L396.654 466.247L405.824 469.693L414.974 473.15L424.099 476.568L433.194 479.9L442.264 483.096L451.303 486.129L460.309 488.957L469.28 491.556L478.212 493.919L487.107 496.034L495.959 497.89L504.77 499.482L513.53 500.814L522.245 501.888L530.909 502.714L539.522 503.3L548.08 503.668L556.577 503.854L565.021 503.905L573.4 503.907H882V522.126ZM573.4 553.482H882V535.263H573.4L565.021 535.261L556.577 535.211L548.08 535.027L539.522 534.656L530.909 534.07L522.245 533.249L513.53 532.18L504.77 530.854L495.959 529.259L487.107 527.389L478.212 525.262L469.28 522.887L460.309 520.278L451.303 517.454L442.264 514.436L433.194 511.249L424.099 507.933L414.974 504.528L405.824 501.078L396.654 497.628L387.466 494.246L378.258 491.007L369.034 487.983L359.798 485.249L350.552 482.882L341.296 480.952L332.034 479.526L322.769 478.66L313.5 478.391L304.231 478.732L294.966 479.665L285.704 481.154L276.448 483.14L267.202 485.554L257.966 488.327L248.742 491.381L239.534 494.64L230.346 498.036L221.176 501.491L212.026 504.939L202.901 508.337L193.806 511.64L184.736 514.808L175.697 517.806L166.691 520.607L157.72 523.189L148.788 525.536L139.893 527.634L131.041 529.47L122.23 531.032L113.47 532.326L104.755 533.365L96.0909 534.156L87.4783 534.714L78.92 535.06L70.4225 535.224L61.9794 535.263H53.6003H-255V553.482H53.6003H61.9794L70.4225 553.441L78.92 553.274L87.4783 552.925L96.0909 552.364L104.755 551.568L113.47 550.525L122.23 549.224L131.041 547.664L139.893 545.842L148.788 543.759L157.72 541.425L166.691 538.84L175.697 536.037L184.736 533.038L193.806 529.873L202.901 526.577L212.026 523.186L221.176 519.748L230.346 516.314L239.534 512.948L248.742 509.714L257.966 506.681L267.199 503.915L276.448 501.499L285.704 499.513L294.966 498.025L304.231 497.09L313.5 496.749L322.769 497.018L332.034 497.884L341.296 499.31L350.552 501.241L359.798 503.61L369.034 506.338L378.258 509.344L387.466 512.555L396.654 515.909L405.824 519.338L414.974 522.776L424.099 526.175L433.194 529.484L442.264 532.666L451.303 535.685L460.309 538.512L469.28 541.123L478.212 543.489L487.107 545.6L495.959 547.453L504.77 549.044L513.53 550.376L522.245 551.451L530.909 552.276L539.522 552.866L548.08 553.241L556.577 553.428L565.021 553.48L573.4 553.482ZM882 584.839H573.4L565.021 584.837L556.577 584.784L548.08 584.593L539.522 584.215L530.909 583.624L522.245 582.799L513.53 581.731L504.77 580.405L495.959 578.818L487.107 576.973L478.212 574.874L469.28 572.532L460.309 569.96L451.303 567.175L442.264 564.197L433.194 561.051L424.099 557.772L414.974 554.39L405.824 550.958L396.654 547.54L387.466 544.195L378.258 540.995L369.034 538.004L359.798 535.302L350.552 532.958L341.296 531.049L332.034 529.637L322.769 528.779L313.5 528.511L304.231 528.85L294.966 529.776L285.704 531.249L276.448 533.213L267.199 535.604L257.966 538.344L248.742 541.364L239.534 544.586L230.346 547.943L221.176 551.366L212.026 554.798L202.901 558.171L193.806 561.435L184.736 564.564L175.697 567.522L166.691 570.285L157.72 572.831L148.788 575.145L139.893 577.213L131.041 579.027L122.23 580.583L113.47 581.878L104.755 582.916L96.0909 583.712L87.4783 584.275L78.92 584.628L70.4225 584.798L61.9794 584.839H53.6003H-255V566.62H53.6003H61.9794L70.4225 566.578L78.92 566.409L87.4783 566.06L96.0909 565.498L104.755 564.699L113.47 563.649L122.23 562.347L131.041 560.785L139.893 558.966L148.788 556.895L157.72 554.574L166.691 552.018L175.697 549.238L184.736 546.247L193.806 543.081L202.901 539.783L212.026 536.392L221.176 532.955L230.346 529.527L239.534 526.167L248.742 522.939L257.966 519.911L267.202 517.164L276.448 514.767L285.704 512.799L294.966 511.324L304.231 510.396L313.5 510.056L322.769 510.324L332.034 511.185L341.296 512.599L350.552 514.512L359.798 516.861L369.034 519.571L378.258 522.568L387.466 525.776L396.654 529.122L405.824 532.545L414.974 535.982L424.099 539.38L433.194 542.691L442.264 545.873L451.303 548.888L460.309 551.693L469.28 554.276L478.212 556.623L487.107 558.726L495.959 560.574L504.77 562.167L513.53 563.501L522.245 564.58L530.909 565.41L539.522 566.001L548.08 566.375L556.577 566.565L565.021 566.619L573.4 566.62H882V584.839ZM573.4 616.197H882V597.978H573.4L565.021 597.976L556.577 597.925L548.08 597.737L539.522 597.36L530.909 596.774L522.245 595.954L513.53 594.89L504.77 593.57L495.959 591.994L487.107 590.16L478.212 588.068L469.28 585.732L460.309 583.168L451.303 580.391L442.264 577.42L433.194 574.288L424.099 571.025L414.974 567.669L405.824 564.27L396.654 560.873L387.466 557.534L378.258 554.332L369.034 551.344L359.798 548.644L350.552 546.305L341.296 544.397L332.034 542.987L322.769 542.13L313.5 541.864L304.231 542.202L294.966 543.126L285.704 544.597L276.448 546.56L267.202 548.944L257.966 551.685L248.742 554.701L239.534 557.924L230.346 561.274L221.176 564.675L212.026 568.073L202.901 571.42L193.806 574.671L184.736 577.787L175.697 580.736L166.691 583.491L157.72 586.029L148.788 588.337L139.893 590.399L131.041 592.203L122.23 593.748L113.47 595.037L104.755 596.07L96.0909 596.86L87.4783 597.42L78.92 597.77L70.4225 597.937L61.9794 597.978H53.6003H-255V616.197H53.6003H61.9794L70.4225 616.156L78.92 615.995L87.4783 615.657L96.0909 615.108L104.755 614.327L113.47 613.301L122.23 612.023L131.041 610.491L139.893 608.701L148.788 606.654L157.72 604.362L166.691 601.834L175.697 599.086L184.736 596.15L193.806 593.053L202.901 589.828L212.026 586.518L221.176 583.166L230.346 579.822L239.534 576.547L248.742 573.4L257.966 570.451L267.199 567.771L276.448 565.427L285.704 563.495L294.966 562.044L304.231 561.132L313.5 560.799L322.769 561.062L332.034 561.908L341.296 563.298L350.552 565.176L359.798 567.476L369.034 570.12L378.258 573.039L387.466 576.166L396.654 579.428L405.824 582.766L414.974 586.12L424.099 589.436L433.194 592.671L442.264 595.784L451.303 598.741L460.309 601.511L469.28 604.066L478.212 606.387L487.107 608.462L495.959 610.283L504.77 611.847L513.53 613.155L522.245 614.212L530.909 615.024L539.522 615.599L548.08 615.962L556.577 616.143L565.021 616.195L573.4 616.197ZM882 647.554H573.4L565.021 647.552L556.577 647.504L548.08 647.327L539.522 646.972L530.909 646.408L522.245 645.617L513.53 644.588L504.77 643.323L495.959 641.82L487.107 640.082L478.212 638.113L469.28 635.929L460.309 633.544L451.303 630.974L442.264 628.241L433.194 625.365L424.099 622.382L414.974 619.325L405.824 616.233L396.654 613.148L387.466 610.131L378.258 607.243L369.034 604.546L359.798 602.107L350.552 599.99L341.296 598.265L332.034 596.991L322.769 596.214L313.5 595.973L304.231 596.278L294.966 597.116L285.704 598.447L276.448 600.221L267.199 602.379L257.966 604.853L248.742 607.577L239.534 610.483L230.346 613.512L221.176 616.602L212.026 619.693L202.901 622.745L193.806 625.717L184.736 628.579L175.697 631.294L166.691 633.843L157.72 636.207L148.788 638.365L139.893 640.308L131.041 642.019L122.23 643.492L113.47 644.729L104.755 645.729L96.0909 646.492L87.4783 647.029L78.92 647.359L70.4225 647.515L61.9794 647.554H53.6003H-255V629.335H53.6003H61.9794L70.4225 629.296L78.92 629.137L87.4783 628.802L96.0909 628.263L104.755 627.495L113.47 626.483L122.23 625.212L131.041 623.681L139.893 621.896L148.788 619.862L157.72 617.594L166.691 615.104L175.697 612.41L184.736 609.536L193.806 606.502L202.901 603.346L212.026 600.106L221.176 596.829L230.346 593.562L239.534 590.363L248.742 587.292L257.966 584.415L267.202 581.804L276.448 579.528L285.704 577.654L294.966 576.249L304.231 575.364L313.5 575.042L322.769 575.297L332.034 576.116L341.296 577.464L350.552 579.285L359.798 581.516L369.034 584.092L378.258 586.94L387.466 589.991L396.654 593.178L405.824 596.439L414.974 599.716L424.099 602.962L433.194 606.129L442.264 609.179L451.303 612.072L460.309 614.788L469.28 617.302L478.212 619.597L487.107 621.658L495.959 623.475L504.77 625.035L513.53 626.339L522.245 627.382L530.909 628.178L539.522 628.746L548.08 629.104L556.577 629.284L565.021 629.334L573.4 629.335H882V647.554ZM573.4 678.91H882V660.692H573.4L565.021 660.69L556.577 660.642L548.08 660.465L539.522 660.11L530.909 659.55L522.245 658.779L513.53 657.796L504.77 656.597L495.959 655.183L487.107 653.557L478.212 651.723L469.28 649.687L460.309 647.454L451.303 645.048L442.264 642.485L433.194 639.793L424.099 636.999L414.974 634.134L405.824 631.234L396.654 628.347L387.466 625.522L378.258 622.816L369.034 620.279L359.798 617.981L350.552 615.987L341.296 614.361L332.034 613.157L322.769 612.426L313.5 612.197L304.231 612.487L294.966 613.276L285.704 614.532L276.448 616.205L267.202 618.237L257.966 620.569L248.742 623.128L239.534 625.852L230.346 628.688L221.176 631.579L212.026 634.478L202.901 637.338L193.806 640.123L184.736 642.801L175.697 645.347L166.691 647.734L157.72 649.945L148.788 651.959L139.893 653.768L131.041 655.369L122.23 656.758L113.47 657.93L104.755 658.887L96.0909 659.632L87.4783 660.166L78.92 660.496L70.4225 660.654L61.9794 660.692H53.6003H-255V678.91H53.6003H61.9794L70.4225 678.871L78.92 678.712L87.4783 678.398L96.0909 677.916L104.755 677.259L113.47 676.418L122.23 675.391L131.041 674.177L139.893 672.783L148.788 671.207L157.72 669.459L166.691 667.545L175.697 665.476L184.736 663.267L193.806 660.936L202.901 658.499L212.026 655.995L221.176 653.455L230.346 650.918L239.534 648.428L248.742 646.035L257.966 643.791L267.199 641.746L276.448 639.959L285.704 638.486L294.966 637.379L304.231 636.683L313.5 636.428L322.769 636.63L332.034 637.275L341.296 638.336L350.552 639.768L359.798 641.521L369.034 643.538L378.258 645.761L387.466 648.139L396.654 650.617L405.824 653.152L414.974 655.693L424.099 658.202L433.194 660.648L442.264 662.993L451.303 665.215L460.309 667.301L469.28 669.233L478.212 671.002L487.107 672.598L495.959 674.015L504.77 675.25L513.53 676.301L522.245 677.164L530.909 677.844L539.522 678.346L548.08 678.681L556.577 678.859L565.021 678.909L573.4 678.91ZM882 710.268H573.4L565.021 710.266L556.577 710.235L548.08 710.133L539.522 709.935L530.909 709.625L522.245 709.195L513.53 708.642L504.77 707.962L495.959 707.152L487.107 706.215L478.212 705.154L469.28 703.968L460.309 702.666L451.303 701.257L442.264 699.753L433.194 698.171L424.099 696.526L414.974 694.84L405.824 693.136L396.654 691.439L387.466 689.782L378.258 688.195L369.034 686.716L359.798 685.377L350.552 684.217L341.296 683.271L332.034 682.571L322.769 682.147L313.5 682.014L304.231 682.181L294.966 682.64L285.704 683.37L276.448 684.344L267.199 685.527L257.966 686.885L248.742 688.378L239.534 689.976L230.346 691.639L221.176 693.339L212.026 695.043L202.901 696.726L193.806 698.364L184.736 699.939L175.697 701.432L166.691 702.83L157.72 704.12L148.788 705.29L139.893 706.337L131.041 707.26L122.23 708.052L113.47 708.718L104.755 709.256L96.0909 709.671L87.4783 709.966L78.92 710.151L70.4225 710.243L61.9794 710.268H53.6003H-255V692.049H53.6003H61.9794L70.4225 692.01L78.92 691.869L87.4783 691.596L96.0909 691.181L104.755 690.614L113.47 689.891L122.23 689.008L131.041 687.959L139.893 686.747L148.788 685.376L157.72 683.853L166.691 682.186L175.697 680.385L184.736 678.462L193.806 676.434L202.901 674.321L212.026 672.146L221.176 669.942L230.346 667.732L239.534 665.557L248.742 663.465L257.966 661.505L267.202 659.717L276.448 658.154L285.704 656.867L294.966 655.899L304.231 655.291L313.5 655.069L322.769 655.244L332.034 655.809L341.296 656.736L350.552 657.988L359.798 659.521L369.034 661.283L378.258 663.226L387.466 665.304L396.654 667.471L405.824 669.679L414.974 671.884L424.099 674.063L433.194 676.184L442.264 678.222L451.303 680.158L460.309 681.975L469.28 683.657L478.212 685.198L487.107 686.588L495.959 687.818L504.77 688.886L513.53 689.79L522.245 690.532L530.909 691.117L539.522 691.552L548.08 691.841L556.577 691.999L565.021 692.048L573.4 692.049H882V710.268ZM573.4 741.626H882V723.407H573.4H565.021L556.577 723.393L548.08 723.335L539.522 723.207L530.909 722.994L522.245 722.688L513.53 722.278L504.77 721.764L495.959 721.143L487.107 720.417L478.212 719.589L469.28 718.66L460.309 717.641L451.303 716.535L442.264 715.355L433.194 714.107L424.099 712.809L414.974 711.478L405.824 710.137L396.654 708.803L387.466 707.505L378.258 706.267L369.034 705.116L359.798 704.083L350.552 703.192L341.296 702.468L332.034 701.936L322.769 701.615L313.5 701.515L304.231 701.642L294.966 701.988L285.704 702.543L276.448 703.289L267.202 704.199L257.966 705.248L248.742 706.409L239.534 707.656L230.346 708.96L221.176 710.296L212.026 711.64L202.901 712.965L193.806 714.26L184.736 715.5L175.697 716.673L166.691 717.769L157.72 718.779L148.788 719.695L139.893 720.513L131.041 721.226L122.23 721.834L113.47 722.336L104.755 722.732L96.0909 723.027L87.4783 723.227L78.92 723.346L70.4225 723.396L61.9794 723.407H53.6003H-255V741.626H53.6003H61.9794L70.4225 741.624L78.92 741.615L87.4783 741.576L96.0909 741.49L104.755 741.343L113.47 741.129L122.23 740.844L131.041 740.483L139.893 740.043L148.788 739.528L157.72 738.936L166.691 738.278L175.697 737.557L184.736 736.782L193.806 735.963L202.901 735.107L212.026 734.23L221.176 733.345L230.346 732.47L239.534 731.616L248.742 730.803L257.966 730.051L267.199 729.374L276.448 728.789L285.704 728.314L294.966 727.96L304.231 727.741L313.5 727.661L322.769 727.724L332.034 727.927L341.296 728.265L350.552 728.726L359.798 729.299L369.034 729.966L378.258 730.711L387.466 731.517L396.654 732.366L405.824 733.24L414.974 734.125L424.099 735.003L433.194 735.861L442.264 736.686L451.303 737.467L460.309 738.194L469.28 738.86L478.212 739.459L487.107 739.984L495.959 740.433L504.77 740.803L513.53 741.097L522.245 741.319L530.909 741.474L539.522 741.568L548.08 741.613L556.577 741.624L565.021 741.626H573.4ZM882 772.983H539.522L530.909 772.982L522.245 772.977L513.53 772.958L504.77 772.918L495.959 772.846L487.107 772.744L478.212 772.606L469.28 772.433L460.309 772.227L451.303 771.99L442.264 771.725L433.194 771.437L424.099 771.129L414.974 770.808L405.824 770.48L396.654 770.153L387.466 769.834L378.258 769.531L369.034 769.248L359.798 768.996L350.552 768.779L341.296 768.605L332.034 768.479L322.769 768.402L313.5 768.379L304.231 768.408L294.966 768.491L285.704 768.624L276.448 768.802L267.199 769.024L257.966 769.281L248.742 769.565L239.534 769.872L230.346 770.192L221.176 770.519L212.026 770.847L202.901 771.166L193.806 771.471L184.736 771.759L175.697 772.02L166.691 772.253L157.72 772.456L148.788 772.625L139.893 772.758L131.041 772.857L122.23 772.924L113.47 772.961L104.755 772.977L96.0909 772.982L87.4783 772.983H-255V754.764H70.4225L78.92 754.763L87.4783 754.757L96.0909 754.729L104.755 754.664L113.47 754.557L122.23 754.395L131.041 754.181L139.893 753.911L148.788 753.582L157.72 753.199L166.691 752.763L175.697 752.277L184.736 751.747L193.806 751.181L202.901 750.588L212.026 749.977L221.176 749.361L230.346 748.749L239.534 748.155L248.742 747.589L257.966 747.067L267.202 746.598L276.448 746.194L285.704 745.868L294.966 745.625L304.231 745.475L313.5 745.421L322.769 745.464L332.034 745.603L341.296 745.835L350.552 746.152L359.798 746.546L369.034 747.009L378.258 747.525L387.466 748.086L396.654 748.677L405.824 749.289L414.974 749.903L424.099 750.515L433.194 751.11L442.264 751.68L451.303 752.216L460.309 752.707L469.28 753.149L478.212 753.539L487.107 753.873L495.959 754.152L504.77 754.372L513.53 754.539L522.245 754.653L530.909 754.722L539.522 754.754L548.08 754.763L556.577 754.764H882V772.983ZM487.107 804.339H882V786.122H522.245L513.53 786.12L504.77 786.117L495.959 786.105L487.107 786.08L478.212 786.034L469.28 785.966L460.309 785.876L451.303 785.767L442.264 785.636L433.194 785.487L424.099 785.323L414.974 785.148L405.824 784.966L396.654 784.782L387.466 784.601L378.258 784.427L369.034 784.264L359.798 784.119L350.552 783.994L341.296 783.892L332.034 783.819L322.769 783.775L313.5 783.761L304.231 783.778L294.966 783.827L285.704 783.903L276.448 784.006L267.202 784.135L257.966 784.283L248.742 784.447L239.534 784.622L230.346 784.804L221.176 784.988L212.026 785.17L202.901 785.343L193.806 785.506L184.736 785.653L175.697 785.781L166.691 785.889L157.72 785.975L148.788 786.041L139.893 786.084L131.041 786.108L122.23 786.117L113.47 786.12L104.755 786.122H-255V804.339H139.893H148.788L157.72 804.338L166.691 804.331L175.697 804.32L184.736 804.302L193.806 804.273L202.901 804.236L212.026 804.189L221.176 804.137L230.346 804.081L239.534 804.022L248.742 803.962L257.966 803.906L267.199 803.853L276.448 803.808L285.704 803.768L294.966 803.74L304.231 803.722L313.5 803.715L322.769 803.72L332.034 803.737L341.296 803.765L350.552 803.801L359.798 803.848L369.034 803.9L378.258 803.956L387.466 804.014L396.654 804.073L405.824 804.13L414.974 804.184L424.099 804.231L433.194 804.27L442.264 804.299L451.303 804.319L460.309 804.331L469.28 804.338L478.212 804.339H487.107ZM-255 835.697V817.478H175.697H184.736L193.806 817.477L202.901 817.475L212.026 817.47L221.176 817.464L230.346 817.455L239.534 817.442L248.742 817.43L257.966 817.416L267.202 817.401L276.448 817.387L285.704 817.376L294.966 817.367L304.231 817.362L313.5 817.359L322.769 817.361L332.034 817.367L341.296 817.375L350.552 817.386L359.798 817.4L369.034 817.414L378.258 817.428L387.466 817.44L396.654 817.453L405.824 817.462L414.974 817.47L424.099 817.475L433.194 817.477L442.264 817.478H451.303H882V835.697H-255ZM-255 848.835V867.054H882V848.835H-255Z" fill="white"/>
<g style="mix-blend-mode:multiply" opacity="0.8">
<path d="M443.716 342.969C443.035 342.035 442.114 341.421 441.033 341.061L424.039 331.182L435.012 322.238C435.947 321.478 436.494 320.383 436.401 319.248C436.014 314.803 429.379 308.969 425.681 311.853C420.969 315.524 415.99 319.395 410.784 323.48L298.144 258.016L303.658 253.517C304.592 252.757 305.139 251.662 305.046 250.527C305.019 250.167 304.926 249.793 304.819 249.406C304.819 249.393 304.819 249.393 304.806 249.379C303.551 245.161 297.717 240.502 294.34 243.132C291.336 245.468 288.226 247.884 285.022 250.394L250.675 230.437C243.907 227.287 235.497 232.933 231.159 239.875C231.146 239.901 231.132 239.928 231.106 239.955C230.625 240.729 230.198 241.517 229.824 242.318C229.784 242.398 229.757 242.464 229.717 242.545C229.624 242.758 229.53 242.972 229.437 243.185C229.383 243.305 229.33 243.439 229.29 243.559C229.21 243.746 229.143 243.946 229.076 244.133C229.01 244.307 228.956 244.48 228.903 244.667C228.863 244.814 228.809 244.961 228.769 245.108C228.676 245.428 228.596 245.748 228.529 246.082C228.516 246.162 228.502 246.242 228.489 246.322C228.436 246.589 228.396 246.856 228.356 247.123C228.342 247.203 228.342 247.27 228.329 247.35C228.302 247.644 228.276 247.938 228.262 248.218C228.262 248.258 228.262 248.285 228.262 248.325C228.209 250.073 228.583 251.702 229.477 253.09C230.051 253.985 230.879 254.692 231.8 255.226L258.845 270.938C257.243 272.206 255.641 273.474 254.012 274.769C245.296 269.843 237.58 265.532 231.359 262.074C225.285 258.71 216.462 264.904 211.883 272.113C211.429 272.834 211.015 273.568 210.655 274.302C210.601 274.422 210.548 274.529 210.495 274.649C210.361 274.916 210.241 275.183 210.134 275.45C210.081 275.583 210.027 275.717 209.974 275.85C209.867 276.104 209.774 276.358 209.694 276.611C209.654 276.745 209.6 276.878 209.56 276.998C209.48 277.265 209.4 277.519 209.333 277.773C209.307 277.893 209.266 278 209.24 278.12C209.173 278.413 209.12 278.694 209.066 278.987C209.053 279.068 209.04 279.148 209.026 279.214C208.853 280.336 208.853 281.417 209.053 282.418C209.053 282.445 209.066 282.485 209.08 282.512C209.146 282.805 209.226 283.099 209.32 283.366C209.333 283.419 209.36 283.473 209.373 283.513C209.467 283.766 209.587 284.02 209.72 284.26C209.747 284.314 209.774 284.367 209.8 284.407C209.947 284.647 210.107 284.888 210.281 285.115C210.308 285.155 210.334 285.195 210.374 285.235C210.588 285.488 210.815 285.729 211.069 285.956C211.082 285.956 211.082 285.969 211.095 285.969C211.362 286.209 211.656 286.436 211.99 286.636C216.382 289.386 221.601 292.563 227.435 296.061C225.779 297.409 224.111 298.757 222.429 300.119L190.511 282.205C188.949 281.324 187.134 280.95 185.372 281.217C179.017 282.205 172.169 288.679 169.379 295.167C169.353 295.22 169.326 295.287 169.299 295.34C169.179 295.62 169.072 295.914 168.966 296.194C168.939 296.288 168.899 296.381 168.872 296.475C168.792 296.728 168.712 296.982 168.632 297.236C168.605 297.342 168.565 297.449 168.538 297.556C168.472 297.796 168.418 298.037 168.365 298.277C168.338 298.384 168.312 298.49 168.298 298.597C168.231 298.918 168.191 299.238 168.151 299.558C168.138 299.692 168.138 299.825 168.125 299.945C168.111 300.146 168.098 300.346 168.085 300.533C168.085 300.693 168.085 300.84 168.098 301C168.098 301.16 168.111 301.32 168.111 301.481C168.111 301.641 168.138 301.788 168.165 301.948C168.191 302.095 168.205 302.255 168.231 302.402C168.258 302.549 168.285 302.709 168.325 302.856C168.365 303.002 168.405 303.163 168.458 303.309C168.498 303.443 168.538 303.59 168.592 303.723C168.659 303.883 168.725 304.044 168.805 304.217C168.859 304.324 168.899 304.444 168.966 304.551C169.112 304.818 169.259 305.072 169.446 305.325C169.873 305.926 170.461 306.406 171.115 306.78L196.879 321.211C194.916 322.852 192.941 324.494 190.965 326.163L169.593 314.443C168.458 313.815 167.204 313.401 165.922 313.348C160.022 313.108 153.467 318.247 149.676 324.174H149.663C149.182 324.935 148.742 325.709 148.355 326.483C148.341 326.497 148.341 326.51 148.328 326.523C148.168 326.844 148.021 327.164 147.874 327.485C147.861 327.511 147.847 327.538 147.834 327.565C147.701 327.885 147.567 328.205 147.447 328.526C147.447 328.539 147.434 328.552 147.434 328.579C147.06 329.58 146.78 330.568 146.619 331.543C146.606 331.636 146.593 331.716 146.579 331.81C146.553 332.023 146.513 332.25 146.499 332.464C146.486 332.584 146.486 332.691 146.472 332.811C146.459 332.958 146.446 333.145 146.446 333.331C146.446 333.452 146.446 333.585 146.446 333.705C146.446 333.879 146.459 334.039 146.472 334.213C146.486 334.333 146.499 334.466 146.513 334.586C146.526 334.746 146.553 334.907 146.593 335.053C146.619 335.174 146.633 335.294 146.659 335.414C146.699 335.574 146.739 335.721 146.793 335.881C146.82 335.988 146.86 336.108 146.9 336.215C146.953 336.375 147.033 336.535 147.1 336.695C147.14 336.789 147.18 336.882 147.22 336.962C147.34 337.203 147.474 337.443 147.634 337.67C147.781 337.883 147.941 338.084 148.114 338.271C148.635 338.831 149.262 339.285 149.943 339.659L165.281 347.989C161.437 351.313 157.579 354.65 153.734 358.027C153.708 358.041 153.708 358.081 153.681 358.094C153.641 358.134 153.588 358.147 153.547 358.187C151.959 359.749 152.867 363.26 155.577 366.023C158.286 368.787 161.784 369.748 163.372 368.186C163.586 367.972 163.746 367.732 163.866 367.465L178.751 355.331L294.74 418.338C291.51 421.128 288.293 423.931 285.076 426.761L285.062 426.775C285.009 426.815 284.929 426.842 284.889 426.895C283.3 428.457 284.208 431.968 286.918 434.731C289.628 437.494 293.125 438.455 294.714 436.893C294.914 436.693 295.074 436.466 295.208 436.199L308.183 425.627L364.636 456.29C367.8 459.787 374.635 457.491 380.602 451.657C386.796 445.61 389.692 438.095 386.702 434.01C386.088 433.169 385.22 432.542 384.193 432.128L333.987 404.602L338.792 400.691L376.997 422.089C380.161 425.707 387.316 424.052 393.323 418.178C399.517 412.131 402.107 403.935 399.13 399.85C398.489 398.969 397.635 398.381 396.647 398.008L364.329 379.853L368.387 376.556C392.736 390.145 410.837 400.157 414.535 402.199C417.952 404.936 424.573 403.134 430.193 397.661C436.387 391.613 438.977 383.417 436 379.332C435.239 378.291 434.225 377.61 433.023 377.21C428.284 374.473 413.921 366.21 394.671 355.13L398.463 352.033L422.197 365.81C425.601 368.613 432.262 366.824 437.909 361.311C441.006 358.294 442.755 354.103 443.809 350.779C444.864 347.455 445.198 345.012 443.716 342.969ZM324.762 392.801C323.147 394.15 321.532 395.498 319.917 396.86L205.062 333.879L210.948 329.073L324.762 392.801ZM236.659 308.128L241.344 304.311C273.863 323.413 318.315 348.509 354.157 368.573C352.822 369.654 351.474 370.749 350.126 371.857L236.659 308.128ZM267.936 282.632L272.541 278.881L384.7 344.024C383.405 345.052 382.097 346.093 380.788 347.134C346.441 327.404 302.163 302.028 267.936 282.632Z" fill="#0C6BEA"/>
</g>
<path d="M442.511 326.042L250.685 214.564C239.485 209.344 223.747 228.247 229.514 237.217C230.088 238.111 230.915 238.819 231.836 239.353L423.529 350.684C435.596 346.639 440.469 335.84 442.511 326.042Z" fill="white"/>
<path d="M436.124 334.477C410.093 331.139 356.746 298.636 356.746 298.636C356.746 298.636 283.397 261.858 263.254 248.375C253.616 241.914 243.399 231.797 231.171 224.001C228.328 228.553 227.22 233.666 229.503 237.217C230.077 238.111 230.904 238.819 231.825 239.353L423.518 350.684C429.618 348.642 433.134 338.975 436.124 334.477Z" fill="#031959"/>
<path d="M427.095 330.661C423.998 333.677 421.795 337.242 420.754 340.566C419.7 343.876 419.806 346.946 421.301 348.989C424.292 353.06 431.727 351.472 437.921 345.425C441.018 342.408 442.767 338.216 443.821 334.892C444.876 331.582 445.21 329.139 443.728 327.096C440.738 323.012 433.289 324.613 427.095 330.661Z" fill="#E8F2FF"/>
<path d="M435.943 323.905L435.196 330.139L431.284 325.027L435.943 323.905Z" fill="white"/>
<path d="M434.726 362.285C434.726 362.285 282.8 274.689 231.38 246.202C220.66 240.262 201.358 264.09 212.024 270.777C261.602 301.867 415.276 386.701 415.276 386.701C427.277 382.536 432.844 372.097 434.726 362.285Z" fill="white"/>
<path d="M353.357 340.485C328.661 327.389 268.163 296.019 245.897 281.749C232.989 273.459 219.199 263.06 211.905 256.24C208.408 261.767 207.393 267.881 212.012 270.777C261.591 301.867 415.265 386.701 415.265 386.701C419.056 385.379 427.511 374.872 430.114 372.522C412.093 372.522 372.42 350.59 353.357 340.485Z" fill="#031959"/>
<path d="M418.457 367.652C412.264 373.7 410.595 381.255 413.585 385.327C416.575 389.398 424.011 387.809 430.205 381.762C436.399 375.715 438.988 367.519 436.011 363.434C434.143 360.884 430.805 360.324 426.721 361.552C423.81 362.433 420.767 365.383 418.457 367.652Z" fill="#E8F2FF"/>
<path d="M398.004 382.868L190.52 266.331C188.958 265.45 187.143 265.076 185.381 265.343C175.369 266.891 164.156 282.069 169.455 289.438C169.882 290.039 170.47 290.519 171.124 290.893L378.715 407.137C390.702 402.972 396.136 392.68 398.004 382.868Z" fill="white"/>
<path d="M392.907 396.004C391.465 394.722 389.302 393.588 386.272 392.733C362.711 386.072 318.811 363.364 299.495 352.217C277.416 339.456 236.661 318.578 216.531 305.109C205.798 297.927 180.488 283.083 173.461 272.912C168.869 278.265 166.373 285.167 169.457 289.438C169.897 290.039 170.471 290.52 171.125 290.894L378.716 407.137C385.217 404.881 389.783 400.81 392.907 396.004Z" fill="#031959"/>
<path d="M382.52 387.513C378.689 391.251 377.167 394.615 376.553 398.526C376.179 400.929 375.578 404.293 376.713 405.841C379.703 409.913 387.139 408.324 393.332 402.277C399.526 396.23 402.116 388.034 399.139 383.949C396.163 379.864 388.714 381.479 382.52 387.513Z" fill="#E8F2FF"/>
<path d="M385.391 384.831L388.007 387.661V382.655L385.391 384.831Z" fill="white"/>
<path d="M384.962 416.656L169.588 298.543C168.454 297.916 167.199 297.502 165.917 297.449C155.251 297.022 142.463 314.135 147.629 321.797C148.203 322.652 149.031 323.293 149.938 323.786L364.671 440.43C376.565 436.092 383.333 426.481 384.962 416.656Z" fill="white"/>
<path d="M376.752 432.714C375.951 431.926 374.937 431.219 373.682 430.672C373.682 430.672 315.178 401.169 292.618 390.543C269.844 379.81 212.203 349.708 191.833 337.147C180.419 330.112 162.526 315.229 149.658 308.274C146.601 313.053 145.32 318.366 147.629 321.797C148.203 322.651 149.031 323.292 149.938 323.786L364.671 440.43C369.57 438.628 373.602 435.945 376.752 432.714Z" fill="#031959"/>
<path d="M369.014 420.848C362.82 426.895 361.311 435.946 364.288 440.018C367.278 444.089 374.407 441.82 380.601 435.773C386.795 429.725 389.691 422.21 386.701 418.125C383.738 414.067 375.208 414.815 369.014 420.848Z" fill="#E8F2FF"/>
<path d="M298.125 222.442C261.589 250.849 209.207 292.044 157.52 337.338C155.024 339.527 161.244 348.444 167.078 347.243L307.443 232.828C308.377 232.067 308.925 230.972 308.831 229.838C308.458 225.392 301.823 219.572 298.125 222.442Z" fill="white"/>
<path d="M308.813 229.826C308.693 228.371 307.879 226.755 306.731 225.354C295.157 234.257 265.656 257.004 254.669 266.188C240.8 277.775 200.859 314.138 200.859 314.138L160.545 343.786C161.012 344.174 161.6 345.068 162.267 346.203C163.762 347.084 165.431 347.564 167.06 347.23L307.425 232.816C308.359 232.068 308.907 230.96 308.813 229.826Z" fill="#E8F2FF"/>
<path d="M167.163 347.491C168.757 345.925 167.849 342.417 165.135 339.657C162.422 336.896 158.931 335.928 157.338 337.494C155.745 339.06 156.653 342.567 159.366 345.328C162.079 348.088 165.57 349.056 167.163 347.491Z" fill="#031959"/>
<path d="M425.671 295.979C389.148 324.386 336.753 365.568 285.079 410.875C282.583 413.064 288.803 421.981 294.637 420.78L435.002 306.365C435.937 305.604 436.484 304.509 436.391 303.375C436.003 298.929 429.369 293.096 425.671 295.979Z" fill="white"/>
<path d="M436.368 303.361C436.248 301.906 435.434 300.29 434.285 298.889C422.712 307.792 393.21 330.539 382.224 339.723C368.354 351.31 328.414 387.673 328.414 387.673L288.1 417.321C288.567 417.709 289.155 418.603 289.822 419.738C291.317 420.619 292.986 421.099 294.614 420.766L434.98 306.351C435.914 305.59 436.461 304.495 436.368 303.361Z" fill="#E8F2FF"/>
<path d="M294.714 421.011C296.307 419.445 295.399 415.938 292.686 413.178C289.973 410.417 286.482 409.449 284.888 411.015C283.295 412.581 284.203 416.088 286.916 418.848C289.63 421.609 293.121 422.577 294.714 421.011Z" fill="#031959"/>
<path d="M314.365 141.647C313.124 179.898 313.738 227.939 316.272 288.463C316.192 291.144 306.269 291.917 303.668 287.676L301.548 141.247C301.534 140.274 301.974 139.367 302.828 138.847C306.189 136.766 314.218 137.86 314.365 141.647Z" fill="white"/>
<path d="M306.947 191.783C306.961 206.401 307.361 233.862 307.734 248.439C308.081 262.057 306.267 275.074 315.777 276.007C315.937 280.102 316.097 284.25 316.283 288.464C316.203 291.158 306.281 291.919 303.68 287.677L301.546 141.248C301.533 140.275 301.973 139.368 302.826 138.848C303.933 138.168 305.534 137.834 307.201 137.821C307.227 137.821 307.254 137.834 307.254 137.834C307.788 149.611 306.934 180.206 306.947 191.783Z" fill="#E8F2FF"/>
<path d="M353.085 129.306L257.093 176.176C230.535 207.743 226.29 252.453 246.432 288.455L272.558 335.152L362.361 270.986L352.403 248.399C341.853 224.468 339.012 197.848 344.272 172.229L353.085 129.306Z" fill="#FFF85A"/>
<path d="M314.362 205.664C313.121 243.915 313.735 291.955 316.269 352.479C316.189 355.16 306.266 355.934 303.665 351.692L301.545 205.264C301.531 204.29 301.972 203.383 302.825 202.863C306.186 200.782 314.215 201.876 314.362 205.664Z" fill="white"/>
<path d="M306.945 255.799C306.958 270.417 307.358 297.878 307.732 312.456C308.078 326.073 306.264 339.09 315.774 340.023C315.934 344.118 316.094 348.266 316.281 352.48C316.201 355.175 306.278 355.935 303.677 351.694L301.543 205.265C301.53 204.291 301.97 203.384 302.823 202.864C303.93 202.184 305.531 201.85 307.198 201.837C307.225 201.837 307.251 201.85 307.251 201.85C307.785 213.627 306.931 244.223 306.945 255.799Z" fill="#E8F2FF"/>
</g>
<defs>
<clipPath id="clip0_15_6561">
<rect y="0.0117188" width="628" height="628" rx="18" fill="white"/>
</clipPath>
</defs>
</svg>
