<svg width="459" height="458" viewBox="0 0 459 458" fill="none" xmlns="http://www.w3.org/2000/svg">
<path d="M0.5 18C0.5 8.05889 8.55888 0 18.5 0H440.5C450.441 0 458.5 8.05888 458.5 18V440C458.5 449.941 450.441 458 440.5 458H18.5C8.55889 458 0.5 449.941 0.5 440V18Z" fill="white"/>
<rect x="138.505" y="54.5" width="182.265" height="95.2699" rx="11.5" fill="white" stroke="#0C6BEA"/>
<path d="M173.562 114.84H172.329C172.256 114.485 172.128 114.174 171.946 113.905C171.767 113.637 171.548 113.411 171.29 113.229C171.035 113.043 170.751 112.904 170.44 112.811C170.128 112.719 169.803 112.672 169.465 112.672C168.849 112.672 168.29 112.828 167.79 113.14C167.293 113.451 166.897 113.91 166.602 114.517C166.31 115.123 166.164 115.867 166.164 116.749C166.164 117.631 166.31 118.375 166.602 118.981C166.897 119.588 167.293 120.047 167.79 120.358C168.29 120.67 168.849 120.826 169.465 120.826C169.803 120.826 170.128 120.779 170.44 120.686C170.751 120.594 171.035 120.456 171.29 120.274C171.548 120.088 171.767 119.861 171.946 119.593C172.128 119.321 172.256 119.009 172.329 118.658H173.562C173.469 119.178 173.3 119.644 173.055 120.055C172.81 120.466 172.505 120.816 172.14 121.104C171.775 121.389 171.366 121.606 170.912 121.755C170.461 121.904 169.979 121.979 169.465 121.979C168.597 121.979 167.825 121.767 167.149 121.343C166.472 120.918 165.94 120.315 165.553 119.533C165.165 118.751 164.971 117.823 164.971 116.749C164.971 115.675 165.165 114.747 165.553 113.965C165.94 113.183 166.472 112.579 167.149 112.155C167.825 111.731 168.597 111.519 169.465 111.519C169.979 111.519 170.461 111.593 170.912 111.743C171.366 111.892 171.775 112.11 172.14 112.399C172.505 112.684 172.81 113.032 173.055 113.443C173.3 113.85 173.469 114.316 173.562 114.84ZM178.497 121.999C177.808 121.999 177.203 121.835 176.683 121.507C176.166 121.179 175.761 120.72 175.47 120.13C175.181 119.54 175.037 118.85 175.037 118.061C175.037 117.266 175.181 116.572 175.47 115.978C175.761 115.385 176.166 114.924 176.683 114.596C177.203 114.268 177.808 114.104 178.497 114.104C179.187 114.104 179.79 114.268 180.307 114.596C180.827 114.924 181.232 115.385 181.52 115.978C181.812 116.572 181.958 117.266 181.958 118.061C181.958 118.85 181.812 119.54 181.52 120.13C181.232 120.72 180.827 121.179 180.307 121.507C179.79 121.835 179.187 121.999 178.497 121.999ZM178.497 120.945C179.021 120.945 179.452 120.811 179.79 120.542C180.128 120.274 180.378 119.921 180.541 119.483C180.703 119.046 180.784 118.572 180.784 118.061C180.784 117.551 180.703 117.075 180.541 116.635C180.378 116.194 180.128 115.837 179.79 115.566C179.452 115.294 179.021 115.158 178.497 115.158C177.974 115.158 177.543 115.294 177.205 115.566C176.867 115.837 176.617 116.194 176.454 116.635C176.292 117.075 176.21 117.551 176.21 118.061C176.21 118.572 176.292 119.046 176.454 119.483C176.617 119.921 176.867 120.274 177.205 120.542C177.543 120.811 177.974 120.945 178.497 120.945ZM184.922 117.246V121.84H183.749V114.203H184.882V115.397H184.982C185.161 115.009 185.432 114.697 185.797 114.462C186.162 114.223 186.632 114.104 187.209 114.104C187.726 114.104 188.178 114.21 188.566 114.422C188.954 114.631 189.256 114.949 189.471 115.377C189.686 115.801 189.794 116.338 189.794 116.988V121.84H188.621V117.067C188.621 116.467 188.465 116 188.153 115.665C187.842 115.327 187.414 115.158 186.871 115.158C186.496 115.158 186.162 115.239 185.867 115.402C185.575 115.564 185.345 115.801 185.176 116.113C185.006 116.424 184.922 116.802 184.922 117.246ZM195.04 121.999C194.324 121.999 193.708 121.83 193.191 121.492C192.674 121.154 192.276 120.688 191.998 120.095C191.719 119.502 191.58 118.824 191.58 118.061C191.58 117.286 191.723 116.601 192.008 116.008C192.296 115.412 192.697 114.946 193.211 114.611C193.728 114.273 194.331 114.104 195.021 114.104C195.557 114.104 196.041 114.203 196.472 114.402C196.903 114.601 197.256 114.88 197.531 115.238C197.806 115.596 197.977 116.013 198.043 116.49H196.87C196.78 116.142 196.582 115.834 196.273 115.566C195.968 115.294 195.557 115.158 195.04 115.158C194.583 115.158 194.182 115.277 193.837 115.516C193.496 115.751 193.229 116.084 193.037 116.515C192.848 116.943 192.753 117.445 192.753 118.022C192.753 118.612 192.846 119.125 193.032 119.563C193.221 120 193.486 120.34 193.827 120.582C194.172 120.824 194.576 120.945 195.04 120.945C195.345 120.945 195.622 120.892 195.871 120.786C196.119 120.68 196.33 120.527 196.502 120.328C196.674 120.13 196.797 119.891 196.87 119.613H198.043C197.977 120.063 197.813 120.469 197.551 120.831C197.293 121.189 196.949 121.474 196.522 121.686C196.098 121.895 195.604 121.999 195.04 121.999ZM204.571 118.718V114.203H205.744V121.84H204.571V120.547H204.491C204.312 120.935 204.034 121.265 203.656 121.537C203.278 121.805 202.801 121.939 202.224 121.939C201.747 121.939 201.323 121.835 200.952 121.626C200.58 121.414 200.289 121.096 200.077 120.672C199.864 120.244 199.758 119.705 199.758 119.056V114.203H200.932V118.976C200.932 119.533 201.088 119.977 201.399 120.309C201.714 120.64 202.115 120.806 202.602 120.806C202.894 120.806 203.19 120.731 203.492 120.582C203.797 120.433 204.052 120.204 204.258 119.896C204.467 119.588 204.571 119.195 204.571 118.718ZM207.893 121.84V114.203H209.027V115.357H209.106C209.245 114.979 209.497 114.672 209.862 114.437C210.227 114.202 210.638 114.084 211.095 114.084C211.181 114.084 211.289 114.086 211.418 114.089C211.547 114.092 211.645 114.097 211.711 114.104V115.297C211.672 115.287 211.58 115.272 211.438 115.252C211.299 115.229 211.151 115.218 210.995 115.218C210.624 115.218 210.293 115.296 210.001 115.451C209.713 115.604 209.484 115.816 209.315 116.088C209.149 116.356 209.066 116.663 209.066 117.007V121.84H207.893ZM213.102 121.84V114.203H214.236V115.357H214.315C214.454 114.979 214.706 114.672 215.071 114.437C215.436 114.202 215.847 114.084 216.304 114.084C216.39 114.084 216.498 114.086 216.627 114.089C216.756 114.092 216.854 114.097 216.92 114.104V115.297C216.881 115.287 216.789 115.272 216.647 115.252C216.508 115.229 216.36 115.218 216.204 115.218C215.833 115.218 215.502 115.296 215.21 115.451C214.922 115.604 214.693 115.816 214.524 116.088C214.358 116.356 214.275 116.663 214.275 117.007V121.84H213.102ZM221.28 121.999C220.545 121.999 219.91 121.837 219.376 121.512C218.846 121.184 218.437 120.726 218.148 120.14C217.863 119.55 217.721 118.864 217.721 118.081C217.721 117.299 217.863 116.61 218.148 116.013C218.437 115.413 218.838 114.946 219.351 114.611C219.869 114.273 220.472 114.104 221.161 114.104C221.559 114.104 221.952 114.17 222.339 114.303C222.727 114.435 223.08 114.651 223.398 114.949C223.717 115.244 223.97 115.635 224.159 116.123C224.348 116.61 224.442 117.21 224.442 117.922V118.419H218.556V117.405H223.249C223.249 116.974 223.163 116.59 222.991 116.252C222.822 115.914 222.58 115.647 222.265 115.451C221.953 115.256 221.585 115.158 221.161 115.158C220.694 115.158 220.289 115.274 219.948 115.506C219.61 115.735 219.35 116.033 219.168 116.401C218.985 116.769 218.894 117.163 218.894 117.584V118.26C218.894 118.837 218.994 119.326 219.192 119.727C219.395 120.125 219.675 120.428 220.033 120.637C220.391 120.842 220.806 120.945 221.28 120.945C221.589 120.945 221.867 120.902 222.116 120.816C222.368 120.726 222.585 120.594 222.767 120.418C222.949 120.239 223.09 120.017 223.19 119.752L224.323 120.07C224.204 120.454 224.003 120.792 223.722 121.084C223.44 121.373 223.092 121.598 222.677 121.76C222.263 121.919 221.797 121.999 221.28 121.999ZM227.4 117.246V121.84H226.227V114.203H227.361V115.397H227.46C227.639 115.009 227.911 114.697 228.275 114.462C228.64 114.223 229.111 114.104 229.687 114.104C230.204 114.104 230.657 114.21 231.045 114.422C231.432 114.631 231.734 114.949 231.949 115.377C232.165 115.801 232.273 116.338 232.273 116.988V121.84H231.099V117.067C231.099 116.467 230.944 116 230.632 115.665C230.32 115.327 229.893 115.158 229.349 115.158C228.975 115.158 228.64 115.239 228.345 115.402C228.053 115.564 227.823 115.801 227.654 116.113C227.485 116.424 227.4 116.802 227.4 117.246ZM237.738 114.203V115.198H233.78V114.203H237.738ZM234.934 112.374H236.107V119.652C236.107 119.984 236.155 120.232 236.251 120.398C236.351 120.56 236.477 120.67 236.629 120.726C236.785 120.779 236.949 120.806 237.121 120.806C237.25 120.806 237.357 120.799 237.439 120.786C237.522 120.769 237.589 120.756 237.638 120.746L237.877 121.8C237.797 121.83 237.686 121.86 237.544 121.89C237.401 121.923 237.221 121.939 237.002 121.939C236.67 121.939 236.346 121.868 236.027 121.725C235.713 121.583 235.451 121.366 235.242 121.074C235.036 120.783 234.934 120.415 234.934 119.971V112.374ZM245.17 121.84L242.843 114.203H244.076L245.727 120.05H245.807L247.437 114.203H248.69L250.301 120.03H250.38L252.031 114.203H253.264L250.937 121.84H249.784L248.113 115.973H247.994L246.324 121.84H245.17ZM257.658 121.999C256.968 121.999 256.363 121.835 255.843 121.507C255.326 121.179 254.922 120.72 254.63 120.13C254.342 119.54 254.197 118.85 254.197 118.061C254.197 117.266 254.342 116.572 254.63 115.978C254.922 115.385 255.326 114.924 255.843 114.596C256.363 114.268 256.968 114.104 257.658 114.104C258.347 114.104 258.95 114.268 259.467 114.596C259.988 114.924 260.392 115.385 260.68 115.978C260.972 116.572 261.118 117.266 261.118 118.061C261.118 118.85 260.972 119.54 260.68 120.13C260.392 120.72 259.988 121.179 259.467 121.507C258.95 121.835 258.347 121.999 257.658 121.999ZM257.658 120.945C258.181 120.945 258.612 120.811 258.95 120.542C259.288 120.274 259.539 119.921 259.701 119.483C259.863 119.046 259.945 118.572 259.945 118.061C259.945 117.551 259.863 117.075 259.701 116.635C259.539 116.194 259.288 115.837 258.95 115.566C258.612 115.294 258.181 115.158 257.658 115.158C257.134 115.158 256.703 115.294 256.365 115.566C256.027 115.837 255.777 116.194 255.614 116.635C255.452 117.075 255.371 117.551 255.371 118.061C255.371 118.572 255.452 119.046 255.614 119.483C255.777 119.921 256.027 120.274 256.365 120.542C256.703 120.811 257.134 120.945 257.658 120.945ZM262.909 121.84V114.203H264.042V115.357H264.122C264.261 114.979 264.513 114.672 264.878 114.437C265.242 114.202 265.653 114.084 266.111 114.084C266.197 114.084 266.304 114.086 266.434 114.089C266.563 114.092 266.661 114.097 266.727 114.104V115.297C266.687 115.287 266.596 115.272 266.454 115.252C266.314 115.229 266.167 115.218 266.011 115.218C265.64 115.218 265.308 115.296 265.017 115.451C264.728 115.604 264.5 115.816 264.331 116.088C264.165 116.356 264.082 116.663 264.082 117.007V121.84H262.909ZM269.212 119.056L269.192 117.604H269.43L272.771 114.203H274.223L270.663 117.803H270.564L269.212 119.056ZM268.118 121.84V111.658H269.291V121.84H268.118ZM272.97 121.84L269.987 118.061L270.822 117.246L274.462 121.84H272.97ZM282.773 121.999C282.083 121.999 281.479 121.835 280.958 121.507C280.441 121.179 280.037 120.72 279.745 120.13C279.457 119.54 279.313 118.85 279.313 118.061C279.313 117.266 279.457 116.572 279.745 115.978C280.037 115.385 280.441 114.924 280.958 114.596C281.479 114.268 282.083 114.104 282.773 114.104C283.462 114.104 284.065 114.268 284.582 114.596C285.103 114.924 285.507 115.385 285.796 115.978C286.087 116.572 286.233 117.266 286.233 118.061C286.233 118.85 286.087 119.54 285.796 120.13C285.507 120.72 285.103 121.179 284.582 121.507C284.065 121.835 283.462 121.999 282.773 121.999ZM282.773 120.945C283.296 120.945 283.727 120.811 284.065 120.542C284.403 120.274 284.654 119.921 284.816 119.483C284.979 119.046 285.06 118.572 285.06 118.061C285.06 117.551 284.979 117.075 284.816 116.635C284.654 116.194 284.403 115.837 284.065 115.566C283.727 115.294 283.296 115.158 282.773 115.158C282.249 115.158 281.818 115.294 281.48 115.566C281.142 115.837 280.892 116.194 280.729 116.635C280.567 117.075 280.486 117.551 280.486 118.061C280.486 118.572 280.567 119.046 280.729 119.483C280.892 119.921 281.142 120.274 281.48 120.542C281.818 120.811 282.249 120.945 282.773 120.945ZM289.197 117.246V121.84H288.024V114.203H289.158V115.397H289.257C289.436 115.009 289.708 114.697 290.072 114.462C290.437 114.223 290.908 114.104 291.484 114.104C292.001 114.104 292.454 114.21 292.842 114.422C293.229 114.631 293.531 114.949 293.746 115.377C293.962 115.801 294.07 116.338 294.07 116.988V121.84H292.896V117.067C292.896 116.467 292.74 116 292.429 115.665C292.117 115.327 291.69 115.158 291.146 115.158C290.772 115.158 290.437 115.239 290.142 115.402C289.85 115.564 289.62 115.801 289.451 116.113C289.282 116.424 289.197 116.802 289.197 117.246ZM175.511 137.84V130.203H176.645V131.397H176.744C176.903 130.989 177.16 130.672 177.515 130.447C177.87 130.218 178.295 130.104 178.793 130.104C179.296 130.104 179.716 130.218 180.05 130.447C180.388 130.672 180.652 130.989 180.841 131.397H180.92C181.116 131.002 181.409 130.689 181.8 130.457C182.192 130.222 182.661 130.104 183.207 130.104C183.89 130.104 184.449 130.318 184.883 130.745C185.317 131.17 185.534 131.831 185.534 132.729V137.84H184.361V132.729C184.361 132.166 184.207 131.763 183.898 131.521C183.59 131.279 183.227 131.158 182.81 131.158C182.273 131.158 181.857 131.32 181.562 131.645C181.267 131.967 181.119 132.374 181.119 132.868V137.84H179.926V132.61C179.926 132.176 179.785 131.826 179.504 131.561C179.222 131.292 178.859 131.158 178.415 131.158C178.11 131.158 177.825 131.239 177.56 131.402C177.298 131.564 177.086 131.789 176.923 132.078C176.764 132.363 176.685 132.693 176.685 133.067V137.84H175.511ZM192.492 134.718V130.203H193.665V137.84H192.492V136.547H192.412C192.233 136.935 191.955 137.265 191.577 137.537C191.199 137.805 190.722 137.939 190.145 137.939C189.668 137.939 189.244 137.835 188.873 137.626C188.501 137.414 188.21 137.096 187.998 136.672C187.785 136.244 187.679 135.705 187.679 135.056V130.203H188.853V134.976C188.853 135.533 189.008 135.977 189.32 136.309C189.635 136.64 190.036 136.806 190.523 136.806C190.815 136.806 191.111 136.731 191.413 136.582C191.718 136.433 191.973 136.204 192.179 135.896C192.387 135.588 192.492 135.195 192.492 134.718ZM196.987 127.658V137.84H195.814V127.658H196.987ZM202.457 130.203V131.198H198.5V130.203H202.457ZM199.653 128.374H200.827V135.652C200.827 135.984 200.875 136.232 200.971 136.398C201.07 136.56 201.196 136.67 201.349 136.726C201.504 136.779 201.669 136.806 201.841 136.806C201.97 136.806 202.076 136.799 202.159 136.786C202.242 136.769 202.308 136.756 202.358 136.746L202.597 137.8C202.517 137.83 202.406 137.86 202.263 137.89C202.121 137.923 201.94 137.939 201.722 137.939C201.39 137.939 201.065 137.868 200.747 137.725C200.432 137.583 200.17 137.366 199.962 137.074C199.756 136.783 199.653 136.415 199.653 135.971V128.374ZM204.222 137.84V130.203H205.396V137.84H204.222ZM204.819 128.931C204.59 128.931 204.393 128.853 204.227 128.697C204.065 128.541 203.984 128.354 203.984 128.135C203.984 127.917 204.065 127.729 204.227 127.574C204.393 127.418 204.59 127.34 204.819 127.34C205.048 127.34 205.243 127.418 205.406 127.574C205.571 127.729 205.654 127.917 205.654 128.135C205.654 128.354 205.571 128.541 205.406 128.697C205.243 128.853 205.048 128.931 204.819 128.931ZM207.545 140.703V130.203H208.678V131.417H208.817C208.903 131.284 209.023 131.115 209.175 130.909C209.331 130.701 209.553 130.515 209.841 130.353C210.133 130.187 210.528 130.104 211.025 130.104C211.668 130.104 212.234 130.265 212.725 130.586C213.215 130.908 213.598 131.364 213.873 131.953C214.148 132.543 214.286 133.239 214.286 134.042C214.286 134.85 214.148 135.551 213.873 136.145C213.598 136.734 213.217 137.192 212.73 137.517C212.243 137.838 211.681 137.999 211.045 137.999C210.554 137.999 210.161 137.918 209.866 137.755C209.571 137.59 209.344 137.402 209.185 137.194C209.026 136.981 208.903 136.806 208.817 136.667H208.718V140.703H207.545ZM208.698 134.022C208.698 134.598 208.782 135.107 208.952 135.548C209.121 135.985 209.367 136.328 209.692 136.577C210.017 136.822 210.415 136.945 210.885 136.945C211.376 136.945 211.785 136.816 212.113 136.557C212.445 136.295 212.693 135.944 212.859 135.503C213.028 135.059 213.113 134.565 213.113 134.022C213.113 133.485 213.03 133.001 212.864 132.57C212.702 132.136 212.455 131.793 212.123 131.541C211.795 131.286 211.383 131.158 210.885 131.158C210.408 131.158 210.007 131.279 209.682 131.521C209.358 131.76 209.112 132.094 208.947 132.525C208.781 132.953 208.698 133.452 208.698 134.022ZM217.249 127.658V137.84H216.076V127.658H217.249ZM222.6 137.999C221.864 137.999 221.229 137.837 220.696 137.512C220.165 137.184 219.756 136.726 219.468 136.14C219.183 135.55 219.04 134.864 219.04 134.081C219.04 133.299 219.183 132.61 219.468 132.013C219.756 131.413 220.157 130.946 220.671 130.611C221.188 130.273 221.791 130.104 222.48 130.104C222.878 130.104 223.271 130.17 223.659 130.303C224.047 130.435 224.4 130.651 224.718 130.949C225.036 131.244 225.289 131.635 225.478 132.123C225.667 132.61 225.762 133.21 225.762 133.922V134.419H219.875V133.405H224.569C224.569 132.974 224.482 132.59 224.31 132.252C224.141 131.914 223.899 131.647 223.584 131.451C223.273 131.256 222.905 131.158 222.48 131.158C222.013 131.158 221.609 131.274 221.267 131.506C220.929 131.735 220.669 132.033 220.487 132.401C220.305 132.769 220.213 133.163 220.213 133.584V134.26C220.213 134.837 220.313 135.326 220.512 135.727C220.714 136.125 220.994 136.428 221.352 136.637C221.71 136.842 222.126 136.945 222.6 136.945C222.908 136.945 223.186 136.902 223.435 136.816C223.687 136.726 223.904 136.594 224.086 136.418C224.269 136.239 224.409 136.017 224.509 135.752L225.642 136.07C225.523 136.454 225.323 136.792 225.041 137.084C224.759 137.373 224.411 137.598 223.997 137.76C223.583 137.919 223.117 137.999 222.6 137.999ZM234.885 130.203V131.198H230.768V130.203H234.885ZM232.001 137.84V129.15C232.001 128.712 232.104 128.347 232.309 128.056C232.515 127.764 232.782 127.545 233.11 127.4C233.438 127.254 233.784 127.181 234.149 127.181C234.437 127.181 234.672 127.204 234.855 127.25C235.037 127.297 235.173 127.34 235.262 127.38L234.924 128.394C234.865 128.374 234.782 128.349 234.676 128.319C234.573 128.289 234.437 128.275 234.268 128.275C233.88 128.275 233.6 128.372 233.428 128.568C233.259 128.763 233.174 129.05 233.174 129.428V137.84H232.001ZM239.416 137.999C238.68 137.999 238.046 137.837 237.512 137.512C236.982 137.184 236.572 136.726 236.284 136.14C235.999 135.55 235.857 134.864 235.857 134.081C235.857 133.299 235.999 132.61 236.284 132.013C236.572 131.413 236.973 130.946 237.487 130.611C238.004 130.273 238.607 130.104 239.297 130.104C239.695 130.104 240.087 130.17 240.475 130.303C240.863 130.435 241.216 130.651 241.534 130.949C241.852 131.244 242.106 131.635 242.295 132.123C242.484 132.61 242.578 133.21 242.578 133.922V134.419H236.692V133.405H241.385C241.385 132.974 241.299 132.59 241.126 132.252C240.957 131.914 240.715 131.647 240.401 131.451C240.089 131.256 239.721 131.158 239.297 131.158C238.83 131.158 238.425 131.274 238.084 131.506C237.746 131.735 237.486 132.033 237.303 132.401C237.121 132.769 237.03 133.163 237.03 133.584V134.26C237.03 134.837 237.129 135.326 237.328 135.727C237.53 136.125 237.81 136.428 238.168 136.637C238.526 136.842 238.942 136.945 239.416 136.945C239.724 136.945 240.003 136.902 240.251 136.816C240.503 136.726 240.72 136.594 240.903 136.418C241.085 136.239 241.226 136.017 241.325 135.752L242.459 136.07C242.339 136.454 242.139 136.792 241.857 137.084C241.576 137.373 241.228 137.598 240.813 137.76C240.399 137.919 239.933 137.999 239.416 137.999ZM246.61 138.019C246.126 138.019 245.687 137.928 245.293 137.745C244.898 137.56 244.585 137.293 244.353 136.945C244.121 136.594 244.005 136.169 244.005 135.672C244.005 135.235 244.091 134.88 244.263 134.608C244.436 134.333 244.666 134.118 244.955 133.962C245.243 133.806 245.561 133.69 245.909 133.614C246.26 133.534 246.613 133.471 246.968 133.425C247.432 133.365 247.808 133.321 248.097 133.291C248.388 133.258 248.6 133.203 248.733 133.127C248.869 133.051 248.937 132.918 248.937 132.729V132.689C248.937 132.199 248.803 131.818 248.534 131.546C248.269 131.274 247.866 131.138 247.326 131.138C246.766 131.138 246.327 131.261 246.009 131.506C245.69 131.751 245.467 132.013 245.337 132.292L244.224 131.894C244.423 131.43 244.688 131.069 245.019 130.81C245.354 130.548 245.719 130.366 246.113 130.263C246.511 130.157 246.902 130.104 247.286 130.104C247.531 130.104 247.813 130.134 248.131 130.194C248.453 130.25 248.763 130.368 249.061 130.547C249.363 130.725 249.613 130.996 249.812 131.357C250.011 131.718 250.11 132.202 250.11 132.809V137.84H248.937V136.806H248.877C248.798 136.971 248.665 137.149 248.479 137.338C248.294 137.527 248.047 137.687 247.739 137.82C247.43 137.953 247.054 138.019 246.61 138.019ZM246.789 136.965C247.253 136.965 247.644 136.874 247.962 136.691C248.284 136.509 248.526 136.274 248.688 135.985C248.854 135.697 248.937 135.394 248.937 135.076V134.002C248.887 134.061 248.778 134.116 248.609 134.166C248.443 134.212 248.251 134.254 248.032 134.29C247.817 134.323 247.606 134.353 247.401 134.38C247.198 134.403 247.034 134.423 246.908 134.439C246.603 134.479 246.318 134.544 246.053 134.633C245.791 134.719 245.579 134.85 245.417 135.026C245.258 135.198 245.178 135.434 245.178 135.732C245.178 136.14 245.329 136.448 245.631 136.657C245.936 136.862 246.322 136.965 246.789 136.965ZM255.573 130.203V131.198H251.615V130.203H255.573ZM252.769 128.374H253.942V135.652C253.942 135.984 253.99 136.232 254.086 136.398C254.186 136.56 254.311 136.67 254.464 136.726C254.62 136.779 254.784 136.806 254.956 136.806C255.085 136.806 255.191 136.799 255.274 136.786C255.357 136.769 255.423 136.756 255.473 136.746L255.712 137.8C255.632 137.83 255.521 137.86 255.379 137.89C255.236 137.923 255.056 137.939 254.837 137.939C254.505 137.939 254.181 137.868 253.862 137.725C253.548 137.583 253.286 137.366 253.077 137.074C252.871 136.783 252.769 136.415 252.769 135.971V128.374ZM262.15 134.718V130.203H263.323V137.84H262.15V136.547H262.07C261.892 136.935 261.613 137.265 261.235 137.537C260.857 137.805 260.38 137.939 259.803 137.939C259.326 137.939 258.902 137.835 258.531 137.626C258.16 137.414 257.868 137.096 257.656 136.672C257.444 136.244 257.338 135.705 257.338 135.056V130.203H258.511V134.976C258.511 135.533 258.667 135.977 258.978 136.309C259.293 136.64 259.694 136.806 260.181 136.806C260.473 136.806 260.77 136.731 261.071 136.582C261.376 136.433 261.631 136.204 261.837 135.896C262.046 135.588 262.15 135.195 262.15 134.718ZM265.472 137.84V130.203H266.606V131.357H266.685C266.825 130.979 267.076 130.672 267.441 130.437C267.806 130.202 268.217 130.084 268.674 130.084C268.76 130.084 268.868 130.086 268.997 130.089C269.126 130.092 269.224 130.097 269.29 130.104V131.297C269.251 131.287 269.16 131.272 269.017 131.252C268.878 131.229 268.73 131.218 268.575 131.218C268.203 131.218 267.872 131.296 267.58 131.451C267.292 131.604 267.063 131.816 266.894 132.088C266.728 132.356 266.646 132.663 266.646 133.007V137.84H265.472ZM273.651 137.999C272.915 137.999 272.28 137.837 271.746 137.512C271.216 137.184 270.807 136.726 270.518 136.14C270.233 135.55 270.091 134.864 270.091 134.081C270.091 133.299 270.233 132.61 270.518 132.013C270.807 131.413 271.208 130.946 271.722 130.611C272.239 130.273 272.842 130.104 273.531 130.104C273.929 130.104 274.322 130.17 274.71 130.303C275.097 130.435 275.45 130.651 275.768 130.949C276.087 131.244 276.34 131.635 276.529 132.123C276.718 132.61 276.812 133.21 276.812 133.922V134.419H270.926V133.405H275.619C275.619 132.974 275.533 132.59 275.361 132.252C275.192 131.914 274.95 131.647 274.635 131.451C274.323 131.256 273.955 131.158 273.531 131.158C273.064 131.158 272.66 131.274 272.318 131.506C271.98 131.735 271.72 132.033 271.538 132.401C271.355 132.769 271.264 133.163 271.264 133.584V134.26C271.264 134.837 271.364 135.326 271.562 135.727C271.765 136.125 272.045 136.428 272.403 136.637C272.761 136.842 273.177 136.945 273.651 136.945C273.959 136.945 274.237 136.902 274.486 136.816C274.738 136.726 274.955 136.594 275.137 136.418C275.319 136.239 275.46 136.017 275.56 135.752L276.693 136.07C276.574 136.454 276.373 136.792 276.092 137.084C275.81 137.373 275.462 137.598 275.048 137.76C274.633 137.919 274.168 137.999 273.651 137.999ZM284.006 131.914L282.952 132.212C282.886 132.036 282.788 131.866 282.659 131.7C282.533 131.531 282.361 131.392 282.142 131.282C281.923 131.173 281.643 131.118 281.302 131.118C280.835 131.118 280.445 131.226 280.134 131.441C279.825 131.654 279.671 131.924 279.671 132.252C279.671 132.543 279.777 132.774 279.989 132.943C280.201 133.112 280.533 133.253 280.984 133.365L282.117 133.644C282.8 133.81 283.309 134.063 283.643 134.404C283.978 134.743 284.146 135.178 284.146 135.712C284.146 136.15 284.02 136.541 283.768 136.885C283.519 137.23 283.171 137.502 282.724 137.701C282.276 137.9 281.756 137.999 281.163 137.999C280.384 137.999 279.739 137.83 279.229 137.492C278.718 137.154 278.395 136.66 278.259 136.01L279.373 135.732C279.479 136.143 279.679 136.451 279.974 136.657C280.273 136.862 280.662 136.965 281.143 136.965C281.69 136.965 282.124 136.849 282.445 136.617C282.77 136.382 282.933 136.1 282.933 135.772C282.933 135.507 282.84 135.284 282.654 135.105C282.469 134.923 282.183 134.787 281.799 134.698L280.526 134.4C279.827 134.234 279.313 133.977 278.985 133.629C278.66 133.278 278.498 132.838 278.498 132.311C278.498 131.881 278.619 131.499 278.861 131.168C279.106 130.837 279.439 130.576 279.86 130.387C280.284 130.199 280.765 130.104 281.302 130.104C282.058 130.104 282.651 130.27 283.082 130.601C283.516 130.933 283.824 131.37 284.006 131.914Z" fill="#0C6BEA"/>
<rect x="212.09" y="67.8857" width="35.0948" height="35.0948" rx="17.5474" fill="#0C6BEA" stroke="#0C6BEA"/>
<path d="M243.936 96.8615C240.636 92.5826 235.458 89.8262 229.636 89.8262C223.815 89.8262 218.637 92.5826 215.337 96.8615" stroke="white" stroke-width="1.5"/>
<rect x="222.647" y="72.1016" width="13.9792" height="13.9792" rx="6.98958" stroke="white" stroke-width="1.5"/>
<rect x="13" y="217.5" width="182.265" height="186.677" rx="11.5" fill="white" stroke="#0C6BEA"/>
<path d="M49.5759 357.459C49.5162 356.955 49.2743 356.564 48.85 356.286C48.4258 356.007 47.9054 355.868 47.289 355.868C46.8382 355.868 46.4438 355.941 46.1057 356.087C45.771 356.233 45.5091 356.433 45.3202 356.688C45.1346 356.943 45.0418 357.233 45.0418 357.558C45.0418 357.83 45.1064 358.064 45.2357 358.259C45.3683 358.452 45.5373 358.612 45.7428 358.742C45.9483 358.867 46.1637 358.972 46.3891 359.055C46.6145 359.134 46.8216 359.199 47.0106 359.249L48.0447 359.527C48.3098 359.597 48.6048 359.693 48.9296 359.815C49.2577 359.938 49.5709 360.105 49.8692 360.318C50.1708 360.526 50.4194 360.795 50.615 361.123C50.8105 361.451 50.9083 361.854 50.9083 362.331C50.9083 362.881 50.7641 363.378 50.4758 363.822C50.1907 364.267 49.7731 364.62 49.2229 364.881C48.676 365.143 48.0115 365.274 47.2293 365.274C46.5001 365.274 45.8688 365.157 45.3351 364.921C44.8048 364.686 44.3872 364.358 44.0823 363.937C43.7807 363.516 43.61 363.027 43.5702 362.47H44.8429C44.8761 362.855 45.0054 363.173 45.2307 363.425C45.4594 363.673 45.7478 363.859 46.0958 363.982C46.4471 364.101 46.825 364.161 47.2293 364.161C47.7 364.161 48.1225 364.084 48.4971 363.932C48.8716 363.776 49.1682 363.561 49.387 363.286C49.6057 363.007 49.7151 362.682 49.7151 362.311C49.7151 361.973 49.6206 361.698 49.4317 361.486C49.2428 361.274 48.9942 361.101 48.686 360.969C48.3777 360.836 48.0447 360.72 47.6867 360.621L46.4339 360.263C45.6384 360.034 45.0087 359.708 44.5447 359.283C44.0806 358.859 43.8486 358.304 43.8486 357.618C43.8486 357.048 44.0027 356.551 44.311 356.126C44.6225 355.699 45.0402 355.367 45.5638 355.132C46.0908 354.894 46.6791 354.774 47.3287 354.774C47.985 354.774 48.5683 354.892 49.0787 355.127C49.5892 355.359 49.9935 355.677 50.2918 356.082C50.5934 356.486 50.7525 356.945 50.7691 357.459H49.5759ZM55.8786 365.254C55.1892 365.254 54.5844 365.09 54.064 364.762C53.547 364.434 53.1426 363.975 52.8509 363.385C52.5626 362.795 52.4184 362.106 52.4184 361.317C52.4184 360.521 52.5626 359.827 52.8509 359.234C53.1426 358.64 53.547 358.18 54.064 357.852C54.5844 357.523 55.1892 357.359 55.8786 357.359C56.568 357.359 57.1712 357.523 57.6883 357.852C58.2087 358.18 58.613 358.64 58.9014 359.234C59.193 359.827 59.3389 360.521 59.3389 361.317C59.3389 362.106 59.193 362.795 58.9014 363.385C58.613 363.975 58.2087 364.434 57.6883 364.762C57.1712 365.09 56.568 365.254 55.8786 365.254ZM55.8786 364.2C56.4023 364.2 56.8332 364.066 57.1712 363.798C57.5093 363.529 57.7596 363.176 57.922 362.739C58.0844 362.301 58.1656 361.827 58.1656 361.317C58.1656 360.806 58.0844 360.331 57.922 359.89C57.7596 359.449 57.5093 359.093 57.1712 358.821C56.8332 358.549 56.4023 358.413 55.8786 358.413C55.355 358.413 54.9241 358.549 54.586 358.821C54.248 359.093 53.9977 359.449 53.8353 359.89C53.6729 360.331 53.5917 360.806 53.5917 361.317C53.5917 361.827 53.6729 362.301 53.8353 362.739C53.9977 363.176 54.248 363.529 54.586 363.798C54.9241 364.066 55.355 364.2 55.8786 364.2ZM65.9424 361.973V357.459H67.1157V365.095H65.9424V363.803H65.8628C65.6839 364.19 65.4054 364.52 65.0276 364.792C64.6498 365.06 64.1725 365.195 63.5958 365.195C63.1185 365.195 62.6943 365.09 62.3231 364.881C61.9518 364.669 61.6602 364.351 61.4481 363.927C61.2359 363.499 61.1299 362.961 61.1299 362.311V357.459H62.3032V362.232C62.3032 362.788 62.459 363.233 62.7705 363.564C63.0854 363.895 63.4864 364.061 63.9736 364.061C64.2653 364.061 64.5619 363.987 64.8635 363.837C65.1685 363.688 65.4237 363.46 65.6292 363.151C65.838 362.843 65.9424 362.45 65.9424 361.973ZM69.2646 365.095V357.459H70.3982V358.612H70.4777C70.6169 358.234 70.8688 357.928 71.2334 357.693C71.598 357.457 72.009 357.34 72.4663 357.34C72.5525 357.34 72.6602 357.341 72.7895 357.345C72.9188 357.348 73.0165 357.353 73.0828 357.359V358.553C73.0431 358.543 72.9519 358.528 72.8094 358.508C72.6702 358.485 72.5227 358.473 72.3669 358.473C71.9957 358.473 71.6643 358.551 71.3726 358.707C71.0842 358.859 70.8556 359.071 70.6865 359.343C70.5208 359.612 70.4379 359.918 70.4379 360.263V365.095H69.2646ZM77.3435 365.254C76.6276 365.254 76.0111 365.085 75.494 364.747C74.977 364.409 74.5793 363.943 74.3009 363.35C74.0225 362.757 73.8833 362.079 73.8833 361.317C73.8833 360.541 74.0258 359.857 74.3108 359.264C74.5992 358.667 75.0002 358.201 75.5139 357.867C76.031 357.528 76.6342 357.359 77.3236 357.359C77.8605 357.359 78.3444 357.459 78.7753 357.658C79.2062 357.857 79.5592 358.135 79.8342 358.493C80.1093 358.851 80.28 359.269 80.3463 359.746H79.173C79.0835 359.398 78.8847 359.09 78.5764 358.821C78.2715 358.549 77.8605 358.413 77.3435 358.413C76.8861 358.413 76.4851 358.533 76.1404 358.771C75.799 359.007 75.5322 359.34 75.3399 359.771C75.151 360.198 75.0565 360.7 75.0565 361.277C75.0565 361.867 75.1494 362.381 75.335 362.818C75.5239 363.256 75.789 363.595 76.1304 363.837C76.4751 364.079 76.8795 364.2 77.3435 364.2C77.6484 364.2 77.9252 364.147 78.1737 364.041C78.4223 363.935 78.6328 363.783 78.8051 363.584C78.9775 363.385 79.1001 363.146 79.173 362.868H80.3463C80.28 363.319 80.116 363.725 79.8541 364.086C79.5956 364.444 79.2526 364.729 78.825 364.941C78.4008 365.15 77.9069 365.254 77.3435 365.254ZM85.2632 365.254C84.5274 365.254 83.8927 365.092 83.3591 364.767C82.8288 364.439 82.4195 363.982 82.1311 363.395C81.8461 362.805 81.7036 362.119 81.7036 361.337C81.7036 360.554 81.8461 359.865 82.1311 359.269C82.4195 358.669 82.8205 358.201 83.3342 357.867C83.8513 357.528 84.4545 357.359 85.1439 357.359C85.5416 357.359 85.9344 357.426 86.3222 357.558C86.71 357.691 87.0629 357.906 87.3811 358.205C87.6993 358.5 87.9529 358.891 88.1418 359.378C88.3307 359.865 88.4252 360.465 88.4252 361.178V361.675H82.5388V360.661H87.232C87.232 360.23 87.1458 359.845 86.9735 359.507C86.8044 359.169 86.5625 358.902 86.2476 358.707C85.936 358.511 85.5681 358.413 85.1439 358.413C84.6766 358.413 84.2722 358.529 83.9308 358.761C83.5928 358.99 83.3326 359.288 83.1503 359.656C82.968 360.024 82.8769 360.419 82.8769 360.84V361.516C82.8769 362.092 82.9763 362.581 83.1752 362.982C83.3773 363.38 83.6574 363.683 84.0154 363.892C84.3733 364.098 84.7893 364.2 85.2632 364.2C85.5715 364.2 85.8499 364.157 86.0985 364.071C86.3503 363.982 86.5674 363.849 86.7497 363.673C86.932 363.494 87.0729 363.272 87.1723 363.007L88.3058 363.325C88.1865 363.71 87.986 364.048 87.7043 364.34C87.4226 364.628 87.0745 364.853 86.6602 365.016C86.2459 365.175 85.7803 365.254 85.2632 365.254ZM53.6228 381.254C52.9069 381.254 52.2904 381.085 51.7733 380.747C51.2563 380.409 50.8586 379.943 50.5802 379.35C50.3018 378.757 50.1625 378.079 50.1625 377.317C50.1625 376.541 50.3051 375.857 50.5901 375.264C50.8785 374.667 51.2795 374.201 51.7932 373.867C52.3103 373.528 52.9135 373.359 53.6029 373.359C54.1398 373.359 54.6237 373.459 55.0546 373.658C55.4855 373.857 55.8384 374.135 56.1135 374.493C56.3886 374.851 56.5593 375.269 56.6256 375.746H55.4523C55.3628 375.398 55.164 375.09 54.8557 374.821C54.5508 374.549 54.1398 374.413 53.6228 374.413C53.1654 374.413 52.7643 374.533 52.4197 374.771C52.0783 375.007 51.8115 375.34 51.6192 375.771C51.4303 376.198 51.3358 376.7 51.3358 377.277C51.3358 377.867 51.4286 378.381 51.6143 378.818C51.8032 379.256 52.0683 379.595 52.4097 379.837C52.7544 380.079 53.1588 380.2 53.6228 380.2C53.9277 380.2 54.2045 380.147 54.453 380.041C54.7016 379.935 54.9121 379.783 55.0844 379.584C55.2568 379.385 55.3794 379.146 55.4523 378.868H56.6256C56.5593 379.319 56.3953 379.725 56.1334 380.086C55.8749 380.444 55.5319 380.729 55.1043 380.941C54.6801 381.15 54.1862 381.254 53.6228 381.254ZM61.4431 381.254C60.7537 381.254 60.1488 381.09 59.6285 380.762C59.1114 380.434 58.7071 379.975 58.4154 379.385C58.127 378.795 57.9829 378.106 57.9829 377.317C57.9829 376.521 58.127 375.827 58.4154 375.234C58.7071 374.64 59.1114 374.18 59.6285 373.852C60.1488 373.523 60.7537 373.359 61.4431 373.359C62.1325 373.359 62.7357 373.523 63.2527 373.852C63.7731 374.18 64.1775 374.64 64.4658 375.234C64.7575 375.827 64.9033 376.521 64.9033 377.317C64.9033 378.106 64.7575 378.795 64.4658 379.385C64.1775 379.975 63.7731 380.434 63.2527 380.762C62.7357 381.09 62.1325 381.254 61.4431 381.254ZM61.4431 380.2C61.9668 380.2 62.3976 380.066 62.7357 379.798C63.0738 379.529 63.324 379.176 63.4864 378.739C63.6488 378.301 63.73 377.827 63.73 377.317C63.73 376.806 63.6488 376.331 63.4864 375.89C63.324 375.449 63.0738 375.093 62.7357 374.821C62.3976 374.549 61.9668 374.413 61.4431 374.413C60.9194 374.413 60.4885 374.549 60.1505 374.821C59.8124 375.093 59.5622 375.449 59.3998 375.89C59.2374 376.331 59.1562 376.806 59.1562 377.317C59.1562 377.827 59.2374 378.301 59.3998 378.739C59.5622 379.176 59.8124 379.529 60.1505 379.798C60.4885 380.066 60.9194 380.2 61.4431 380.2ZM69.5779 381.254C68.9415 381.254 68.3797 381.094 67.8925 380.772C67.4053 380.447 67.0241 379.99 66.749 379.4C66.4739 378.807 66.3364 378.106 66.3364 377.297C66.3364 376.495 66.4739 375.799 66.749 375.209C67.0241 374.619 67.4069 374.163 67.8975 373.842C68.388 373.52 68.9547 373.359 69.5977 373.359C70.0949 373.359 70.4877 373.442 70.776 373.608C71.0677 373.77 71.2897 373.956 71.4422 374.165C71.598 374.37 71.719 374.539 71.8051 374.672H71.9046V370.913H73.0779V381.095H71.9443V379.922H71.8051C71.719 380.061 71.5963 380.237 71.4372 380.449C71.2781 380.658 71.0511 380.845 70.7561 381.011C70.4611 381.173 70.0684 381.254 69.5779 381.254ZM69.7369 380.2C70.2076 380.2 70.6053 380.078 70.9301 379.832C71.2549 379.584 71.5019 379.241 71.6709 378.803C71.8399 378.362 71.9244 377.854 71.9244 377.277C71.9244 376.707 71.8416 376.208 71.6759 375.781C71.5101 375.35 71.2649 375.015 70.9401 374.776C70.6153 374.534 70.2142 374.413 69.7369 374.413C69.2398 374.413 68.8255 374.541 68.494 374.796C68.1659 375.048 67.919 375.391 67.7533 375.825C67.5909 376.256 67.5097 376.74 67.5097 377.277C67.5097 377.821 67.5925 378.314 67.7583 378.759C67.9273 379.199 68.1759 379.551 68.504 379.813C68.8354 380.071 69.2464 380.2 69.7369 380.2ZM78.5913 381.254C77.8556 381.254 77.2208 381.092 76.6872 380.767C76.1569 380.439 75.7476 379.982 75.4592 379.395C75.1742 378.805 75.0317 378.119 75.0317 377.337C75.0317 376.554 75.1742 375.865 75.4592 375.269C75.7476 374.669 76.1486 374.201 76.6624 373.867C77.1794 373.528 77.7826 373.359 78.472 373.359C78.8698 373.359 79.2625 373.426 79.6503 373.558C80.0381 373.691 80.3911 373.906 80.7092 374.205C81.0274 374.5 81.281 374.891 81.4699 375.378C81.6588 375.865 81.7533 376.465 81.7533 377.178V377.675H75.8669V376.661H80.5601C80.5601 376.23 80.4739 375.845 80.3016 375.507C80.1325 375.169 79.8906 374.902 79.5757 374.707C79.2642 374.511 78.8963 374.413 78.472 374.413C78.0047 374.413 77.6003 374.529 77.259 374.761C76.9209 374.99 76.6607 375.288 76.4784 375.656C76.2961 376.024 76.205 376.419 76.205 376.84V377.516C76.205 378.092 76.3044 378.581 76.5033 378.982C76.7055 379.38 76.9855 379.683 77.3435 379.892C77.7014 380.098 78.1174 380.2 78.5913 380.2C78.8996 380.2 79.178 380.157 79.4266 380.071C79.6785 379.982 79.8956 379.849 80.0779 379.673C80.2601 379.494 80.401 379.272 80.5004 379.007L81.634 379.325C81.5146 379.71 81.3141 380.048 81.0324 380.34C80.7507 380.628 80.4027 380.853 79.9884 381.016C79.5741 381.175 79.1084 381.254 78.5913 381.254Z" fill="#0C6BEA"/>
<path d="M65.9551 311.917L65.9551 339.377" stroke="#0C6BEA" stroke-dasharray="2 2"/>
<circle cx="65.9551" cy="342.383" r="3.00586" fill="#0C6BEA"/>
<path d="M131.099 365.095H127.957V354.913H131.238C132.226 354.913 133.071 355.117 133.774 355.525C134.476 355.929 135.015 356.511 135.389 357.27C135.764 358.026 135.951 358.93 135.951 359.984C135.951 361.045 135.762 361.958 135.385 362.724C135.007 363.486 134.456 364.073 133.734 364.484C133.011 364.891 132.133 365.095 131.099 365.095ZM129.19 364.001H131.019C131.861 364.001 132.559 363.839 133.112 363.514C133.666 363.189 134.079 362.727 134.35 362.127C134.622 361.527 134.758 360.813 134.758 359.984C134.758 359.162 134.624 358.455 134.355 357.862C134.087 357.265 133.686 356.808 133.152 356.489C132.619 356.168 131.954 356.007 131.159 356.007H129.19V364.001ZM140.108 365.274C139.624 365.274 139.184 365.183 138.79 365.001C138.396 364.815 138.082 364.548 137.85 364.2C137.618 363.849 137.502 363.425 137.502 362.928C137.502 362.49 137.589 362.135 137.761 361.864C137.933 361.589 138.164 361.373 138.452 361.217C138.74 361.062 139.059 360.946 139.407 360.869C139.758 360.79 140.111 360.727 140.465 360.68C140.929 360.621 141.306 360.576 141.594 360.546C141.886 360.513 142.098 360.458 142.23 360.382C142.366 360.306 142.434 360.173 142.434 359.984V359.945C142.434 359.454 142.3 359.073 142.032 358.801C141.766 358.529 141.364 358.394 140.823 358.394C140.263 358.394 139.824 358.516 139.506 358.761C139.188 359.007 138.964 359.269 138.835 359.547L137.721 359.149C137.92 358.685 138.185 358.324 138.517 358.065C138.851 357.804 139.216 357.621 139.61 357.519C140.008 357.412 140.399 357.359 140.784 357.359C141.029 357.359 141.311 357.389 141.629 357.449C141.95 357.505 142.26 357.623 142.559 357.802C142.86 357.981 143.11 358.251 143.309 358.612C143.508 358.974 143.608 359.457 143.608 360.064V365.095H142.434V364.061H142.375C142.295 364.227 142.162 364.404 141.977 364.593C141.791 364.782 141.544 364.943 141.236 365.075C140.928 365.208 140.552 365.274 140.108 365.274ZM140.286 364.22C140.751 364.22 141.142 364.129 141.46 363.947C141.781 363.764 142.023 363.529 142.186 363.241C142.351 362.952 142.434 362.649 142.434 362.331V361.257C142.385 361.317 142.275 361.371 142.106 361.421C141.94 361.468 141.748 361.509 141.529 361.545C141.314 361.579 141.103 361.608 140.898 361.635C140.696 361.658 140.532 361.678 140.406 361.695C140.101 361.734 139.816 361.799 139.551 361.889C139.289 361.975 139.077 362.106 138.914 362.281C138.755 362.454 138.676 362.689 138.676 362.987C138.676 363.395 138.827 363.703 139.128 363.912C139.433 364.117 139.819 364.22 140.286 364.22ZM149.07 357.459V358.453H145.113V357.459H149.07ZM146.266 355.629H147.439V362.908C147.439 363.239 147.487 363.488 147.584 363.653C147.683 363.816 147.809 363.925 147.961 363.982C148.117 364.035 148.281 364.061 148.454 364.061C148.583 364.061 148.689 364.054 148.772 364.041C148.855 364.025 148.921 364.011 148.971 364.001L149.209 365.055C149.13 365.085 149.019 365.115 148.876 365.145C148.734 365.178 148.553 365.195 148.334 365.195C148.003 365.195 147.678 365.123 147.36 364.981C147.045 364.838 146.783 364.621 146.574 364.33C146.369 364.038 146.266 363.67 146.266 363.226V355.629ZM153.082 365.274C152.598 365.274 152.159 365.183 151.765 365.001C151.37 364.815 151.057 364.548 150.825 364.2C150.593 363.849 150.477 363.425 150.477 362.928C150.477 362.49 150.563 362.135 150.736 361.864C150.908 361.589 151.138 361.373 151.427 361.217C151.715 361.062 152.033 360.946 152.381 360.869C152.732 360.79 153.085 360.727 153.44 360.68C153.904 360.621 154.28 360.576 154.569 360.546C154.86 360.513 155.072 360.458 155.205 360.382C155.341 360.306 155.409 360.173 155.409 359.984V359.945C155.409 359.454 155.275 359.073 155.006 358.801C154.741 358.529 154.338 358.394 153.798 358.394C153.238 358.394 152.799 358.516 152.481 358.761C152.162 359.007 151.939 359.269 151.809 359.547L150.696 359.149C150.895 358.685 151.16 358.324 151.491 358.065C151.826 357.804 152.191 357.621 152.585 357.519C152.983 357.412 153.374 357.359 153.758 357.359C154.004 357.359 154.285 357.389 154.603 357.449C154.925 357.505 155.235 357.623 155.533 357.802C155.835 357.981 156.085 358.251 156.284 358.612C156.483 358.974 156.582 359.457 156.582 360.064V365.095H155.409V364.061H155.349C155.27 364.227 155.137 364.404 154.951 364.593C154.766 364.782 154.519 364.943 154.211 365.075C153.902 365.208 153.526 365.274 153.082 365.274ZM153.261 364.22C153.725 364.22 154.116 364.129 154.434 363.947C154.756 363.764 154.998 363.529 155.16 363.241C155.326 362.952 155.409 362.649 155.409 362.331V361.257C155.359 361.317 155.25 361.371 155.081 361.421C154.915 361.468 154.723 361.509 154.504 361.545C154.289 361.579 154.078 361.608 153.873 361.635C153.67 361.658 153.506 361.678 153.38 361.695C153.076 361.734 152.79 361.799 152.525 361.889C152.263 361.975 152.051 362.106 151.889 362.281C151.73 362.454 151.65 362.689 151.65 362.987C151.65 363.395 151.801 363.703 152.103 363.912C152.408 364.117 152.794 364.22 153.261 364.22ZM123.445 375.169L122.391 375.467C122.325 375.292 122.227 375.121 122.098 374.955C121.972 374.786 121.8 374.647 121.581 374.538C121.362 374.428 121.082 374.374 120.741 374.374C120.273 374.374 119.884 374.481 119.572 374.697C119.264 374.909 119.11 375.179 119.11 375.507C119.11 375.799 119.216 376.029 119.428 376.198C119.64 376.367 119.972 376.508 120.423 376.621L121.556 376.899C122.239 377.065 122.748 377.318 123.082 377.66C123.417 377.998 123.584 378.434 123.584 378.967C123.584 379.405 123.458 379.796 123.207 380.141C122.958 380.485 122.61 380.757 122.163 380.956C121.715 381.155 121.195 381.254 120.601 381.254C119.823 381.254 119.178 381.085 118.668 380.747C118.157 380.409 117.834 379.915 117.698 379.266L118.812 378.987C118.918 379.398 119.118 379.706 119.413 379.912C119.712 380.117 120.101 380.22 120.582 380.22C121.128 380.22 121.563 380.104 121.884 379.872C122.209 379.637 122.371 379.355 122.371 379.027C122.371 378.762 122.279 378.54 122.093 378.361C121.907 378.179 121.622 378.043 121.238 377.953L119.965 377.655C119.266 377.489 118.752 377.232 118.424 376.884C118.099 376.533 117.937 376.094 117.937 375.567C117.937 375.136 118.058 374.755 118.3 374.423C118.545 374.092 118.878 373.832 119.299 373.643C119.723 373.454 120.204 373.359 120.741 373.359C121.496 373.359 122.09 373.525 122.521 373.857C122.955 374.188 123.263 374.626 123.445 375.169ZM128.672 373.459V374.453H124.714V373.459H128.672ZM125.868 371.629H127.041V378.908C127.041 379.239 127.089 379.488 127.185 379.653C127.285 379.816 127.41 379.925 127.563 379.982C127.719 380.035 127.883 380.061 128.055 380.061C128.184 380.061 128.29 380.054 128.373 380.041C128.456 380.025 128.522 380.011 128.572 380.001L128.811 381.055C128.731 381.085 128.62 381.115 128.478 381.145C128.335 381.178 128.155 381.195 127.936 381.195C127.604 381.195 127.28 381.123 126.961 380.981C126.647 380.838 126.385 380.621 126.176 380.33C125.97 380.038 125.868 379.67 125.868 379.226V371.629ZM133.457 381.254C132.767 381.254 132.163 381.09 131.642 380.762C131.125 380.434 130.721 379.975 130.429 379.385C130.141 378.795 129.997 378.106 129.997 377.317C129.997 376.521 130.141 375.827 130.429 375.234C130.721 374.64 131.125 374.18 131.642 373.852C132.163 373.523 132.767 373.359 133.457 373.359C134.146 373.359 134.749 373.523 135.266 373.852C135.787 374.18 136.191 374.64 136.48 375.234C136.771 375.827 136.917 376.521 136.917 377.317C136.917 378.106 136.771 378.795 136.48 379.385C136.191 379.975 135.787 380.434 135.266 380.762C134.749 381.09 134.146 381.254 133.457 381.254ZM133.457 380.2C133.98 380.2 134.411 380.066 134.749 379.798C135.087 379.529 135.338 379.176 135.5 378.739C135.663 378.301 135.744 377.827 135.744 377.317C135.744 376.806 135.663 376.331 135.5 375.89C135.338 375.449 135.087 375.093 134.749 374.821C134.411 374.549 133.98 374.413 133.457 374.413C132.933 374.413 132.502 374.549 132.164 374.821C131.826 375.093 131.576 375.449 131.413 375.89C131.251 376.331 131.17 376.806 131.17 377.317C131.17 377.827 131.251 378.301 131.413 378.739C131.576 379.176 131.826 379.529 132.164 379.798C132.502 380.066 132.933 380.2 133.457 380.2ZM138.708 381.095V373.459H139.842V374.612H139.921C140.06 374.234 140.312 373.928 140.677 373.693C141.041 373.457 141.452 373.34 141.91 373.34C141.996 373.34 142.104 373.341 142.233 373.345C142.362 373.348 142.46 373.353 142.526 373.359V374.553C142.486 374.543 142.395 374.528 142.253 374.508C142.114 374.485 141.966 374.473 141.81 374.473C141.439 374.473 141.108 374.551 140.816 374.707C140.528 374.859 140.299 375.071 140.13 375.343C139.964 375.612 139.881 375.918 139.881 376.263V381.095H138.708ZM146.164 381.274C145.68 381.274 145.241 381.183 144.847 381.001C144.452 380.815 144.139 380.548 143.907 380.2C143.675 379.849 143.559 379.425 143.559 378.928C143.559 378.49 143.645 378.135 143.818 377.864C143.99 377.589 144.22 377.373 144.509 377.217C144.797 377.062 145.115 376.946 145.463 376.869C145.814 376.79 146.167 376.727 146.522 376.68C146.986 376.621 147.362 376.576 147.651 376.546C147.942 376.513 148.154 376.458 148.287 376.382C148.423 376.306 148.491 376.173 148.491 375.984V375.945C148.491 375.454 148.357 375.073 148.088 374.801C147.823 374.529 147.42 374.394 146.88 374.394C146.32 374.394 145.881 374.516 145.563 374.761C145.244 375.007 145.021 375.269 144.891 375.547L143.778 375.149C143.977 374.685 144.242 374.324 144.573 374.065C144.908 373.804 145.273 373.621 145.667 373.519C146.065 373.412 146.456 373.359 146.84 373.359C147.086 373.359 147.367 373.389 147.685 373.449C148.007 373.505 148.317 373.623 148.615 373.802C148.917 373.981 149.167 374.251 149.366 374.612C149.565 374.974 149.664 375.457 149.664 376.064V381.095H148.491V380.061H148.431C148.352 380.227 148.219 380.404 148.033 380.593C147.848 380.782 147.601 380.943 147.293 381.075C146.984 381.208 146.608 381.274 146.164 381.274ZM146.343 380.22C146.807 380.22 147.198 380.129 147.516 379.947C147.838 379.764 148.08 379.529 148.242 379.241C148.408 378.952 148.491 378.649 148.491 378.331V377.257C148.441 377.317 148.332 377.371 148.163 377.421C147.997 377.468 147.805 377.509 147.586 377.545C147.371 377.579 147.16 377.608 146.955 377.635C146.752 377.658 146.588 377.678 146.462 377.695C146.158 377.734 145.872 377.799 145.607 377.889C145.346 377.975 145.133 378.106 144.971 378.281C144.812 378.454 144.732 378.689 144.732 378.987C144.732 379.395 144.883 379.703 145.185 379.912C145.49 380.117 145.876 380.22 146.343 380.22ZM154.888 384.118C154.321 384.118 153.834 384.045 153.426 383.899C153.019 383.757 152.679 383.568 152.407 383.332C152.139 383.1 151.925 382.852 151.766 382.587L152.701 381.93C152.807 382.07 152.941 382.229 153.103 382.408C153.266 382.59 153.488 382.747 153.769 382.88C154.054 383.016 154.427 383.084 154.888 383.084C155.505 383.084 156.013 382.935 156.414 382.636C156.815 382.338 157.016 381.871 157.016 381.234V379.683H156.916C156.83 379.822 156.708 379.995 156.549 380.2C156.393 380.403 156.167 380.583 155.872 380.742C155.581 380.898 155.186 380.976 154.689 380.976C154.073 380.976 153.519 380.83 153.029 380.538C152.541 380.247 152.155 379.822 151.87 379.266C151.589 378.709 151.448 378.033 151.448 377.237C151.448 376.455 151.585 375.774 151.86 375.194C152.135 374.611 152.518 374.16 153.009 373.842C153.499 373.52 154.066 373.359 154.709 373.359C155.206 373.359 155.601 373.442 155.892 373.608C156.187 373.77 156.413 373.956 156.568 374.165C156.728 374.37 156.85 374.539 156.936 374.672H157.056V373.459H158.189V381.314C158.189 381.97 158.04 382.504 157.742 382.915C157.447 383.329 157.049 383.632 156.549 383.825C156.051 384.02 155.498 384.118 154.888 384.118ZM154.848 379.922C155.319 379.922 155.717 379.814 156.041 379.599C156.366 379.383 156.613 379.073 156.782 378.669C156.951 378.265 157.036 377.781 157.036 377.217C157.036 376.667 156.953 376.182 156.787 375.761C156.621 375.34 156.376 375.01 156.051 374.771C155.727 374.533 155.326 374.413 154.848 374.413C154.351 374.413 153.937 374.539 153.605 374.791C153.277 375.043 153.03 375.381 152.865 375.805C152.702 376.23 152.621 376.7 152.621 377.217C152.621 377.748 152.704 378.217 152.87 378.624C153.039 379.029 153.287 379.347 153.615 379.579C153.947 379.808 154.358 379.922 154.848 379.922ZM163.539 381.254C162.803 381.254 162.168 381.092 161.635 380.767C161.104 380.439 160.695 379.982 160.407 379.395C160.121 378.805 159.979 378.119 159.979 377.337C159.979 376.554 160.121 375.865 160.407 375.269C160.695 374.669 161.096 374.201 161.61 373.867C162.127 373.528 162.73 373.359 163.419 373.359C163.817 373.359 164.21 373.426 164.598 373.558C164.985 373.691 165.338 373.906 165.657 374.205C165.975 374.5 166.228 374.891 166.417 375.378C166.606 375.865 166.701 376.465 166.701 377.178V377.675H160.814V376.661H165.507C165.507 376.23 165.421 375.845 165.249 375.507C165.08 375.169 164.838 374.902 164.523 374.707C164.211 374.511 163.844 374.413 163.419 374.413C162.952 374.413 162.548 374.529 162.206 374.761C161.868 374.99 161.608 375.288 161.426 375.656C161.243 376.024 161.152 376.419 161.152 376.84V377.516C161.152 378.092 161.252 378.581 161.451 378.982C161.653 379.38 161.933 379.683 162.291 379.892C162.649 380.098 163.065 380.2 163.539 380.2C163.847 380.2 164.125 380.157 164.374 380.071C164.626 379.982 164.843 379.849 165.025 379.673C165.207 379.494 165.348 379.272 165.448 379.007L166.581 379.325C166.462 379.71 166.261 380.048 165.98 380.34C165.698 380.628 165.35 380.853 164.936 381.016C164.521 381.175 164.056 381.254 163.539 381.254Z" fill="#0C6BEA"/>
<path d="M142.186 311.917L142.186 339.377" stroke="#0C6BEA" stroke-dasharray="2 2"/>
<circle cx="142.186" cy="342.383" r="3.00586" fill="#0C6BEA"/>
<rect x="27.4141" y="230.017" width="153.311" height="81.4005" rx="5.5" stroke="#0C6BEA"/>
<rect x="47.4551" y="265.09" width="37" height="31" rx="5.5" fill="#0C6BEA" stroke="#0C6BEA"/>
<path d="M60.2161 275.757C60.5318 275.489 60.5702 275.016 60.302 274.7C60.0338 274.384 59.5605 274.346 59.2448 274.614L60.2161 275.757ZM53.3691 280.591L52.8835 280.019C52.7158 280.161 52.6191 280.37 52.6191 280.591C52.6191 280.811 52.7158 281.02 52.8835 281.162L53.3691 280.591ZM59.2448 286.567C59.5605 286.835 60.0338 286.797 60.302 286.481C60.5702 286.166 60.5318 285.692 60.2161 285.424L59.2448 286.567ZM59.2448 274.614L52.8835 280.019L53.8548 281.162L60.2161 275.757L59.2448 274.614ZM52.8835 281.162L59.2448 286.567L60.2161 285.424L53.8548 280.019L52.8835 281.162Z" fill="white"/>
<path d="M71.6931 285.424C71.3774 285.692 71.339 286.166 71.6072 286.481C71.8754 286.797 72.3487 286.835 72.6643 286.567L71.6931 285.424ZM78.54 280.591L79.0257 281.162C79.1934 281.02 79.29 280.811 79.29 280.591C79.29 280.371 79.1934 280.162 79.0257 280.019L78.54 280.591ZM72.6643 274.614C72.3487 274.346 71.8754 274.384 71.6072 274.7C71.339 275.016 71.3774 275.489 71.6931 275.757L72.6643 274.614ZM72.6643 286.567L79.0257 281.162L78.0544 280.019L71.6931 285.424L72.6643 286.567ZM79.0257 280.019L72.6643 274.614L71.6931 275.757L78.0544 281.162L79.0257 280.019Z" fill="white"/>
<path d="M69.4752 270.938C69.6033 270.537 69.3886 270.123 68.9957 270.013C68.6027 269.903 68.1803 270.138 68.0522 270.538L69.4752 270.938ZM61.744 290.243C61.6159 290.644 61.8306 291.057 62.2236 291.168C62.6165 291.278 63.0389 291.043 63.167 290.643L61.744 290.243ZM68.0522 270.538L61.744 290.243L63.167 290.643L69.4752 270.938L68.0522 270.538Z" fill="white"/>
<path d="M77.5521 243.481H76.3192C76.2462 243.127 76.1186 242.815 75.9363 242.547C75.7574 242.278 75.5386 242.053 75.2801 241.871C75.0249 241.685 74.7415 241.546 74.43 241.453C74.1184 241.36 73.7936 241.314 73.4555 241.314C72.839 241.314 72.2806 241.47 71.7801 241.781C71.2829 242.093 70.8869 242.552 70.5919 243.158C70.3002 243.765 70.1544 244.509 70.1544 245.391C70.1544 246.272 70.3002 247.016 70.5919 247.623C70.8869 248.229 71.2829 248.688 71.7801 249C72.2806 249.311 72.839 249.467 73.4555 249.467C73.7936 249.467 74.1184 249.421 74.43 249.328C74.7415 249.235 75.0249 249.098 75.2801 248.915C75.5386 248.73 75.7574 248.503 75.9363 248.234C76.1186 247.963 76.2462 247.651 76.3192 247.3H77.5521C77.4593 247.82 77.2903 248.286 77.045 248.697C76.7997 249.108 76.4948 249.457 76.1302 249.746C75.7657 250.031 75.3563 250.248 74.9023 250.397C74.4515 250.546 73.9693 250.621 73.4555 250.621C72.5872 250.621 71.8149 250.409 71.1388 249.984C70.4626 249.56 69.9307 248.957 69.5429 248.175C69.1551 247.392 68.9612 246.464 68.9612 245.391C68.9612 244.317 69.1551 243.389 69.5429 242.606C69.9307 241.824 70.4626 241.221 71.1388 240.797C71.8149 240.373 72.5872 240.16 73.4555 240.16C73.9693 240.16 74.4515 240.235 74.9023 240.384C75.3563 240.533 75.7657 240.752 76.1302 241.04C76.4948 241.325 76.7997 241.673 77.045 242.084C77.2903 242.492 77.4593 242.958 77.5521 243.481ZM82.4877 250.641C81.7983 250.641 81.1934 250.476 80.673 250.148C80.156 249.82 79.7516 249.361 79.46 248.771C79.1716 248.181 79.0274 247.492 79.0274 246.703C79.0274 245.908 79.1716 245.213 79.46 244.62C79.7516 244.027 80.156 243.566 80.673 243.238C81.1934 242.91 81.7983 242.746 82.4877 242.746C83.1771 242.746 83.7803 242.91 84.2973 243.238C84.8177 243.566 85.222 244.027 85.5104 244.62C85.8021 245.213 85.9479 245.908 85.9479 246.703C85.9479 247.492 85.8021 248.181 85.5104 248.771C85.222 249.361 84.8177 249.82 84.2973 250.148C83.7803 250.476 83.1771 250.641 82.4877 250.641ZM82.4877 249.587C83.0113 249.587 83.4422 249.452 83.7803 249.184C84.1183 248.915 84.3686 248.562 84.531 248.125C84.6934 247.687 84.7746 247.213 84.7746 246.703C84.7746 246.193 84.6934 245.717 84.531 245.276C84.3686 244.835 84.1183 244.479 83.7803 244.207C83.4422 243.936 83.0113 243.8 82.4877 243.8C81.964 243.8 81.5331 243.936 81.195 244.207C80.857 244.479 80.6067 244.835 80.4443 245.276C80.2819 245.717 80.2007 246.193 80.2007 246.703C80.2007 247.213 80.2819 247.687 80.4443 248.125C80.6067 248.562 80.857 248.915 81.195 249.184C81.5331 249.452 81.964 249.587 82.4877 249.587ZM88.9122 245.888V250.481H87.7389V242.845H88.8724V244.038H88.9719C89.1508 243.65 89.4226 243.339 89.7872 243.104C90.1518 242.865 90.6224 242.746 91.1991 242.746C91.7162 242.746 92.1686 242.852 92.5564 243.064C92.9442 243.273 93.2458 243.591 93.4612 244.018C93.6766 244.443 93.7844 244.98 93.7844 245.629V250.481H92.6111V245.709C92.6111 245.109 92.4553 244.641 92.1437 244.307C91.8322 243.969 91.4046 243.8 90.8611 243.8C90.4865 243.8 90.1518 243.881 89.8568 244.043C89.5651 244.206 89.3348 244.443 89.1657 244.754C88.9967 245.066 88.9122 245.444 88.9122 245.888ZM99.2494 242.845V243.839H95.292V242.845H99.2494ZM96.4454 241.016H97.6187V248.294C97.6187 248.625 97.6668 248.874 97.7629 249.04C97.8623 249.202 97.9883 249.311 98.1407 249.368C98.2965 249.421 98.4606 249.447 98.6329 249.447C98.7622 249.447 98.8682 249.441 98.9511 249.427C99.0339 249.411 99.1002 249.398 99.1499 249.388L99.3886 250.442C99.309 250.472 99.198 250.501 99.0555 250.531C98.913 250.564 98.7323 250.581 98.5136 250.581C98.1821 250.581 97.8573 250.51 97.5392 250.367C97.2243 250.225 96.9624 250.007 96.7536 249.716C96.5481 249.424 96.4454 249.056 96.4454 248.612V241.016ZM103.261 250.66C102.778 250.66 102.338 250.569 101.944 250.387C101.55 250.201 101.236 249.935 101.004 249.587C100.772 249.235 100.656 248.811 100.656 248.314C100.656 247.876 100.743 247.522 100.915 247.25C101.087 246.975 101.318 246.759 101.606 246.604C101.894 246.448 102.212 246.332 102.56 246.256C102.912 246.176 103.265 246.113 103.619 246.067C104.083 246.007 104.46 245.962 104.748 245.932C105.04 245.899 105.252 245.845 105.384 245.768C105.52 245.692 105.588 245.56 105.588 245.371V245.331C105.588 244.84 105.454 244.459 105.185 244.187C104.92 243.916 104.518 243.78 103.977 243.78C103.417 243.78 102.978 243.902 102.66 244.148C102.342 244.393 102.118 244.655 101.989 244.933L100.875 244.535C101.074 244.071 101.339 243.71 101.671 243.452C102.005 243.19 102.37 243.007 102.764 242.905C103.162 242.799 103.553 242.746 103.938 242.746C104.183 242.746 104.465 242.775 104.783 242.835C105.104 242.891 105.414 243.009 105.712 243.188C106.014 243.367 106.264 243.637 106.463 243.998C106.662 244.36 106.761 244.844 106.761 245.45V250.481H105.588V249.447H105.528C105.449 249.613 105.316 249.79 105.131 249.979C104.945 250.168 104.698 250.329 104.39 250.462C104.082 250.594 103.706 250.66 103.261 250.66ZM103.44 249.606C103.904 249.606 104.296 249.515 104.614 249.333C104.935 249.151 105.177 248.915 105.34 248.627C105.505 248.339 105.588 248.035 105.588 247.717V246.643C105.538 246.703 105.429 246.758 105.26 246.807C105.094 246.854 104.902 246.895 104.683 246.932C104.468 246.965 104.257 246.995 104.052 247.021C103.85 247.044 103.686 247.064 103.56 247.081C103.255 247.121 102.97 247.185 102.705 247.275C102.443 247.361 102.231 247.492 102.068 247.668C101.909 247.84 101.83 248.075 101.83 248.373C101.83 248.781 101.98 249.089 102.282 249.298C102.587 249.504 102.973 249.606 103.44 249.606ZM108.903 250.481V242.845H110.076V250.481H108.903ZM109.5 241.572C109.271 241.572 109.074 241.494 108.908 241.339C108.746 241.183 108.664 240.996 108.664 240.777C108.664 240.558 108.746 240.371 108.908 240.215C109.074 240.059 109.271 239.981 109.5 239.981C109.728 239.981 109.924 240.059 110.086 240.215C110.252 240.371 110.335 240.558 110.335 240.777C110.335 240.996 110.252 241.183 110.086 241.339C109.924 241.494 109.728 241.572 109.5 241.572ZM113.399 245.888V250.481H112.225V242.845H113.359V244.038H113.458C113.637 243.65 113.909 243.339 114.274 243.104C114.638 242.865 115.109 242.746 115.685 242.746C116.203 242.746 116.655 242.852 117.043 243.064C117.43 243.273 117.732 243.591 117.948 244.018C118.163 244.443 118.271 244.98 118.271 245.629V250.481H117.097V245.709C117.097 245.109 116.942 244.641 116.63 244.307C116.319 243.969 115.891 243.8 115.347 243.8C114.973 243.8 114.638 243.881 114.343 244.043C114.051 244.206 113.821 244.443 113.652 244.754C113.483 245.066 113.399 245.444 113.399 245.888ZM123.616 250.641C122.881 250.641 122.246 250.478 121.712 250.153C121.182 249.825 120.773 249.368 120.484 248.781C120.199 248.191 120.057 247.505 120.057 246.723C120.057 245.941 120.199 245.251 120.484 244.655C120.773 244.055 121.174 243.588 121.687 243.253C122.204 242.915 122.808 242.746 123.497 242.746C123.895 242.746 124.288 242.812 124.675 242.945C125.063 243.077 125.416 243.293 125.734 243.591C126.052 243.886 126.306 244.277 126.495 244.764C126.684 245.251 126.778 245.851 126.778 246.564V247.061H120.892V246.047H125.585C125.585 245.616 125.499 245.231 125.327 244.893C125.158 244.555 124.916 244.288 124.601 244.093C124.289 243.897 123.921 243.8 123.497 243.8C123.03 243.8 122.625 243.916 122.284 244.148C121.946 244.376 121.686 244.675 121.503 245.043C121.321 245.41 121.23 245.805 121.23 246.226V246.902C121.23 247.479 121.329 247.967 121.528 248.369C121.73 248.766 122.011 249.07 122.369 249.278C122.726 249.484 123.142 249.587 123.616 249.587C123.925 249.587 124.203 249.543 124.452 249.457C124.704 249.368 124.921 249.235 125.103 249.06C125.285 248.881 125.426 248.659 125.525 248.393L126.659 248.712C126.54 249.096 126.339 249.434 126.057 249.726C125.776 250.014 125.428 250.239 125.013 250.402C124.599 250.561 124.133 250.641 123.616 250.641ZM128.563 250.481V242.845H129.697V243.998H129.776C129.915 243.621 130.167 243.314 130.532 243.079C130.896 242.843 131.307 242.726 131.765 242.726C131.851 242.726 131.959 242.727 132.088 242.731C132.217 242.734 132.315 242.739 132.381 242.746V243.939C132.342 243.929 132.25 243.914 132.108 243.894C131.969 243.871 131.821 243.859 131.665 243.859C131.294 243.859 130.963 243.937 130.671 244.093C130.383 244.245 130.154 244.458 129.985 244.729C129.819 244.998 129.736 245.304 129.736 245.649V250.481H128.563ZM139.181 244.555L138.127 244.854C138.061 244.678 137.963 244.507 137.834 244.342C137.708 244.172 137.536 244.033 137.317 243.924C137.098 243.815 136.818 243.76 136.477 243.76C136.009 243.76 135.62 243.868 135.308 244.083C135 244.295 134.846 244.565 134.846 244.893C134.846 245.185 134.952 245.415 135.164 245.584C135.376 245.753 135.708 245.894 136.158 246.007L137.292 246.285C137.975 246.451 138.484 246.705 138.818 247.046C139.153 247.384 139.32 247.82 139.32 248.354C139.32 248.791 139.194 249.182 138.943 249.527C138.694 249.872 138.346 250.143 137.899 250.342C137.451 250.541 136.931 250.641 136.337 250.641C135.559 250.641 134.914 250.472 134.403 250.133C133.893 249.795 133.57 249.302 133.434 248.652L134.548 248.373C134.654 248.784 134.854 249.093 135.149 249.298C135.448 249.504 135.837 249.606 136.318 249.606C136.864 249.606 137.299 249.49 137.62 249.258C137.945 249.023 138.107 248.741 138.107 248.413C138.107 248.148 138.015 247.926 137.829 247.747C137.643 247.565 137.358 247.429 136.974 247.339L135.701 247.041C135.002 246.875 134.488 246.619 134.16 246.271C133.835 245.919 133.673 245.48 133.673 244.953C133.673 244.522 133.794 244.141 134.036 243.81C134.281 243.478 134.614 243.218 135.035 243.029C135.459 242.84 135.94 242.746 136.477 242.746C137.232 242.746 137.826 242.911 138.256 243.243C138.691 243.574 138.999 244.012 139.181 244.555Z" fill="#0C6BEA"/>
<ellipse cx="142.186" cy="269.676" rx="12.2968" ry="3.97116" fill="#0C6BEA"/>
<path d="M142.186 294.069C148.978 294.069 154.483 292.291 154.483 290.098V269.605H129.89V290.098C129.89 292.291 135.395 294.069 142.186 294.069Z" fill="#0C6BEA"/>
<path d="M154.984 280.713C154.984 282.907 149.255 284.685 142.187 284.685C135.119 284.685 129.39 282.907 129.39 280.713" stroke="white"/>
<path d="M154.984 269.605C154.984 271.799 149.255 273.577 142.187 273.577C135.119 273.577 129.39 271.799 129.39 269.605" stroke="white"/>
<rect x="264.009" y="217.5" width="182.265" height="186.677" rx="11.5" fill="white" stroke="#0C6BEA"/>
<path d="M300.585 357.459C300.525 356.955 300.283 356.564 299.859 356.286C299.435 356.007 298.914 355.868 298.298 355.868C297.847 355.868 297.453 355.941 297.115 356.087C296.78 356.233 296.518 356.433 296.329 356.688C296.143 356.943 296.051 357.233 296.051 357.558C296.051 357.83 296.115 358.064 296.244 358.259C296.377 358.452 296.546 358.612 296.752 358.742C296.957 358.867 297.173 358.972 297.398 359.055C297.623 359.134 297.83 359.199 298.019 359.249L299.053 359.527C299.319 359.597 299.614 359.693 299.938 359.815C300.267 359.938 300.58 360.105 300.878 360.318C301.18 360.526 301.428 360.795 301.624 361.123C301.819 361.451 301.917 361.854 301.917 362.331C301.917 362.881 301.773 363.378 301.485 363.822C301.2 364.267 300.782 364.62 300.232 364.881C299.685 365.143 299.02 365.274 298.238 365.274C297.509 365.274 296.878 365.157 296.344 364.921C295.814 364.686 295.396 364.358 295.091 363.937C294.789 363.516 294.619 363.027 294.579 362.47H295.852C295.885 362.855 296.014 363.173 296.24 363.425C296.468 363.673 296.757 363.859 297.105 363.982C297.456 364.101 297.834 364.161 298.238 364.161C298.709 364.161 299.131 364.084 299.506 363.932C299.88 363.776 300.177 363.561 300.396 363.286C300.615 363.007 300.724 362.682 300.724 362.311C300.724 361.973 300.629 361.698 300.441 361.486C300.252 361.274 300.003 361.101 299.695 360.969C299.387 360.836 299.053 360.72 298.695 360.621L297.443 360.263C296.647 360.034 296.017 359.708 295.553 359.283C295.089 358.859 294.857 358.304 294.857 357.618C294.857 357.048 295.012 356.551 295.32 356.126C295.631 355.699 296.049 355.367 296.573 355.132C297.1 354.894 297.688 354.774 298.338 354.774C298.994 354.774 299.577 354.892 300.088 355.127C300.598 355.359 301.002 355.677 301.301 356.082C301.602 356.486 301.761 356.945 301.778 357.459H300.585ZM306.887 365.254C306.198 365.254 305.593 365.09 305.073 364.762C304.556 364.434 304.151 363.975 303.86 363.385C303.571 362.795 303.427 362.106 303.427 361.317C303.427 360.521 303.571 359.827 303.86 359.234C304.151 358.64 304.556 358.18 305.073 357.852C305.593 357.523 306.198 357.359 306.887 357.359C307.577 357.359 308.18 357.523 308.697 357.852C309.217 358.18 309.622 358.64 309.91 359.234C310.202 359.827 310.348 360.521 310.348 361.317C310.348 362.106 310.202 362.795 309.91 363.385C309.622 363.975 309.217 364.434 308.697 364.762C308.18 365.09 307.577 365.254 306.887 365.254ZM306.887 364.2C307.411 364.2 307.842 364.066 308.18 363.798C308.518 363.529 308.768 363.176 308.931 362.739C309.093 362.301 309.174 361.827 309.174 361.317C309.174 360.806 309.093 360.331 308.931 359.89C308.768 359.449 308.518 359.093 308.18 358.821C307.842 358.549 307.411 358.413 306.887 358.413C306.364 358.413 305.933 358.549 305.595 358.821C305.257 359.093 305.007 359.449 304.844 359.89C304.682 360.331 304.6 360.806 304.6 361.317C304.6 361.827 304.682 362.301 304.844 362.739C305.007 363.176 305.257 363.529 305.595 363.798C305.933 364.066 306.364 364.2 306.887 364.2ZM316.951 361.973V357.459H318.124V365.095H316.951V363.803H316.872C316.693 364.19 316.414 364.52 316.036 364.792C315.659 365.06 315.181 365.195 314.605 365.195C314.127 365.195 313.703 365.09 313.332 364.881C312.961 364.669 312.669 364.351 312.457 363.927C312.245 363.499 312.139 362.961 312.139 362.311V357.459H313.312V362.232C313.312 362.788 313.468 363.233 313.779 363.564C314.094 363.895 314.495 364.061 314.982 364.061C315.274 364.061 315.571 363.987 315.872 363.837C316.177 363.688 316.432 363.46 316.638 363.151C316.847 362.843 316.951 362.45 316.951 361.973ZM320.273 365.095V357.459H321.407V358.612H321.487C321.626 358.234 321.878 357.928 322.242 357.693C322.607 357.457 323.018 357.34 323.475 357.34C323.561 357.34 323.669 357.341 323.798 357.345C323.928 357.348 324.025 357.353 324.092 357.359V358.553C324.052 358.543 323.961 358.528 323.818 358.508C323.679 358.485 323.531 358.473 323.376 358.473C323.004 358.473 322.673 358.551 322.381 358.707C322.093 358.859 321.864 359.071 321.695 359.343C321.53 359.612 321.447 359.918 321.447 360.263V365.095H320.273ZM328.352 365.254C327.636 365.254 327.02 365.085 326.503 364.747C325.986 364.409 325.588 363.943 325.31 363.35C325.031 362.757 324.892 362.079 324.892 361.317C324.892 360.541 325.035 359.857 325.32 359.264C325.608 358.667 326.009 358.201 326.523 357.867C327.04 357.528 327.643 357.359 328.332 357.359C328.869 357.359 329.353 357.459 329.784 357.658C330.215 357.857 330.568 358.135 330.843 358.493C331.118 358.851 331.289 359.269 331.355 359.746H330.182C330.092 359.398 329.893 359.09 329.585 358.821C329.28 358.549 328.869 358.413 328.352 358.413C327.895 358.413 327.494 358.533 327.149 358.771C326.808 359.007 326.541 359.34 326.349 359.771C326.16 360.198 326.065 360.7 326.065 361.277C326.065 361.867 326.158 362.381 326.344 362.818C326.533 363.256 326.798 363.595 327.139 363.837C327.484 364.079 327.888 364.2 328.352 364.2C328.657 364.2 328.934 364.147 329.183 364.041C329.431 363.935 329.642 363.783 329.814 363.584C329.986 363.385 330.109 363.146 330.182 362.868H331.355C331.289 363.319 331.125 363.725 330.863 364.086C330.604 364.444 330.261 364.729 329.834 364.941C329.41 365.15 328.916 365.254 328.352 365.254ZM336.272 365.254C335.536 365.254 334.902 365.092 334.368 364.767C333.838 364.439 333.428 363.982 333.14 363.395C332.855 362.805 332.712 362.119 332.712 361.337C332.712 360.554 332.855 359.865 333.14 359.269C333.428 358.669 333.829 358.201 334.343 357.867C334.86 357.528 335.463 357.359 336.153 357.359C336.55 357.359 336.943 357.426 337.331 357.558C337.719 357.691 338.072 357.906 338.39 358.205C338.708 358.5 338.962 358.891 339.151 359.378C339.339 359.865 339.434 360.465 339.434 361.178V361.675H333.548V360.661H338.241C338.241 360.23 338.155 359.845 337.982 359.507C337.813 359.169 337.571 358.902 337.256 358.707C336.945 358.511 336.577 358.413 336.153 358.413C335.685 358.413 335.281 358.529 334.94 358.761C334.602 358.99 334.341 359.288 334.159 359.656C333.977 360.024 333.886 360.419 333.886 360.84V361.516C333.886 362.092 333.985 362.581 334.184 362.982C334.386 363.38 334.666 363.683 335.024 363.892C335.382 364.098 335.798 364.2 336.272 364.2C336.58 364.2 336.859 364.157 337.107 364.071C337.359 363.982 337.576 363.849 337.759 363.673C337.941 363.494 338.082 363.272 338.181 363.007L339.315 363.325C339.195 363.71 338.995 364.048 338.713 364.34C338.431 364.628 338.083 364.853 337.669 365.016C337.255 365.175 336.789 365.254 336.272 365.254ZM304.632 381.254C303.916 381.254 303.299 381.085 302.782 380.747C302.265 380.409 301.867 379.943 301.589 379.35C301.311 378.757 301.171 378.079 301.171 377.317C301.171 376.541 301.314 375.857 301.599 375.264C301.887 374.667 302.288 374.201 302.802 373.867C303.319 373.528 303.922 373.359 304.612 373.359C305.149 373.359 305.633 373.459 306.063 373.658C306.494 373.857 306.847 374.135 307.122 374.493C307.397 374.851 307.568 375.269 307.634 375.746H306.461C306.372 375.398 306.173 375.09 305.865 374.821C305.56 374.549 305.149 374.413 304.632 374.413C304.174 374.413 303.773 374.533 303.428 374.771C303.087 375.007 302.82 375.34 302.628 375.771C302.439 376.198 302.345 376.7 302.345 377.277C302.345 377.867 302.437 378.381 302.623 378.818C302.812 379.256 303.077 379.595 303.418 379.837C303.763 380.079 304.168 380.2 304.632 380.2C304.936 380.2 305.213 380.147 305.462 380.041C305.71 379.935 305.921 379.783 306.093 379.584C306.266 379.385 306.388 379.146 306.461 378.868H307.634C307.568 379.319 307.404 379.725 307.142 380.086C306.884 380.444 306.541 380.729 306.113 380.941C305.689 381.15 305.195 381.254 304.632 381.254ZM312.452 381.254C311.762 381.254 311.158 381.09 310.637 380.762C310.12 380.434 309.716 379.975 309.424 379.385C309.136 378.795 308.992 378.106 308.992 377.317C308.992 376.521 309.136 375.827 309.424 375.234C309.716 374.64 310.12 374.18 310.637 373.852C311.158 373.523 311.762 373.359 312.452 373.359C313.141 373.359 313.744 373.523 314.262 373.852C314.782 374.18 315.186 374.64 315.475 375.234C315.766 375.827 315.912 376.521 315.912 377.317C315.912 378.106 315.766 378.795 315.475 379.385C315.186 379.975 314.782 380.434 314.262 380.762C313.744 381.09 313.141 381.254 312.452 381.254ZM312.452 380.2C312.976 380.2 313.406 380.066 313.744 379.798C314.083 379.529 314.333 379.176 314.495 378.739C314.658 378.301 314.739 377.827 314.739 377.317C314.739 376.806 314.658 376.331 314.495 375.89C314.333 375.449 314.083 375.093 313.744 374.821C313.406 374.549 312.976 374.413 312.452 374.413C311.928 374.413 311.497 374.549 311.159 374.821C310.821 375.093 310.571 375.449 310.409 375.89C310.246 376.331 310.165 376.806 310.165 377.317C310.165 377.827 310.246 378.301 310.409 378.739C310.571 379.176 310.821 379.529 311.159 379.798C311.497 380.066 311.928 380.2 312.452 380.2ZM320.587 381.254C319.95 381.254 319.388 381.094 318.901 380.772C318.414 380.447 318.033 379.99 317.758 379.4C317.483 378.807 317.345 378.106 317.345 377.297C317.345 376.495 317.483 375.799 317.758 375.209C318.033 374.619 318.416 374.163 318.906 373.842C319.397 373.52 319.964 373.359 320.607 373.359C321.104 373.359 321.496 373.442 321.785 373.608C322.076 373.77 322.299 373.956 322.451 374.165C322.607 374.37 322.728 374.539 322.814 374.672H322.913V370.913H324.087V381.095H322.953V379.922H322.814C322.728 380.061 322.605 380.237 322.446 380.449C322.287 380.658 322.06 380.845 321.765 381.011C321.47 381.173 321.077 381.254 320.587 381.254ZM320.746 380.2C321.216 380.2 321.614 380.078 321.939 379.832C322.264 379.584 322.511 379.241 322.68 378.803C322.849 378.362 322.933 377.854 322.933 377.277C322.933 376.707 322.85 376.208 322.685 375.781C322.519 375.35 322.274 375.015 321.949 374.776C321.624 374.534 321.223 374.413 320.746 374.413C320.249 374.413 319.834 374.541 319.503 374.796C319.175 375.048 318.928 375.391 318.762 375.825C318.6 376.256 318.518 376.74 318.518 377.277C318.518 377.821 318.601 378.314 318.767 378.759C318.936 379.199 319.185 379.551 319.513 379.813C319.844 380.071 320.255 380.2 320.746 380.2ZM329.6 381.254C328.864 381.254 328.23 381.092 327.696 380.767C327.166 380.439 326.756 379.982 326.468 379.395C326.183 378.805 326.04 378.119 326.04 377.337C326.04 376.554 326.183 375.865 326.468 375.269C326.756 374.669 327.157 374.201 327.671 373.867C328.188 373.528 328.791 373.359 329.481 373.359C329.879 373.359 330.271 373.426 330.659 373.558C331.047 373.691 331.4 373.906 331.718 374.205C332.036 374.5 332.29 374.891 332.479 375.378C332.668 375.865 332.762 376.465 332.762 377.178V377.675H326.876V376.661H331.569C331.569 376.23 331.483 375.845 331.31 375.507C331.141 375.169 330.899 374.902 330.585 374.707C330.273 374.511 329.905 374.413 329.481 374.413C329.013 374.413 328.609 374.529 328.268 374.761C327.93 374.99 327.67 375.288 327.487 375.656C327.305 376.024 327.214 376.419 327.214 376.84V377.516C327.214 378.092 327.313 378.581 327.512 378.982C327.714 379.38 327.994 379.683 328.352 379.892C328.71 380.098 329.126 380.2 329.6 380.2C329.908 380.2 330.187 380.157 330.435 380.071C330.687 379.982 330.904 379.849 331.087 379.673C331.269 379.494 331.41 379.272 331.509 379.007L332.643 379.325C332.523 379.71 332.323 380.048 332.041 380.34C331.759 380.628 331.411 380.853 330.997 381.016C330.583 381.175 330.117 381.254 329.6 381.254Z" fill="#0C6BEA"/>
<path d="M316.964 311.917L316.964 339.377" stroke="#0C6BEA" stroke-dasharray="2 2"/>
<circle cx="316.964" cy="342.383" r="3.00586" fill="#0C6BEA"/>
<path d="M382.108 365.095H378.966V354.913H382.247C383.235 354.913 384.08 355.117 384.783 355.525C385.485 355.929 386.024 356.511 386.398 357.27C386.773 358.026 386.96 358.93 386.96 359.984C386.96 361.045 386.771 361.958 386.393 362.724C386.015 363.486 385.465 364.073 384.743 364.484C384.02 364.891 383.142 365.095 382.108 365.095ZM380.199 364.001H382.028C382.87 364.001 383.568 363.839 384.121 363.514C384.675 363.189 385.087 362.727 385.359 362.127C385.631 361.527 385.767 360.813 385.767 359.984C385.767 359.162 385.633 358.455 385.364 357.862C385.096 357.265 384.695 356.808 384.161 356.489C383.627 356.168 382.963 356.007 382.167 356.007H380.199V364.001ZM391.116 365.274C390.632 365.274 390.193 365.183 389.799 365.001C389.404 364.815 389.091 364.548 388.859 364.2C388.627 363.849 388.511 363.425 388.511 362.928C388.511 362.49 388.597 362.135 388.77 361.864C388.942 361.589 389.172 361.373 389.461 361.217C389.749 361.062 390.067 360.946 390.415 360.869C390.767 360.79 391.12 360.727 391.474 360.68C391.938 360.621 392.314 360.576 392.603 360.546C392.894 360.513 393.107 360.458 393.239 360.382C393.375 360.306 393.443 360.173 393.443 359.984V359.945C393.443 359.454 393.309 359.073 393.04 358.801C392.775 358.529 392.372 358.394 391.832 358.394C391.272 358.394 390.833 358.516 390.515 358.761C390.197 359.007 389.973 359.269 389.844 359.547L388.73 359.149C388.929 358.685 389.194 358.324 389.525 358.065C389.86 357.804 390.225 357.621 390.619 357.519C391.017 357.412 391.408 357.359 391.792 357.359C392.038 357.359 392.319 357.389 392.638 357.449C392.959 357.505 393.269 357.623 393.567 357.802C393.869 357.981 394.119 358.251 394.318 358.612C394.517 358.974 394.616 359.457 394.616 360.064V365.095H393.443V364.061H393.383C393.304 364.227 393.171 364.404 392.986 364.593C392.8 364.782 392.553 364.943 392.245 365.075C391.937 365.208 391.56 365.274 391.116 365.274ZM391.295 364.22C391.759 364.22 392.15 364.129 392.469 363.947C392.79 363.764 393.032 363.529 393.194 363.241C393.36 362.952 393.443 362.649 393.443 362.331V361.257C393.393 361.317 393.284 361.371 393.115 361.421C392.949 361.468 392.757 361.509 392.538 361.545C392.323 361.579 392.112 361.608 391.907 361.635C391.705 361.658 391.541 361.678 391.415 361.695C391.11 361.734 390.825 361.799 390.559 361.889C390.298 361.975 390.086 362.106 389.923 362.281C389.764 362.454 389.684 362.689 389.684 362.987C389.684 363.395 389.835 363.703 390.137 363.912C390.442 364.117 390.828 364.22 391.295 364.22ZM400.079 357.459V358.453H396.121V357.459H400.079ZM397.275 355.629H398.448V362.908C398.448 363.239 398.496 363.488 398.592 363.653C398.692 363.816 398.818 363.925 398.97 363.982C399.126 364.035 399.29 364.061 399.462 364.061C399.592 364.061 399.698 364.054 399.781 364.041C399.863 364.025 399.93 364.011 399.979 364.001L400.218 365.055C400.139 365.085 400.027 365.115 399.885 365.145C399.742 365.178 399.562 365.195 399.343 365.195C399.012 365.195 398.687 365.123 398.369 364.981C398.054 364.838 397.792 364.621 397.583 364.33C397.378 364.038 397.275 363.67 397.275 363.226V355.629ZM404.091 365.274C403.607 365.274 403.168 365.183 402.773 365.001C402.379 364.815 402.066 364.548 401.834 364.2C401.602 363.849 401.486 363.425 401.486 362.928C401.486 362.49 401.572 362.135 401.744 361.864C401.917 361.589 402.147 361.373 402.435 361.217C402.724 361.062 403.042 360.946 403.39 360.869C403.741 360.79 404.094 360.727 404.449 360.68C404.913 360.621 405.289 360.576 405.577 360.546C405.869 360.513 406.081 360.458 406.214 360.382C406.35 360.306 406.418 360.173 406.418 359.984V359.945C406.418 359.454 406.283 359.073 406.015 358.801C405.75 358.529 405.347 358.394 404.807 358.394C404.247 358.394 403.808 358.516 403.489 358.761C403.171 359.007 402.947 359.269 402.818 359.547L401.705 359.149C401.903 358.685 402.169 358.324 402.5 358.065C402.835 357.804 403.199 357.621 403.594 357.519C403.991 357.412 404.383 357.359 404.767 357.359C405.012 357.359 405.294 357.389 405.612 357.449C405.934 357.505 406.244 357.623 406.542 357.802C406.844 357.981 407.094 358.251 407.293 358.612C407.491 358.974 407.591 359.457 407.591 360.064V365.095H406.418V364.061H406.358C406.278 364.227 406.146 364.404 405.96 364.593C405.775 364.782 405.528 364.943 405.219 365.075C404.911 365.208 404.535 365.274 404.091 365.274ZM404.27 364.22C404.734 364.22 405.125 364.129 405.443 363.947C405.765 363.764 406.007 363.529 406.169 363.241C406.335 362.952 406.418 362.649 406.418 362.331V361.257C406.368 361.317 406.259 361.371 406.089 361.421C405.924 361.468 405.732 361.509 405.513 361.545C405.297 361.579 405.087 361.608 404.881 361.635C404.679 361.658 404.515 361.678 404.389 361.695C404.084 361.734 403.799 361.799 403.534 361.889C403.272 361.975 403.06 362.106 402.898 362.281C402.739 362.454 402.659 362.689 402.659 362.987C402.659 363.395 402.81 363.703 403.112 363.912C403.416 364.117 403.803 364.22 404.27 364.22ZM374.454 375.169L373.4 375.467C373.334 375.292 373.236 375.121 373.107 374.955C372.981 374.786 372.808 374.647 372.59 374.538C372.371 374.428 372.091 374.374 371.749 374.374C371.282 374.374 370.893 374.481 370.581 374.697C370.273 374.909 370.119 375.179 370.119 375.507C370.119 375.799 370.225 376.029 370.437 376.198C370.649 376.367 370.981 376.508 371.431 376.621L372.565 376.899C373.248 377.065 373.756 377.318 374.091 377.66C374.426 377.998 374.593 378.434 374.593 378.967C374.593 379.405 374.467 379.796 374.215 380.141C373.967 380.485 373.619 380.757 373.171 380.956C372.724 381.155 372.204 381.254 371.61 381.254C370.831 381.254 370.187 381.085 369.676 380.747C369.166 380.409 368.843 379.915 368.707 379.266L369.821 378.987C369.927 379.398 370.127 379.706 370.422 379.912C370.72 380.117 371.11 380.22 371.59 380.22C372.137 380.22 372.571 380.104 372.893 379.872C373.218 379.637 373.38 379.355 373.38 379.027C373.38 378.762 373.287 378.54 373.102 378.361C372.916 378.179 372.631 378.043 372.247 377.953L370.974 377.655C370.275 377.489 369.761 377.232 369.433 376.884C369.108 376.533 368.946 376.094 368.946 375.567C368.946 375.136 369.066 374.755 369.308 374.423C369.554 374.092 369.887 373.832 370.308 373.643C370.732 373.454 371.213 373.359 371.749 373.359C372.505 373.359 373.098 373.525 373.529 373.857C373.963 374.188 374.272 374.626 374.454 375.169ZM379.68 373.459V374.453H375.723V373.459H379.68ZM376.876 371.629H378.05V378.908C378.05 379.239 378.098 379.488 378.194 379.653C378.293 379.816 378.419 379.925 378.572 379.982C378.728 380.035 378.892 380.061 379.064 380.061C379.193 380.061 379.299 380.054 379.382 380.041C379.465 380.025 379.531 380.011 379.581 380.001L379.82 381.055C379.74 381.085 379.629 381.115 379.487 381.145C379.344 381.178 379.163 381.195 378.945 381.195C378.613 381.195 378.288 381.123 377.97 380.981C377.655 380.838 377.393 380.621 377.185 380.33C376.979 380.038 376.876 379.67 376.876 379.226V371.629ZM384.466 381.254C383.776 381.254 383.171 381.09 382.651 380.762C382.134 380.434 381.73 379.975 381.438 379.385C381.15 378.795 381.005 378.106 381.005 377.317C381.005 376.521 381.15 375.827 381.438 375.234C381.73 374.64 382.134 374.18 382.651 373.852C383.171 373.523 383.776 373.359 384.466 373.359C385.155 373.359 385.758 373.523 386.275 373.852C386.796 374.18 387.2 374.64 387.488 375.234C387.78 375.827 387.926 376.521 387.926 377.317C387.926 378.106 387.78 378.795 387.488 379.385C387.2 379.975 386.796 380.434 386.275 380.762C385.758 381.09 385.155 381.254 384.466 381.254ZM384.466 380.2C384.989 380.2 385.42 380.066 385.758 379.798C386.096 379.529 386.346 379.176 386.509 378.739C386.671 378.301 386.752 377.827 386.752 377.317C386.752 376.806 386.671 376.331 386.509 375.89C386.346 375.449 386.096 375.093 385.758 374.821C385.42 374.549 384.989 374.413 384.466 374.413C383.942 374.413 383.511 374.549 383.173 374.821C382.835 375.093 382.585 375.449 382.422 375.89C382.26 376.331 382.179 376.806 382.179 377.317C382.179 377.827 382.26 378.301 382.422 378.739C382.585 379.176 382.835 379.529 383.173 379.798C383.511 380.066 383.942 380.2 384.466 380.2ZM389.717 381.095V373.459H390.85V374.612H390.93C391.069 374.234 391.321 373.928 391.686 373.693C392.05 373.457 392.461 373.34 392.919 373.34C393.005 373.34 393.112 373.341 393.242 373.345C393.371 373.348 393.469 373.353 393.535 373.359V374.553C393.495 374.543 393.404 374.528 393.262 374.508C393.122 374.485 392.975 374.473 392.819 374.473C392.448 374.473 392.116 374.551 391.825 374.707C391.536 374.859 391.308 375.071 391.139 375.343C390.973 375.612 390.89 375.918 390.89 376.263V381.095H389.717ZM397.173 381.274C396.689 381.274 396.25 381.183 395.855 381.001C395.461 380.815 395.148 380.548 394.916 380.2C394.684 379.849 394.568 379.425 394.568 378.928C394.568 378.49 394.654 378.135 394.826 377.864C394.999 377.589 395.229 377.373 395.517 377.217C395.806 377.062 396.124 376.946 396.472 376.869C396.823 376.79 397.176 376.727 397.531 376.68C397.995 376.621 398.371 376.576 398.659 376.546C398.951 376.513 399.163 376.458 399.296 376.382C399.432 376.306 399.5 376.173 399.5 375.984V375.945C399.5 375.454 399.365 375.073 399.097 374.801C398.832 374.529 398.429 374.394 397.889 374.394C397.329 374.394 396.89 374.516 396.571 374.761C396.253 375.007 396.029 375.269 395.9 375.547L394.787 375.149C394.985 374.685 395.251 374.324 395.582 374.065C395.917 373.804 396.281 373.621 396.676 373.519C397.074 373.412 397.465 373.359 397.849 373.359C398.094 373.359 398.376 373.389 398.694 373.449C399.016 373.505 399.326 373.623 399.624 373.802C399.926 373.981 400.176 374.251 400.375 374.612C400.574 374.974 400.673 375.457 400.673 376.064V381.095H399.5V380.061H399.44C399.36 380.227 399.228 380.404 399.042 380.593C398.857 380.782 398.61 380.943 398.302 381.075C397.993 381.208 397.617 381.274 397.173 381.274ZM397.352 380.22C397.816 380.22 398.207 380.129 398.525 379.947C398.847 379.764 399.089 379.529 399.251 379.241C399.417 378.952 399.5 378.649 399.5 378.331V377.257C399.45 377.317 399.341 377.371 399.172 377.421C399.006 377.468 398.814 377.509 398.595 377.545C398.379 377.579 398.169 377.608 397.963 377.635C397.761 377.658 397.597 377.678 397.471 377.695C397.166 377.734 396.881 377.799 396.616 377.889C396.354 377.975 396.142 378.106 395.98 378.281C395.821 378.454 395.741 378.689 395.741 378.987C395.741 379.395 395.892 379.703 396.194 379.912C396.498 380.117 396.885 380.22 397.352 380.22ZM405.897 384.118C405.33 384.118 404.843 384.045 404.435 383.899C404.028 383.757 403.688 383.568 403.416 383.332C403.148 383.1 402.934 382.852 402.775 382.587L403.709 381.93C403.815 382.07 403.95 382.229 404.112 382.408C404.274 382.59 404.497 382.747 404.778 382.88C405.063 383.016 405.436 383.084 405.897 383.084C406.513 383.084 407.022 382.935 407.423 382.636C407.824 382.338 408.025 381.871 408.025 381.234V379.683H407.925C407.839 379.822 407.716 379.995 407.557 380.2C407.402 380.403 407.176 380.583 406.881 380.742C406.59 380.898 406.195 380.976 405.698 380.976C405.082 380.976 404.528 380.83 404.037 380.538C403.55 380.247 403.164 379.822 402.879 379.266C402.597 378.709 402.457 378.033 402.457 377.237C402.457 376.455 402.594 375.774 402.869 375.194C403.144 374.611 403.527 374.16 404.018 373.842C404.508 373.52 405.075 373.359 405.718 373.359C406.215 373.359 406.609 373.442 406.901 373.608C407.196 373.77 407.421 373.956 407.577 374.165C407.736 374.37 407.859 374.539 407.945 374.672H408.064V373.459H409.198V381.314C409.198 381.97 409.049 382.504 408.751 382.915C408.456 383.329 408.058 383.632 407.557 383.825C407.06 384.02 406.507 384.118 405.897 384.118ZM405.857 379.922C406.328 379.922 406.725 379.814 407.05 379.599C407.375 379.383 407.622 379.073 407.791 378.669C407.96 378.265 408.045 377.781 408.045 377.217C408.045 376.667 407.962 376.182 407.796 375.761C407.63 375.34 407.385 375.01 407.06 374.771C406.735 374.533 406.334 374.413 405.857 374.413C405.36 374.413 404.946 374.539 404.614 374.791C404.286 375.043 404.039 375.381 403.873 375.805C403.711 376.23 403.63 376.7 403.63 377.217C403.63 377.748 403.713 378.217 403.878 378.624C404.047 379.029 404.296 379.347 404.624 379.579C404.956 379.808 405.367 379.922 405.857 379.922ZM414.547 381.254C413.812 381.254 413.177 381.092 412.643 380.767C412.113 380.439 411.704 379.982 411.415 379.395C411.13 378.805 410.988 378.119 410.988 377.337C410.988 376.554 411.13 375.865 411.415 375.269C411.704 374.669 412.105 374.201 412.618 373.867C413.135 373.528 413.739 373.359 414.428 373.359C414.826 373.359 415.219 373.426 415.606 373.558C415.994 373.691 416.347 373.906 416.665 374.205C416.983 374.5 417.237 374.891 417.426 375.378C417.615 375.865 417.709 376.465 417.709 377.178V377.675H411.823V376.661H416.516C416.516 376.23 416.43 375.845 416.258 375.507C416.089 375.169 415.847 374.902 415.532 374.707C415.22 374.511 414.852 374.413 414.428 374.413C413.961 374.413 413.556 374.529 413.215 374.761C412.877 374.99 412.617 375.288 412.434 375.656C412.252 376.024 412.161 376.419 412.161 376.84V377.516C412.161 378.092 412.26 378.581 412.459 378.982C412.662 379.38 412.942 379.683 413.3 379.892C413.658 380.098 414.073 380.2 414.547 380.2C414.856 380.2 415.134 380.157 415.383 380.071C415.635 379.982 415.852 379.849 416.034 379.673C416.216 379.494 416.357 379.272 416.457 379.007L417.59 379.325C417.471 379.71 417.27 380.048 416.988 380.34C416.707 380.628 416.359 380.853 415.944 381.016C415.53 381.175 415.064 381.254 414.547 381.254Z" fill="#0C6BEA"/>
<path d="M393.194 311.917L393.194 339.377" stroke="#0C6BEA" stroke-dasharray="2 2"/>
<circle cx="393.194" cy="342.383" r="3.00586" fill="#0C6BEA"/>
<rect x="278.423" y="230.017" width="153.311" height="81.4005" rx="5.5" stroke="#0C6BEA"/>
<rect x="298.464" y="265.09" width="37" height="31" rx="5.5" fill="#0C6BEA" stroke="#0C6BEA"/>
<path d="M311.226 275.757C311.542 275.489 311.58 275.016 311.312 274.7C311.044 274.384 310.57 274.346 310.255 274.614L311.226 275.757ZM304.379 280.591L303.893 280.019C303.726 280.161 303.629 280.37 303.629 280.591C303.629 280.811 303.726 281.02 303.893 281.162L304.379 280.591ZM310.255 286.567C310.57 286.835 311.044 286.797 311.312 286.481C311.58 286.166 311.542 285.692 311.226 285.424L310.255 286.567ZM310.255 274.614L303.893 280.019L304.865 281.162L311.226 275.757L310.255 274.614ZM303.893 281.162L310.255 286.567L311.226 285.424L304.865 280.019L303.893 281.162Z" fill="white"/>
<path d="M322.703 285.424C322.387 285.692 322.349 286.166 322.617 286.481C322.885 286.797 323.358 286.835 323.674 286.567L322.703 285.424ZM329.55 280.591L330.035 281.162C330.203 281.02 330.3 280.811 330.3 280.591C330.3 280.371 330.203 280.162 330.035 280.019L329.55 280.591ZM323.674 274.614C323.358 274.346 322.885 274.384 322.617 274.7C322.349 275.016 322.387 275.489 322.703 275.757L323.674 274.614ZM323.674 286.567L330.035 281.162L329.064 280.019L322.703 285.424L323.674 286.567ZM330.035 280.019L323.674 274.614L322.703 275.757L329.064 281.162L330.035 280.019Z" fill="white"/>
<path d="M320.485 270.938C320.613 270.537 320.398 270.123 320.005 270.013C319.613 269.903 319.19 270.138 319.062 270.538L320.485 270.938ZM312.754 290.243C312.626 290.644 312.84 291.057 313.233 291.168C313.626 291.278 314.049 291.043 314.177 290.643L312.754 290.243ZM319.062 270.538L312.754 290.243L314.177 290.643L320.485 270.938L319.062 270.538Z" fill="white"/>
<path d="M328.561 243.481H327.328C327.255 243.127 327.127 242.815 326.945 242.547C326.766 242.278 326.547 242.053 326.289 241.871C326.034 241.685 325.75 241.546 325.439 241.453C325.127 241.36 324.802 241.314 324.464 241.314C323.848 241.314 323.289 241.47 322.789 241.781C322.292 242.093 321.896 242.552 321.601 243.158C321.309 243.765 321.163 244.509 321.163 245.391C321.163 246.272 321.309 247.016 321.601 247.623C321.896 248.229 322.292 248.688 322.789 249C323.289 249.311 323.848 249.467 324.464 249.467C324.802 249.467 325.127 249.421 325.439 249.328C325.75 249.235 326.034 249.098 326.289 248.915C326.547 248.73 326.766 248.503 326.945 248.234C327.127 247.963 327.255 247.651 327.328 247.3H328.561C328.468 247.82 328.299 248.286 328.054 248.697C327.809 249.108 327.504 249.457 327.139 249.746C326.774 250.031 326.365 250.248 325.911 250.397C325.46 250.546 324.978 250.621 324.464 250.621C323.596 250.621 322.824 250.409 322.148 249.984C321.471 249.56 320.939 248.957 320.552 248.175C320.164 247.392 319.97 246.464 319.97 245.391C319.97 244.317 320.164 243.389 320.552 242.606C320.939 241.824 321.471 241.221 322.148 240.797C322.824 240.373 323.596 240.16 324.464 240.16C324.978 240.16 325.46 240.235 325.911 240.384C326.365 240.533 326.774 240.752 327.139 241.04C327.504 241.325 327.809 241.673 328.054 242.084C328.299 242.492 328.468 242.958 328.561 243.481ZM333.496 250.641C332.807 250.641 332.202 250.476 331.682 250.148C331.165 249.82 330.76 249.361 330.469 248.771C330.18 248.181 330.036 247.492 330.036 246.703C330.036 245.908 330.18 245.213 330.469 244.62C330.76 244.027 331.165 243.566 331.682 243.238C332.202 242.91 332.807 242.746 333.496 242.746C334.186 242.746 334.789 242.91 335.306 243.238C335.826 243.566 336.231 244.027 336.519 244.62C336.811 245.213 336.957 245.908 336.957 246.703C336.957 247.492 336.811 248.181 336.519 248.771C336.231 249.361 335.826 249.82 335.306 250.148C334.789 250.476 334.186 250.641 333.496 250.641ZM333.496 249.587C334.02 249.587 334.451 249.452 334.789 249.184C335.127 248.915 335.377 248.562 335.54 248.125C335.702 247.687 335.783 247.213 335.783 246.703C335.783 246.193 335.702 245.717 335.54 245.276C335.377 244.835 335.127 244.479 334.789 244.207C334.451 243.936 334.02 243.8 333.496 243.8C332.973 243.8 332.542 243.936 332.204 244.207C331.866 244.479 331.616 244.835 331.453 245.276C331.291 245.717 331.21 246.193 331.21 246.703C331.21 247.213 331.291 247.687 331.453 248.125C331.616 248.562 331.866 248.915 332.204 249.184C332.542 249.452 332.973 249.587 333.496 249.587ZM339.921 245.888V250.481H338.748V242.845H339.881V244.038H339.981C340.16 243.65 340.431 243.339 340.796 243.104C341.161 242.865 341.631 242.746 342.208 242.746C342.725 242.746 343.177 242.852 343.565 243.064C343.953 243.273 344.255 243.591 344.47 244.018C344.685 244.443 344.793 244.98 344.793 245.629V250.481H343.62V245.709C343.62 245.109 343.464 244.641 343.153 244.307C342.841 243.969 342.413 243.8 341.87 243.8C341.495 243.8 341.161 243.881 340.866 244.043C340.574 244.206 340.344 244.443 340.175 244.754C340.006 245.066 339.921 245.444 339.921 245.888ZM350.258 242.845V243.839H346.301V242.845H350.258ZM347.454 241.016H348.627V248.294C348.627 248.625 348.676 248.874 348.772 249.04C348.871 249.202 348.997 249.311 349.15 249.368C349.305 249.421 349.469 249.447 349.642 249.447C349.771 249.447 349.877 249.441 349.96 249.427C350.043 249.411 350.109 249.398 350.159 249.388L350.397 250.442C350.318 250.472 350.207 250.501 350.064 250.531C349.922 250.564 349.741 250.581 349.522 250.581C349.191 250.581 348.866 250.51 348.548 250.367C348.233 250.225 347.971 250.007 347.762 249.716C347.557 249.424 347.454 249.056 347.454 248.612V241.016ZM354.27 250.66C353.786 250.66 353.347 250.569 352.953 250.387C352.558 250.201 352.245 249.935 352.013 249.587C351.781 249.235 351.665 248.811 351.665 248.314C351.665 247.876 351.751 247.522 351.924 247.25C352.096 246.975 352.326 246.759 352.615 246.604C352.903 246.448 353.221 246.332 353.569 246.256C353.921 246.176 354.274 246.113 354.628 246.067C355.092 246.007 355.468 245.962 355.757 245.932C356.048 245.899 356.261 245.845 356.393 245.768C356.529 245.692 356.597 245.56 356.597 245.371V245.331C356.597 244.84 356.463 244.459 356.194 244.187C355.929 243.916 355.526 243.78 354.986 243.78C354.426 243.78 353.987 243.902 353.669 244.148C353.35 244.393 353.127 244.655 352.998 244.933L351.884 244.535C352.083 244.071 352.348 243.71 352.679 243.452C353.014 243.19 353.379 243.007 353.773 242.905C354.171 242.799 354.562 242.746 354.946 242.746C355.192 242.746 355.473 242.775 355.792 242.835C356.113 242.891 356.423 243.009 356.721 243.188C357.023 243.367 357.273 243.637 357.472 243.998C357.671 244.36 357.77 244.844 357.77 245.45V250.481H356.597V249.447H356.537C356.458 249.613 356.325 249.79 356.14 249.979C355.954 250.168 355.707 250.329 355.399 250.462C355.091 250.594 354.714 250.66 354.27 250.66ZM354.449 249.606C354.913 249.606 355.304 249.515 355.623 249.333C355.944 249.151 356.186 248.915 356.348 248.627C356.514 248.339 356.597 248.035 356.597 247.717V246.643C356.547 246.703 356.438 246.758 356.269 246.807C356.103 246.854 355.911 246.895 355.692 246.932C355.477 246.965 355.266 246.995 355.061 247.021C354.859 247.044 354.694 247.064 354.569 247.081C354.264 247.121 353.979 247.185 353.713 247.275C353.452 247.361 353.239 247.492 353.077 247.668C352.918 247.84 352.838 248.075 352.838 248.373C352.838 248.781 352.989 249.089 353.291 249.298C353.596 249.504 353.982 249.606 354.449 249.606ZM359.912 250.481V242.845H361.085V250.481H359.912ZM360.508 241.572C360.28 241.572 360.082 241.494 359.917 241.339C359.754 241.183 359.673 240.996 359.673 240.777C359.673 240.558 359.754 240.371 359.917 240.215C360.082 240.059 360.28 239.981 360.508 239.981C360.737 239.981 360.933 240.059 361.095 240.215C361.261 240.371 361.344 240.558 361.344 240.777C361.344 240.996 361.261 241.183 361.095 241.339C360.933 241.494 360.737 241.572 360.508 241.572ZM364.407 245.888V250.481H363.234V242.845H364.368V244.038H364.467C364.646 243.65 364.918 243.339 365.282 243.104C365.647 242.865 366.118 242.746 366.694 242.746C367.211 242.746 367.664 242.852 368.051 243.064C368.439 243.273 368.741 243.591 368.956 244.018C369.172 244.443 369.279 244.98 369.279 245.629V250.481H368.106V245.709C368.106 245.109 367.95 244.641 367.639 244.307C367.327 243.969 366.9 243.8 366.356 243.8C365.982 243.8 365.647 243.881 365.352 244.043C365.06 244.206 364.83 244.443 364.661 244.754C364.492 245.066 364.407 245.444 364.407 245.888ZM374.625 250.641C373.889 250.641 373.255 250.478 372.721 250.153C372.191 249.825 371.781 249.368 371.493 248.781C371.208 248.191 371.066 247.505 371.066 246.723C371.066 245.941 371.208 245.251 371.493 244.655C371.781 244.055 372.182 243.588 372.696 243.253C373.213 242.915 373.816 242.746 374.506 242.746C374.904 242.746 375.296 242.812 375.684 242.945C376.072 243.077 376.425 243.293 376.743 243.591C377.061 243.886 377.315 244.277 377.504 244.764C377.693 245.251 377.787 245.851 377.787 246.564V247.061H371.901V246.047H376.594C376.594 245.616 376.508 245.231 376.335 244.893C376.166 244.555 375.924 244.288 375.61 244.093C375.298 243.897 374.93 243.8 374.506 243.8C374.039 243.8 373.634 243.916 373.293 244.148C372.955 244.376 372.695 244.675 372.512 245.043C372.33 245.41 372.239 245.805 372.239 246.226V246.902C372.239 247.479 372.338 247.967 372.537 248.369C372.739 248.766 373.019 249.07 373.377 249.278C373.735 249.484 374.151 249.587 374.625 249.587C374.933 249.587 375.212 249.543 375.46 249.457C375.712 249.368 375.929 249.235 376.112 249.06C376.294 248.881 376.435 248.659 376.534 248.393L377.668 248.712C377.548 249.096 377.348 249.434 377.066 249.726C376.785 250.014 376.436 250.239 376.022 250.402C375.608 250.561 375.142 250.641 374.625 250.641ZM379.572 250.481V242.845H380.705V243.998H380.785C380.924 243.621 381.176 243.314 381.541 243.079C381.905 242.843 382.316 242.726 382.774 242.726C382.86 242.726 382.968 242.727 383.097 242.731C383.226 242.734 383.324 242.739 383.39 242.746V243.939C383.35 243.929 383.259 243.914 383.117 243.894C382.977 243.871 382.83 243.859 382.674 243.859C382.303 243.859 381.972 243.937 381.68 244.093C381.392 244.245 381.163 244.458 380.994 244.729C380.828 244.998 380.745 245.304 380.745 245.649V250.481H379.572ZM390.19 244.555L389.136 244.854C389.07 244.678 388.972 244.507 388.843 244.342C388.717 244.172 388.544 244.033 388.326 243.924C388.107 243.815 387.827 243.76 387.485 243.76C387.018 243.76 386.629 243.868 386.317 244.083C386.009 244.295 385.855 244.565 385.855 244.893C385.855 245.185 385.961 245.415 386.173 245.584C386.385 245.753 386.717 245.894 387.167 246.007L388.301 246.285C388.984 246.451 389.492 246.705 389.827 247.046C390.162 247.384 390.329 247.82 390.329 248.354C390.329 248.791 390.203 249.182 389.951 249.527C389.703 249.872 389.355 250.143 388.907 250.342C388.46 250.541 387.94 250.641 387.346 250.641C386.567 250.641 385.923 250.472 385.412 250.133C384.902 249.795 384.579 249.302 384.443 248.652L385.556 248.373C385.663 248.784 385.863 249.093 386.158 249.298C386.456 249.504 386.846 249.606 387.326 249.606C387.873 249.606 388.307 249.49 388.629 249.258C388.954 249.023 389.116 248.741 389.116 248.413C389.116 248.148 389.023 247.926 388.838 247.747C388.652 247.565 388.367 247.429 387.983 247.339L386.71 247.041C386.011 246.875 385.497 246.619 385.169 246.271C384.844 245.919 384.681 245.48 384.681 244.953C384.681 244.522 384.802 244.141 385.044 243.81C385.29 243.478 385.623 243.218 386.044 243.029C386.468 242.84 386.949 242.746 387.485 242.746C388.241 242.746 388.834 242.911 389.265 243.243C389.699 243.574 390.008 244.012 390.19 244.555Z" fill="#0C6BEA"/>
<ellipse cx="393.195" cy="269.676" rx="12.2968" ry="3.97116" fill="#0C6BEA"/>
<path d="M393.195 294.069C399.987 294.069 405.492 292.291 405.492 290.098V269.605H380.898V290.098C380.898 292.291 386.404 294.069 393.195 294.069Z" fill="#0C6BEA"/>
<path d="M405.993 280.713C405.993 282.907 400.263 284.685 393.196 284.685C386.128 284.685 380.398 282.907 380.398 280.713" stroke="white"/>
<path d="M405.993 269.605C405.993 271.799 400.263 273.577 393.196 273.577C386.128 273.577 380.398 271.799 380.398 269.605" stroke="white"/>
<path d="M254.6 240.327L249.6 237.44V243.214L254.6 240.327ZM230.049 217.941V159H229.049V217.941H230.049ZM251.935 239.827C239.848 239.827 230.049 230.029 230.049 217.941H229.049C229.049 230.581 239.296 240.827 251.935 240.827V239.827Z" fill="#0C6BEA"/>
<path d="M204.5 240.327L209.5 237.44V243.214L204.5 240.327ZM229.05 217.941V159H230.05V217.941H229.05ZM207.164 239.827C219.252 239.827 229.05 230.029 229.05 217.941H230.05C230.05 230.581 219.804 240.827 207.164 240.827V239.827Z" fill="#0C6BEA"/>
</svg>
