<svg width="459" height="458" viewBox="0 0 459 458" fill="none" xmlns="http://www.w3.org/2000/svg">
<path d="M0.5 18C0.5 8.05889 8.55888 0 18.5 0H440.5C450.441 0 458.5 8.05888 458.5 18V440C458.5 449.941 450.441 458 440.5 458H18.5C8.55889 458 0.5 449.941 0.5 440V18Z" fill="white"/>
<rect x="215.513" y="393.5" width="23.9891" height="23.9891" rx="11.9945" fill="#0C6BEA" stroke="#0C6BEA"/>
<path d="M237.406 413.406C235.121 410.444 231.537 408.536 227.506 408.536C223.476 408.536 219.891 410.444 217.606 413.406" stroke="white"/>
<rect x="222.668" y="396.265" width="9.67803" height="9.67803" rx="4.83901" stroke="white"/>
<rect x="195" y="420.895" width="23.9891" height="23.9891" rx="11.9945" fill="#0C6BEA" stroke="#0C6BEA"/>
<path d="M216.893 440.801C214.609 437.839 211.024 435.931 206.994 435.931C202.963 435.931 199.378 437.839 197.094 440.801" stroke="white"/>
<rect x="202.155" y="423.66" width="9.67803" height="9.67803" rx="4.83901" stroke="white"/>
<rect x="239.989" y="420.895" width="23.9891" height="23.9891" rx="11.9945" fill="#0C6BEA" stroke="#0C6BEA"/>
<path d="M261.883 440.801C259.598 437.839 256.013 435.931 251.983 435.931C247.952 435.931 244.368 437.839 242.083 440.801" stroke="white"/>
<rect x="247.145" y="423.66" width="9.67803" height="9.67803" rx="4.83901" stroke="white"/>
<rect x="138" y="12.5" width="182.265" height="95.2699" rx="11.5" fill="white" stroke="#0C6BEA"/>
<rect x="211.586" y="24.54" width="35.0948" height="35.0948" rx="17.5474" fill="#0C6BEA" stroke="#0C6BEA"/>
<path d="M243.432 53.5158C240.132 49.2369 234.954 46.4805 229.132 46.4805C223.311 46.4805 218.133 49.2369 214.833 53.5158" stroke="white" stroke-width="1.5"/>
<rect x="222.144" y="28.7559" width="13.9792" height="13.9792" rx="6.98958" stroke="white" stroke-width="1.5"/>
<path d="M198.667 79.8398V69.658H202.107C202.902 69.658 203.555 69.7939 204.066 70.0657C204.576 70.3342 204.954 70.7037 205.199 71.1744C205.444 71.645 205.567 72.1803 205.567 72.7802C205.567 73.3801 205.444 73.912 205.199 74.3761C204.954 74.8401 204.578 75.2047 204.071 75.4698C203.564 75.7317 202.916 75.8626 202.127 75.8626H199.343V74.7489H202.087C202.631 74.7489 203.068 74.6694 203.4 74.5103C203.734 74.3512 203.976 74.1258 204.125 73.8342C204.278 73.5392 204.354 73.1879 204.354 72.7802C204.354 72.3725 204.278 72.0162 204.125 71.7113C203.973 71.4064 203.729 71.171 203.395 71.0053C203.06 70.8363 202.617 70.7518 202.067 70.7518H199.9V79.8398H198.667ZM203.459 75.266L205.965 79.8398H204.533L202.067 75.266H203.459ZM210.582 79.9989C209.846 79.9989 209.212 79.8365 208.678 79.5117C208.148 79.1836 207.738 78.7262 207.45 78.1396C207.165 77.5496 207.023 76.8635 207.023 76.0813C207.023 75.2991 207.165 74.6097 207.45 74.0131C207.738 73.4132 208.14 72.9459 208.653 72.6112C209.17 72.2731 209.773 72.104 210.463 72.104C210.861 72.104 211.253 72.1703 211.641 72.3029C212.029 72.4355 212.382 72.6509 212.7 72.9492C213.018 73.2442 213.272 73.6353 213.461 74.1225C213.65 74.6097 213.744 75.2096 213.744 75.9222V76.4194H207.858V75.4052H212.551C212.551 74.9743 212.465 74.5898 212.292 74.2518C212.123 73.9137 211.881 73.6469 211.567 73.4513C211.255 73.2558 210.887 73.158 210.463 73.158C209.996 73.158 209.591 73.274 209.25 73.506C208.912 73.7347 208.652 74.033 208.469 74.4009C208.287 74.7688 208.196 75.1632 208.196 75.5842V76.2603C208.196 76.837 208.295 77.3259 208.494 77.7269C208.696 78.1246 208.976 78.4279 209.334 78.6367C209.692 78.8422 210.108 78.945 210.582 78.945C210.89 78.945 211.169 78.9019 211.417 78.8157C211.669 78.7262 211.886 78.5936 212.069 78.418C212.251 78.239 212.392 78.0169 212.491 77.7518L213.625 78.07C213.506 78.4544 213.305 78.7925 213.023 79.0842C212.742 79.3725 212.394 79.5979 211.979 79.7603C211.565 79.9194 211.099 79.9989 210.582 79.9989ZM217.776 80.0188C217.292 80.0188 216.853 79.9277 216.459 79.7454C216.064 79.5598 215.751 79.293 215.519 78.945C215.287 78.5936 215.171 78.1694 215.171 77.6722C215.171 77.2347 215.257 76.8801 215.43 76.6083C215.602 76.3332 215.832 76.1178 216.121 75.962C216.409 75.8062 216.727 75.6902 217.075 75.614C217.426 75.5344 217.779 75.4715 218.134 75.4251C218.598 75.3654 218.974 75.3207 219.263 75.2908C219.554 75.2577 219.766 75.203 219.899 75.1268C220.035 75.0505 220.103 74.918 220.103 74.729V74.6893C220.103 74.1987 219.969 73.8176 219.7 73.5458C219.435 73.274 219.032 73.1381 218.492 73.1381C217.932 73.1381 217.493 73.2608 217.175 73.506C216.856 73.7513 216.633 74.0131 216.503 74.2915L215.39 73.8938C215.589 73.4298 215.854 73.0685 216.185 72.81C216.52 72.5482 216.885 72.3659 217.279 72.2631C217.677 72.1571 218.068 72.104 218.452 72.104C218.698 72.104 218.979 72.1339 219.297 72.1935C219.619 72.2499 219.929 72.3675 220.227 72.5465C220.529 72.7255 220.779 72.9956 220.978 73.3569C221.177 73.7182 221.276 74.2021 221.276 74.8086V79.8398H220.103V78.8058H220.043C219.964 78.9715 219.831 79.1488 219.645 79.3377C219.46 79.5266 219.213 79.6874 218.905 79.82C218.596 79.9525 218.22 80.0188 217.776 80.0188ZM217.955 78.9648C218.419 78.9648 218.81 78.8737 219.128 78.6914C219.45 78.5091 219.692 78.2738 219.854 77.9854C220.02 77.6971 220.103 77.3938 220.103 77.0756V76.0018C220.053 76.0614 219.944 76.1161 219.775 76.1658C219.609 76.2122 219.417 76.2537 219.198 76.2901C218.983 76.3233 218.772 76.3531 218.567 76.3796C218.364 76.4028 218.2 76.4227 218.074 76.4393C217.769 76.479 217.484 76.5437 217.219 76.6332C216.957 76.7193 216.745 76.8503 216.583 77.0259C216.424 77.1983 216.344 77.4336 216.344 77.7319C216.344 78.1396 216.495 78.4478 216.797 78.6566C217.102 78.8621 217.488 78.9648 217.955 78.9648ZM224.591 69.658V79.8398H223.418V69.658H224.591ZM231.115 74.9279V76.0217H226.66V74.9279H231.115ZM236.5 72.2035V73.1978H232.543V72.2035H236.5ZM233.696 70.3739H234.87V77.6523C234.87 77.9838 234.918 78.2324 235.014 78.3981C235.113 78.5605 235.239 78.6699 235.392 78.7262C235.547 78.7792 235.712 78.8058 235.884 78.8058C236.013 78.8058 236.119 78.7991 236.202 78.7859C236.285 78.7693 236.351 78.756 236.401 78.7461L236.64 79.8001C236.56 79.8299 236.449 79.8597 236.306 79.8896C236.164 79.9227 235.983 79.9393 235.765 79.9393C235.433 79.9393 235.108 79.868 234.79 79.7255C234.475 79.583 234.213 79.3659 234.005 79.0742C233.799 78.7826 233.696 78.4147 233.696 77.9705V70.3739ZM238.265 79.8398V72.2035H239.439V79.8398H238.265ZM238.862 70.9308C238.633 70.9308 238.436 70.8529 238.27 70.6971C238.108 70.5413 238.027 70.354 238.027 70.1353C238.027 69.9165 238.108 69.7293 238.27 69.5735C238.436 69.4177 238.633 69.3398 238.862 69.3398C239.091 69.3398 239.286 69.4177 239.449 69.5735C239.614 69.7293 239.697 69.9165 239.697 70.1353C239.697 70.354 239.614 70.5413 239.449 70.6971C239.286 70.8529 239.091 70.9308 238.862 70.9308ZM241.588 79.8398V72.2035H242.721V73.3967H242.82C242.98 72.989 243.236 72.6725 243.591 72.4471C243.946 72.2184 244.372 72.104 244.869 72.104C245.373 72.104 245.792 72.2184 246.127 72.4471C246.465 72.6725 246.728 72.989 246.917 73.3967H246.997C247.192 73.0022 247.485 72.689 247.877 72.457C248.268 72.2217 248.737 72.104 249.284 72.104C249.966 72.104 250.525 72.3178 250.959 72.7454C251.393 73.1696 251.61 73.8308 251.61 74.729V79.8398H250.437V74.729C250.437 74.1656 250.283 73.7629 249.975 73.521C249.666 73.279 249.303 73.158 248.886 73.158C248.349 73.158 247.933 73.3204 247.638 73.6452C247.343 73.9667 247.195 74.3744 247.195 74.8683V79.8398H246.002V74.6097C246.002 74.1755 245.861 73.8259 245.58 73.5607C245.298 73.2923 244.935 73.158 244.491 73.158C244.186 73.158 243.901 73.2392 243.636 73.4016C243.374 73.564 243.162 73.7894 242.999 74.0778C242.84 74.3628 242.761 74.6926 242.761 75.0671V79.8398H241.588ZM256.957 79.9989C256.221 79.9989 255.587 79.8365 255.053 79.5117C254.523 79.1836 254.113 78.7262 253.825 78.1396C253.54 77.5496 253.398 76.8635 253.398 76.0813C253.398 75.2991 253.54 74.6097 253.825 74.0131C254.113 73.4132 254.515 72.9459 255.028 72.6112C255.545 72.2731 256.148 72.104 256.838 72.104C257.236 72.104 257.628 72.1703 258.016 72.3029C258.404 72.4355 258.757 72.6509 259.075 72.9492C259.393 73.2442 259.647 73.6353 259.836 74.1225C260.025 74.6097 260.119 75.2096 260.119 75.9222V76.4194H254.233V75.4052H258.926C258.926 74.9743 258.84 74.5898 258.667 74.2518C258.498 73.9137 258.256 73.6469 257.942 73.4513C257.63 73.2558 257.262 73.158 256.838 73.158C256.371 73.158 255.966 73.274 255.625 73.506C255.287 73.7347 255.027 74.033 254.844 74.4009C254.662 74.7688 254.571 75.1632 254.571 75.5842V76.2603C254.571 76.837 254.67 77.3259 254.869 77.7269C255.071 78.1246 255.351 78.4279 255.709 78.6367C256.067 78.8422 256.483 78.945 256.957 78.945C257.265 78.945 257.544 78.9019 257.792 78.8157C258.044 78.7262 258.261 78.5936 258.444 78.418C258.626 78.239 258.767 78.0169 258.866 77.7518L260 78.07C259.881 78.4544 259.68 78.7925 259.398 79.0842C259.117 79.3725 258.769 79.5979 258.354 79.7603C257.94 79.9194 257.474 79.9989 256.957 79.9989ZM190.406 95.9989C189.69 95.9989 189.073 95.8299 188.556 95.4918C188.039 95.1538 187.641 94.6881 187.363 94.0948C187.085 93.5015 186.945 92.8237 186.945 92.0614C186.945 91.2859 187.088 90.6014 187.373 90.0082C187.661 89.4116 188.062 88.9459 188.576 88.6112C189.093 88.2731 189.696 88.104 190.386 88.104C190.923 88.104 191.407 88.2035 191.837 88.4023C192.268 88.6012 192.621 88.8796 192.896 89.2376C193.171 89.5955 193.342 90.0131 193.408 90.4904H192.235C192.146 90.1424 191.947 89.8342 191.639 89.5657C191.334 89.2939 190.923 89.158 190.406 89.158C189.948 89.158 189.547 89.2773 189.203 89.516C188.861 89.7513 188.594 90.0844 188.402 90.5153C188.213 90.9428 188.119 91.445 188.119 92.0217C188.119 92.6116 188.211 93.1254 188.397 93.5629C188.586 94.0004 188.851 94.3401 189.193 94.582C189.537 94.824 189.942 94.945 190.406 94.945C190.711 94.945 190.987 94.8919 191.236 94.7859C191.484 94.6798 191.695 94.5273 191.867 94.3285C192.04 94.1296 192.162 93.891 192.235 93.6126H193.408C193.342 94.0633 193.178 94.4693 192.916 94.8306C192.658 95.1886 192.315 95.4736 191.887 95.6857C191.463 95.8945 190.969 95.9989 190.406 95.9989ZM198.226 95.9989C197.537 95.9989 196.932 95.8349 196.411 95.5067C195.894 95.1786 195.49 94.7196 195.198 94.1296C194.91 93.5397 194.766 92.8503 194.766 92.0614C194.766 91.266 194.91 90.5716 195.198 89.9783C195.49 89.3851 195.894 88.9244 196.411 88.5962C196.932 88.2681 197.537 88.104 198.226 88.104C198.915 88.104 199.519 88.2681 200.036 88.5962C200.556 88.9244 200.96 89.3851 201.249 89.9783C201.54 90.5716 201.686 91.266 201.686 92.0614C201.686 92.8503 201.54 93.5397 201.249 94.1296C200.96 94.7196 200.556 95.1786 200.036 95.5067C199.519 95.8349 198.915 95.9989 198.226 95.9989ZM198.226 94.945C198.75 94.945 199.18 94.8107 199.519 94.5423C199.857 94.2738 200.107 93.9208 200.269 93.4833C200.432 93.0458 200.513 92.5719 200.513 92.0614C200.513 91.551 200.432 91.0754 200.269 90.6346C200.107 90.1938 199.857 89.8375 199.519 89.5657C199.18 89.2939 198.75 89.158 198.226 89.158C197.702 89.158 197.271 89.2939 196.933 89.5657C196.595 89.8375 196.345 90.1938 196.183 90.6346C196.02 91.0754 195.939 91.551 195.939 92.0614C195.939 92.5719 196.02 93.0458 196.183 93.4833C196.345 93.9208 196.595 94.2738 196.933 94.5423C197.271 94.8107 197.702 94.945 198.226 94.945ZM204.65 85.658V95.8398H203.477V85.658H204.65ZM207.973 85.658V95.8398H206.799V85.658H207.973ZM212.369 96.0188C211.885 96.0188 211.446 95.9277 211.051 95.7454C210.657 95.5598 210.344 95.293 210.112 94.945C209.88 94.5936 209.764 94.1694 209.764 93.6722C209.764 93.2347 209.85 92.8801 210.022 92.6083C210.195 92.3332 210.425 92.1178 210.713 91.962C211.002 91.8062 211.32 91.6902 211.668 91.614C212.019 91.5344 212.372 91.4715 212.727 91.4251C213.191 91.3654 213.567 91.3207 213.855 91.2908C214.147 91.2577 214.359 91.203 214.492 91.1268C214.628 91.0505 214.696 90.918 214.696 90.729V90.6893C214.696 90.1987 214.561 89.8176 214.293 89.5458C214.028 89.274 213.625 89.1381 213.085 89.1381C212.525 89.1381 212.085 89.2608 211.767 89.506C211.449 89.7513 211.225 90.0131 211.096 90.2915L209.983 89.8938C210.181 89.4298 210.447 89.0685 210.778 88.81C211.113 88.5482 211.477 88.3659 211.872 88.2631C212.269 88.1571 212.661 88.104 213.045 88.104C213.29 88.104 213.572 88.1339 213.89 88.1935C214.212 88.2499 214.522 88.3675 214.82 88.5465C215.121 88.7255 215.372 88.9956 215.571 89.3569C215.769 89.7182 215.869 90.2021 215.869 90.8086V95.8398H214.696V94.8058H214.636C214.556 94.9715 214.424 95.1488 214.238 95.3377C214.053 95.5266 213.806 95.6874 213.497 95.82C213.189 95.9525 212.813 96.0188 212.369 96.0188ZM212.548 94.9648C213.012 94.9648 213.403 94.8737 213.721 94.6914C214.043 94.5091 214.285 94.2738 214.447 93.9854C214.613 93.6971 214.696 93.3938 214.696 93.0756V92.0018C214.646 92.0614 214.536 92.1161 214.367 92.1658C214.202 92.2122 214.009 92.2537 213.791 92.2901C213.575 92.3233 213.365 92.3531 213.159 92.3796C212.957 92.4028 212.793 92.4227 212.667 92.4393C212.362 92.479 212.077 92.5437 211.812 92.6332C211.55 92.7193 211.338 92.8503 211.176 93.0259C211.017 93.1983 210.937 93.4336 210.937 93.7319C210.937 94.1396 211.088 94.4478 211.389 94.6566C211.694 94.8621 212.081 94.9648 212.548 94.9648ZM218.169 95.8398V85.658H219.343V89.4165H219.442C219.528 89.284 219.648 89.1149 219.8 88.9094C219.956 88.7006 220.178 88.515 220.466 88.3526C220.758 88.1869 221.152 88.104 221.65 88.104C222.293 88.104 222.859 88.2648 223.35 88.5863C223.84 88.9078 224.223 89.3635 224.498 89.9535C224.773 90.5434 224.911 91.2395 224.911 92.0415C224.911 92.8503 224.773 93.5513 224.498 94.1445C224.223 94.7345 223.842 95.1919 223.355 95.5167C222.868 95.8382 222.306 95.9989 221.669 95.9989C221.179 95.9989 220.786 95.9177 220.491 95.7553C220.196 95.5896 219.969 95.4023 219.81 95.1935C219.651 94.9814 219.528 94.8058 219.442 94.6665H219.303V95.8398H218.169ZM219.323 92.0217C219.323 92.5984 219.407 93.1071 219.576 93.5479C219.745 93.9854 219.992 94.3285 220.317 94.5771C220.642 94.8223 221.04 94.945 221.51 94.945C222.001 94.945 222.41 94.8157 222.738 94.5572C223.07 94.2953 223.318 93.944 223.484 93.5032C223.653 93.0591 223.738 92.5652 223.738 92.0217C223.738 91.4847 223.655 91.0008 223.489 90.57C223.327 90.1358 223.08 89.7927 222.748 89.5408C222.42 89.2856 222.008 89.158 221.51 89.158C221.033 89.158 220.632 89.279 220.307 89.521C219.982 89.7596 219.737 90.0943 219.571 90.5252C219.406 90.9528 219.323 91.4516 219.323 92.0217ZM229.808 95.9989C229.119 95.9989 228.514 95.8349 227.993 95.5067C227.476 95.1786 227.072 94.7196 226.78 94.1296C226.492 93.5397 226.348 92.8503 226.348 92.0614C226.348 91.266 226.492 90.5716 226.78 89.9783C227.072 89.3851 227.476 88.9244 227.993 88.5962C228.514 88.2681 229.119 88.104 229.808 88.104C230.497 88.104 231.101 88.2681 231.618 88.5962C232.138 88.9244 232.542 89.3851 232.831 89.9783C233.122 90.5716 233.268 91.266 233.268 92.0614C233.268 92.8503 233.122 93.5397 232.831 94.1296C232.542 94.7196 232.138 95.1786 231.618 95.5067C231.101 95.8349 230.497 95.9989 229.808 95.9989ZM229.808 94.945C230.332 94.945 230.763 94.8107 231.101 94.5423C231.439 94.2738 231.689 93.9208 231.851 93.4833C232.014 93.0458 232.095 92.5719 232.095 92.0614C232.095 91.551 232.014 91.0754 231.851 90.6346C231.689 90.1938 231.439 89.8375 231.101 89.5657C230.763 89.2939 230.332 89.158 229.808 89.158C229.284 89.158 228.853 89.2939 228.515 89.5657C228.177 89.8375 227.927 90.1938 227.765 90.6346C227.602 91.0754 227.521 91.551 227.521 92.0614C227.521 92.5719 227.602 93.0458 227.765 93.4833C227.927 93.9208 228.177 94.2738 228.515 94.5423C228.853 94.8107 229.284 94.945 229.808 94.945ZM235.059 95.8398V88.2035H236.193V89.3569H236.272C236.411 88.979 236.663 88.6725 237.028 88.4371C237.393 88.2018 237.804 88.0842 238.261 88.0842C238.347 88.0842 238.455 88.0858 238.584 88.0891C238.713 88.0924 238.811 88.0974 238.877 88.104V89.2972C238.838 89.2873 238.746 89.2724 238.604 89.2525C238.465 89.2293 238.317 89.2177 238.161 89.2177C237.79 89.2177 237.459 89.2956 237.167 89.4513C236.879 89.6038 236.65 89.8159 236.481 90.0877C236.315 90.3562 236.233 90.6628 236.233 91.0075V95.8398H235.059ZM242.515 96.0188C242.031 96.0188 241.592 95.9277 241.198 95.7454C240.803 95.5598 240.49 95.293 240.258 94.945C240.026 94.5936 239.91 94.1694 239.91 93.6722C239.91 93.2347 239.996 92.8801 240.169 92.6083C240.341 92.3332 240.571 92.1178 240.86 91.962C241.148 91.8062 241.466 91.6902 241.814 91.614C242.166 91.5344 242.519 91.4715 242.873 91.4251C243.337 91.3654 243.714 91.3207 244.002 91.2908C244.294 91.2577 244.506 91.203 244.638 91.1268C244.774 91.0505 244.842 90.918 244.842 90.729V90.6893C244.842 90.1987 244.708 89.8176 244.439 89.5458C244.174 89.274 243.772 89.1381 243.231 89.1381C242.671 89.1381 242.232 89.2608 241.914 89.506C241.596 89.7513 241.372 90.0131 241.243 90.2915L240.129 89.8938C240.328 89.4298 240.593 89.0685 240.924 88.81C241.259 88.5482 241.624 88.3659 242.018 88.2631C242.416 88.1571 242.807 88.104 243.191 88.104C243.437 88.104 243.718 88.1339 244.037 88.1935C244.358 88.2499 244.668 88.3675 244.966 88.5465C245.268 88.7255 245.518 88.9956 245.717 89.3569C245.916 89.7182 246.015 90.2021 246.015 90.8086V95.8398H244.842V94.8058H244.782C244.703 94.9715 244.57 95.1488 244.385 95.3377C244.199 95.5266 243.952 95.6874 243.644 95.82C243.336 95.9525 242.959 96.0188 242.515 96.0188ZM242.694 94.9648C243.158 94.9648 243.549 94.8737 243.868 94.6914C244.189 94.5091 244.431 94.2738 244.593 93.9854C244.759 93.6971 244.842 93.3938 244.842 93.0756V92.0018C244.792 92.0614 244.683 92.1161 244.514 92.1658C244.348 92.2122 244.156 92.2537 243.937 92.2901C243.722 92.3233 243.511 92.3531 243.306 92.3796C243.104 92.4028 242.94 92.4227 242.814 92.4393C242.509 92.479 242.224 92.5437 241.959 92.6332C241.697 92.7193 241.485 92.8503 241.322 93.0259C241.163 93.1983 241.084 93.4336 241.084 93.7319C241.084 94.1396 241.234 94.4478 241.536 94.6566C241.841 94.8621 242.227 94.9648 242.694 94.9648ZM251.478 88.2035V89.1978H247.521V88.2035H251.478ZM248.674 86.3739H249.847V93.6523C249.847 93.9838 249.895 94.2324 249.991 94.3981C250.091 94.5605 250.217 94.6699 250.369 94.7262C250.525 94.7792 250.689 94.8058 250.861 94.8058C250.991 94.8058 251.097 94.7991 251.18 94.7859C251.262 94.7693 251.329 94.756 251.378 94.7461L251.617 95.8001C251.538 95.8299 251.427 95.8597 251.284 95.8896C251.141 95.9227 250.961 95.9393 250.742 95.9393C250.411 95.9393 250.086 95.868 249.768 95.7255C249.453 95.583 249.191 95.3659 248.982 95.0742C248.777 94.7826 248.674 94.4147 248.674 93.9705V86.3739ZM253.243 95.8398V88.2035H254.416V95.8398H253.243ZM253.839 86.9308C253.611 86.9308 253.414 86.8529 253.248 86.6971C253.085 86.5413 253.004 86.354 253.004 86.1353C253.004 85.9165 253.085 85.7293 253.248 85.5735C253.414 85.4177 253.611 85.3398 253.839 85.3398C254.068 85.3398 254.264 85.4177 254.426 85.5735C254.592 85.7293 254.675 85.9165 254.675 86.1353C254.675 86.354 254.592 86.5413 254.426 86.6971C254.264 86.8529 254.068 86.9308 253.839 86.9308ZM259.667 95.9989C258.978 95.9989 258.373 95.8349 257.853 95.5067C257.336 95.1786 256.931 94.7196 256.64 94.1296C256.351 93.5397 256.207 92.8503 256.207 92.0614C256.207 91.266 256.351 90.5716 256.64 89.9783C256.931 89.3851 257.336 88.9244 257.853 88.5962C258.373 88.2681 258.978 88.104 259.667 88.104C260.357 88.104 260.96 88.2681 261.477 88.5962C261.997 88.9244 262.402 89.3851 262.69 89.9783C262.982 90.5716 263.128 91.266 263.128 92.0614C263.128 92.8503 262.982 93.5397 262.69 94.1296C262.402 94.7196 261.997 95.1786 261.477 95.5067C260.96 95.8349 260.357 95.9989 259.667 95.9989ZM259.667 94.945C260.191 94.945 260.622 94.8107 260.96 94.5423C261.298 94.2738 261.548 93.9208 261.711 93.4833C261.873 93.0458 261.954 92.5719 261.954 92.0614C261.954 91.551 261.873 91.0754 261.711 90.6346C261.548 90.1938 261.298 89.8375 260.96 89.5657C260.622 89.2939 260.191 89.158 259.667 89.158C259.144 89.158 258.713 89.2939 258.375 89.5657C258.037 89.8375 257.786 90.1938 257.624 90.6346C257.462 91.0754 257.38 91.551 257.38 92.0614C257.38 92.5719 257.462 93.0458 257.624 93.4833C257.786 93.9208 258.037 94.2738 258.375 94.5423C258.713 94.8107 259.144 94.945 259.667 94.945ZM266.092 91.2461V95.8398H264.919V88.2035H266.052V89.3967H266.152C266.331 89.0089 266.602 88.6973 266.967 88.462C267.331 88.2234 267.802 88.104 268.379 88.104C268.896 88.104 269.348 88.2101 269.736 88.4222C270.124 88.631 270.425 88.9492 270.641 89.3768C270.856 89.801 270.964 90.3379 270.964 90.9876V95.8398H269.791V91.0671C269.791 90.4672 269.635 89.9999 269.323 89.6651C269.012 89.3271 268.584 89.158 268.041 89.158C267.666 89.158 267.331 89.2392 267.036 89.4016C266.745 89.564 266.514 89.801 266.345 90.1126C266.176 90.4241 266.092 90.802 266.092 91.2461Z" fill="#0C6BEA"/>
<rect x="138" y="175.738" width="182.265" height="186.677" rx="11.5" fill="white" stroke="#0C6BEA"/>
<path d="M174.576 315.697C174.516 315.193 174.274 314.802 173.85 314.524C173.426 314.245 172.905 314.106 172.289 314.106C171.838 314.106 171.444 314.179 171.106 314.325C170.771 314.471 170.509 314.671 170.32 314.927C170.135 315.182 170.042 315.472 170.042 315.797C170.042 316.068 170.106 316.302 170.236 316.498C170.368 316.69 170.537 316.851 170.743 316.98C170.948 317.106 171.164 317.21 171.389 317.293C171.614 317.373 171.822 317.437 172.011 317.487L173.045 317.765C173.31 317.835 173.605 317.931 173.93 318.054C174.258 318.176 174.571 318.344 174.869 318.556C175.171 318.765 175.419 319.033 175.615 319.361C175.811 319.689 175.908 320.092 175.908 320.569C175.908 321.119 175.764 321.617 175.476 322.061C175.191 322.505 174.773 322.858 174.223 323.12C173.676 323.382 173.012 323.512 172.229 323.512C171.5 323.512 170.869 323.395 170.335 323.159C169.805 322.924 169.387 322.596 169.082 322.175C168.781 321.754 168.61 321.265 168.57 320.708H169.843C169.876 321.093 170.005 321.411 170.231 321.663C170.459 321.912 170.748 322.097 171.096 322.22C171.447 322.339 171.825 322.399 172.229 322.399C172.7 322.399 173.123 322.323 173.497 322.17C173.872 322.014 174.168 321.799 174.387 321.524C174.606 321.245 174.715 320.921 174.715 320.549C174.715 320.211 174.621 319.936 174.432 319.724C174.243 319.512 173.994 319.34 173.686 319.207C173.378 319.074 173.045 318.958 172.687 318.859L171.434 318.501C170.638 318.272 170.009 317.946 169.545 317.522C169.081 317.097 168.849 316.542 168.849 315.856C168.849 315.286 169.003 314.789 169.311 314.365C169.623 313.937 170.04 313.606 170.564 313.37C171.091 313.132 171.679 313.012 172.329 313.012C172.985 313.012 173.568 313.13 174.079 313.365C174.589 313.597 174.994 313.916 175.292 314.32C175.593 314.724 175.753 315.183 175.769 315.697H174.576ZM180.879 323.493C180.189 323.493 179.584 323.329 179.064 323C178.547 322.672 178.143 322.213 177.851 321.623C177.563 321.033 177.418 320.344 177.418 319.555C177.418 318.76 177.563 318.065 177.851 317.472C178.143 316.879 178.547 316.418 179.064 316.09C179.584 315.762 180.189 315.598 180.879 315.598C181.568 315.598 182.171 315.762 182.688 316.09C183.209 316.418 183.613 316.879 183.901 317.472C184.193 318.065 184.339 318.76 184.339 319.555C184.339 320.344 184.193 321.033 183.901 321.623C183.613 322.213 183.209 322.672 182.688 323C182.171 323.329 181.568 323.493 180.879 323.493ZM180.879 322.439C181.402 322.439 181.833 322.304 182.171 322.036C182.509 321.767 182.76 321.414 182.922 320.977C183.084 320.539 183.166 320.066 183.166 319.555C183.166 319.045 183.084 318.569 182.922 318.128C182.76 317.687 182.509 317.331 182.171 317.059C181.833 316.788 181.402 316.652 180.879 316.652C180.355 316.652 179.924 316.788 179.586 317.059C179.248 317.331 178.998 317.687 178.835 318.128C178.673 318.569 178.592 319.045 178.592 319.555C178.592 320.066 178.673 320.539 178.835 320.977C178.998 321.414 179.248 321.767 179.586 322.036C179.924 322.304 180.355 322.439 180.879 322.439ZM190.942 320.211V315.697H192.116V323.333H190.942V322.041H190.863C190.684 322.429 190.405 322.758 190.028 323.03C189.65 323.299 189.172 323.433 188.596 323.433C188.119 323.433 187.694 323.329 187.323 323.12C186.952 322.908 186.66 322.589 186.448 322.165C186.236 321.738 186.13 321.199 186.13 320.549V315.697H187.303V320.47C187.303 321.027 187.459 321.471 187.771 321.802C188.085 322.134 188.486 322.299 188.974 322.299C189.265 322.299 189.562 322.225 189.864 322.076C190.168 321.927 190.424 321.698 190.629 321.39C190.838 321.081 190.942 320.689 190.942 320.211ZM194.265 323.333V315.697H195.398V316.851H195.478C195.617 316.473 195.869 316.166 196.233 315.931C196.598 315.695 197.009 315.578 197.466 315.578C197.553 315.578 197.66 315.579 197.79 315.583C197.919 315.586 198.017 315.591 198.083 315.598V316.791C198.043 316.781 197.952 316.766 197.809 316.746C197.67 316.723 197.523 316.711 197.367 316.711C196.996 316.711 196.664 316.789 196.373 316.945C196.084 317.097 195.856 317.31 195.687 317.581C195.521 317.85 195.438 318.156 195.438 318.501V323.333H194.265ZM202.343 323.493C201.628 323.493 201.011 323.324 200.494 322.985C199.977 322.647 199.579 322.182 199.301 321.588C199.022 320.995 198.883 320.317 198.883 319.555C198.883 318.78 199.026 318.095 199.311 317.502C199.599 316.905 200 316.44 200.514 316.105C201.031 315.767 201.634 315.598 202.324 315.598C202.861 315.598 203.344 315.697 203.775 315.896C204.206 316.095 204.559 316.373 204.834 316.731C205.109 317.089 205.28 317.507 205.346 317.984H204.173C204.084 317.636 203.885 317.328 203.576 317.059C203.272 316.788 202.861 316.652 202.343 316.652C201.886 316.652 201.485 316.771 201.14 317.01C200.799 317.245 200.532 317.578 200.34 318.009C200.151 318.436 200.057 318.939 200.057 319.515C200.057 320.105 200.149 320.619 200.335 321.057C200.524 321.494 200.789 321.834 201.13 322.076C201.475 322.318 201.879 322.439 202.343 322.439C202.648 322.439 202.925 322.386 203.174 322.28C203.422 322.173 203.633 322.021 203.805 321.822C203.977 321.623 204.1 321.385 204.173 321.106H205.346C205.28 321.557 205.116 321.963 204.854 322.324C204.596 322.682 204.253 322.967 203.825 323.179C203.401 323.388 202.907 323.493 202.343 323.493ZM210.263 323.493C209.527 323.493 208.893 323.33 208.359 323.005C207.829 322.677 207.419 322.22 207.131 321.633C206.846 321.043 206.704 320.357 206.704 319.575C206.704 318.793 206.846 318.103 207.131 317.507C207.419 316.907 207.821 316.44 208.334 316.105C208.851 315.767 209.455 315.598 210.144 315.598C210.542 315.598 210.934 315.664 211.322 315.797C211.71 315.929 212.063 316.145 212.381 316.443C212.699 316.738 212.953 317.129 213.142 317.616C213.331 318.103 213.425 318.703 213.425 319.416V319.913H207.539V318.899H212.232C212.232 318.468 212.146 318.083 211.973 317.745C211.804 317.407 211.562 317.141 211.248 316.945C210.936 316.749 210.568 316.652 210.144 316.652C209.677 316.652 209.272 316.768 208.931 317C208.593 317.228 208.333 317.527 208.15 317.895C207.968 318.262 207.877 318.657 207.877 319.078V319.754C207.877 320.331 207.976 320.82 208.175 321.221C208.377 321.618 208.657 321.922 209.015 322.13C209.373 322.336 209.789 322.439 210.263 322.439C210.571 322.439 210.85 322.396 211.098 322.309C211.35 322.22 211.567 322.087 211.75 321.912C211.932 321.733 212.073 321.511 212.172 321.245L213.306 321.564C213.187 321.948 212.986 322.286 212.704 322.578C212.423 322.866 212.075 323.092 211.66 323.254C211.246 323.413 210.78 323.493 210.263 323.493ZM178.623 339.493C177.907 339.493 177.29 339.324 176.773 338.985C176.256 338.647 175.859 338.182 175.58 337.588C175.302 336.995 175.163 336.317 175.163 335.555C175.163 334.78 175.305 334.095 175.59 333.502C175.878 332.905 176.279 332.44 176.793 332.105C177.31 331.767 177.913 331.598 178.603 331.598C179.14 331.598 179.624 331.697 180.055 331.896C180.485 332.095 180.838 332.373 181.114 332.731C181.389 333.089 181.559 333.507 181.626 333.984H180.452C180.363 333.636 180.164 333.328 179.856 333.059C179.551 332.788 179.14 332.652 178.623 332.652C178.165 332.652 177.764 332.771 177.42 333.01C177.078 333.245 176.811 333.578 176.619 334.009C176.43 334.436 176.336 334.939 176.336 335.515C176.336 336.105 176.429 336.619 176.614 337.057C176.803 337.494 177.068 337.834 177.41 338.076C177.754 338.318 178.159 338.439 178.623 338.439C178.928 338.439 179.204 338.386 179.453 338.28C179.702 338.173 179.912 338.021 180.084 337.822C180.257 337.623 180.379 337.385 180.452 337.106H181.626C181.559 337.557 181.395 337.963 181.133 338.324C180.875 338.682 180.532 338.967 180.104 339.179C179.68 339.388 179.186 339.493 178.623 339.493ZM186.443 339.493C185.754 339.493 185.149 339.329 184.628 339C184.111 338.672 183.707 338.213 183.415 337.623C183.127 337.033 182.983 336.344 182.983 335.555C182.983 334.76 183.127 334.065 183.415 333.472C183.707 332.879 184.111 332.418 184.628 332.09C185.149 331.762 185.754 331.598 186.443 331.598C187.132 331.598 187.736 331.762 188.253 332.09C188.773 332.418 189.177 332.879 189.466 333.472C189.757 334.065 189.903 334.76 189.903 335.555C189.903 336.344 189.757 337.033 189.466 337.623C189.177 338.213 188.773 338.672 188.253 339C187.736 339.329 187.132 339.493 186.443 339.493ZM186.443 338.439C186.967 338.439 187.398 338.304 187.736 338.036C188.074 337.767 188.324 337.414 188.486 336.977C188.649 336.539 188.73 336.066 188.73 335.555C188.73 335.045 188.649 334.569 188.486 334.128C188.324 333.687 188.074 333.331 187.736 333.059C187.398 332.788 186.967 332.652 186.443 332.652C185.919 332.652 185.489 332.788 185.15 333.059C184.812 333.331 184.562 333.687 184.4 334.128C184.237 334.569 184.156 335.045 184.156 335.555C184.156 336.066 184.237 336.539 184.4 336.977C184.562 337.414 184.812 337.767 185.15 338.036C185.489 338.304 185.919 338.439 186.443 338.439ZM194.578 339.493C193.941 339.493 193.38 339.332 192.892 339.01C192.405 338.686 192.024 338.228 191.749 337.638C191.474 337.045 191.336 336.344 191.336 335.535C191.336 334.733 191.474 334.037 191.749 333.447C192.024 332.857 192.407 332.401 192.897 332.08C193.388 331.758 193.955 331.598 194.598 331.598C195.095 331.598 195.488 331.681 195.776 331.846C196.068 332.009 196.29 332.194 196.442 332.403C196.598 332.609 196.719 332.778 196.805 332.91H196.905V329.152H198.078V339.333H196.944V338.16H196.805C196.719 338.299 196.596 338.475 196.437 338.687C196.278 338.896 196.051 339.083 195.756 339.249C195.461 339.411 195.068 339.493 194.578 339.493ZM194.737 338.439C195.208 338.439 195.605 338.316 195.93 338.071C196.255 337.822 196.502 337.479 196.671 337.042C196.84 336.601 196.924 336.092 196.924 335.515C196.924 334.945 196.842 334.446 196.676 334.019C196.51 333.588 196.265 333.253 195.94 333.015C195.615 332.773 195.214 332.652 194.737 332.652C194.24 332.652 193.825 332.779 193.494 333.034C193.166 333.286 192.919 333.629 192.753 334.064C192.591 334.494 192.51 334.978 192.51 335.515C192.51 336.059 192.593 336.553 192.758 336.997C192.927 337.438 193.176 337.789 193.504 338.051C193.835 338.309 194.246 338.439 194.737 338.439ZM203.591 339.493C202.856 339.493 202.221 339.33 201.687 339.005C201.157 338.677 200.748 338.22 200.459 337.633C200.174 337.043 200.032 336.357 200.032 335.575C200.032 334.793 200.174 334.103 200.459 333.507C200.748 332.907 201.149 332.44 201.662 332.105C202.179 331.767 202.783 331.598 203.472 331.598C203.87 331.598 204.263 331.664 204.65 331.797C205.038 331.929 205.391 332.145 205.709 332.443C206.027 332.738 206.281 333.129 206.47 333.616C206.659 334.103 206.753 334.703 206.753 335.416V335.913H200.867V334.899H205.56C205.56 334.468 205.474 334.083 205.302 333.745C205.133 333.407 204.891 333.141 204.576 332.945C204.264 332.749 203.896 332.652 203.472 332.652C203.005 332.652 202.6 332.768 202.259 333C201.921 333.228 201.661 333.527 201.478 333.895C201.296 334.262 201.205 334.657 201.205 335.078V335.754C201.205 336.331 201.304 336.82 201.503 337.221C201.705 337.618 201.986 337.922 202.343 338.13C202.701 338.336 203.117 338.439 203.591 338.439C203.9 338.439 204.178 338.396 204.427 338.309C204.678 338.22 204.896 338.087 205.078 337.912C205.26 337.733 205.401 337.511 205.5 337.245L206.634 337.564C206.515 337.948 206.314 338.286 206.032 338.578C205.751 338.866 205.403 339.092 204.988 339.254C204.574 339.413 204.108 339.493 203.591 339.493Z" fill="#0C6BEA"/>
<path d="M190.955 270.155L190.955 297.615" stroke="#0C6BEA" stroke-dasharray="2 2"/>
<circle cx="190.955" cy="300.621" r="3.00586" fill="#0C6BEA"/>
<path d="M256.099 323.333H252.957V313.152H256.238C257.226 313.152 258.071 313.356 258.774 313.763C259.476 314.168 260.015 314.749 260.389 315.508C260.764 316.264 260.951 317.169 260.951 318.223C260.951 319.283 260.762 320.196 260.385 320.962C260.007 321.724 259.456 322.311 258.734 322.722C258.011 323.13 257.133 323.333 256.099 323.333ZM254.19 322.24H256.019C256.861 322.24 257.559 322.077 258.112 321.753C258.666 321.428 259.079 320.965 259.35 320.365C259.622 319.766 259.758 319.051 259.758 318.223C259.758 317.401 259.624 316.693 259.355 316.1C259.087 315.503 258.686 315.046 258.152 314.728C257.619 314.406 256.954 314.245 256.159 314.245H254.19V322.24ZM265.108 323.512C264.624 323.512 264.184 323.421 263.79 323.239C263.396 323.053 263.082 322.787 262.85 322.439C262.618 322.087 262.502 321.663 262.502 321.166C262.502 320.728 262.589 320.374 262.761 320.102C262.933 319.827 263.164 319.611 263.452 319.456C263.74 319.3 264.059 319.184 264.407 319.108C264.758 319.028 265.111 318.965 265.465 318.919C265.929 318.859 266.306 318.814 266.594 318.784C266.886 318.751 267.098 318.697 267.23 318.62C267.366 318.544 267.434 318.412 267.434 318.223V318.183C267.434 317.692 267.3 317.311 267.032 317.039C266.766 316.768 266.364 316.632 265.823 316.632C265.263 316.632 264.824 316.754 264.506 317C264.188 317.245 263.964 317.507 263.835 317.785L262.721 317.387C262.92 316.923 263.185 316.562 263.517 316.304C263.851 316.042 264.216 315.86 264.61 315.757C265.008 315.651 265.399 315.598 265.784 315.598C266.029 315.598 266.311 315.628 266.629 315.687C266.95 315.744 267.26 315.861 267.559 316.04C267.86 316.219 268.11 316.489 268.309 316.851C268.508 317.212 268.608 317.696 268.608 318.302V323.333H267.434V322.299H267.375C267.295 322.465 267.162 322.642 266.977 322.831C266.791 323.02 266.544 323.181 266.236 323.314C265.928 323.446 265.552 323.512 265.108 323.512ZM265.286 322.458C265.751 322.458 266.142 322.367 266.46 322.185C266.781 322.003 267.023 321.767 267.186 321.479C267.351 321.191 267.434 320.887 267.434 320.569V319.495C267.385 319.555 267.275 319.61 267.106 319.659C266.94 319.706 266.748 319.747 266.529 319.784C266.314 319.817 266.103 319.847 265.898 319.873C265.696 319.896 265.532 319.916 265.406 319.933C265.101 319.973 264.816 320.037 264.551 320.127C264.289 320.213 264.077 320.344 263.914 320.52C263.755 320.692 263.676 320.927 263.676 321.226C263.676 321.633 263.827 321.941 264.128 322.15C264.433 322.356 264.819 322.458 265.286 322.458ZM274.07 315.697V316.691H270.113V315.697H274.07ZM271.266 313.868H272.439V321.146C272.439 321.477 272.487 321.726 272.584 321.892C272.683 322.054 272.809 322.164 272.961 322.22C273.117 322.273 273.281 322.299 273.454 322.299C273.583 322.299 273.689 322.293 273.772 322.28C273.855 322.263 273.921 322.25 273.971 322.24L274.209 323.294C274.13 323.324 274.019 323.353 273.876 323.383C273.734 323.416 273.553 323.433 273.334 323.433C273.003 323.433 272.678 323.362 272.36 323.219C272.045 323.077 271.783 322.86 271.574 322.568C271.369 322.276 271.266 321.908 271.266 321.464V313.868ZM278.082 323.512C277.598 323.512 277.159 323.421 276.765 323.239C276.37 323.053 276.057 322.787 275.825 322.439C275.593 322.087 275.477 321.663 275.477 321.166C275.477 320.728 275.563 320.374 275.736 320.102C275.908 319.827 276.138 319.611 276.427 319.456C276.715 319.3 277.033 319.184 277.381 319.108C277.732 319.028 278.085 318.965 278.44 318.919C278.904 318.859 279.28 318.814 279.569 318.784C279.86 318.751 280.072 318.697 280.205 318.62C280.341 318.544 280.409 318.412 280.409 318.223V318.183C280.409 317.692 280.275 317.311 280.006 317.039C279.741 316.768 279.338 316.632 278.798 316.632C278.238 316.632 277.799 316.754 277.481 317C277.162 317.245 276.939 317.507 276.809 317.785L275.696 317.387C275.895 316.923 276.16 316.562 276.491 316.304C276.826 316.042 277.191 315.86 277.585 315.757C277.983 315.651 278.374 315.598 278.758 315.598C279.004 315.598 279.285 315.628 279.603 315.687C279.925 315.744 280.235 315.861 280.533 316.04C280.835 316.219 281.085 316.489 281.284 316.851C281.483 317.212 281.582 317.696 281.582 318.302V323.333H280.409V322.299H280.349C280.27 322.465 280.137 322.642 279.951 322.831C279.766 323.02 279.519 323.181 279.211 323.314C278.902 323.446 278.526 323.512 278.082 323.512ZM278.261 322.458C278.725 322.458 279.116 322.367 279.434 322.185C279.756 322.003 279.998 321.767 280.16 321.479C280.326 321.191 280.409 320.887 280.409 320.569V319.495C280.359 319.555 280.25 319.61 280.081 319.659C279.915 319.706 279.723 319.747 279.504 319.784C279.289 319.817 279.078 319.847 278.873 319.873C278.67 319.896 278.506 319.916 278.38 319.933C278.076 319.973 277.79 320.037 277.525 320.127C277.263 320.213 277.051 320.344 276.889 320.52C276.73 320.692 276.65 320.927 276.65 321.226C276.65 321.633 276.801 321.941 277.103 322.15C277.408 322.356 277.794 322.458 278.261 322.458ZM248.445 333.407L247.391 333.706C247.325 333.53 247.227 333.359 247.098 333.194C246.972 333.025 246.8 332.885 246.581 332.776C246.362 332.667 246.082 332.612 245.741 332.612C245.273 332.612 244.884 332.72 244.572 332.935C244.264 333.147 244.11 333.417 244.11 333.745C244.11 334.037 244.216 334.267 244.428 334.436C244.64 334.606 244.972 334.746 245.423 334.859L246.556 335.137C247.239 335.303 247.748 335.557 248.082 335.898C248.417 336.236 248.584 336.672 248.584 337.206C248.584 337.643 248.458 338.034 248.207 338.379C247.958 338.724 247.61 338.995 247.163 339.194C246.715 339.393 246.195 339.493 245.601 339.493C244.823 339.493 244.178 339.324 243.668 338.985C243.157 338.647 242.834 338.154 242.698 337.504L243.812 337.226C243.918 337.637 244.118 337.945 244.413 338.15C244.712 338.356 245.101 338.458 245.582 338.458C246.128 338.458 246.563 338.342 246.884 338.11C247.209 337.875 247.371 337.593 247.371 337.265C247.371 337 247.279 336.778 247.093 336.599C246.907 336.417 246.622 336.281 246.238 336.191L244.965 335.893C244.266 335.727 243.752 335.471 243.424 335.123C243.099 334.771 242.937 334.332 242.937 333.805C242.937 333.374 243.058 332.993 243.3 332.662C243.545 332.33 243.878 332.07 244.299 331.881C244.723 331.692 245.204 331.598 245.741 331.598C246.496 331.598 247.09 331.763 247.521 332.095C247.955 332.426 248.263 332.864 248.445 333.407ZM253.672 331.697V332.691H249.714V331.697H253.672ZM250.868 329.868H252.041V337.146C252.041 337.477 252.089 337.726 252.185 337.892C252.285 338.054 252.41 338.164 252.563 338.22C252.719 338.273 252.883 338.299 253.055 338.299C253.184 338.299 253.29 338.293 253.373 338.28C253.456 338.263 253.522 338.25 253.572 338.24L253.811 339.294C253.731 339.324 253.62 339.353 253.478 339.383C253.335 339.416 253.155 339.433 252.936 339.433C252.604 339.433 252.28 339.362 251.961 339.219C251.647 339.077 251.385 338.86 251.176 338.568C250.97 338.276 250.868 337.908 250.868 337.464V329.868ZM258.457 339.493C257.767 339.493 257.163 339.329 256.642 339C256.125 338.672 255.721 338.213 255.429 337.623C255.141 337.033 254.997 336.344 254.997 335.555C254.997 334.76 255.141 334.065 255.429 333.472C255.721 332.879 256.125 332.418 256.642 332.09C257.163 331.762 257.767 331.598 258.457 331.598C259.146 331.598 259.749 331.762 260.266 332.09C260.787 332.418 261.191 332.879 261.48 333.472C261.771 334.065 261.917 334.76 261.917 335.555C261.917 336.344 261.771 337.033 261.48 337.623C261.191 338.213 260.787 338.672 260.266 339C259.749 339.329 259.146 339.493 258.457 339.493ZM258.457 338.439C258.98 338.439 259.411 338.304 259.749 338.036C260.087 337.767 260.338 337.414 260.5 336.977C260.663 336.539 260.744 336.066 260.744 335.555C260.744 335.045 260.663 334.569 260.5 334.128C260.338 333.687 260.087 333.331 259.749 333.059C259.411 332.788 258.98 332.652 258.457 332.652C257.933 332.652 257.502 332.788 257.164 333.059C256.826 333.331 256.576 333.687 256.413 334.128C256.251 334.569 256.17 335.045 256.17 335.555C256.17 336.066 256.251 336.539 256.413 336.977C256.576 337.414 256.826 337.767 257.164 338.036C257.502 338.304 257.933 338.439 258.457 338.439ZM263.708 339.333V331.697H264.842V332.851H264.921C265.06 332.473 265.312 332.166 265.677 331.931C266.041 331.695 266.452 331.578 266.91 331.578C266.996 331.578 267.104 331.579 267.233 331.583C267.362 331.586 267.46 331.591 267.526 331.598V332.791C267.486 332.781 267.395 332.766 267.253 332.746C267.114 332.723 266.966 332.711 266.81 332.711C266.439 332.711 266.108 332.789 265.816 332.945C265.528 333.097 265.299 333.31 265.13 333.581C264.964 333.85 264.881 334.156 264.881 334.501V339.333H263.708ZM271.164 339.512C270.68 339.512 270.241 339.421 269.847 339.239C269.452 339.053 269.139 338.787 268.907 338.439C268.675 338.087 268.559 337.663 268.559 337.166C268.559 336.728 268.645 336.374 268.818 336.102C268.99 335.827 269.22 335.611 269.509 335.456C269.797 335.3 270.115 335.184 270.463 335.108C270.814 335.028 271.167 334.965 271.522 334.919C271.986 334.859 272.362 334.814 272.651 334.784C272.942 334.751 273.154 334.697 273.287 334.62C273.423 334.544 273.491 334.412 273.491 334.223V334.183C273.491 333.692 273.357 333.311 273.088 333.039C272.823 332.768 272.42 332.632 271.88 332.632C271.32 332.632 270.881 332.754 270.563 333C270.244 333.245 270.021 333.507 269.891 333.785L268.778 333.387C268.977 332.923 269.242 332.562 269.573 332.304C269.908 332.042 270.273 331.86 270.667 331.757C271.065 331.651 271.456 331.598 271.84 331.598C272.086 331.598 272.367 331.628 272.685 331.687C273.007 331.744 273.317 331.861 273.615 332.04C273.917 332.219 274.167 332.489 274.366 332.851C274.565 333.212 274.664 333.696 274.664 334.302V339.333H273.491V338.299H273.431C273.352 338.465 273.219 338.642 273.033 338.831C272.848 339.02 272.601 339.181 272.293 339.314C271.984 339.446 271.608 339.512 271.164 339.512ZM271.343 338.458C271.807 338.458 272.198 338.367 272.516 338.185C272.838 338.003 273.08 337.767 273.242 337.479C273.408 337.191 273.491 336.887 273.491 336.569V335.495C273.441 335.555 273.332 335.61 273.163 335.659C272.997 335.706 272.805 335.747 272.586 335.784C272.371 335.817 272.16 335.847 271.955 335.873C271.752 335.896 271.588 335.916 271.462 335.933C271.158 335.973 270.872 336.037 270.607 336.127C270.346 336.213 270.133 336.344 269.971 336.52C269.812 336.692 269.732 336.927 269.732 337.226C269.732 337.633 269.883 337.941 270.185 338.15C270.49 338.356 270.876 338.458 271.343 338.458ZM279.888 342.356C279.321 342.356 278.834 342.283 278.426 342.137C278.019 341.995 277.679 341.806 277.407 341.571C277.139 341.339 276.925 341.09 276.766 340.825L277.701 340.169C277.807 340.308 277.941 340.467 278.103 340.646C278.266 340.828 278.488 340.986 278.769 341.118C279.054 341.254 279.427 341.322 279.888 341.322C280.505 341.322 281.013 341.173 281.414 340.875C281.815 340.576 282.016 340.109 282.016 339.473V337.922H281.916C281.83 338.061 281.708 338.233 281.549 338.439C281.393 338.641 281.167 338.821 280.872 338.981C280.581 339.136 280.186 339.214 279.689 339.214C279.073 339.214 278.519 339.068 278.029 338.777C277.541 338.485 277.155 338.061 276.87 337.504C276.589 336.947 276.448 336.271 276.448 335.476C276.448 334.693 276.585 334.012 276.86 333.432C277.135 332.849 277.518 332.398 278.009 332.08C278.499 331.758 279.066 331.598 279.709 331.598C280.206 331.598 280.601 331.681 280.892 331.846C281.187 332.009 281.413 332.194 281.568 332.403C281.728 332.609 281.85 332.778 281.936 332.91H282.056V331.697H283.189V339.552C283.189 340.208 283.04 340.742 282.742 341.153C282.447 341.567 282.049 341.871 281.549 342.063C281.051 342.258 280.498 342.356 279.888 342.356ZM279.848 338.16C280.319 338.16 280.717 338.052 281.041 337.837C281.366 337.622 281.613 337.312 281.782 336.907C281.951 336.503 282.036 336.019 282.036 335.456C282.036 334.905 281.953 334.42 281.787 333.999C281.621 333.578 281.376 333.248 281.051 333.01C280.727 332.771 280.326 332.652 279.848 332.652C279.351 332.652 278.937 332.778 278.605 333.03C278.277 333.281 278.03 333.619 277.865 334.044C277.702 334.468 277.621 334.939 277.621 335.456C277.621 335.986 277.704 336.455 277.87 336.863C278.039 337.267 278.287 337.585 278.615 337.817C278.947 338.046 279.358 338.16 279.848 338.16ZM288.539 339.493C287.803 339.493 287.168 339.33 286.635 339.005C286.104 338.677 285.695 338.22 285.407 337.633C285.121 337.043 284.979 336.357 284.979 335.575C284.979 334.793 285.121 334.103 285.407 333.507C285.695 332.907 286.096 332.44 286.61 332.105C287.127 331.767 287.73 331.598 288.419 331.598C288.817 331.598 289.21 331.664 289.598 331.797C289.985 331.929 290.338 332.145 290.657 332.443C290.975 332.738 291.228 333.129 291.417 333.616C291.606 334.103 291.701 334.703 291.701 335.416V335.913H285.814V334.899H290.507C290.507 334.468 290.421 334.083 290.249 333.745C290.08 333.407 289.838 333.141 289.523 332.945C289.211 332.749 288.844 332.652 288.419 332.652C287.952 332.652 287.548 332.768 287.206 333C286.868 333.228 286.608 333.527 286.426 333.895C286.243 334.262 286.152 334.657 286.152 335.078V335.754C286.152 336.331 286.252 336.82 286.451 337.221C286.653 337.618 286.933 337.922 287.291 338.13C287.649 338.336 288.065 338.439 288.539 338.439C288.847 338.439 289.125 338.396 289.374 338.309C289.626 338.22 289.843 338.087 290.025 337.912C290.207 337.733 290.348 337.511 290.448 337.245L291.581 337.564C291.462 337.948 291.261 338.286 290.98 338.578C290.698 338.866 290.35 339.092 289.936 339.254C289.521 339.413 289.056 339.493 288.539 339.493Z" fill="#0C6BEA"/>
<path d="M267.186 270.155L267.186 297.615" stroke="#0C6BEA" stroke-dasharray="2 2"/>
<circle cx="267.186" cy="300.621" r="3.00586" fill="#0C6BEA"/>
<rect x="152.414" y="188.255" width="153.311" height="81.4005" rx="5.5" stroke="#0C6BEA"/>
<rect x="172.455" y="223.329" width="37" height="31" rx="5.5" fill="#0C6BEA" stroke="#0C6BEA"/>
<path d="M185.216 233.995C185.532 233.727 185.57 233.254 185.302 232.938C185.034 232.623 184.561 232.584 184.245 232.852L185.216 233.995ZM178.369 238.829L177.884 238.257C177.716 238.4 177.619 238.609 177.619 238.829C177.619 239.049 177.716 239.258 177.884 239.4L178.369 238.829ZM184.245 244.805C184.561 245.074 185.034 245.035 185.302 244.719C185.57 244.404 185.532 243.931 185.216 243.662L184.245 244.805ZM184.245 232.852L177.884 238.257L178.855 239.4L185.216 233.995L184.245 232.852ZM177.884 239.4L184.245 244.805L185.216 243.662L178.855 238.257L177.884 239.4Z" fill="white"/>
<path d="M196.693 243.662C196.377 243.931 196.339 244.404 196.607 244.72C196.875 245.035 197.349 245.074 197.664 244.805L196.693 243.662ZM203.54 238.829L204.026 239.4C204.193 239.258 204.29 239.049 204.29 238.829C204.29 238.609 204.193 238.4 204.026 238.257L203.54 238.829ZM197.664 232.852C197.349 232.584 196.875 232.623 196.607 232.938C196.339 233.254 196.377 233.727 196.693 233.995L197.664 232.852ZM197.664 244.805L204.026 239.4L203.054 238.257L196.693 243.662L197.664 244.805ZM204.026 238.257L197.664 232.852L196.693 233.995L203.054 239.4L204.026 238.257Z" fill="white"/>
<path d="M194.475 229.176C194.603 228.776 194.389 228.362 193.996 228.251C193.603 228.141 193.18 228.376 193.052 228.776L194.475 229.176ZM186.744 248.482C186.616 248.882 186.831 249.296 187.224 249.406C187.616 249.516 188.039 249.281 188.167 248.881L186.744 248.482ZM193.052 228.776L186.744 248.482L188.167 248.881L194.475 229.176L193.052 228.776Z" fill="white"/>
<path d="M202.552 201.72H201.319C201.246 201.365 201.119 201.054 200.936 200.785C200.757 200.517 200.539 200.291 200.28 200.109C200.025 199.923 199.742 199.784 199.43 199.691C199.118 199.599 198.794 199.552 198.456 199.552C197.839 199.552 197.281 199.708 196.78 200.019C196.283 200.331 195.887 200.79 195.592 201.397C195.3 202.003 195.154 202.747 195.154 203.629C195.154 204.51 195.3 205.255 195.592 205.861C195.887 206.468 196.283 206.927 196.78 207.238C197.281 207.55 197.839 207.706 198.456 207.706C198.794 207.706 199.118 207.659 199.43 207.566C199.742 207.474 200.025 207.336 200.28 207.154C200.539 206.968 200.757 206.741 200.936 206.473C201.119 206.201 201.246 205.889 201.319 205.538H202.552C202.459 206.058 202.29 206.524 202.045 206.935C201.8 207.346 201.495 207.696 201.13 207.984C200.766 208.269 200.356 208.486 199.902 208.635C199.451 208.784 198.969 208.859 198.456 208.859C197.587 208.859 196.815 208.647 196.139 208.223C195.463 207.798 194.931 207.195 194.543 206.413C194.155 205.631 193.961 204.703 193.961 203.629C193.961 202.555 194.155 201.627 194.543 200.845C194.931 200.063 195.463 199.459 196.139 199.035C196.815 198.611 197.587 198.399 198.456 198.399C198.969 198.399 199.451 198.473 199.902 198.622C200.356 198.772 200.766 198.99 201.13 199.279C201.495 199.564 201.8 199.912 202.045 200.323C202.29 200.73 202.459 201.196 202.552 201.72ZM207.488 208.879C206.798 208.879 206.193 208.715 205.673 208.387C205.156 208.059 204.752 207.599 204.46 207.009C204.172 206.42 204.027 205.73 204.027 204.941C204.027 204.146 204.172 203.451 204.46 202.858C204.752 202.265 205.156 201.804 205.673 201.476C206.193 201.148 206.798 200.984 207.488 200.984C208.177 200.984 208.78 201.148 209.297 201.476C209.818 201.804 210.222 202.265 210.51 202.858C210.802 203.451 210.948 204.146 210.948 204.941C210.948 205.73 210.802 206.42 210.51 207.009C210.222 207.599 209.818 208.059 209.297 208.387C208.78 208.715 208.177 208.879 207.488 208.879ZM207.488 207.825C208.011 207.825 208.442 207.691 208.78 207.422C209.118 207.154 209.369 206.801 209.531 206.363C209.693 205.926 209.775 205.452 209.775 204.941C209.775 204.431 209.693 203.955 209.531 203.514C209.369 203.074 209.118 202.717 208.78 202.446C208.442 202.174 208.011 202.038 207.488 202.038C206.964 202.038 206.533 202.174 206.195 202.446C205.857 202.717 205.607 203.074 205.444 203.514C205.282 203.955 205.201 204.431 205.201 204.941C205.201 205.452 205.282 205.926 205.444 206.363C205.607 206.801 205.857 207.154 206.195 207.422C206.533 207.691 206.964 207.825 207.488 207.825ZM213.912 204.126V208.72H212.739V201.083H213.872V202.277H213.972C214.151 201.889 214.423 201.577 214.787 201.342C215.152 201.103 215.622 200.984 216.199 200.984C216.716 200.984 217.169 201.09 217.556 201.302C217.944 201.511 218.246 201.829 218.461 202.257C218.677 202.681 218.784 203.218 218.784 203.867V208.72H217.611V203.947C217.611 203.347 217.455 202.88 217.144 202.545C216.832 202.207 216.405 202.038 215.861 202.038C215.487 202.038 215.152 202.119 214.857 202.282C214.565 202.444 214.335 202.681 214.166 202.992C213.997 203.304 213.912 203.682 213.912 204.126ZM224.249 201.083V202.078H220.292V201.083H224.249ZM221.445 199.254H222.619V206.532C222.619 206.864 222.667 207.112 222.763 207.278C222.862 207.44 222.988 207.55 223.141 207.606C223.296 207.659 223.461 207.686 223.633 207.686C223.762 207.686 223.868 207.679 223.951 207.666C224.034 207.649 224.1 207.636 224.15 207.626L224.389 208.68C224.309 208.71 224.198 208.74 224.055 208.769C223.913 208.803 223.732 208.819 223.514 208.819C223.182 208.819 222.857 208.748 222.539 208.605C222.224 208.463 221.962 208.246 221.754 207.954C221.548 207.662 221.445 207.295 221.445 206.85V199.254ZM228.261 208.899C227.778 208.899 227.338 208.808 226.944 208.625C226.55 208.44 226.236 208.173 226.004 207.825C225.772 207.474 225.656 207.049 225.656 206.552C225.656 206.115 225.743 205.76 225.915 205.488C226.087 205.213 226.318 204.998 226.606 204.842C226.894 204.686 227.212 204.57 227.56 204.494C227.912 204.414 228.265 204.351 228.619 204.305C229.083 204.245 229.46 204.201 229.748 204.171C230.04 204.138 230.252 204.083 230.384 204.007C230.52 203.93 230.588 203.798 230.588 203.609V203.569C230.588 203.079 230.454 202.697 230.185 202.426C229.92 202.154 229.518 202.018 228.977 202.018C228.417 202.018 227.978 202.141 227.66 202.386C227.342 202.631 227.118 202.893 226.989 203.171L225.875 202.774C226.074 202.31 226.339 201.948 226.671 201.69C227.005 201.428 227.37 201.246 227.764 201.143C228.162 201.037 228.553 200.984 228.938 200.984C229.183 200.984 229.465 201.014 229.783 201.073C230.104 201.13 230.414 201.247 230.712 201.426C231.014 201.605 231.264 201.876 231.463 202.237C231.662 202.598 231.761 203.082 231.761 203.688V208.72H230.588V207.686H230.528C230.449 207.851 230.316 208.029 230.131 208.218C229.945 208.407 229.698 208.567 229.39 208.7C229.082 208.832 228.706 208.899 228.261 208.899ZM228.44 207.845C228.904 207.845 229.296 207.754 229.614 207.571C229.935 207.389 230.177 207.154 230.34 206.865C230.505 206.577 230.588 206.274 230.588 205.956V204.882C230.538 204.941 230.429 204.996 230.26 205.046C230.094 205.092 229.902 205.134 229.683 205.17C229.468 205.203 229.257 205.233 229.052 205.259C228.85 205.283 228.686 205.303 228.56 205.319C228.255 205.359 227.97 205.424 227.705 205.513C227.443 205.599 227.231 205.73 227.068 205.906C226.909 206.078 226.83 206.313 226.83 206.612C226.83 207.019 226.98 207.328 227.282 207.536C227.587 207.742 227.973 207.845 228.44 207.845ZM233.903 208.72V201.083H235.076V208.72H233.903ZM234.5 199.811C234.271 199.811 234.074 199.733 233.908 199.577C233.746 199.421 233.664 199.234 233.664 199.015C233.664 198.796 233.746 198.609 233.908 198.453C234.074 198.298 234.271 198.22 234.5 198.22C234.728 198.22 234.924 198.298 235.086 198.453C235.252 198.609 235.335 198.796 235.335 199.015C235.335 199.234 235.252 199.421 235.086 199.577C234.924 199.733 234.728 199.811 234.5 199.811ZM238.399 204.126V208.72H237.225V201.083H238.359V202.277H238.458C238.637 201.889 238.909 201.577 239.274 201.342C239.638 201.103 240.109 200.984 240.685 200.984C241.203 200.984 241.655 201.09 242.043 201.302C242.43 201.511 242.732 201.829 242.948 202.257C243.163 202.681 243.271 203.218 243.271 203.867V208.72H242.097V203.947C242.097 203.347 241.942 202.88 241.63 202.545C241.319 202.207 240.891 202.038 240.347 202.038C239.973 202.038 239.638 202.119 239.343 202.282C239.051 202.444 238.821 202.681 238.652 202.992C238.483 203.304 238.399 203.682 238.399 204.126ZM248.616 208.879C247.881 208.879 247.246 208.716 246.712 208.392C246.182 208.063 245.773 207.606 245.484 207.019C245.199 206.429 245.057 205.743 245.057 204.961C245.057 204.179 245.199 203.49 245.484 202.893C245.773 202.293 246.174 201.826 246.687 201.491C247.204 201.153 247.808 200.984 248.497 200.984C248.895 200.984 249.288 201.05 249.675 201.183C250.063 201.315 250.416 201.531 250.734 201.829C251.052 202.124 251.306 202.515 251.495 203.002C251.684 203.49 251.778 204.09 251.778 204.802V205.299H245.892V204.285H250.585C250.585 203.854 250.499 203.47 250.327 203.132C250.158 202.794 249.916 202.527 249.601 202.331C249.289 202.136 248.921 202.038 248.497 202.038C248.03 202.038 247.625 202.154 247.284 202.386C246.946 202.615 246.686 202.913 246.503 203.281C246.321 203.649 246.23 204.043 246.23 204.464V205.14C246.23 205.717 246.329 206.206 246.528 206.607C246.73 207.005 247.011 207.308 247.369 207.517C247.726 207.722 248.142 207.825 248.616 207.825C248.925 207.825 249.203 207.782 249.452 207.696C249.704 207.606 249.921 207.474 250.103 207.298C250.285 207.119 250.426 206.897 250.525 206.632L251.659 206.95C251.54 207.334 251.339 207.672 251.057 207.964C250.776 208.252 250.428 208.478 250.013 208.64C249.599 208.799 249.133 208.879 248.616 208.879ZM253.563 208.72V201.083H254.697V202.237H254.776C254.915 201.859 255.167 201.552 255.532 201.317C255.896 201.082 256.307 200.964 256.765 200.964C256.851 200.964 256.959 200.966 257.088 200.969C257.217 200.972 257.315 200.977 257.381 200.984V202.177C257.342 202.167 257.25 202.152 257.108 202.132C256.969 202.109 256.821 202.098 256.665 202.098C256.294 202.098 255.963 202.175 255.671 202.331C255.383 202.484 255.154 202.696 254.985 202.968C254.819 203.236 254.736 203.543 254.736 203.887V208.72H253.563ZM264.181 202.794L263.127 203.092C263.061 202.916 262.963 202.746 262.834 202.58C262.708 202.411 262.536 202.272 262.317 202.162C262.098 202.053 261.818 201.998 261.477 201.998C261.009 201.998 260.62 202.106 260.308 202.321C260 202.533 259.846 202.804 259.846 203.132C259.846 203.423 259.952 203.654 260.164 203.823C260.376 203.992 260.708 204.133 261.158 204.245L262.292 204.524C262.975 204.689 263.484 204.943 263.818 205.284C264.153 205.622 264.32 206.058 264.32 206.592C264.32 207.029 264.194 207.42 263.943 207.765C263.694 208.11 263.346 208.382 262.899 208.581C262.451 208.779 261.931 208.879 261.337 208.879C260.559 208.879 259.914 208.71 259.403 208.372C258.893 208.034 258.57 207.54 258.434 206.89L259.548 206.612C259.654 207.023 259.854 207.331 260.149 207.536C260.448 207.742 260.837 207.845 261.318 207.845C261.864 207.845 262.299 207.729 262.62 207.497C262.945 207.261 263.107 206.98 263.107 206.652C263.107 206.386 263.015 206.164 262.829 205.985C262.643 205.803 262.358 205.667 261.974 205.578L260.701 205.279C260.002 205.114 259.488 204.857 259.16 204.509C258.835 204.157 258.673 203.718 258.673 203.191C258.673 202.76 258.794 202.379 259.036 202.048C259.281 201.716 259.614 201.456 260.035 201.267C260.459 201.078 260.94 200.984 261.477 200.984C262.232 200.984 262.826 201.15 263.256 201.481C263.691 201.813 263.999 202.25 264.181 202.794Z" fill="#0C6BEA"/>
<ellipse cx="267.186" cy="227.915" rx="12.2968" ry="3.97116" fill="#0C6BEA"/>
<path d="M267.186 252.307C273.978 252.307 279.483 250.529 279.483 248.336V227.844H254.89V248.336C254.89 250.529 260.395 252.307 267.186 252.307Z" fill="#0C6BEA"/>
<path d="M279.984 238.952C279.984 241.145 274.255 242.923 267.187 242.923C260.119 242.923 254.39 241.145 254.39 238.952" stroke="white"/>
<path d="M279.984 227.844C279.984 230.037 274.255 231.815 267.187 231.815C260.119 231.815 254.39 230.037 254.39 227.844" stroke="white"/>
<path d="M229.5 165.009L232.387 160.009H226.613L229.5 165.009ZM229 117L229 160.509H230L230 117L229 117Z" fill="#0C6BEA"/>
<path d="M229.5 386.131L232.387 381.131L226.613 381.131L229.5 386.131ZM229 363L229 381.631L230 381.631L230 363L229 363Z" fill="#0C6BEA"/>
</svg>
