<svg width="1030" height="570" viewBox="0 0 1030 570" fill="none" xmlns="http://www.w3.org/2000/svg">
<g clip-path="url(#clip0_65_9050)">
<path d="M1 19C1 9.05886 9.05887 1 19 1H1011C1020.94 1 1029 9.05887 1029 19V551C1029 560.941 1020.94 569 1011 569H19C9.05885 569 1 560.941 1 551V19Z" fill="white"/>
<path d="M1 1H193V629H1V1Z" fill="#0C6BEA"/>
<path fill-rule="evenodd" clip-rule="evenodd" d="M61 30.8812C61 27.6331 58.3669 25 55.1188 25H33.8812C30.6331 25 28 27.6331 28 30.8812V52.1188C28 55.3669 30.6331 58 33.8812 58H55.1188C58.3669 58 61 55.3669 61 52.1188V30.8812ZM44.6642 53.0974C50.9799 53.0974 56.0998 47.9774 56.0998 41.6617C56.0998 35.346 50.9799 30.2261 44.6642 30.2261C38.3484 30.2261 33.2285 35.346 33.2285 41.6617C33.2285 47.9774 38.3484 53.0974 44.6642 53.0974Z" fill="white"/>
<line x1="101.5" y1="1" x2="101.5" y2="565" stroke="#0C6BEA"/>
<rect x="1" y="99" width="12" height="50" fill="white"/>
<rect opacity="0.2" x="1" y="99" width="192" height="50" fill="white"/>
<rect x="28" y="121" width="97" height="6" rx="3" fill="white"/>
<rect x="28" y="172" width="78" height="6" rx="3" fill="#E8F2FF"/>
<rect x="28" y="201" width="49" height="6" rx="3" fill="#E8F2FF"/>
<rect x="28" y="235" width="69" height="6" rx="3" fill="#E8F2FF"/>
<rect x="28" y="269" width="24" height="6" rx="3" fill="#E8F2FF"/>
<g clip-path="url(#clip1_65_9050)">
<rect opacity="0.1" x="245" y="350.845" width="496.257" height="176.156" rx="12" fill="#0C6BEA"/>
<path fill-rule="evenodd" clip-rule="evenodd" d="M623.341 223.053L623.339 223.054C601.76 244.496 580.179 265.939 558.888 287.66C550.5 296.218 543.97 306.186 538.689 317.075C531.369 332.232 526.043 348.382 520.723 364.514C519.353 368.671 517.982 372.827 516.579 376.963C515.892 378.988 515.206 381.054 514.511 383.148C509.039 399.63 503.012 417.782 491.639 430.1C479.963 442.744 465.442 439.997 449.53 436.986C447.624 436.626 445.697 436.261 443.753 435.919C423.908 432.423 407.732 439.96 394.394 452.29C391.832 454.66 389.315 457.088 386.799 459.515C374.95 470.943 363.129 482.346 346.682 487.584C343.447 488.615 340.136 489.477 336.824 490.338C331.096 491.828 325.367 493.319 320.024 495.688C310.321 499.99 302.477 507.117 295.775 515.068C290.816 520.947 286.484 527.358 282.354 533.88C276.797 542.658 271.584 551.577 266.393 560.459C252.483 584.258 238.733 607.785 218.939 627.588L211.233 635.294L204.776 628.836L212.482 621.13C215.557 618.05 218.588 614.929 221.517 611.708C223.829 609.164 226.06 606.547 228.226 603.874C232.943 598.048 237.18 591.827 241.222 585.483C248.279 574.399 254.576 562.811 260.871 551.224C264.555 544.446 268.238 537.668 272.073 530.991C275.589 524.863 279.178 518.773 283.091 512.917C289.197 503.771 295.99 494.78 304.807 488.13C312.893 482.027 322.873 479.891 332.863 477.754C337.459 476.77 342.057 475.787 346.474 474.416C362.311 469.5 374.401 458.108 386.023 447.156L386.023 447.155L386.024 447.155L386.025 447.154L386.026 447.153L386.026 447.153L386.027 447.152L386.028 447.151L386.029 447.151L386.029 447.15L386.03 447.149L386.031 447.148L386.031 447.148L386.032 447.147C386.703 446.515 387.373 445.884 388.042 445.255C399.141 434.838 411.371 424.166 428.223 423.952C434.758 423.869 441.415 425.46 448.061 427.047C456.402 429.039 464.724 431.027 472.759 429.697C495.559 425.924 503.945 399.571 510.49 379.004C511.323 376.386 512.126 373.862 512.925 371.491C515.064 365.146 517.053 358.736 519.042 352.326L519.042 352.325L519.043 352.324C521.404 344.714 523.765 337.104 526.379 329.603C530.208 318.61 534.422 307.682 540.281 297.779C544.873 290.029 550.451 283.164 556.767 276.842L648.761 184.848L655.221 191.308C644.618 201.911 633.98 212.482 623.341 223.053ZM676.625 212.711L608.359 280.976C605.577 283.759 602.795 286.542 600.014 289.325C594.452 294.891 588.889 300.456 583.32 306.016C582.296 307.038 581.269 308.057 580.242 309.076C572.065 317.189 563.889 325.3 557.41 334.935C549.99 345.966 544.311 358.187 539.176 370.591C535.755 378.857 532.606 387.355 529.446 395.88C521.776 416.577 514.047 437.432 502.227 455.501C497.641 462.511 491.913 469.181 483.855 472.333C476.506 475.208 468.164 474.384 460.091 473.523C444.71 471.881 429.413 471.416 416.178 478.386C410.531 481.471 405.392 485.241 400.546 489.389C397.049 492.437 393.704 495.637 390.424 498.912C378.441 510.895 366.094 521.53 351.332 530.164C335.969 539.152 321.992 548.691 310.22 562.027C301.663 571.721 294.259 582.36 286.858 592.993C284.417 596.5 281.977 600.005 279.497 603.476C269.22 617.854 257.9 631.411 245.448 643.885C242.604 646.734 239.757 649.58 236.91 652.425C235.486 653.848 234.062 655.271 232.639 656.694L225.754 649.809C226.976 648.588 228.197 647.366 229.419 646.145C231.856 643.708 234.293 641.272 236.729 638.834C243.883 631.666 250.706 624.195 257.026 616.26C265.087 606.109 272.124 595.185 279.161 584.26L279.161 584.26L279.161 584.26L279.161 584.26L279.161 584.26L279.161 584.26L279.161 584.26L279.161 584.26L279.161 584.26L279.161 584.26L279.161 584.259L279.161 584.259L279.161 584.259L279.161 584.259L279.161 584.259L279.161 584.259L279.161 584.259L279.161 584.259L279.161 584.259L279.161 584.259L279.162 584.259L279.162 584.259C285.361 574.634 291.561 565.01 298.461 555.913C308.897 542.146 321.713 530.526 337.221 522.506C337.989 522.108 338.757 521.712 339.525 521.315C354.366 513.653 369.085 506.053 381.066 494.415C382.949 492.586 384.806 490.73 386.664 488.874C390.602 484.941 394.54 481.007 398.717 477.326C413.344 464.441 431.208 458.267 452.117 460.977C453.684 461.181 455.262 461.411 456.845 461.642L456.846 461.642L456.846 461.642L456.847 461.642L456.847 461.642L456.849 461.643C465.393 462.89 474.08 464.158 481.954 461.314C492.293 457.58 498.818 448.194 503.986 439.059C513.174 422.855 519.551 404.781 525.93 386.7C534.812 361.526 543.697 336.341 560.182 316.173C561.589 314.456 563.045 312.781 564.554 311.154C566.001 309.594 567.488 308.075 568.992 306.572L669.739 205.825L676.625 212.711ZM658.164 273.32C671.514 260.297 684.859 247.279 698.026 234.112L690.717 226.803L578.681 338.84C555.517 362.013 543.212 393.06 530.978 423.931C525.032 438.933 519.103 453.893 511.952 467.888C507.07 477.44 500.882 487.694 491.521 493.322C483.635 498.064 474.069 498.229 464.591 497.698C442.513 496.462 424.124 498.623 407.181 511.676C400.661 516.702 394.888 522.539 389.117 528.374L389.117 528.374L389.116 528.374L389.116 528.375L389.116 528.375L389.115 528.375L389.115 528.376L389.115 528.376L389.115 528.376L389.114 528.376L389.114 528.377L389.114 528.377L389.113 528.377L389.113 528.378L389.113 528.378L389.113 528.378L389.112 528.378L389.112 528.379L389.112 528.379L389.111 528.379L389.111 528.38C386.865 530.65 384.62 532.921 382.331 535.143C379.946 537.457 377.496 539.705 374.988 541.89C368.872 547.221 362.604 552.295 356.353 557.356L356.353 557.356L356.353 557.356L356.352 557.356L356.352 557.356L356.352 557.356L356.352 557.357L356.352 557.357C343.082 568.099 329.888 578.78 318.383 591.725C312.118 598.771 306.102 606.03 300.087 613.287L300.087 613.287C291.348 623.831 282.612 634.373 273.112 644.259C269.977 647.519 246.732 670.792 246.732 670.792L254.039 678.099C254.039 678.099 282.454 649.651 285.904 646.076C294.537 637.129 302.793 627.831 311.049 618.533L311.299 618.253C323.576 604.423 336.029 590.773 349.81 578.419C353.964 574.696 358.167 571.032 362.369 567.37L362.369 567.369L362.369 567.369L362.369 567.369L362.369 567.369L362.37 567.369L362.37 567.369L362.37 567.369L362.37 567.369L362.37 567.368L362.37 567.368L362.37 567.368L362.37 567.368L362.371 567.368L362.371 567.368L362.371 567.368L362.371 567.368L362.371 567.367L362.371 567.367L362.371 567.367L362.371 567.367C371.657 559.274 380.937 551.185 389.662 542.474C405.402 526.756 422.935 510.884 447.455 509.988C452.006 509.822 456.685 510.225 461.37 510.628C469.009 511.286 476.666 511.945 483.815 510.142C495.457 507.204 503.041 497.69 508.866 487.993C517.002 474.446 523.121 459.511 529.202 444.671L529.203 444.67C531.278 439.604 533.349 434.55 535.494 429.566C536.105 428.149 536.715 426.728 537.326 425.306L537.327 425.303C546.515 403.909 555.89 382.081 569.895 363.794C572.067 360.971 574.336 358.224 576.745 355.605C602.878 327.255 630.53 300.278 658.164 273.32ZM719.428 255.515C676.622 298.321 587.801 387.169 586.234 388.824C577.043 398.577 569.477 409.712 562.623 421.304C556.564 431.591 551.293 442.398 546.226 453.283C544.254 457.524 542.358 461.809 540.477 466.097C538.273 471.122 536.149 476.188 534.026 481.254L534.026 481.256C532.44 485.041 530.853 488.827 529.233 492.595C528.282 494.81 527.338 497.068 526.387 499.345C516.391 523.269 505.524 549.279 475.07 549.382C471.82 549.393 468.599 549.322 465.406 549.252H465.406C452.819 548.975 440.677 548.709 428.95 553.493C415.164 559.118 404.863 569.702 394.753 580.091C393.095 581.795 391.442 583.493 389.779 585.164C375.262 599.75 360.698 614.291 346.134 628.832L346.134 628.832L346.134 628.832L346.134 628.832L346.134 628.833L346.133 628.833L346.133 628.833L346.133 628.833L346.133 628.833L346.133 628.833L346.133 628.833L346.133 628.833L346.133 628.833L346.133 628.833L346.133 628.833L346.132 628.834L346.132 628.834L346.132 628.834L346.132 628.834L346.132 628.834C338.592 636.362 331.052 643.89 323.518 651.425L275.442 699.501L267.709 691.767C286.46 672.941 302.834 656.453 317.182 642.005L317.182 642.005C415.696 542.806 418.734 539.747 440.143 535.92C449.37 534.273 458.886 534.767 468.444 535.271C478.51 535.801 488.442 535.272 496.523 529.783C508.627 521.569 515.157 507.046 521.135 493.753L521.137 493.748C521.546 492.839 521.952 491.936 522.357 491.041C524.309 486.736 526.161 482.375 528.005 478.011C529.168 475.264 530.326 472.511 531.485 469.757L531.486 469.755L531.487 469.753L531.488 469.751L531.489 469.749L531.489 469.747L531.49 469.745L531.491 469.743L531.514 469.688L531.515 469.686L531.516 469.684L531.517 469.682L531.517 469.68L531.518 469.679L531.519 469.677L531.52 469.675C541.412 446.164 551.358 422.525 564.711 401.058C569.568 393.252 574.852 385.731 580.943 378.896C596.92 361.009 614.207 344.25 631.472 327.512C639.496 319.733 647.515 311.959 655.396 304.078L711.695 247.779L719.429 255.514L719.428 255.515ZM657.42 360.316C685.212 332.511 713.005 304.706 740.821 276.925C738.109 274.198 735.39 271.477 732.67 268.759L594.623 406.806C576.144 425.295 562.643 447.691 551.279 471.477C546.113 482.293 541.52 493.407 536.927 504.523L536.927 504.524L536.926 504.525L536.925 504.527L536.925 504.528L536.924 504.53L536.924 504.531L536.923 504.533L536.922 504.534L536.922 504.536L536.921 504.537L536.921 504.539L536.92 504.54L536.919 504.542L536.919 504.543L536.918 504.544L536.917 504.546L536.917 504.547L536.916 504.549C534.989 509.213 533.062 513.877 531.092 518.519C530.565 519.762 530.035 521.024 529.499 522.297C520.144 544.56 509.164 570.688 481.827 572.955C476.292 573.413 470.677 573.158 465.065 572.902C457.493 572.557 449.926 572.212 442.573 573.623C428.708 576.282 417.28 584.407 407.666 593.793C380.777 620.053 354.291 646.739 327.809 673.423L327.809 673.423L327.809 673.423L327.808 673.423L327.808 673.423L327.808 673.423L327.808 673.423L327.808 673.424L327.808 673.424L327.808 673.424L327.808 673.424L327.807 673.424L327.807 673.424L327.807 673.424L327.807 673.424L327.807 673.425L327.807 673.425L327.807 673.425L327.807 673.425L327.805 673.427L327.803 673.429L327.801 673.431L327.799 673.433L327.797 673.435L327.795 673.437L327.793 673.439L327.791 673.441L327.789 673.443L327.787 673.444L327.785 673.446L327.783 673.448L327.781 673.45L327.779 673.452L327.777 673.454L327.775 673.456L327.773 673.458L327.771 673.46C314.757 686.573 301.744 699.686 288.683 712.746L296.844 720.907C333.428 684.323 408.116 609.637 408.882 608.884C421.953 596.037 438.339 586.878 458.063 586.735C461.768 586.708 465.531 586.978 469.298 587.248C476.092 587.735 482.898 588.224 489.399 586.975C499.376 585.057 507.235 578.79 513.019 571.024C518.249 564.012 522.324 556.109 526.12 548.154C531.317 537.276 535.944 526.106 540.569 514.94L540.569 514.94L540.569 514.94L540.569 514.939L540.569 514.939L540.569 514.938L540.57 514.938L540.57 514.938L540.57 514.937L540.57 514.937L540.57 514.937L540.57 514.936L540.571 514.936L540.571 514.936L540.571 514.935L540.571 514.935L540.571 514.935L540.571 514.934L540.572 514.934C547.59 497.989 554.604 481.054 563.604 465.16C577.155 441.301 595.633 422.115 614.757 402.991C628.98 388.768 643.2 374.542 657.42 360.316ZM761.958 298.438C751.64 308.465 740.765 317.907 729.893 327.346C712.19 342.716 694.494 358.081 679.217 375.959C675.809 379.946 672.453 383.967 669.1 387.983L669.099 387.984C660.445 398.351 651.809 408.696 642.354 418.397C634.13 426.833 625.735 435.101 617.34 443.368C612.194 448.436 607.047 453.503 601.941 458.61C599.392 461.162 596.855 463.726 594.383 466.352C591.763 469.143 589.253 472.035 586.821 474.994C570.199 495.273 559.218 519.661 548.929 544.017C546.849 548.941 544.865 553.966 542.872 559.011L542.872 559.012C535.266 578.27 527.55 597.806 513.997 613.066C502.722 625.766 488.315 625.243 471.834 624.643L471.82 624.643C471.103 624.617 470.383 624.591 469.658 624.565C447.679 623.801 431.863 630.157 416.796 643.982C414.556 646.037 412.387 648.166 410.236 650.314L318.242 742.309L309.659 733.726L408.195 635.19C415.241 628.149 422.516 621.184 431.356 616.297C436.082 613.686 441.237 611.736 446.679 610.663C454.501 609.121 462.626 609.302 470.61 609.48C486.488 609.834 501.81 610.175 513.089 596.928C524.992 582.959 532.315 564.81 539.372 547.321C540.745 543.917 542.109 540.538 543.494 537.219C543.849 536.368 544.204 535.517 544.56 534.665C551.825 517.248 559.095 499.821 568.593 483.663C584.368 456.886 606.693 435.336 628.921 413.88C638.551 404.585 648.162 395.307 657.215 385.63C661.476 381.075 665.701 376.484 669.927 371.894L669.928 371.893C680.666 360.227 691.405 348.56 702.733 337.466C710.672 329.689 718.872 322.184 727.071 314.679C735.997 306.509 744.924 298.338 753.517 289.815C754.915 291.241 756.311 292.668 757.707 294.095C759.124 295.543 760.54 296.991 761.958 298.438ZM749.139 345.041C760.805 337.026 772.474 329.008 782.993 319.602C780.027 316.661 777.069 313.713 774.116 310.756C763.36 320.762 751.897 329.806 740.468 338.822C720.221 354.795 700.082 370.684 684.165 391.693C682.549 393.827 680.94 395.961 679.333 398.092L679.333 398.093C668.63 412.29 658.029 426.353 645.836 439.376C636.12 449.753 625.979 459.711 615.838 469.668C611.109 474.312 606.38 478.955 601.694 483.641C583.747 501.713 571.213 522.868 560.411 546.201C556.351 554.984 552.587 563.965 548.821 572.953C541.842 589.608 534.853 606.287 525.951 621.772C520.211 631.761 512.88 641.791 501.282 645.375C493.852 647.67 485.82 647.076 477.815 646.484C474.093 646.208 470.377 645.933 466.73 645.95C443.377 646.058 427.063 658.286 412.069 673.266C393.964 691.358 375.867 709.46 357.77 727.561L357.77 727.561L357.77 727.561L357.769 727.561L357.769 727.561L357.769 727.562L357.769 727.562L357.769 727.562L357.769 727.562L357.769 727.562L357.768 727.562L357.768 727.562L357.768 727.563L357.768 727.563L357.768 727.563L357.768 727.563L357.768 727.563C348.724 736.609 339.68 745.654 330.636 754.699L339.646 763.709C364.086 739.27 415.635 687.725 416.99 686.408C419.694 683.782 422.459 681.214 425.361 678.801C434.474 671.228 445.048 664.905 457.312 662.895C464.613 661.697 472.099 662.04 479.597 662.383H479.597H479.598H479.598H479.598H479.598H479.598H479.598H479.598H479.598H479.599H479.599H479.599H479.599H479.599H479.599H479.599C483.402 662.557 487.208 662.731 490.994 662.705C515.484 662.533 526.45 642.428 535.404 623.193C536.255 621.365 547.129 596.647 553.193 582.863C555.324 578.02 556.86 574.527 557.161 573.849C562.215 562.455 567.448 551.157 573.375 540.262C576.351 534.796 579.463 529.415 582.933 524.283C584.513 521.946 586.143 519.646 587.843 517.399C589.453 515.276 591.117 513.196 592.843 511.172C595.289 508.316 636.261 467.152 652.823 450.529C663.794 439.511 672.344 426.505 680.894 413.498C689.448 400.485 698.002 387.472 708.982 376.447C721.017 364.362 735.076 354.703 749.139 345.041ZM804.343 340.582C792.807 350.225 779.257 357.088 765.719 363.946C749.334 372.244 732.966 380.535 720.203 393.736C707.944 406.416 699.975 422.188 692.001 437.969C684.732 452.356 677.459 466.75 666.928 478.814C656.95 490.23 645.913 500.615 634.881 510.996L634.88 510.997C619.329 525.63 603.784 540.257 591.221 557.755C589.523 560.126 587.886 562.542 586.295 564.993C578.089 577.621 571.253 591.2 564.771 604.907C563.982 606.578 563.201 608.254 562.428 609.934C559.669 615.947 557.049 622.036 554.501 628.16C552.588 632.76 550.744 637.4 548.899 642.042C545.008 651.833 541.114 661.63 536.57 671.069C529.276 686.232 519.57 699.01 501.023 699.946C495.989 700.2 490.975 700.14 485.999 700.08C473.745 699.933 461.724 699.789 450.205 704.346C439.596 708.545 430.691 715.526 422.779 723.378C409.016 737.049 395.312 750.783 381.609 764.518C374.758 771.384 367.907 778.25 361.048 785.109L351.617 775.677L417.129 710.165C431.356 695.946 447.577 684.313 469.4 683.069C474.207 682.796 479.047 682.94 483.815 683.082C498.554 683.522 512.608 683.941 522.893 671.939C525.522 668.872 527.751 665.451 529.776 661.931C531.348 659.202 532.795 656.393 534.181 653.55C537.899 645.925 541.191 638.05 544.477 630.187L544.483 630.172C545.031 628.861 545.579 627.55 546.129 626.241L546.533 625.279C546.784 624.683 547.034 624.087 547.284 623.49L547.291 623.473L547.298 623.456L547.313 623.422L547.327 623.387C548.037 621.697 548.746 620.007 549.46 618.319L550.135 616.723C564.347 583.124 579.109 548.224 604.738 522.556C622.345 504.949 662.425 464.691 664.696 462.021C673.807 451.302 680.774 438.974 687.737 426.654C696.257 411.579 704.77 396.516 717.197 384.424C729.349 372.6 744.003 364.035 758.664 355.467C771.258 348.106 783.856 340.743 794.879 331.308C797.364 333.748 799.853 336.184 802.342 338.622L802.357 338.637L802.473 338.75L804.343 340.582ZM783.645 384.938C799.335 379.876 813.806 372.547 826.114 362.049C822.768 358.718 819.413 355.393 816.045 352.073C802.664 363.232 786.97 370.704 770.572 377.133L770.133 377.306C755.303 383.12 740.253 389.02 728.797 399.998C714.586 413.617 706.639 431.649 698.689 449.691C693.839 460.696 688.988 471.705 682.712 481.718C678.577 488.314 673.906 494.494 668.708 500.237C667.104 502.009 665.457 503.741 663.779 505.441C656.257 513.064 648.631 520.588 641.005 528.113L641.003 528.115C629.755 539.212 618.507 550.311 607.591 561.726C601.036 568.594 595.19 576.122 589.894 584.042C581.171 597.111 573.688 611.159 567.059 625.55C561.179 638.318 556.106 651.495 551.092 664.7C550.731 665.653 550.371 666.607 550.011 667.56L550.002 667.583C549.386 669.214 548.77 670.846 548.149 672.475C547.525 674.112 546.905 675.782 546.279 677.468L546.278 677.471C539.155 696.653 531.215 718.039 507.829 720.009C502.018 720.499 496.117 720.245 490.216 719.991C483.745 719.712 477.274 719.434 470.916 720.136C458.962 721.456 447.76 725.466 438.406 732.274C426.087 741.241 415.602 752.341 405.217 763.381C395.04 774.2 384.548 784.691 374.047 795.191L374.047 795.191L374.047 795.191L374.047 795.191L374.047 795.191L374.047 795.191L374.047 795.191L374.046 795.191L374.046 795.191L374.046 795.191L374.046 795.192L374.046 795.192L374.046 795.192L374.046 795.192L374.044 795.194L372.587 796.651L382.446 806.509L429.961 758.995C435.682 753.281 441.639 747.854 448.795 743.872C461.552 736.777 476.211 735.494 491.38 736.358C492.784 736.438 494.212 736.533 495.654 736.628C508.582 737.484 522.706 738.419 532.136 729.829C537.581 724.871 540.97 717.926 543.829 711.116C546.359 705.091 548.475 698.862 550.59 692.638L550.592 692.632L550.593 692.629L550.594 692.626L550.595 692.623L550.596 692.621L550.597 692.618L550.598 692.615L550.598 692.612C551.183 690.893 551.767 689.174 552.36 687.459C554.806 680.409 557.26 673.362 559.864 666.385C562.806 658.505 565.873 650.677 569.263 643.023C575.061 629.963 581.722 617.397 589.409 605.504C596.793 594.079 605.282 583.688 614.844 574.114C620.527 568.43 626.26 562.785 631.993 557.138C644.359 544.96 656.732 532.775 668.645 520.178C672.085 516.541 675.358 512.747 678.422 508.779C684.454 500.963 689.593 492.477 694.09 483.599C698.117 475.649 701.495 467.107 704.888 458.525L704.89 458.522L704.89 458.521L704.89 458.521L704.89 458.52C713.123 437.703 721.448 416.65 739.345 403.225C749.902 395.305 762.758 391.373 775.529 387.466L775.532 387.465C778.248 386.634 780.96 385.804 783.645 384.938ZM847.833 383.913C831.642 399.772 813.178 407.706 790.073 411.475C770.541 414.605 750.582 418.015 738.512 434.054C729.375 446.195 724.29 460.834 719.23 475.398L719.23 475.399C717.329 480.872 715.431 486.335 713.323 491.651C710.815 497.978 708.155 504.234 705.272 510.366C702.581 516.089 699.662 521.681 696.503 527.122C689.061 539.927 680.206 551.555 669.808 561.954C663.42 568.341 656.836 574.636 650.231 580.951C633.546 596.902 616.729 612.979 602.621 630.995C597.174 637.954 592.282 645.355 587.967 653.133C586.383 655.992 584.882 658.902 583.447 661.85C581.562 665.714 579.789 669.643 578.11 673.617C576.362 677.759 574.735 681.965 573.207 686.215C571.325 691.455 569.629 696.772 568.084 702.156C566.043 709.27 564.271 716.482 562.511 723.701C561.99 725.836 561.498 727.994 561.005 730.159L561.004 730.163C558.762 739.992 556.492 749.947 551.425 758.423C545.288 768.685 535.46 772.124 523.219 771.999C517.615 771.942 511.919 771.503 506.223 771.064L506.223 771.064L506.223 771.064L506.222 771.064L506.222 771.064L506.221 771.064L506.221 771.064L506.221 771.064L506.22 771.064L506.22 771.064L506.22 771.064L506.219 771.064L506.219 771.064L506.218 771.064C489.88 769.805 473.543 768.547 459.376 776.292C455.363 778.487 451.632 781.109 448.179 784.05C437.262 793.369 427.203 803.821 417.187 814.228L417.187 814.229C412.756 818.833 408.334 823.427 403.85 827.911L393.569 817.63L434.543 776.657C442.487 768.715 451.174 761.26 462.121 757.418C472.285 753.849 483.553 753.444 494.695 754.16C496.732 754.291 498.772 754.449 500.805 754.606C518.456 755.97 535.571 757.293 545.086 740.598C547.836 735.771 549.802 730.462 551.579 725.126C553.91 718.154 555.983 711.083 558.055 704.013L558.055 704.012L558.055 704.012L558.055 704.012L558.055 704.011L558.055 704.011L558.055 704.011L558.056 704.01L558.056 704.01L558.056 704.01L558.056 704.009L558.056 704.009L558.056 704.009L558.056 704.008L558.056 704.008L558.056 704.007C560.793 694.672 563.529 685.338 566.858 676.235C568.445 671.896 570.11 667.594 571.867 663.338C576.423 652.305 581.58 641.568 587.7 631.449C594.276 620.587 601.797 610.307 610.38 601.044C612.913 598.314 615.535 595.67 618.166 593.036C631.226 579.976 644.281 566.911 657.33 553.842C669.889 541.265 682.033 528.716 691.423 513.341C696.272 505.396 700.431 496.993 704.205 488.406C707.051 481.912 709.558 474.98 712.092 467.973L712.093 467.969L712.095 467.965L712.095 467.964L712.095 467.964L712.095 467.964L712.095 467.964L712.095 467.963L712.096 467.963L712.096 467.963L712.096 467.963L712.096 467.962L712.096 467.962L712.096 467.962C720.283 445.321 728.755 421.893 749.889 409.857C759.598 404.329 770.84 401.88 782.016 399.446C786.513 398.467 791 397.489 795.372 396.315C811.366 392.016 825.519 384.253 837.457 373.425C837.456 373.426 846.108 382.175 847.833 383.913ZM852.337 422.037C853.733 420.766 864.973 409.6 869.243 405.33L858.533 394.621L853.548 399.606C851.577 401.574 849.583 403.516 847.509 405.375C836.344 415.383 822.562 421.803 807.161 424.136C802.216 424.885 797.139 425.268 792.056 425.651L792.055 425.651C782.846 426.346 773.615 427.043 765.102 429.919C741.91 437.753 733.606 462.105 726.052 484.259C724.6 488.518 723.176 492.695 721.679 496.659C718.86 504.118 715.939 511.532 712.756 518.809C709.441 526.382 705.817 533.795 701.874 541.004C698.992 546.265 695.927 551.409 692.61 556.376C688.88 561.95 684.862 567.317 680.444 572.333C670.141 584.027 658.716 594.79 647.285 605.559C631.588 620.347 615.879 635.147 603.043 652.385C594.693 663.605 588.081 676.194 582.812 689.352C579.788 696.905 577.315 704.688 575.199 712.63C572.653 722.197 570.729 731.971 568.805 741.745C568.025 745.708 567.245 749.671 566.423 753.621C564.043 765.065 560.704 778.023 550.617 784.462C539.646 791.464 525.574 789.342 511.774 787.262C504.517 786.168 497.335 785.085 490.719 785.346C472.267 786.087 458.609 794.548 446.478 806.678L414.548 838.609L425.256 849.317C428.861 845.712 432.406 841.978 435.962 838.231L435.963 838.231L435.963 838.23L435.963 838.23L435.964 838.23L435.964 838.229L435.964 838.229L435.965 838.229L435.965 838.228L435.965 838.228L435.966 838.228L435.966 838.227L435.966 838.227C444.7 829.026 453.506 819.748 463.461 812.115C469.323 807.629 476.011 804.325 483.331 802.376C495.59 799.112 508.648 800.68 521.616 802.238C525.164 802.664 528.705 803.089 532.221 803.415C540.813 804.209 550.261 804.895 557.662 800.903C565.247 796.811 568.876 788.506 571.178 780.382C573.755 771.286 575.291 761.803 576.825 752.332C577.644 747.281 578.461 742.233 579.436 737.249C582.381 722.261 586.284 707.587 592.577 693.977C596.372 685.779 600.868 677.932 606.122 670.691C611.395 663.448 617.569 657.007 623.875 650.698C629.984 644.59 636.152 638.528 642.323 632.465C655.368 619.647 668.422 606.819 680.938 593.518C686.408 587.693 691.271 581.318 695.681 574.617C699.886 568.225 703.692 561.543 707.229 554.714C716.924 535.968 724.489 516.132 731.91 496.206C732.373 494.963 732.834 493.713 733.296 492.461C741.814 469.37 750.705 445.268 778.596 442.03C784.267 441.372 790.039 441.262 795.811 441.152C802.94 441.016 810.069 440.88 817.008 439.71C830.613 437.416 842.551 430.943 852.337 422.037ZM881.617 435.846L881.615 435.847L881.615 435.848L881.614 435.848L881.614 435.848L881.613 435.849L881.613 435.849L881.613 435.85L881.612 435.85L881.612 435.85L881.612 435.851L881.611 435.851L881.611 435.852C874.979 442.574 868.345 449.299 861.5 455.793C854.784 462.161 847.325 467.965 838.706 471.784C834.913 473.463 830.902 474.688 826.749 475.511C819.021 477.043 810.997 476.261 802.966 475.478L802.965 475.478C796.865 474.884 790.761 474.289 784.778 474.707C767.231 475.932 758.162 488.413 751.109 502.722C749.7 505.579 748.373 508.483 747.089 511.41C745.368 515.339 743.736 519.312 742.13 523.3C740.77 526.676 739.429 530.062 738.088 533.448C736.747 536.835 735.406 540.222 734.046 543.6C729.279 555.434 724.469 567.253 719.125 578.788C717.324 582.675 715.484 586.54 713.553 590.354C702.134 612.942 685.914 631.399 668.324 649.049C662.276 655.119 656.213 661.175 650.15 667.232C647.235 670.143 644.321 673.054 641.408 675.967C639.469 677.906 637.501 679.826 635.531 681.748L635.53 681.749L635.529 681.75L635.528 681.752L635.527 681.753L635.525 681.754L635.524 681.755L635.523 681.757L635.522 681.758L635.52 681.759L635.519 681.76L635.518 681.762C628.217 688.885 620.887 696.037 614.865 704.299C603.17 720.358 597.699 740.136 594.467 760.249C593.339 767.299 592.581 774.442 591.823 781.582L591.823 781.582L591.823 781.582L591.823 781.583L591.823 781.583L591.823 781.584L591.823 781.584L591.823 781.584L591.823 781.585L591.823 781.585L591.823 781.586L591.823 781.587L591.822 781.591L591.822 781.596L591.821 781.6L591.821 781.605L591.82 781.609L591.82 781.614L591.819 781.618L591.819 781.623L591.818 781.627L591.818 781.632C591.612 783.575 591.406 785.517 591.192 787.458C591.018 789.045 590.86 790.648 590.701 792.259C589.77 801.71 588.813 811.418 584.546 819.597C579.512 829.243 569.961 832.692 558.899 832.731C551.364 832.758 543.755 831.895 536.156 831.033C523.469 829.594 510.808 828.158 498.564 830.872C487.438 833.358 478.314 839.139 470.53 846.851C465.214 852.131 459.921 857.436 454.628 862.74L454.613 862.755C451.963 865.411 449.313 868.067 446.66 870.72L435.525 859.586C438.765 856.346 441.984 852.87 445.252 849.341C458.118 835.447 471.753 820.723 490.5 816.275C503.301 813.238 516.588 814.835 529.915 816.438L529.916 816.438L529.917 816.438L529.918 816.438L529.92 816.438L529.924 816.439L529.929 816.439L529.931 816.439L529.931 816.439C533.329 816.848 536.73 817.257 540.126 817.589C549.31 818.491 559.34 819.152 567.007 814.439C575.247 809.376 578.219 799.358 580.145 790.073C581.881 781.72 583.048 773.205 584.214 764.689C585.466 755.548 586.719 746.404 588.678 737.454C589.449 733.934 590.29 730.437 591.252 726.986C592.181 723.657 593.202 720.364 594.349 717.128C596.492 711.099 599.036 705.266 602.068 699.713C607.256 690.214 613.71 681.589 621.216 673.921C628.988 665.977 637.213 658.288 645.47 650.569L645.471 650.568L645.472 650.568L645.472 650.567L645.473 650.566L645.474 650.565L645.475 650.564L645.475 650.564L645.476 650.563L645.477 650.562L645.478 650.561L645.479 650.561C664.695 632.596 684.088 614.465 698.384 592.579C702.602 586.121 706.393 579.366 709.951 572.477C714.709 563.251 718.986 553.748 723.047 544.137C724.464 540.781 731.583 522.894 732.24 521.174C733.769 517.181 735.21 512.841 736.696 508.366C743.149 488.929 750.455 466.922 769.538 459.515C779.363 455.702 790.23 456.164 801.11 456.626C811.113 457.051 821.127 457.476 830.352 454.58C839.92 451.328 848.285 445.894 855.59 439.266C858.013 437.068 860.337 434.769 862.649 432.458L879.511 415.595L890.648 426.732L890.647 426.733C887.63 429.75 884.632 432.789 881.634 435.829L881.632 435.83L881.63 435.832L881.628 435.834L881.627 435.835L881.625 435.837L881.623 435.839L881.622 435.841L881.62 435.842L881.618 435.844L881.617 435.846ZM898.712 461.482C903.155 457.031 907.597 452.581 912.044 448.135L900.489 436.58C889.846 447.224 866.635 470.423 865.643 471.387C861.582 475.331 857.302 479.038 852.709 482.377C850.372 484.009 847.959 485.532 845.433 486.886C832.824 493.648 818.015 493.604 803.271 492.427C788.631 491.257 774.669 491.837 765.002 502.769C762.511 505.582 760.371 508.709 758.419 511.941C749.812 526.181 743.668 541.986 737.548 557.729C735.183 563.811 732.823 569.884 730.325 575.854C724.578 589.583 718.642 603.291 711.404 616.177C705.009 627.542 697.536 638.125 688.885 647.755C686.361 650.559 648.353 688.714 631.979 705.088C628.508 708.559 625.087 712.078 622.014 715.92C620.38 717.962 618.848 720.089 617.428 722.298C615.143 725.863 613.156 729.634 611.429 733.542C610.191 736.35 609.096 739.232 608.107 742.16C607.065 745.254 606.159 748.407 605.347 751.593C602.508 762.744 601.037 774.293 599.939 785.925C599.638 789.133 599.38 792.35 599.122 795.569C598.626 801.759 598.13 807.95 597.327 814.07C596.622 819.45 595.725 824.881 593.765 829.825C591.447 835.669 587.4 840.246 581.498 842.564C571.852 846.353 560.663 845.174 549.992 844.05C549.02 843.947 548.052 843.845 547.09 843.747L546.611 843.698L545.947 843.63L545.138 843.547L544.461 843.477C533.39 842.335 522.097 841.171 511.338 842.633C490.465 845.47 476.535 859.896 463.01 873.903L463.008 873.906C460.839 876.152 458.68 878.387 456.505 880.562L468.062 892.119C470.4 889.781 472.712 887.331 475.043 884.86C484.885 874.428 495.078 863.624 509.132 859.279C515.395 857.343 522.071 856.601 528.792 856.363C533.814 856.251 538.863 856.44 543.929 856.78C547.267 857.005 550.667 857.344 554.093 857.685L554.093 857.685L554.093 857.685L554.094 857.685L554.094 857.685H554.094C566.123 858.884 578.455 860.113 589.441 856.528C605.033 851.437 607.009 834.762 607.75 819.779C607.836 818.018 607.916 816.256 607.995 814.494L607.996 814.484C608.068 812.879 608.14 811.275 608.218 809.671C608.483 804.341 608.777 799.014 609.219 793.716C610.094 783.31 611.429 772.923 614.055 763C619.135 743.98 629.658 730.541 642.861 717.36C644.67 715.554 646.48 713.748 648.289 711.942L648.289 711.942L648.29 711.942L648.29 711.942L648.29 711.941L648.29 711.941L648.291 711.941L648.291 711.941L648.291 711.94L648.291 711.94C659.632 700.622 670.974 689.303 682.25 677.921C688.735 671.376 694.807 664.452 700.373 657.084C708.438 646.408 715.304 634.851 721.294 622.758C722.862 619.588 724.356 616.373 725.809 613.138C726.928 610.649 738.779 582.314 739.845 579.697L739.947 579.445C744.582 568.06 749.215 556.681 754.456 545.616C759.454 535.062 765.06 524.082 774.788 517.359C784.617 510.564 797.012 511.537 809.223 512.495C813.745 512.849 818.241 513.202 822.572 513.158C842.665 512.953 858.014 502.087 871.072 489.102C880.307 479.917 889.509 470.699 898.712 461.482ZM933.45 469.536L933.15 469.836C915.655 487.331 898.159 504.826 880.661 522.317C880.148 522.83 879.636 523.343 879.124 523.856C873.297 529.699 867.48 535.532 860.536 540.136C844.407 550.827 826.154 550.604 806.384 549.777C797.11 549.39 788.029 550.203 780.683 555.283C768.88 563.442 762.255 578.316 756.449 591.352L756.024 592.304C755.905 592.573 755.785 592.84 755.666 593.107C752.69 599.76 749.891 606.507 747.11 613.262C746.901 613.768 746.693 614.275 746.485 614.781C746.214 615.44 745.944 616.099 745.674 616.758L745.597 616.945C745.032 618.322 744.467 619.698 743.901 621.074C741.394 627.157 738.839 633.213 736.136 639.192C732.768 646.639 729.263 654.023 725.407 661.188C715.029 680.457 702.856 698.637 688.097 714.571C679.291 724.068 670.052 733.174 660.821 742.273C657.121 745.92 653.423 749.565 649.754 753.234C640.373 762.617 633.958 773.468 630.49 786.718C629.303 791.279 628.436 795.957 627.813 800.69C627.165 805.655 626.79 810.683 626.692 815.753C626.566 822.337 626.944 828.967 627.473 835.605C628.994 854.556 627.385 872.652 607.595 878.405C601.768 880.098 595.587 880.864 589.395 881.24C582.255 881.672 575.016 881.511 567.776 881.35L567.776 881.35C557.59 881.123 547.404 880.896 537.498 882.323C527.811 883.727 518.853 887.012 511.276 892.669C505.296 897.137 500.06 902.581 494.861 907.985L494.861 907.985L494.86 907.986L494.86 907.986L494.86 907.987L494.859 907.987L494.859 907.987L494.858 907.988L494.858 907.988L494.857 907.989C493.065 909.852 491.278 911.711 489.465 913.523L477.481 901.539C479.527 899.493 481.547 897.407 483.569 895.318L483.569 895.318L483.57 895.318L483.57 895.318L483.57 895.317L483.57 895.317L483.57 895.317L483.57 895.317L483.571 895.317L483.571 895.316C488.569 890.155 493.582 884.977 499.042 880.35C510.256 870.87 524.728 867.644 540.015 867.576C544.839 867.555 550.462 867.987 556.428 868.444L556.428 868.444C580.097 870.261 609.153 872.491 615.011 848.482C616.99 840.366 616.729 831.492 616.47 822.712L616.47 822.711L616.47 822.71V822.71L616.47 822.71L616.47 822.71L616.47 822.709L616.47 822.709L616.47 822.709C616.34 818.321 616.212 813.957 616.364 809.723C616.915 794.36 618.64 778.99 623.751 764.94C627.416 754.88 632.875 746.167 640.286 738.736C645.345 733.677 650.482 728.67 655.623 723.658L655.623 723.658L655.623 723.658L655.623 723.657L655.624 723.657L655.624 723.657L655.624 723.657L655.624 723.657L655.624 723.656L655.625 723.656C667.946 711.645 680.294 699.608 691.672 686.763C703.633 673.232 713.698 657.951 722.14 641.818C724.604 637.107 726.932 632.315 729.159 627.467C731.863 621.576 734.369 615.579 736.851 609.571C738.58 605.383 740.277 601.176 741.974 596.969L741.975 596.966C746.147 586.624 750.32 576.278 754.974 566.195C757.601 560.504 760.415 554.896 763.697 549.607C769.229 540.684 776.27 532.516 786.961 529.702C794.257 527.782 802.109 528.338 809.877 528.888C812.009 529.039 814.135 529.19 816.241 529.288C824.52 529.676 832.825 529.418 840.594 527.342C854.219 523.698 864.435 514.572 873.957 505.065L921.472 457.55L933.453 469.532L933.45 469.536ZM929.651 516.983L929.652 516.981L929.653 516.98L929.654 516.979L929.655 516.978L929.656 516.977L929.658 516.976L929.659 516.974L929.66 516.973C938.009 508.2 946.345 499.441 954.847 490.939L942.442 478.534C935.018 485.958 927.673 493.489 920.324 501.025L920.322 501.027L920.32 501.03L920.317 501.032L920.315 501.034L920.313 501.037L920.31 501.039L920.308 501.041L920.306 501.044L920.304 501.045C904.826 516.917 889.328 532.807 873.034 547.757C867.318 552.998 860.953 557.577 853.769 560.817C843.046 565.652 831.427 566.947 819.187 566.412C817.741 566.349 816.285 566.267 814.826 566.185C807.726 565.788 800.53 565.385 793.82 567.021C784.725 569.239 778.009 575.405 772.712 582.604C763.526 595.086 757.489 609.708 751.499 624.212L751.498 624.214L751.497 624.217L751.496 624.22L751.495 624.223L751.494 624.225L751.486 624.245L751.478 624.265L751.469 624.284C750.031 627.767 748.595 631.244 747.119 634.681C746.006 637.269 744.887 639.854 743.75 642.429C731.209 670.759 716.599 698.244 697.16 721.969C692.227 727.979 687.043 733.778 681.609 739.33C675.803 745.261 669.918 751.115 664.033 756.969L664.033 756.969L664.033 756.97L664.033 756.97L664.032 756.97L664.032 756.971L664.032 756.971L664.032 756.971L664.031 756.971C661.432 759.558 658.832 762.144 656.24 764.736C652.846 768.135 649.623 771.67 646.908 775.662C643.198 781.134 640.498 787.323 638.576 793.785C634.149 808.686 634.128 824.474 636.537 840.52L636.56 840.676C638.786 855.474 641.047 870.509 628.721 879.854C613.806 891.16 594.195 891.164 574.512 891.167C557.616 891.17 540.667 891.173 526.587 898.325C524.475 899.399 522.442 900.608 520.503 901.945C514.124 906.345 508.68 911.985 503.289 917.571C501.682 919.236 500.079 920.897 498.458 922.518L510.863 934.924C512.244 933.543 513.61 932.138 514.979 930.73L514.982 930.727C519.876 925.695 524.802 920.63 530.509 916.539C545.528 905.802 564.876 904.368 583.78 902.967L583.781 902.967L583.782 902.967L583.782 902.967L583.783 902.967L583.784 902.967L583.785 902.967L583.786 902.967L583.787 902.967C588.415 902.624 593.017 902.283 597.522 901.807C615.43 899.915 636.664 896.674 647.774 882.166C655.916 871.533 652.822 857.851 649.855 844.728C649.39 842.672 648.928 840.629 648.512 838.613C647.92 835.735 647.442 832.844 647.139 829.955C646.361 822.507 646.913 815.155 648.779 808.216C650.171 803.048 652.199 798.104 654.849 793.577C656.699 790.419 658.859 787.473 661.265 784.749C664.601 780.974 668.216 777.434 671.824 773.902L671.824 773.902L671.825 773.902L671.825 773.901L671.825 773.901L671.826 773.901L671.826 773.9L671.826 773.9L671.827 773.9C673.288 772.469 674.748 771.039 676.188 769.596C683.426 762.331 690.322 754.772 696.764 746.778C706.899 734.181 715.987 720.778 724.168 706.727C730.93 695.111 737.193 683.153 743.101 671.013C746.29 664.447 752.525 650.847 757.342 640.341L757.348 640.33L757.35 640.324C760.44 633.585 762.945 628.121 763.685 626.609C765.09 623.743 766.542 620.904 768.08 618.116C769.488 615.564 770.965 613.052 772.551 610.617C782.515 595.287 797.39 588.716 816.403 588.716C817.128 588.716 817.853 588.717 818.577 588.718C828.079 588.732 837.565 588.746 846.573 586.383C856.678 583.733 865.535 578.258 873.304 571.795C893.376 555.097 911.546 536.006 929.65 516.983L929.651 516.983ZM976.25 512.342C966.63 521.962 957.015 531.584 947.399 541.207L947.354 541.251C927.757 560.862 908.16 580.473 888.534 600.056C878.594 609.973 867.811 619.42 854.066 624.12C844.431 627.416 834.223 628.261 823.967 629.111L823.966 629.111L823.966 629.111L823.965 629.111L823.964 629.111L823.963 629.111L823.962 629.111L823.961 629.111C820.161 629.426 816.354 629.741 812.568 630.182C784.036 633.503 771.821 657.91 760.336 680.858C759.078 683.371 757.828 685.867 756.567 688.316C755.314 690.75 754.063 693.186 752.813 695.621L752.813 695.621C741.726 717.217 730.659 738.771 717.491 759.063C709.869 770.787 701.778 782.211 692.851 792.915C691.127 794.982 689.261 796.998 687.38 799.03C681.468 805.419 675.416 811.957 673.221 820.682C671.016 829.452 673.717 838.298 676.414 847.129C677.046 849.198 677.677 851.267 678.246 853.333C681.451 864.99 680.776 876.491 674.898 886.097C672.831 889.473 670.322 892.552 667.532 895.322C664.538 898.291 661.218 900.936 657.691 903.274C654.075 905.666 650.255 907.776 646.295 909.629C642.4 911.45 638.386 913.061 634.286 914.471C624.238 917.921 613.369 919.939 602.471 921.962C584.662 925.268 566.776 928.589 552.272 938.197C547.745 941.198 543.79 944.807 539.97 948.622L532.264 956.328L519.432 943.495C520.653 942.274 521.864 941.037 523.076 939.799L523.079 939.796L523.082 939.793L523.085 939.79L523.088 939.787L523.091 939.784L523.094 939.781L523.097 939.778L523.098 939.778C526.75 936.047 530.412 932.307 534.396 928.943C541.986 922.541 551.085 918.39 560.958 915.906C564.32 915.061 567.741 914.384 571.183 913.795C577.525 912.711 583.943 911.915 590.36 911.12L590.36 911.12L590.361 911.12L590.362 911.12L590.362 911.12L590.363 911.12C598.805 910.073 607.246 909.027 615.514 907.323C620.927 906.203 626.241 904.765 631.383 902.937C635.302 901.54 639.11 899.888 642.733 897.935C646.22 896.052 649.53 893.857 652.505 891.284C660.827 884.086 665.449 873.902 663.868 862.045C663.201 857.041 661.731 852.136 660.26 847.232C658.522 841.435 656.785 835.641 656.376 829.689C654.998 809.661 667.621 795.633 679.844 782.831C684.282 778.178 688.573 773.384 692.72 768.462C714.193 742.918 730.603 713.556 745.675 683.532C748.704 677.493 751.62 671.391 754.536 665.288L754.546 665.267L754.556 665.246C755.583 663.098 756.609 660.949 757.641 658.804C758.001 658.053 758.361 657.302 758.721 656.551L758.732 656.529L758.732 656.528C763.601 646.37 768.502 636.147 774.664 626.808C779.024 620.197 784.233 614.068 791.214 610.118C800.802 604.692 812.284 604.526 823.641 604.362C827.819 604.302 831.981 604.242 836.025 603.921C854.554 602.447 869.399 592.963 881.974 580.893C900.602 563.009 918.765 544.616 936.922 526.23L936.923 526.229L936.924 526.228L936.925 526.227L936.926 526.226L936.927 526.225L936.928 526.224L936.929 526.223L936.932 526.219L936.936 526.215L936.94 526.212L936.944 526.208L936.948 526.204L936.952 526.2L936.956 526.196C945.76 517.28 954.564 508.366 963.418 499.511L976.25 512.342ZM961.188 570.99C973.291 558.496 985.387 546.009 997.654 533.742L984.394 520.482L890.236 614.64C878.151 626.711 864.979 637.248 847.83 641.965C840.897 643.871 833.512 644.409 826.137 644.945L826.136 644.945C817.039 645.607 807.958 646.267 799.766 649.496C783.273 655.995 773.903 673.177 765.714 688.195C765.133 689.26 764.558 690.314 763.987 691.353C759.54 699.441 755.284 707.645 751.028 715.85L751.028 715.85L751.028 715.85L751.028 715.851L751.028 715.851L751.027 715.851L751.027 715.852C745.317 726.86 739.606 737.869 733.434 748.596C722.974 766.768 711.723 784.471 698.931 800.95C690.069 812.351 682.028 822.736 685.451 839.096C685.973 841.594 686.536 844.022 687.088 846.399C689.901 858.521 692.406 869.314 687.577 881.33C676.873 907.966 646.094 919.824 619.674 926.694C616.106 927.622 612.531 928.501 608.968 929.378C586.551 934.892 564.639 940.283 548.114 956.763L540.408 964.469L553.668 977.729L561.374 970.023C563.082 968.32 564.811 966.638 566.613 965.033C580.251 952.902 598.013 947.063 615.576 941.549C651.777 930.173 691.776 914.108 704.798 875.622C707.889 866.485 707.176 856.602 706.467 846.786C705.65 835.457 704.838 824.219 709.89 814.324C711.876 810.43 714.194 806.73 716.505 803.043C716.851 802.491 717.197 801.939 717.541 801.387C721.413 795.169 725.181 788.877 728.929 782.572C734.057 773.92 749.103 746.702 758.648 729.435C762.877 721.785 766.026 716.089 766.754 714.826C768.974 710.976 771.245 707.157 773.656 703.436C775.832 700.073 778.107 696.773 780.562 693.623C790.452 680.916 804.017 674.356 820.6 672.613C837.969 670.788 854.716 667.764 869.087 658.599C874.14 655.377 878.862 651.72 883.301 647.738C910.391 623.428 935.803 597.195 961.184 570.994L961.184 570.994L961.185 570.993L961.186 570.992L961.186 570.992L961.187 570.991L961.188 570.99ZM1019.06 555.143C990.925 583.274 962.793 611.404 934.662 639.533L929.22 644.974C924.511 649.682 919.799 654.673 915.016 659.738C898.472 677.257 881.089 695.665 860.145 706.33C850.607 711.187 840.336 713.173 829.976 715.176L829.976 715.176C824.007 716.33 818.01 717.489 812.105 719.207C794.248 724.402 783.257 737.799 773.525 752.592C761.313 771.116 750.092 790.779 742.728 812.171C739.456 821.674 737.723 831.727 735.99 841.776C734.016 853.226 732.042 864.671 727.795 875.294C719.839 895.185 706.807 912.467 690.644 925.952C675.747 938.354 658.383 946.413 640.996 954.483L640.995 954.483L640.994 954.483C628.3 960.375 615.593 966.273 603.825 973.87C599.78 976.483 595.884 979.309 592.241 982.431C587.615 986.397 583.335 990.747 579.061 995.092L579.059 995.093L579.058 995.095L579.056 995.097L579.054 995.098L579.053 995.1L579.051 995.102C577.726 996.448 576.402 997.795 575.068 999.128L561.386 985.446L569.092 977.74C574.673 972.163 580.595 967.107 587.39 962.968C589.758 961.527 592.198 960.197 594.687 958.947C604.749 953.904 615.392 949.999 626.039 946.093C636.961 942.085 647.888 938.077 658.195 932.836C676.531 923.505 692.878 910.703 704.19 893.523C706.689 889.727 708.923 885.731 710.836 881.564C717.553 866.925 717.662 851.943 717.78 835.546L717.785 834.932C717.888 820.592 723.797 809.297 730.195 797.527C739.132 781.088 748.247 764.755 757.383 748.441C758.974 745.6 760.562 742.646 762.179 739.638L762.18 739.636L762.181 739.635C771.349 722.579 781.434 703.818 798.116 694.417C806.271 689.819 815.867 688.845 825.386 687.879L825.386 687.879C827.829 687.631 830.267 687.384 832.674 687.076C844.756 685.53 856.096 681.864 866.186 675.797C880.847 666.981 892.864 654.561 904.731 642.296L904.736 642.29C907.719 639.207 910.692 636.134 913.696 633.131L984.049 562.777L1005.37 541.456L1019.06 555.143ZM965.221 651.784L1040.46 576.546L1026.35 562.435C1011.69 577.096 997.031 591.762 982.374 606.428C952.642 636.18 922.909 665.932 893.137 695.644C876.17 712.571 857.648 725.125 833.27 730.456C832.776 730.563 832.283 730.671 831.789 730.779C821.041 733.121 810.14 735.497 800.848 741.043C790.336 747.317 782.555 757.192 775.87 767.258C763.291 786.195 753.881 806.893 747.999 829.421C747.141 832.706 746.31 836.007 745.478 839.311L745.477 839.315L745.476 839.32L745.474 839.324L745.473 839.329L745.473 839.33C740.75 858.082 736.006 876.917 726.341 893.341C723.797 897.659 721.046 901.84 718.085 905.857C714.126 911.229 709.845 916.35 705.204 921.123C701.845 924.574 698.323 927.869 694.643 930.982C678.196 944.891 658.991 954.623 639.733 964.383C637.028 965.753 634.323 967.124 631.624 968.507C622.103 973.386 612.789 978.711 604.482 985.334C602.744 986.719 601.048 988.155 599.4 989.641C597.321 991.515 595.318 993.471 593.337 995.449L582.363 1006.42L596.472 1020.53C598.517 1018.49 600.545 1016.42 602.574 1014.35L602.579 1014.34L602.584 1014.34L602.589 1014.33L602.594 1014.33L602.595 1014.33L602.596 1014.33L602.596 1014.33L602.597 1014.33C609.381 1007.4 616.185 1000.46 623.701 994.344C629.737 989.435 636.217 985.086 642.866 980.986C647.123 978.362 651.427 975.809 655.732 973.256L655.743 973.249C659.67 970.919 663.597 968.589 667.488 966.206C671.865 963.523 676.194 960.772 680.455 957.925C699.863 944.951 717.193 929.016 730.681 909.938C743.681 891.553 752.665 870.483 760.082 848.876C765.135 834.159 770.221 819.36 777.472 805.759C779.861 801.275 782.485 796.927 785.444 792.836C798.187 775.192 817.429 767.503 836.84 759.746C850.639 754.232 864.523 748.684 876.22 739.501C889.277 729.249 900.807 717.176 912.301 705.14L912.302 705.139L912.302 705.138L912.303 705.138L912.303 705.137L912.304 705.137L912.305 705.136L912.306 705.135L912.306 705.134C916.923 700.3 921.534 695.471 926.236 690.769L965.221 651.784ZM1061.86 597.946L891.472 768.334C879.509 780.294 866.385 791.049 852.053 800.203C848.245 802.635 844.362 804.974 840.476 807.314L840.471 807.317L840.467 807.32L840.462 807.323C830.117 813.553 819.761 819.79 810.788 827.806C794.39 842.453 783.786 861.761 773.197 881.039C768.047 890.417 762.9 899.787 757.093 908.611C747.466 923.23 736.719 937.039 724.401 949.387C711.264 962.534 696.463 973.61 681.633 984.707C675.799 989.072 669.961 993.44 664.218 997.94C660.434 1000.9 656.726 1003.96 653.143 1007.15C644.26 1015.09 635.895 1023.62 627.542 1032.14L627.541 1032.14L627.541 1032.14L627.54 1032.14L627.535 1032.14L627.53 1032.15L627.525 1032.15C624.316 1035.43 621.109 1038.7 617.875 1041.93L603.344 1027.4C605.61 1025.13 607.86 1022.85 610.111 1020.57L610.113 1020.56L610.115 1020.56L610.117 1020.56C615.785 1014.81 621.457 1009.05 627.382 1003.58C639.906 992.01 654.255 982.742 668.616 973.467C683.14 964.086 697.675 954.698 710.344 942.919C722.974 931.176 733.874 917.68 743.068 902.993C749.527 892.668 755.016 881.728 759.955 870.486C762.418 864.867 764.721 859.111 767.03 853.339L767.032 853.335C773.478 837.223 779.973 820.988 790.122 807.258C793.725 802.382 797.81 797.862 802.451 793.969C812.753 785.323 825.355 779.944 837.82 774.623C838.974 774.13 840.127 773.638 841.276 773.144C855.528 767.019 868.47 759.87 880.24 750.034C894.172 738.392 906.75 725.19 919.306 712.013L919.31 712.008C925.105 705.926 930.895 699.849 936.811 693.933L1021.11 609.636L1047.33 583.414L1061.86 597.945L1061.86 597.946ZM1016.86 686.32L1016.86 686.32L1016.86 686.319C1038.95 663.948 1061.03 641.577 1083.26 619.348L1068.3 604.389L890.274 782.417C876.642 796.029 861.516 808.026 845.685 819.085C844.505 819.909 843.323 820.731 842.14 821.554L842.14 821.555C827.91 831.456 813.577 841.431 802.35 854.7C792.478 866.365 784.345 879.367 776.211 892.371C770.579 901.375 764.946 910.379 758.736 918.941C743.594 939.815 725.968 958.736 706.092 975.111C700.795 979.47 695.38 983.694 689.965 987.917L689.963 987.919L689.961 987.921C681.812 994.276 673.663 1000.63 665.916 1007.45C661.618 1011.23 657.495 1015.2 653.448 1019.25L624.317 1048.38L639.275 1063.34C652.932 1049.68 685.734 1016.94 686.902 1015.82C694.58 1008.42 702.603 1001.4 710.626 994.382L710.626 994.381L710.627 994.38L710.63 994.378C718.301 987.665 725.972 980.951 733.343 973.913C748.492 959.446 762.402 943.734 775.535 927.395C777.752 924.633 779.949 921.853 782.146 919.073L782.16 919.055C783.66 917.158 785.159 915.26 786.666 913.368C797.818 899.344 809.242 885.591 822.328 873.349C831.308 864.948 840.667 856.967 850.027 848.987C860.66 839.921 871.292 830.856 881.367 821.172C927.315 777.013 972.087 731.667 1016.86 686.32ZM1104.66 640.749L660.676 1084.74L645.295 1069.36C650.574 1064.08 655.853 1058.8 661.132 1053.52C671.689 1042.96 682.246 1032.39 692.81 1021.84C701.923 1012.74 711.443 1004.08 720.968 995.415L720.969 995.414L721.069 995.324C747.274 971.474 770.198 945.271 793.444 918.701L793.445 918.701L793.531 918.602C795.12 916.785 796.711 914.967 798.305 913.147C803.927 906.723 809.671 900.407 815.665 894.333C827.186 882.656 839.389 871.691 851.594 860.724L851.595 860.723L851.597 860.721C863.078 850.403 874.562 840.084 885.481 829.17L1089.28 625.369L1104.66 640.749ZM682.079 1106.14L1126.07 662.152L1110.26 646.346L666.273 1090.33L682.079 1106.14Z" fill="white"/>
</g>
<rect opacity="0.1" x="746.5" y="25" width="228" height="47" rx="12" fill="#0C6BEA"/>
<rect opacity="0.1" x="245" y="99" width="242.655" height="227" rx="12" fill="#0C6BEA"/>
<rect x="289.328" y="266" width="154" height="35" rx="6" fill="#0C6BEA"/>
<rect x="327.328" y="281" width="78" height="6" rx="3" fill="white"/>
<path d="M427.828 185.5C427.828 197.664 424.221 209.554 417.464 219.668C410.706 229.781 401.101 237.664 389.863 242.319C378.626 246.973 366.26 248.191 354.33 245.818C342.4 243.445 331.442 237.588 322.841 228.987C314.24 220.386 308.383 209.428 306.01 197.498C303.637 185.568 304.855 173.203 309.51 161.965C314.164 150.727 322.047 141.122 332.161 134.365C342.274 127.607 354.165 124 366.328 124L366.328 185.5H427.828Z" fill="#FFF85A"/>
<circle cx="366.328" cy="185.5" r="35.2721" fill="white"/>
<circle cx="950.592" cy="44.6066" r="7.5" transform="rotate(45 950.592 44.6066)" stroke="#0C6BEA" stroke-width="4"/>
<path d="M945.642 50.2632L937.156 58.7485" stroke="#0C6BEA" stroke-width="4"/>
<path d="M246.926 58V42.0909H248.853V49.1754H257.336V42.0909H259.262V58H257.336V50.8844H248.853V58H246.926ZM262.871 58V46.0682H264.704V58H262.871ZM263.803 44.0795C263.445 44.0795 263.137 43.9578 262.878 43.7144C262.625 43.471 262.498 43.1784 262.498 42.8366C262.498 42.4949 262.625 42.2023 262.878 41.9589C263.137 41.7155 263.445 41.5938 263.803 41.5938C264.16 41.5938 264.466 41.7155 264.719 41.9589C264.978 42.2023 265.108 42.4949 265.108 42.8366C265.108 43.1784 264.978 43.471 264.719 43.7144C264.466 43.9578 264.16 44.0795 263.803 44.0795ZM270.796 55.8249L270.672 56.6639C270.584 57.2543 270.449 57.8861 270.268 58.5593C270.092 59.2325 269.908 59.8669 269.716 60.4625C269.525 61.058 269.367 61.5319 269.242 61.8841H267.844C267.911 61.5526 267.999 61.115 268.108 60.5712C268.217 60.0275 268.326 59.419 268.434 58.7457C268.548 58.0777 268.642 57.3941 268.714 56.695L268.807 55.8249H270.796ZM286.684 42.0909H288.61V53.4634C288.61 54.4785 288.424 55.3407 288.051 56.0502C287.678 56.7597 287.152 57.2983 286.474 57.666C285.796 58.0337 284.995 58.2175 284.074 58.2175C283.204 58.2175 282.429 58.0596 281.751 57.7437C281.073 57.4226 280.539 56.9668 280.151 56.3765C279.762 55.7861 279.568 55.0844 279.568 54.2713H281.464C281.464 54.7219 281.575 55.1154 281.798 55.4521C282.025 55.7835 282.336 56.0424 282.73 56.2289C283.123 56.4153 283.571 56.5085 284.074 56.5085C284.628 56.5085 285.099 56.392 285.487 56.159C285.876 55.9259 286.171 55.5841 286.373 55.1336C286.58 54.6778 286.684 54.1211 286.684 53.4634V42.0909ZM295.734 58.2797C294.977 58.2797 294.291 58.1372 293.675 57.8524C293.059 57.5624 292.569 57.1455 292.207 56.6017C291.844 56.0528 291.663 55.3899 291.663 54.6131C291.663 53.9295 291.798 53.3754 292.067 52.9507C292.336 52.5209 292.696 52.1843 293.147 51.9409C293.597 51.6975 294.094 51.5162 294.638 51.3971C295.187 51.2728 295.739 51.1744 296.293 51.1019C297.018 51.0087 297.606 50.9388 298.056 50.8922C298.512 50.8404 298.843 50.7549 299.051 50.6358C299.263 50.5167 299.369 50.3096 299.369 50.0144V49.9522C299.369 49.1858 299.159 48.5902 298.74 48.1656C298.325 47.7409 297.696 47.5286 296.852 47.5286C295.977 47.5286 295.291 47.7202 294.794 48.1034C294.296 48.4867 293.947 48.8958 293.745 49.3308L292.005 48.7093C292.316 47.9843 292.73 47.4198 293.248 47.0159C293.771 46.6068 294.34 46.3219 294.957 46.1614C295.578 45.9957 296.189 45.9128 296.79 45.9128C297.173 45.9128 297.613 45.9594 298.111 46.0526C298.613 46.1407 299.097 46.3245 299.563 46.6042C300.034 46.8838 300.425 47.3059 300.736 47.8704C301.047 48.4349 301.202 49.191 301.202 50.1387V58H299.369V56.3842H299.276C299.152 56.6432 298.944 56.9202 298.654 57.2154C298.364 57.5106 297.979 57.7618 297.497 57.9689C297.015 58.1761 296.427 58.2797 295.734 58.2797ZM296.013 56.6328C296.738 56.6328 297.349 56.4904 297.846 56.2056C298.349 55.9207 298.727 55.553 298.981 55.1025C299.24 54.6519 299.369 54.1781 299.369 53.6809V52.003C299.291 52.0962 299.12 52.1817 298.856 52.2594C298.597 52.3319 298.297 52.3966 297.955 52.4536C297.619 52.5054 297.29 52.552 296.969 52.5934C296.653 52.6296 296.396 52.6607 296.2 52.6866C295.723 52.7488 295.278 52.8497 294.864 52.9896C294.454 53.1242 294.123 53.3288 293.869 53.6032C293.621 53.8725 293.496 54.2402 293.496 54.7063C293.496 55.3433 293.732 55.8249 294.203 56.1512C294.68 56.4723 295.283 56.6328 296.013 56.6328ZM304.548 58V46.0682H306.32V47.9325H306.475C306.723 47.2955 307.125 46.801 307.679 46.4488C308.233 46.0915 308.899 45.9128 309.675 45.9128C310.463 45.9128 311.118 46.0915 311.641 46.4488C312.169 46.801 312.581 47.2955 312.876 47.9325H313C313.306 47.3163 313.764 46.8269 314.375 46.4644C314.986 46.0967 315.719 45.9128 316.573 45.9128C317.64 45.9128 318.513 46.2468 319.191 46.9149C319.87 47.5778 320.209 48.6109 320.209 50.0144V58H318.376V50.0144C318.376 49.134 318.135 48.5048 317.653 48.1267C317.172 47.7487 316.605 47.5597 315.952 47.5597C315.113 47.5597 314.463 47.8134 314.002 48.3209C313.541 48.8233 313.311 49.4603 313.311 50.2319V58H311.446V49.8279C311.446 49.1495 311.226 48.6032 310.786 48.1889C310.346 47.7694 309.779 47.5597 309.085 47.5597C308.609 47.5597 308.163 47.6865 307.749 47.9403C307.34 48.1941 307.008 48.5462 306.755 48.9968C306.506 49.4421 306.382 49.9574 306.382 50.5426V58H304.548ZM328.564 58.2486C327.414 58.2486 326.422 57.9948 325.588 57.4873C324.76 56.9746 324.12 56.2599 323.67 55.3433C323.224 54.4215 323.002 53.3495 323.002 52.1273C323.002 50.9051 323.224 49.8279 323.67 48.8958C324.12 47.9584 324.747 47.2282 325.549 46.7052C326.357 46.1769 327.3 45.9128 328.377 45.9128C328.999 45.9128 329.612 46.0164 330.218 46.2235C330.824 46.4307 331.376 46.7673 331.873 47.2334C332.37 47.6943 332.766 48.3054 333.061 49.0667C333.356 49.8279 333.504 50.7653 333.504 51.8787V52.6555H324.307V51.0708H331.64C331.64 50.3976 331.505 49.7969 331.236 49.2686C330.972 48.7404 330.594 48.3235 330.102 48.018C329.615 47.7124 329.04 47.5597 328.377 47.5597C327.647 47.5597 327.015 47.7409 326.482 48.1034C325.953 48.4608 325.547 48.9268 325.262 49.5017C324.977 50.0765 324.835 50.6928 324.835 51.3505V52.407C324.835 53.3081 324.99 54.0719 325.301 54.6986C325.617 55.32 326.054 55.7939 326.614 56.1201C327.173 56.4412 327.823 56.6017 328.564 56.6017C329.045 56.6017 329.48 56.5344 329.869 56.3998C330.262 56.2599 330.601 56.0528 330.886 55.7783C331.171 55.4987 331.391 55.1517 331.546 54.7374L333.318 55.2346C333.131 55.8353 332.818 56.3635 332.378 56.8192C331.937 57.2698 331.394 57.622 330.746 57.8757C330.099 58.1243 329.371 58.2486 328.564 58.2486ZM344.744 48.7404L343.098 49.2065C342.994 48.932 342.841 48.6653 342.639 48.4064C342.443 48.1423 342.173 47.9248 341.831 47.7539C341.49 47.583 341.052 47.4975 340.519 47.4975C339.788 47.4975 339.18 47.6658 338.693 48.0024C338.212 48.3339 337.971 48.7559 337.971 49.2686C337.971 49.7244 338.136 50.0843 338.468 50.3484C338.799 50.6125 339.317 50.8326 340.021 51.0087L341.793 51.4437C342.859 51.7027 343.654 52.0988 344.177 52.6322C344.7 53.1605 344.962 53.8415 344.962 54.6752C344.962 55.3588 344.765 55.9699 344.372 56.5085C343.983 57.0471 343.439 57.4718 342.74 57.7825C342.041 58.0932 341.228 58.2486 340.301 58.2486C339.084 58.2486 338.077 57.9845 337.279 57.4562C336.482 56.928 335.977 56.1564 335.765 55.1413L337.505 54.7063C337.67 55.3485 337.984 55.8301 338.445 56.1512C338.911 56.4723 339.519 56.6328 340.27 56.6328C341.125 56.6328 341.803 56.4516 342.305 56.089C342.813 55.7214 343.067 55.2812 343.067 54.7685C343.067 54.3542 342.922 54.0072 342.632 53.7275C342.342 53.4427 341.896 53.2304 341.295 53.0906L339.307 52.6245C338.214 52.3655 337.411 51.9642 336.899 51.4204C336.391 50.8715 336.137 50.1853 336.137 49.3619C336.137 48.6886 336.326 48.0931 336.704 47.5752C337.088 47.0573 337.608 46.6508 338.266 46.3556C338.929 46.0604 339.68 45.9128 340.519 45.9128C341.699 45.9128 342.626 46.1718 343.3 46.6896C343.978 47.2075 344.46 47.8911 344.744 48.7404ZM350.145 42.0909L349.99 53.5256H348.188L348.032 42.0909H350.145ZM349.089 58.1243C348.706 58.1243 348.377 57.9871 348.102 57.7126C347.828 57.4381 347.691 57.1093 347.691 56.726C347.691 56.3428 347.828 56.014 348.102 55.7395C348.377 55.465 348.706 55.3278 349.089 55.3278C349.472 55.3278 349.801 55.465 350.075 55.7395C350.35 56.014 350.487 56.3428 350.487 56.726C350.487 56.9798 350.422 57.2128 350.293 57.4252C350.169 57.6375 350 57.8084 349.788 57.9379C349.581 58.0621 349.348 58.1243 349.089 58.1243Z" fill="#0C6BEA"/>
<path d="M276.842 405.23C275.374 405.23 274.06 404.955 272.901 404.404C271.741 403.847 270.82 403.083 270.138 402.115C269.462 401.146 269.103 400.038 269.059 398.79H273.022C273.095 399.715 273.495 400.471 274.222 401.058C274.948 401.638 275.822 401.927 276.842 401.927C277.642 401.927 278.354 401.744 278.978 401.377C279.601 401.01 280.093 400.5 280.453 399.847C280.812 399.194 280.989 398.449 280.981 397.612C280.989 396.761 280.809 396.005 280.442 395.344C280.075 394.684 279.572 394.166 278.934 393.792C278.295 393.41 277.561 393.219 276.732 393.219C276.057 393.212 275.392 393.337 274.739 393.594C274.086 393.851 273.569 394.188 273.187 394.607L269.499 394.001L270.677 382.376H283.755V385.789H274.057L273.407 391.766H273.539C273.958 391.275 274.548 390.867 275.312 390.544C276.075 390.214 276.912 390.049 277.822 390.049C279.187 390.049 280.405 390.372 281.477 391.018C282.548 391.656 283.392 392.537 284.009 393.66C284.625 394.783 284.933 396.067 284.933 397.513C284.933 399.003 284.588 400.331 283.899 401.498C283.216 402.658 282.266 403.571 281.047 404.239C279.836 404.9 278.435 405.23 276.842 405.23ZM296.713 405.23C295.128 405.23 293.718 404.959 292.485 404.415C291.26 403.872 290.291 403.116 289.579 402.148C288.867 401.179 288.489 400.06 288.445 398.79H292.585C292.621 399.399 292.823 399.931 293.19 400.386C293.557 400.834 294.045 401.183 294.654 401.432C295.263 401.682 295.946 401.806 296.702 401.806C297.509 401.806 298.225 401.667 298.849 401.388C299.472 401.102 299.96 400.705 300.313 400.199C300.665 399.693 300.837 399.109 300.83 398.449C300.837 397.766 300.661 397.164 300.302 396.643C299.942 396.122 299.421 395.715 298.738 395.421C298.063 395.128 297.249 394.981 296.295 394.981H294.302V391.832H296.295C297.08 391.832 297.766 391.697 298.353 391.425C298.948 391.153 299.414 390.772 299.751 390.28C300.089 389.781 300.254 389.205 300.247 388.552C300.254 387.913 300.111 387.359 299.817 386.889C299.531 386.412 299.124 386.042 298.595 385.778C298.074 385.513 297.461 385.381 296.757 385.381C296.067 385.381 295.428 385.506 294.841 385.755C294.254 386.005 293.781 386.361 293.421 386.823C293.062 387.278 292.871 387.821 292.849 388.453H288.919C288.948 387.19 289.311 386.082 290.008 385.128C290.713 384.167 291.652 383.418 292.827 382.882C294.001 382.339 295.318 382.068 296.779 382.068C298.283 382.068 299.59 382.35 300.698 382.915C301.814 383.473 302.676 384.225 303.285 385.172C303.894 386.119 304.199 387.165 304.199 388.31C304.206 389.579 303.832 390.643 303.076 391.502C302.327 392.361 301.344 392.922 300.126 393.186V393.363C301.711 393.583 302.926 394.17 303.77 395.124C304.621 396.071 305.043 397.249 305.036 398.658C305.036 399.92 304.676 401.05 303.957 402.049C303.245 403.039 302.261 403.817 301.006 404.382C299.759 404.948 298.327 405.23 296.713 405.23ZM316.653 405.23C315.185 405.23 313.871 404.955 312.711 404.404C311.552 403.847 310.631 403.083 309.948 402.115C309.273 401.146 308.913 400.038 308.869 398.79H312.833C312.906 399.715 313.306 400.471 314.032 401.058C314.759 401.638 315.632 401.927 316.653 401.927C317.453 401.927 318.164 401.744 318.788 401.377C319.412 401.01 319.904 400.5 320.263 399.847C320.623 399.194 320.799 398.449 320.792 397.612C320.799 396.761 320.619 396.005 320.252 395.344C319.886 394.684 319.383 394.166 318.744 393.792C318.106 393.41 317.372 393.219 316.543 393.219C315.867 393.212 315.203 393.337 314.55 393.594C313.897 393.851 313.379 394.188 312.998 394.607L309.31 394.001L310.488 382.376H323.566V385.789H313.867L313.218 391.766H313.35C313.768 391.275 314.359 390.867 315.122 390.544C315.886 390.214 316.722 390.049 317.632 390.049C318.997 390.049 320.216 390.372 321.287 391.018C322.359 391.656 323.203 392.537 323.819 393.66C324.436 394.783 324.744 396.067 324.744 397.513C324.744 399.003 324.399 400.331 323.709 401.498C323.027 402.658 322.076 403.571 320.858 404.239C319.647 404.9 318.245 405.23 316.653 405.23ZM330.174 405.164C329.506 405.164 328.934 404.929 328.457 404.46C327.98 403.99 327.745 403.417 327.752 402.742C327.745 402.082 327.98 401.516 328.457 401.047C328.934 400.577 329.506 400.342 330.174 400.342C330.82 400.342 331.382 400.577 331.859 401.047C332.343 401.516 332.589 402.082 332.596 402.742C332.589 403.19 332.471 403.597 332.244 403.964C332.024 404.331 331.73 404.625 331.363 404.845C331.004 405.058 330.607 405.164 330.174 405.164ZM344.122 405.351C342.31 405.351 340.754 404.893 339.455 403.975C338.163 403.05 337.168 401.718 336.471 399.979C335.781 398.232 335.436 396.129 335.436 393.671C335.444 391.212 335.792 389.121 336.482 387.396C337.179 385.664 338.174 384.343 339.466 383.433C340.765 382.523 342.317 382.068 344.122 382.068C345.928 382.068 347.48 382.523 348.779 383.433C350.078 384.343 351.073 385.664 351.763 387.396C352.46 389.128 352.808 391.22 352.808 393.671C352.808 396.137 352.46 398.243 351.763 399.99C351.073 401.729 350.078 403.058 348.779 403.975C347.487 404.893 345.935 405.351 344.122 405.351ZM344.122 401.905C345.532 401.905 346.643 401.212 347.458 399.825C348.28 398.43 348.691 396.379 348.691 393.671C348.691 391.88 348.504 390.376 348.13 389.157C347.755 387.939 347.227 387.022 346.544 386.405C345.862 385.781 345.054 385.469 344.122 385.469C342.721 385.469 341.612 386.166 340.798 387.561C339.983 388.948 339.572 390.985 339.565 393.671C339.557 395.469 339.737 396.981 340.104 398.206C340.478 399.432 341.007 400.357 341.689 400.981C342.372 401.597 343.183 401.905 344.122 401.905ZM364.8 405.351C362.987 405.351 361.431 404.893 360.132 403.975C358.84 403.05 357.846 401.718 357.149 399.979C356.459 398.232 356.114 396.129 356.114 393.671C356.121 391.212 356.47 389.121 357.16 387.396C357.857 385.664 358.851 384.343 360.143 383.433C361.442 382.523 362.994 382.068 364.8 382.068C366.605 382.068 368.157 382.523 369.456 383.433C370.756 384.343 371.75 385.664 372.44 387.396C373.137 389.128 373.486 391.22 373.486 393.671C373.486 396.137 373.137 398.243 372.44 399.99C371.75 401.729 370.756 403.058 369.456 403.975C368.165 404.893 366.613 405.351 364.8 405.351ZM364.8 401.905C366.209 401.905 367.321 401.212 368.135 399.825C368.957 398.43 369.368 396.379 369.368 393.671C369.368 391.88 369.181 390.376 368.807 389.157C368.433 387.939 367.904 387.022 367.222 386.405C366.539 385.781 365.732 385.469 364.8 385.469C363.398 385.469 362.29 386.166 361.475 387.561C360.66 388.948 360.249 390.985 360.242 393.671C360.235 395.469 360.415 396.981 360.782 398.206C361.156 399.432 361.684 400.357 362.367 400.981C363.049 401.597 363.86 401.905 364.8 401.905ZM385.477 405.351C383.664 405.351 382.108 404.893 380.809 403.975C379.518 403.05 378.523 401.718 377.826 399.979C377.136 398.232 376.791 396.129 376.791 393.671C376.798 391.212 377.147 389.121 377.837 387.396C378.534 385.664 379.529 384.343 380.82 383.433C382.119 382.523 383.672 382.068 385.477 382.068C387.283 382.068 388.835 382.523 390.134 383.433C391.433 384.343 392.427 385.664 393.117 387.396C393.814 389.128 394.163 391.22 394.163 393.671C394.163 396.137 393.814 398.243 393.117 399.99C392.427 401.729 391.433 403.058 390.134 403.975C388.842 404.893 387.29 405.351 385.477 405.351ZM385.477 401.905C386.886 401.905 387.998 401.212 388.813 399.825C389.635 398.43 390.046 396.379 390.046 393.671C390.046 391.88 389.859 390.376 389.484 389.157C389.11 387.939 388.582 387.022 387.899 386.405C387.216 385.781 386.409 385.469 385.477 385.469C384.075 385.469 382.967 386.166 382.152 387.561C381.338 388.948 380.927 390.985 380.919 393.671C380.912 395.469 381.092 396.981 381.459 398.206C381.833 399.432 382.362 400.357 383.044 400.981C383.727 401.597 384.538 401.905 385.477 401.905Z" fill="#0C6BEA"/>
<path d="M272.611 432.592V422.763H274.841V432.592H272.611ZM268.811 428.793V426.562H278.641V428.793H268.811ZM281.242 434.922V433.018L286.292 428.068C286.775 427.58 287.177 427.147 287.499 426.768C287.821 426.39 288.062 426.023 288.223 425.668C288.384 425.312 288.465 424.934 288.465 424.531C288.465 424.072 288.361 423.679 288.152 423.352C287.944 423.021 287.658 422.765 287.293 422.585C286.928 422.405 286.514 422.315 286.05 422.315C285.572 422.315 285.153 422.415 284.793 422.614C284.433 422.808 284.154 423.085 283.955 423.445C283.761 423.804 283.664 424.233 283.664 424.73H281.157C281.157 423.807 281.367 423.004 281.789 422.322C282.21 421.641 282.79 421.113 283.529 420.739C284.272 420.365 285.124 420.178 286.086 420.178C287.061 420.178 287.918 420.36 288.657 420.724C289.395 421.089 289.968 421.589 290.375 422.223C290.787 422.857 290.993 423.582 290.993 424.396C290.993 424.941 290.889 425.476 290.681 426.001C290.472 426.527 290.105 427.109 289.58 427.749C289.059 428.388 288.328 429.162 287.385 430.071L284.878 432.621V432.72H291.213V434.922H281.242ZM299.04 435.199C297.871 435.199 296.867 434.903 296.029 434.311C295.195 433.714 294.554 432.855 294.104 431.733C293.659 430.606 293.436 429.25 293.436 427.663C293.441 426.077 293.666 424.728 294.111 423.615C294.561 422.498 295.203 421.645 296.036 421.058C296.874 420.471 297.875 420.178 299.04 420.178C300.205 420.178 301.206 420.471 302.044 421.058C302.882 421.645 303.524 422.498 303.969 423.615C304.419 424.732 304.644 426.082 304.644 427.663C304.644 429.254 304.419 430.613 303.969 431.74C303.524 432.862 302.882 433.719 302.044 434.311C301.211 434.903 300.21 435.199 299.04 435.199ZM299.04 432.976C299.949 432.976 300.667 432.528 301.192 431.634C301.722 430.734 301.988 429.411 301.988 427.663C301.988 426.508 301.867 425.537 301.625 424.751C301.384 423.965 301.043 423.374 300.603 422.976C300.162 422.573 299.641 422.372 299.04 422.372C298.136 422.372 297.421 422.822 296.895 423.722C296.37 424.616 296.105 425.93 296.1 427.663C296.095 428.823 296.211 429.799 296.448 430.589C296.689 431.38 297.03 431.977 297.471 432.379C297.911 432.777 298.434 432.976 299.04 432.976ZM314.781 432.195V431.428C314.781 430.864 314.899 430.346 315.136 429.872C315.377 429.399 315.728 429.018 316.187 428.729C316.646 428.44 317.202 428.295 317.856 428.295C318.528 428.295 319.092 428.44 319.546 428.729C320.001 429.013 320.344 429.392 320.576 429.865C320.813 430.339 320.931 430.859 320.931 431.428V432.195C320.931 432.758 320.813 433.277 320.576 433.75C320.339 434.223 319.991 434.605 319.532 434.893C319.077 435.182 318.519 435.327 317.856 435.327C317.193 435.327 316.632 435.182 316.173 434.893C315.713 434.605 315.365 434.223 315.129 433.75C314.897 433.277 314.781 432.758 314.781 432.195ZM316.634 431.428V432.195C316.634 432.569 316.724 432.912 316.904 433.224C317.084 433.537 317.401 433.693 317.856 433.693C318.315 433.693 318.63 433.539 318.8 433.232C318.976 432.919 319.063 432.573 319.063 432.195V431.428C319.063 431.049 318.98 430.703 318.815 430.391C318.649 430.073 318.329 429.915 317.856 429.915C317.411 429.915 317.096 430.073 316.911 430.391C316.727 430.703 316.634 431.049 316.634 431.428ZM307.387 423.871V423.104C307.387 422.536 307.508 422.015 307.749 421.541C307.991 421.068 308.341 420.689 308.8 420.405C309.26 420.116 309.816 419.972 310.469 419.972C311.137 419.972 311.698 420.116 312.153 420.405C312.612 420.689 312.958 421.068 313.19 421.541C313.422 422.015 313.538 422.536 313.538 423.104V423.871C313.538 424.439 313.419 424.96 313.183 425.433C312.951 425.902 312.605 426.278 312.146 426.562C311.686 426.847 311.128 426.989 310.469 426.989C309.802 426.989 309.238 426.847 308.779 426.562C308.325 426.278 307.979 425.9 307.742 425.426C307.505 424.953 307.387 424.434 307.387 423.871ZM309.255 423.104V423.871C309.255 424.25 309.343 424.595 309.518 424.908C309.698 425.215 310.015 425.369 310.469 425.369C310.924 425.369 311.237 425.215 311.407 424.908C311.582 424.595 311.67 424.25 311.67 423.871V423.104C311.67 422.725 311.587 422.379 311.421 422.067C311.255 421.75 310.938 421.591 310.469 421.591C310.02 421.591 309.705 421.75 309.525 422.067C309.345 422.384 309.255 422.73 309.255 423.104ZM308.197 434.922L318.197 420.376H319.972L309.972 434.922H308.197Z" fill="#0C6BEA"/>
<rect opacity="0.2" x="571" y="40" width="50" height="17" rx="8.5" fill="#0C6BEA"/>
<circle cx="579.5" cy="48.5" r="8.5" fill="#0C6BEA"/>
<rect x="766.102" y="451.345" width="208.398" height="75.6556" rx="12" fill="#FFF85A"/>
<path d="M766 491.5C774.726 491.5 779.393 495.973 785.302 501.546C791.198 507.107 798.137 513.5 810.796 513.5V506.5C801.057 506.5 795.871 501.893 790.105 496.454C784.352 491.027 777.821 484.5 766 484.5L766 491.5ZM810.796 513.5C817.653 513.5 822.907 510.231 827.116 505.867C831.237 501.595 834.631 495.983 837.764 490.814C841.001 485.474 843.972 480.584 847.408 476.976C850.759 473.459 854.235 471.5 858.459 471.5V464.5C851.675 464.5 846.49 467.791 842.34 472.149C838.275 476.416 834.906 482.026 831.778 487.186C828.547 492.517 825.553 497.405 822.078 501.008C818.69 504.519 815.138 506.5 810.796 506.5V513.5ZM858.459 471.5C867.422 471.5 871.094 476.92 876.338 484.281C878.861 487.824 881.788 491.817 885.885 494.857C890.102 497.987 895.392 500 902.487 500V493C896.862 493 893.041 491.451 890.057 489.236C886.953 486.933 884.591 483.801 882.039 480.219C877.132 473.33 871.509 464.5 858.459 464.5V471.5ZM902.487 500C916.796 500 923.617 491.614 931.683 484.948C935.817 481.532 940.543 478.217 947.133 475.727C953.739 473.231 962.389 471.5 974.399 471.5L974.399 464.5C961.704 464.5 952.193 466.332 944.658 469.179C937.107 472.033 931.713 475.843 927.224 479.552C918.046 487.136 913.616 493 902.487 493V500Z" fill="white"/>
<rect opacity="0.1" x="512.5" y="99" width="462" height="227" rx="12" fill="#0C6BEA"/>
<rect x="599" y="127" width="14" height="140" rx="7" fill="#E8F2FF"/>
<rect x="599" y="212" width="14" height="55" rx="7" fill="#0C6BEA"/>
<rect x="654" y="127" width="14" height="140" rx="7" fill="#E8F2FF"/>
<rect x="654" y="159" width="14" height="108" rx="7" fill="#0C6BEA"/>
<rect x="819" y="127" width="14" height="140" rx="7" fill="#E8F2FF"/>
<rect x="819" y="142" width="14" height="125" rx="7" fill="#0C6BEA"/>
<rect x="709" y="127" width="14" height="140" rx="7" fill="#E8F2FF"/>
<rect x="709" y="186" width="14" height="81" rx="7" fill="#0C6BEA"/>
<rect x="764" y="127" width="14" height="140" rx="7" fill="#E8F2FF"/>
<rect x="764" y="232" width="14" height="35" rx="7" fill="#0C6BEA"/>
<rect x="874" y="127" width="14" height="140" rx="7" fill="#E8F2FF"/>
<rect x="874" y="212" width="14" height="55" rx="7" fill="#0C6BEA"/>
<path d="M594.119 284.818H595.983L599.224 292.733H599.344L602.585 284.818H604.45V295H602.988V287.632H602.893L599.891 294.985H598.678L595.675 287.627H595.58V295H594.119V284.818ZM608.786 295.169C608.302 295.169 607.865 295.08 607.474 294.901C607.082 294.718 606.773 294.455 606.544 294.11C606.318 293.765 606.206 293.343 606.206 292.842C606.206 292.411 606.289 292.057 606.454 291.778C606.62 291.5 606.844 291.28 607.126 291.117C607.407 290.955 607.722 290.832 608.07 290.749C608.418 290.666 608.773 290.603 609.134 290.56C609.591 290.507 609.963 290.464 610.248 290.431C610.533 290.395 610.74 290.337 610.869 290.257C610.998 290.178 611.063 290.048 611.063 289.869V289.835C611.063 289.4 610.94 289.064 610.695 288.825C610.453 288.587 610.092 288.467 609.611 288.467C609.111 288.467 608.716 288.578 608.428 288.8C608.143 289.019 607.946 289.263 607.836 289.531L606.439 289.213C606.605 288.749 606.847 288.375 607.165 288.089C607.487 287.801 607.856 287.592 608.274 287.463C608.692 287.33 609.131 287.264 609.591 287.264C609.896 287.264 610.22 287.301 610.561 287.374C610.906 287.443 611.227 287.572 611.525 287.761C611.827 287.95 612.074 288.22 612.266 288.572C612.458 288.92 612.555 289.372 612.555 289.929V295H611.103V293.956H611.043C610.947 294.148 610.803 294.337 610.611 294.523C610.418 294.708 610.171 294.862 609.87 294.985C609.568 295.108 609.207 295.169 608.786 295.169ZM609.109 293.976C609.52 293.976 609.872 293.895 610.163 293.732C610.458 293.57 610.682 293.358 610.834 293.096C610.99 292.831 611.068 292.547 611.068 292.246V291.261C611.015 291.314 610.912 291.364 610.76 291.411C610.611 291.454 610.44 291.492 610.248 291.525C610.055 291.555 609.868 291.583 609.686 291.609C609.504 291.633 609.351 291.652 609.229 291.669C608.94 291.705 608.677 291.767 608.438 291.853C608.203 291.939 608.014 292.063 607.871 292.226C607.732 292.385 607.662 292.597 607.662 292.862C607.662 293.23 607.798 293.509 608.07 293.697C608.342 293.883 608.688 293.976 609.109 293.976ZM614.534 295V287.364H615.971V288.577H616.051C616.19 288.166 616.435 287.843 616.787 287.607C617.141 287.369 617.542 287.249 617.99 287.249C618.083 287.249 618.192 287.253 618.318 287.259C618.447 287.266 618.548 287.274 618.621 287.284V288.706C618.561 288.689 618.455 288.671 618.303 288.651C618.15 288.628 617.998 288.616 617.846 288.616C617.494 288.616 617.181 288.691 616.906 288.84C616.634 288.986 616.419 289.19 616.26 289.452C616.1 289.71 616.021 290.005 616.021 290.337V295H614.534Z" fill="#0C6BEA"/>
<path d="M649.979 295H648.348L652.012 284.818H653.787L657.451 295H655.82L652.942 286.668H652.862L649.979 295ZM650.252 291.013H655.542V292.305H650.252V291.013ZM658.802 297.864V287.364H660.254V288.602H660.378C660.464 288.442 660.588 288.259 660.751 288.05C660.913 287.841 661.139 287.659 661.427 287.503C661.715 287.344 662.097 287.264 662.57 287.264C663.187 287.264 663.737 287.42 664.221 287.732C664.705 288.043 665.084 288.492 665.36 289.079C665.638 289.665 665.777 290.371 665.777 291.197C665.777 292.022 665.64 292.73 665.365 293.32C665.089 293.906 664.712 294.359 664.231 294.677C663.75 294.992 663.202 295.149 662.585 295.149C662.121 295.149 661.742 295.071 661.447 294.915C661.155 294.76 660.927 294.577 660.761 294.369C660.595 294.16 660.468 293.974 660.378 293.812H660.289V297.864H658.802ZM660.259 291.182C660.259 291.719 660.337 292.189 660.492 292.594C660.648 292.998 660.874 293.315 661.169 293.543C661.463 293.769 661.825 293.881 662.252 293.881C662.696 293.881 663.068 293.764 663.366 293.528C663.664 293.29 663.89 292.967 664.042 292.559C664.198 292.151 664.276 291.692 664.276 291.182C664.276 290.678 664.2 290.226 664.047 289.825C663.898 289.424 663.673 289.107 663.371 288.875C663.073 288.643 662.7 288.527 662.252 288.527C661.821 288.527 661.457 288.638 661.159 288.86C660.864 289.082 660.64 289.392 660.487 289.79C660.335 290.187 660.259 290.652 660.259 291.182ZM667.443 295V287.364H668.879V288.577H668.959C669.098 288.166 669.343 287.843 669.695 287.607C670.049 287.369 670.45 287.249 670.898 287.249C670.991 287.249 671.1 287.253 671.226 287.259C671.355 287.266 671.456 287.274 671.529 287.284V288.706C671.47 288.689 671.364 288.671 671.211 288.651C671.059 288.628 670.906 288.616 670.754 288.616C670.402 288.616 670.089 288.691 669.814 288.84C669.542 288.986 669.327 289.19 669.168 289.452C669.009 289.71 668.929 290.005 668.929 290.337V295H667.443Z" fill="#0C6BEA"/>
<path d="M702.119 284.818H703.983L707.224 292.733H707.344L710.585 284.818H712.45V295H710.988V287.632H710.893L707.891 294.985H706.678L703.675 287.627H703.58V295H702.119V284.818ZM716.786 295.169C716.302 295.169 715.865 295.08 715.474 294.901C715.082 294.718 714.773 294.455 714.544 294.11C714.318 293.765 714.206 293.343 714.206 292.842C714.206 292.411 714.289 292.057 714.454 291.778C714.62 291.5 714.844 291.28 715.126 291.117C715.407 290.955 715.722 290.832 716.07 290.749C716.418 290.666 716.773 290.603 717.134 290.56C717.591 290.507 717.963 290.464 718.248 290.431C718.533 290.395 718.74 290.337 718.869 290.257C718.998 290.178 719.063 290.048 719.063 289.869V289.835C719.063 289.4 718.94 289.064 718.695 288.825C718.453 288.587 718.092 288.467 717.611 288.467C717.111 288.467 716.716 288.578 716.428 288.8C716.143 289.019 715.946 289.263 715.836 289.531L714.439 289.213C714.605 288.749 714.847 288.375 715.165 288.089C715.487 287.801 715.856 287.592 716.274 287.463C716.692 287.33 717.131 287.264 717.591 287.264C717.896 287.264 718.22 287.301 718.561 287.374C718.906 287.443 719.227 287.572 719.525 287.761C719.827 287.95 720.074 288.22 720.266 288.572C720.458 288.92 720.555 289.372 720.555 289.929V295H719.103V293.956H719.043C718.947 294.148 718.803 294.337 718.611 294.523C718.418 294.708 718.171 294.862 717.87 294.985C717.568 295.108 717.207 295.169 716.786 295.169ZM717.109 293.976C717.52 293.976 717.872 293.895 718.163 293.732C718.458 293.57 718.682 293.358 718.834 293.096C718.99 292.831 719.068 292.547 719.068 292.246V291.261C719.015 291.314 718.912 291.364 718.76 291.411C718.611 291.454 718.44 291.492 718.248 291.525C718.055 291.555 717.868 291.583 717.686 291.609C717.504 291.633 717.351 291.652 717.229 291.669C716.94 291.705 716.677 291.767 716.438 291.853C716.203 291.939 716.014 292.063 715.871 292.226C715.732 292.385 715.662 292.597 715.662 292.862C715.662 293.23 715.798 293.509 716.07 293.697C716.342 293.883 716.688 293.976 717.109 293.976ZM723.201 297.864C722.979 297.864 722.776 297.845 722.594 297.809C722.412 297.776 722.276 297.739 722.186 297.7L722.544 296.482C722.816 296.554 723.058 296.586 723.27 296.576C723.482 296.566 723.67 296.487 723.832 296.337C723.998 296.188 724.144 295.945 724.27 295.607L724.453 295.099L721.659 287.364H723.25L725.184 293.29H725.264L727.198 287.364H728.794L725.647 296.019C725.501 296.417 725.315 296.753 725.09 297.028C724.864 297.307 724.596 297.516 724.284 297.655C723.973 297.794 723.612 297.864 723.201 297.864Z" fill="#0C6BEA"/>
<path d="M763.076 284.818H764.607V292.037C764.607 292.69 764.478 293.248 764.219 293.712C763.964 294.176 763.605 294.531 763.141 294.776C762.677 295.018 762.133 295.139 761.51 295.139C760.937 295.139 760.421 295.035 759.964 294.826C759.51 294.617 759.15 294.314 758.885 293.916C758.623 293.515 758.492 293.028 758.492 292.455H760.018C760.018 292.736 760.083 292.98 760.212 293.185C760.345 293.391 760.526 293.552 760.754 293.668C760.986 293.78 761.251 293.837 761.55 293.837C761.875 293.837 762.15 293.769 762.375 293.633C762.604 293.494 762.778 293.29 762.897 293.021C763.016 292.753 763.076 292.425 763.076 292.037V284.818ZM771.561 291.833V287.364H773.053V295H771.591V293.678H771.512C771.336 294.085 771.054 294.425 770.666 294.697C770.282 294.965 769.803 295.099 769.23 295.099C768.739 295.099 768.305 294.992 767.927 294.776C767.552 294.558 767.258 294.234 767.042 293.807C766.83 293.379 766.724 292.851 766.724 292.221V287.364H768.21V292.042C768.21 292.562 768.355 292.977 768.643 293.285C768.931 293.593 769.306 293.747 769.767 293.747C770.045 293.747 770.322 293.678 770.597 293.538C770.875 293.399 771.106 293.189 771.288 292.907C771.473 292.625 771.565 292.267 771.561 291.833ZM776.537 290.466V295H775.05V287.364H776.477V288.607H776.571C776.747 288.202 777.022 287.877 777.397 287.632C777.775 287.387 778.25 287.264 778.824 287.264C779.344 287.264 779.8 287.374 780.191 287.592C780.582 287.808 780.885 288.129 781.1 288.557C781.316 288.984 781.424 289.513 781.424 290.143V295H779.937V290.322C779.937 289.768 779.793 289.336 779.505 289.024C779.216 288.709 778.82 288.552 778.316 288.552C777.972 288.552 777.665 288.626 777.397 288.776C777.132 288.925 776.921 289.143 776.765 289.432C776.613 289.717 776.537 290.062 776.537 290.466Z" fill="#0C6BEA"/>
<path d="M821.076 284.818H822.607V292.037C822.607 292.69 822.478 293.248 822.219 293.712C821.964 294.176 821.605 294.531 821.141 294.776C820.677 295.018 820.133 295.139 819.51 295.139C818.937 295.139 818.421 295.035 817.964 294.826C817.51 294.617 817.15 294.314 816.885 293.916C816.623 293.515 816.492 293.028 816.492 292.455H818.018C818.018 292.736 818.083 292.98 818.212 293.185C818.345 293.391 818.526 293.552 818.754 293.668C818.986 293.78 819.251 293.837 819.55 293.837C819.875 293.837 820.15 293.769 820.375 293.633C820.604 293.494 820.778 293.29 820.897 293.021C821.016 292.753 821.076 292.425 821.076 292.037V284.818ZM829.561 291.833V287.364H831.053V295H829.591V293.678H829.512C829.336 294.085 829.054 294.425 828.666 294.697C828.282 294.965 827.803 295.099 827.23 295.099C826.739 295.099 826.305 294.992 825.927 294.776C825.552 294.558 825.258 294.234 825.042 293.807C824.83 293.379 824.724 292.851 824.724 292.221V287.364H826.21V292.042C826.21 292.562 826.355 292.977 826.643 293.285C826.931 293.593 827.306 293.747 827.767 293.747C828.045 293.747 828.322 293.678 828.597 293.538C828.875 293.399 829.106 293.189 829.288 292.907C829.473 292.625 829.565 292.267 829.561 291.833ZM834.537 284.818V295H833.05V284.818H834.537Z" fill="#0C6BEA"/>
<path d="M868.979 295H867.348L871.012 284.818H872.787L876.451 295H874.82L871.942 286.668H871.862L868.979 295ZM869.252 291.013H874.542V292.305H869.252V291.013ZM882.639 291.833V287.364H884.131V295H882.669V293.678H882.59C882.414 294.085 882.132 294.425 881.744 294.697C881.36 294.965 880.881 295.099 880.308 295.099C879.817 295.099 879.383 294.992 879.005 294.776C878.631 294.558 878.336 294.234 878.12 293.807C877.908 293.379 877.802 292.851 877.802 292.221V287.364H879.289V292.042C879.289 292.562 879.433 292.977 879.721 293.285C880.009 293.593 880.384 293.747 880.845 293.747C881.123 293.747 881.4 293.678 881.675 293.538C881.953 293.399 882.184 293.189 882.366 292.907C882.552 292.625 882.643 292.267 882.639 291.833ZM889.33 298.023C888.723 298.023 888.201 297.943 887.764 297.784C887.33 297.625 886.975 297.415 886.7 297.153C886.425 296.891 886.219 296.604 886.083 296.293L887.361 295.766C887.451 295.911 887.57 296.066 887.719 296.228C887.872 296.394 888.077 296.535 888.336 296.651C888.597 296.767 888.934 296.825 889.345 296.825C889.908 296.825 890.374 296.687 890.742 296.412C891.11 296.14 891.294 295.706 891.294 295.109V293.608H891.199C891.11 293.77 890.98 293.951 890.811 294.15C890.646 294.349 890.417 294.521 890.125 294.667C889.834 294.813 889.454 294.886 888.987 294.886C888.384 294.886 887.84 294.745 887.356 294.463C886.876 294.178 886.494 293.759 886.213 293.205C885.934 292.648 885.795 291.964 885.795 291.152C885.795 290.34 885.933 289.644 886.208 289.064C886.486 288.484 886.867 288.04 887.351 287.732C887.835 287.42 888.384 287.264 888.997 287.264C889.471 287.264 889.854 287.344 890.145 287.503C890.437 287.659 890.664 287.841 890.826 288.05C890.992 288.259 891.12 288.442 891.209 288.602H891.319V287.364H892.775V295.169C892.775 295.825 892.623 296.364 892.318 296.785C892.013 297.206 891.6 297.517 891.08 297.719C890.563 297.922 889.98 298.023 889.33 298.023ZM889.315 293.653C889.743 293.653 890.104 293.553 890.399 293.354C890.697 293.152 890.922 292.864 891.075 292.489C891.231 292.112 891.309 291.659 891.309 291.132C891.309 290.618 891.232 290.166 891.08 289.775C890.927 289.384 890.704 289.079 890.409 288.86C890.114 288.638 889.749 288.527 889.315 288.527C888.868 288.527 888.495 288.643 888.196 288.875C887.898 289.104 887.673 289.415 887.52 289.81C887.371 290.204 887.297 290.645 887.297 291.132C887.297 291.633 887.373 292.072 887.525 292.45C887.678 292.827 887.903 293.122 888.201 293.335C888.503 293.547 888.874 293.653 889.315 293.653Z" fill="#0C6BEA"/>
<rect opacity="0.2" x="845.602" y="376.594" width="78" height="6" rx="3" fill="#0C6BEA"/>
<rect opacity="0.2" x="845.602" y="391.094" width="49" height="6" rx="3" fill="#0C6BEA"/>
<rect opacity="0.1" x="766.102" y="350.844" width="208.398" height="75.6556" rx="12" fill="#0C6BEA"/>
<rect x="786.102" y="366.844" width="40" height="40" rx="7.27273" fill="#0C6BEA"/>
<path d="M797.102 386.844H815.102" stroke="white" stroke-width="4"/>
<path d="M806.102 395.844L806.102 377.844" stroke="white" stroke-width="4"/>
</g>
<path d="M19 2H1011V0H19V2ZM1028 19V551H1030V19H1028ZM1011 568H19V570H1011V568ZM2 551V19H0V551H2ZM19 568C9.61113 568 2 560.389 2 551H0C0 561.493 8.50656 570 19 570V568ZM1028 551C1028 560.389 1020.39 568 1011 568V570C1021.49 570 1030 561.493 1030 551H1028ZM1011 2C1020.39 2 1028 9.61116 1028 19H1030C1030 8.50659 1021.49 0 1011 0V2ZM19 0C8.50659 0 0 8.50658 0 19H2C2 9.61115 9.61116 2 19 2V0Z" fill="#E8F2FF"/>
<defs>
<clipPath id="clip0_65_9050">
<path d="M1 19C1 9.05886 9.05887 1 19 1H1011C1020.94 1 1029 9.05887 1029 19V551C1029 560.941 1020.94 569 1011 569H19C9.05885 569 1 560.941 1 551V19Z" fill="white"/>
</clipPath>
<clipPath id="clip1_65_9050">
<rect x="245" y="350.845" width="496.257" height="176.156" rx="18" fill="white"/>
</clipPath>
</defs>
</svg>
