<svg width="32" height="32" viewBox="0 0 32 32" fill="none" xmlns="http://www.w3.org/2000/svg">
<path d="M0 31.4111C3.61556 30.0124 7.82772 23.5443 7.82772 15.8265C7.82772 7.08575 3.60511 0.765861 0 0H24.0293V0.00923306C28.2763 0.296863 31.675 7.2684 31.675 15.8265C31.675 23.0627 29.2451 29.5078 25.9271 31.394C25.3272 31.6486 24.739 31.8994 24.0854 31.9827C22.9722 32.0737 22.0168 31.7956 21.002 31.3961C19.2047 30.6887 17.8807 30.6854 16.0904 31.4111C15.4244 31.6811 14.7719 31.9344 14.0447 31.9827C13.0688 31.9827 12.2199 31.7604 11.334 31.3845C9.45282 30.5861 8.67568 30.5921 6.42213 31.4111C5.65355 31.6904 4.66937 31.9827 3.88634 31.9827C2.64706 32.0348 0.744791 31.61 0 31.4111Z" fill="#0C6BEA"/>
</svg>
