<svg width="274" height="900" viewBox="0 0 274 900" fill="none" xmlns="http://www.w3.org/2000/svg">
<g clip-path="url(#clip0_102_9332)">
<path fill-rule="evenodd" clip-rule="evenodd" d="M-60 551.796H457.064V534.526H-60V551.796ZM-60 518.899C112.613 518.743 285.019 518.615 456.877 518.615V502.005C311.732 502.005 131.753 502.004 -60 502.002V518.899ZM-60 485.42C112.535 485.414 285.07 485.414 457.605 485.414V469.464C314.163 469.464 132.157 469.464 -60 469.462V485.42ZM-60 452.302C-53.1244 452.301 -46.2539 452.3 -39.3887 452.3H456.701V437.01C284.806 437.01 112.573 437.126 -60 437.255V452.302ZM-60 419.091C-51.1491 419.091 -42.2982 419.09 -33.4473 419.09L-32.4336 419.09C130.426 419.08 293.467 419.071 456.506 419.071V404.44C321.904 404.44 187.303 404.474 52.7012 404.507L-28.2109 404.526H-28.5723V404.498L-52.5957 404.504C-55.0638 404.505 -57.5319 404.505 -60 404.506V419.091ZM-60 385.814C-42.7863 385.814 -25.5722 385.813 -8.35742 385.813H-6.37305H457.406V371.833L6.62695 371.842C-15.5812 371.843 -37.7902 371.844 -60 371.844V385.814ZM-60 352.689H456.516V339.378C320.113 339.378 183.711 339.457 47.1719 339.536L5.73633 339.56L-25.0059 339.576C-36.6699 339.582 -48.3347 339.588 -60 339.594V352.689ZM-60 319.46H457.232V306.8H-60V319.46ZM-60 286.259C-22.6745 286.258 14.651 286.256 51.9766 286.254H52.1465L133.914 286.25H134.096L134.641 286.25H134.67H134.699H134.729H134.758H134.787H134.816H134.847C242.192 286.241 349.356 286.231 456.699 286.231V274.23H-60V286.259ZM-60 253.112C11.4987 253.11 82.9974 253.104 154.496 253.098H154.676C255.23 253.088 355.965 253.078 456.52 253.078V241.747H-60V253.112ZM-60 219.907H456.877V209.187C333.047 209.187 208.855 209.264 84.6641 209.34L84.6289 209.34L82.2559 209.342C34.8478 209.37 -12.5734 209.399 -60 209.423V219.907ZM-60 186.706C-29.432 186.703 1.13603 186.7 31.7041 186.697H31.707H31.7363L173.217 186.685C267.658 186.677 362.129 186.668 456.52 186.668V176.647C284.192 176.647 112.04 176.643 -60 176.61V186.706Z" fill="#0C6BEA"/>
</g>
<defs>
<clipPath id="clip0_102_9332">
<rect width="274" height="900" fill="white"/>
</clipPath>
</defs>
</svg>
