<svg width="116" height="39" viewBox="0 0 116 39" fill="none" xmlns="http://www.w3.org/2000/svg">
<g clip-path="url(#clip0_5339_26482)">
<mask id="mask0_5339_26482" style="mask-type:luminance" maskUnits="userSpaceOnUse" x="0" y="0" width="116" height="39">
<path d="M116 0H0V38.0328H116V0Z" fill="white"/>
</mask>
<g mask="url(#mask0_5339_26482)">
<path d="M5.67128 -0.0214844C4.0647 -0.0214844 2.75935 0.524808 1.65483 1.56772C0.55031 2.6603 -0.00195312 3.95154 -0.00195312 5.49108C-0.00195312 7.03063 0.55031 8.32186 1.65483 9.46411C2.75935 10.5566 4.0647 11.0533 5.67128 11.0533C7.17744 11.0533 8.48279 10.507 9.63752 9.46411C10.6918 8.32186 11.2441 7.03063 11.2441 5.49108C11.2441 3.95154 10.6918 2.6603 9.63752 1.56772C8.48279 0.524808 7.17744 -0.0214844 5.67128 -0.0214844Z" fill="#031959"/>
<path d="M14.7801 11.5877C13.0575 12.0648 11.6449 12.8827 10.6114 14.0414C9.54343 15.2001 8.99219 16.6655 8.99219 18.3695C8.99219 22.016 11.3349 24.4357 16.0204 25.6285L21.9461 27.1961C23.0486 27.4688 23.8754 27.8436 24.3922 28.2867C24.8745 28.6956 25.1501 29.275 25.1501 29.9906C25.1501 30.8426 24.7712 31.4901 24.0477 32.0013C23.2897 32.4784 22.2562 32.717 20.947 32.7511C19.6378 32.8192 18.2253 32.7852 16.7438 32.6488C15.1935 32.4784 13.5398 32.2058 11.7139 31.8309C10.9559 31.6946 10.3358 31.7628 9.9224 32.0695C9.47452 32.4103 9.26781 32.9556 9.26781 33.7053V34.3869C9.26781 35.6819 9.88795 36.5339 11.1282 36.8747C13.4709 37.5563 15.8136 37.8971 18.0875 37.9653C20.3958 38.0334 22.4973 37.8289 24.4267 37.3177C26.3215 36.8406 27.8719 35.9205 29.0777 34.6255C30.249 33.3304 30.8347 31.7287 30.8347 29.7862C30.8347 27.8095 30.2146 26.2078 29.0088 24.9809C27.8029 23.72 25.9425 22.7998 23.462 22.1864L16.985 20.4824C15.4691 20.1076 14.6767 19.3919 14.6767 18.3354C14.6767 17.6538 15.0557 17.1086 15.7792 16.7337C16.5371 16.3247 17.5018 16.0862 18.7076 16.0521C19.879 16.018 21.1193 16.0521 22.4973 16.1884C23.9099 16.3247 25.3224 16.5633 26.7349 16.9041C27.5273 17.1086 28.113 17.0745 28.5609 16.7337C29.0088 16.3929 29.2155 15.8476 29.2155 15.0979V14.4504C29.2155 13.1894 28.5953 12.3715 27.3206 12.0307C25.0123 11.4173 22.773 11.0765 20.6025 11.0083C18.5009 10.9061 16.5371 11.1106 14.7801 11.5877ZM37.7596 11.9285C36.2437 12.3033 35.4858 13.1553 35.4858 14.4163V15.166C35.4858 15.9158 35.6925 16.461 36.1403 16.8018C36.5882 17.1426 37.1739 17.2108 37.9318 17.0404C40.7569 16.461 43.1686 16.1884 45.1323 16.1884C48.1296 16.1884 50.1279 16.8359 51.1959 18.165C51.7816 18.8807 52.0572 19.8349 52.0572 20.9255V21.6071H43.9954C40.6536 21.6071 38.173 22.1864 36.4849 23.3792C34.7623 24.572 33.8665 26.6168 33.8665 29.5476C33.8665 31.422 34.211 32.9215 34.9345 34.1143C35.279 34.6936 35.7269 35.2048 36.3126 35.6478C36.3471 35.6819 36.3815 35.6819 36.4504 35.716C38.1041 36.9088 40.6191 37.4881 43.961 37.4881H49.6111C50.1623 37.4881 50.6791 37.4881 51.1614 37.4541C53.263 37.2496 54.8478 36.6702 55.8813 35.6819C57.1216 34.4891 57.7418 32.5466 57.7418 29.8884V20.9255C57.7418 17.6198 56.6393 15.0979 54.4688 13.428C53.5042 12.7123 52.4017 12.1329 51.1614 11.724C49.5766 11.2128 47.7851 10.9742 45.7525 10.9742C43.3753 10.9402 40.688 11.281 37.7596 11.9285ZM52.0572 26.5486V29.6498C52.0572 30.6722 51.8505 31.3879 51.4715 31.865C51.3681 31.9673 51.2992 32.0354 51.1959 32.1377C50.7136 32.4444 49.9556 32.6148 48.9565 32.6148H44.0299C42.2384 32.6148 41.067 32.3762 40.4468 31.9332C39.8267 31.4901 39.5511 30.7063 39.5511 29.5817C39.5511 28.423 39.8612 27.6391 40.4468 27.1961C41.0325 26.7531 42.2384 26.5486 44.0299 26.5486H52.0572ZM116 24.5038C116 20.1757 114.863 16.8359 112.555 14.5185C110.281 12.1329 107.077 10.9742 102.908 10.9742C98.7741 10.9742 95.5701 12.167 93.2963 14.5185C91.0224 16.8359 89.851 20.1757 89.851 24.5038C89.851 28.7979 90.988 32.1036 93.2963 34.421C95.5701 36.7725 98.7741 37.9653 102.908 37.9653C107.077 37.9653 110.281 36.7725 112.555 34.421C114.829 32.1036 116 28.7979 116 24.5038ZM108.352 18.1991C109.557 19.5623 110.178 21.6752 110.143 24.5038C110.143 27.2984 109.557 29.4113 108.352 30.7745C107.18 32.1036 105.354 32.7852 102.874 32.7852C100.428 32.7852 98.6019 32.1036 97.4305 30.7745C96.2247 29.4113 95.6046 27.3324 95.6391 24.5038C95.6391 21.6752 96.2247 19.5623 97.4305 18.1991C98.6019 16.8359 100.428 16.1543 102.874 16.1543C105.354 16.1543 107.18 16.8359 108.352 18.1991ZM67.7673 2.35209C67.7673 0.920749 67.0095 0.205078 65.528 0.205078H64.0121C62.634 0.239157 61.9449 0.988908 61.9449 2.35209V35.273C61.9449 36.7384 62.6684 37.4881 64.1498 37.4881H65.528C67.0095 37.4881 67.7673 36.7384 67.7673 35.273V2.35209ZM75.7258 5.31702H74.3476C72.8662 5.31702 72.1083 6.03269 72.1083 7.49811V28.1844C72.1083 30.3314 72.4873 32.1376 73.2453 33.6031C73.9688 35.0685 75.0022 36.159 76.3114 36.8406C77.5861 37.5222 79.102 37.8971 80.8591 37.9993C82.6506 38.1016 84.5799 37.863 86.6815 37.2837C87.8528 37.0451 88.4386 36.2613 88.4386 34.9322V34.0802C88.4386 33.4327 88.2664 32.9556 87.9218 32.6829C87.6118 32.4103 87.0604 32.274 86.2336 32.274C85.9235 32.274 85.3378 32.3421 84.511 32.4784C83.7186 32.5807 83.0296 32.6488 82.4095 32.6488C80.7903 32.6488 79.6533 32.308 78.9987 31.6265C78.3096 30.9108 77.9306 29.7862 77.9306 28.2185V16.6314H86.2681C87.7496 16.6314 88.4731 15.8817 88.4731 14.4163V13.6324C88.4731 12.2011 87.7496 11.4513 86.2681 11.4513H77.9306V7.49811C77.9306 6.06677 77.2073 5.31702 75.7258 5.31702Z" fill="#031959"/>
</g>
</g>
<defs>
<clipPath id="clip0_5339_26482">
<rect width="116" height="39" fill="#031959"/>
</clipPath>
</defs>
</svg>
