<svg width="149" height="40" viewBox="0 0 149 40" fill="none" xmlns="http://www.w3.org/2000/svg">
<g clip-path="url(#clip0_5339_26467)">
<mask id="mask0_5339_26467" style="mask-type:luminance" maskUnits="userSpaceOnUse" x="0" y="0" width="149" height="40">
<path d="M149 0H0V40H149V0Z" fill="white"/>
</mask>
<g mask="url(#mask0_5339_26467)">
<path d="M131.156 0.702185C131.614 0.248371 132.223 0 132.869 0C133.516 0 134.125 0.248371 134.582 0.705251C135.145 1.26332 135.395 2.05136 135.25 2.85473C135.173 3.28402 134.969 3.68877 134.672 4.01073C134.533 4.16098 134.381 4.2959 134.211 4.40322C133.815 4.66386 133.352 4.80491 132.869 4.80491C132.387 4.80491 131.92 4.66386 131.527 4.40322C131.357 4.29283 131.206 4.16098 131.067 4.00767C130.77 3.68264 130.566 3.28095 130.489 2.8486C130.343 2.04523 130.594 1.26025 131.159 0.702185H131.156Z" fill="#031959"/>
<path d="M134.582 31.2851C134.125 31.739 133.516 31.9904 132.869 31.9904C132.223 31.9904 131.614 31.742 131.156 31.2851C130.699 30.8313 130.448 30.2273 130.448 29.5864C130.448 28.9456 130.699 28.3415 131.156 27.8877C131.614 27.4339 132.223 27.1855 132.869 27.1855C133.516 27.1855 134.125 27.4339 134.582 27.8877C135.04 28.3415 135.29 28.9456 135.29 29.5864C135.29 30.2273 135.04 30.8313 134.582 31.2851Z" fill="#031959"/>
<path d="M116.739 15.9938C116.739 15.353 116.989 14.7489 117.447 14.2951C117.904 13.8413 118.514 13.5898 119.16 13.5898C119.806 13.5898 120.415 13.8413 120.873 14.2951C121.33 14.7489 121.581 15.353 121.581 15.9938C121.581 16.1533 121.565 16.3127 121.534 16.466C121.442 16.9291 121.216 17.3522 120.873 17.6926C120.415 18.1464 119.806 18.3948 119.16 18.3948C118.514 18.3948 117.904 18.1464 117.447 17.6926C116.989 17.2388 116.739 16.6347 116.739 15.9938Z" fill="#031959"/>
<path d="M148.289 17.6952C147.343 18.6335 145.806 18.6335 144.863 17.6952C144.405 17.2414 144.155 16.6373 144.155 15.9965C144.155 15.837 144.17 15.6776 144.201 15.5243C144.223 15.4077 144.257 15.2943 144.297 15.187C144.415 14.8558 144.609 14.5553 144.866 14.3008C145.339 13.8317 145.961 13.5986 146.579 13.5986C147.197 13.5986 147.819 13.8317 148.292 14.3008C148.75 14.7546 149 15.3587 149 15.9995C149 16.6404 148.75 17.2445 148.292 17.6983H148.289V17.6952Z" fill="#031959"/>
<path d="M43.5873 8.6007V30.3439C43.5873 30.9388 43.1019 31.4202 42.5021 31.4202H40.514C39.9821 31.4202 39.5276 31.04 39.4411 30.5187L39.1071 28.5134C36.9242 30.7027 33.8818 32.0151 30.3693 32.0151C23.193 32.0151 17.8223 26.6337 17.8223 19.4708C17.8223 12.3079 23.1899 6.9541 30.3693 6.9541C33.922 6.9541 36.9953 8.28487 39.1844 10.5111L39.5957 8.39526C39.6946 7.88932 40.1398 7.52136 40.6624 7.52136H42.5021C43.1019 7.52136 43.5873 8.00277 43.5873 8.59764V8.6007ZM38.4176 21.3566C39.6853 15.6747 35.471 10.9679 29.6489 11.7039C25.682 12.2037 22.8683 15.3742 22.8683 19.4739C22.8683 23.9476 26.2169 27.3144 30.762 27.3144C34.6455 27.3144 37.6323 24.8767 38.4207 21.3535L38.4176 21.3566Z" fill="#031959"/>
<path d="M140.766 20.2991C138.367 17.9197 138.367 14.0653 140.766 11.6889L148.032 4.48316C148.923 3.60006 149.077 2.17729 148.304 1.18994C147.371 -0.00591326 145.627 -0.0856373 144.585 0.947708L137.26 8.21179C134.861 10.5912 130.974 10.5912 128.578 8.21179L121.312 1.00596C120.421 0.122872 118.987 -0.0304437 117.991 0.736134C116.785 1.66215 116.705 3.39155 117.747 4.4249L125.072 11.6889C127.471 14.0684 127.471 17.9228 125.072 20.2991L117.824 27.4866C116.884 28.4187 116.76 29.9366 117.639 30.9239C118.133 31.482 118.82 31.7579 119.503 31.7579C120.137 31.7579 120.771 31.5188 121.256 31.0374L128.581 23.7733C130.98 21.3938 134.867 21.3938 137.263 23.7733L144.588 31.0374C145.073 31.5188 145.707 31.7579 146.341 31.7579C147.04 31.7579 147.735 31.4666 148.236 30.8871C149.093 29.8875 148.904 28.3635 147.967 27.4344L140.769 20.2961L140.766 20.2991Z" fill="#031959"/>
<path d="M111.371 8.85563C111.371 8.74525 111.365 8.48768 111.365 8.45701C111.365 7.88361 110.895 7.41753 110.317 7.41753C110.305 7.41753 110.113 7.40527 110.008 7.40527C110.005 7.40527 109.229 7.40527 109.229 7.40527C105.939 7.40527 103.576 8.53367 101.851 10.7996L101.22 8.34969C101.1 7.87441 100.667 7.54019 100.169 7.54019H98.7464C98.1466 7.54019 97.6611 8.0216 97.6611 8.61646V30.3566C97.6611 30.9514 98.1466 31.4328 98.7464 31.4328H101.53C102.129 31.4328 102.615 30.9514 102.615 30.3566V18.6892C102.615 14.3627 104.659 12.0446 108.755 12.0446H110.286C110.886 12.0446 111.371 11.5631 111.371 10.9683V8.85563Z" fill="#031959"/>
<path d="M18.1063 27.7717V30.3596C18.1063 30.9545 17.6209 31.4359 17.0211 31.4359H1.08527C0.485433 31.4359 0 30.9545 0 30.3596V1.5333C0 0.938442 0.485433 0.457031 1.08527 0.457031H4.04115C4.64098 0.457031 5.12642 0.938442 5.12642 1.5333V26.6923H17.0211C17.6209 26.6923 18.1063 27.1737 18.1063 27.7686V27.7717Z" fill="#031959"/>
<path d="M94.5978 20.1362C94.5638 20.7065 94.0876 21.1542 93.5094 21.1542H74.9455C74.9455 21.1542 75.0506 21.838 75.2547 22.4819C76.1823 25.5114 78.8568 27.4095 82.3352 27.4095C84.9912 27.4095 87.1834 26.2842 88.5067 24.3984C88.7139 24.1009 89.0416 23.9078 89.4034 23.9078H92.3469C93.1631 23.9078 93.698 24.7755 93.3177 25.493C91.141 29.5896 87.1277 32.0151 82.3352 32.0151C75.2887 32.0151 69.9551 26.6215 69.9551 19.4861C69.9551 12.3508 75.2763 6.9541 82.3352 6.9541C89.3941 6.9541 94.6194 12.587 94.6194 19.5413C94.6194 19.7039 94.6102 19.9185 94.5978 20.1362ZM75.0599 17.1619H89.561C89.561 17.1619 89.4838 16.5517 89.1096 15.7238C87.9192 13.099 85.5106 11.388 82.3321 11.388C79.1536 11.388 76.6368 13.0622 75.499 15.8096C75.1898 16.4965 75.0568 17.1619 75.0568 17.1619H75.0599Z" fill="#031959"/>
<path d="M69.2189 7.53711C70.0074 7.53711 70.533 8.34354 70.2084 9.05799L59.8288 31.8682C57.1079 37.8751 54.7085 40.0001 49.7985 40.0001H48.435C47.8352 40.0001 47.3497 39.5187 47.3497 38.9238V36.5995C47.3497 36.0353 47.8135 35.5754 48.3824 35.5754H49.4152C52.6029 35.5754 53.5831 34.6524 55.3486 30.8287L55.8866 29.7034L46.1222 9.07026C45.7852 8.35581 46.3109 7.53711 47.1055 7.53711H50.0861C50.5128 7.53711 50.8962 7.78241 51.0755 8.16876L58.459 24.273L65.3479 8.1933C65.5179 7.79774 65.9106 7.54017 66.3465 7.54017H69.2189V7.53711Z" fill="#031959"/>
</g>
</g>
<defs>
<clipPath id="clip0_5339_26467">
<rect width="149" height="40" fill="#031959"/>
</clipPath>
</defs>
</svg>
