<svg width="242" height="32" viewBox="0 0 242 32" fill="none" xmlns="http://www.w3.org/2000/svg">
<g clip-path="url(#clip0_5701_8773)">
<path d="M62.9739 7.23494H69.6559C69.8479 7.23394 70.0389 7.26994 70.2169 7.34294C70.3949 7.41594 70.5559 7.52394 70.6919 7.65994L71.1739 8.14194C71.3099 8.27794 71.4169 8.43994 71.4899 8.61794C71.5629 8.79594 71.5999 8.98694 71.5979 9.17894V13.8119C71.5989 14.0039 71.5629 14.1949 71.4899 14.3729C71.4169 14.5509 71.3099 14.7129 71.1739 14.8489L70.6919 15.3259C70.5569 15.4639 70.3959 15.5739 70.2179 15.6469C70.0399 15.7199 69.8489 15.7579 69.6559 15.7559H62.9739V7.23494ZM72.2509 31.6819H80.4089L75.9439 21.3629L77.8709 19.4349C78.3799 18.9289 78.7829 18.3269 79.0569 17.6649C79.3309 17.0029 79.4719 16.2919 79.4709 15.5739V6.87694C79.4729 6.15894 79.3329 5.44694 79.0579 4.78294C78.7829 4.11894 78.3799 3.51694 77.8709 3.00994L76.6329 1.77094C76.1269 1.26194 75.5249 0.857943 74.8609 0.582943C74.1969 0.307943 73.4859 0.167943 72.7679 0.169943H55.0889V31.6809H62.9729V22.8239H68.5519L72.2499 31.6809L72.2509 31.6819Z" fill="#031959"/>
<path d="M234.865 15.349L224.682 13.742C224.17 13.657 223.703 13.397 223.36 13.006L222.485 12.011C222.123 11.6 221.924 11.071 221.926 10.524V6.47597C221.927 5.87797 222.164 5.30497 222.584 4.87997L223.522 3.94697C223.731 3.73597 223.98 3.56897 224.254 3.45497C224.527 3.34097 224.82 3.28297 225.118 3.28297H239.59V0.172974H225.605C224.111 0.173974 222.678 0.768974 221.622 1.82597L220.414 3.03397C219.358 4.09097 218.763 5.52397 218.761 7.01997V9.93797C218.761 11.308 219.26 12.631 220.165 13.659L221.362 15.022C222.219 16 223.389 16.651 224.672 16.862L234.856 18.474C235.369 18.558 235.838 18.818 236.182 19.21L237.053 20.205C237.415 20.616 237.614 21.145 237.612 21.692V24.802C237.612 25.399 237.374 25.971 236.954 26.393L236.016 27.331C235.594 27.752 235.023 27.989 234.426 27.989H219.922V31.674H233.909C234.648 31.675 235.381 31.53 236.064 31.247C236.747 30.964 237.369 30.549 237.892 30.026L239.098 28.819C240.157 27.761 240.751 26.325 240.751 24.828V22.045C240.748 20.745 240.247 19.494 239.353 18.552L238.151 17.189C237.294 16.21 236.124 15.558 234.841 15.344L234.865 15.349Z" fill="#031959"/>
<path d="M42.5 31.682H51.927V0.171021H42.5V31.682Z" fill="#031959"/>
<path d="M30.3418 31.511H39.7688V0H30.3418V31.511Z" fill="#031959"/>
<path d="M17.3184 31.682H26.7454V0.171021H17.3184V31.682Z" fill="#031959"/>
<path d="M0 31.682H9.428V0.171021H0V31.682Z" fill="#031959"/>
<path d="M129.381 24.499C129.382 24.691 129.346 24.882 129.273 25.06C129.2 25.238 129.093 25.4 128.957 25.536L128.48 26.013C128.344 26.149 128.182 26.256 128.004 26.329C127.826 26.402 127.636 26.439 127.444 26.438H116.566V18.234H127.444C127.636 18.233 127.826 18.27 128.004 18.343C128.182 18.416 128.343 18.523 128.48 18.659L128.957 19.141C129.094 19.277 129.201 19.438 129.274 19.616C129.347 19.794 129.383 19.985 129.382 20.177V24.499H129.381ZM116.587 5.42703H126.755C126.947 5.42503 127.138 5.46203 127.316 5.53503C127.494 5.60803 127.655 5.71603 127.791 5.85203L128.273 6.33403C128.41 6.46903 128.518 6.63103 128.591 6.80903C128.664 6.98703 128.7 7.17803 128.698 7.37103V11.056C128.699 11.248 128.663 11.439 128.59 11.617C128.517 11.795 128.41 11.957 128.274 12.093L127.792 12.57C127.657 12.707 127.495 12.816 127.317 12.89C127.139 12.964 126.948 13.001 126.756 13H116.588V5.42803L116.587 5.42703ZM131.143 1.77303C130.638 1.26403 130.036 0.860026 129.374 0.585026C128.712 0.310026 128.001 0.170026 127.284 0.171026H111.34V31.682H127.978C128.695 31.684 129.405 31.544 130.067 31.27C130.729 30.996 131.331 30.594 131.837 30.086L133.07 28.847C133.579 28.342 133.982 27.742 134.257 27.08C134.532 26.418 134.672 25.708 134.671 24.991V21C134.673 20.281 134.532 19.569 134.257 18.905C133.982 18.241 133.576 17.639 133.066 17.133L131.196 15.267L132.387 14.064C132.893 13.559 133.293 12.958 133.566 12.297C133.839 11.636 133.979 10.928 133.977 10.213V6.86503C133.979 6.14803 133.839 5.43703 133.566 4.77503C133.293 4.11303 132.89 3.51003 132.382 3.00403L131.144 1.77003L131.143 1.77303Z" fill="#031959"/>
<path d="M157.453 24.815C157.453 25.204 157.299 25.577 157.023 25.852L156.199 26.671C156.064 26.809 155.903 26.918 155.725 26.992C155.547 27.066 155.356 27.103 155.164 27.102H144.285C144.093 27.104 143.901 27.067 143.723 26.993C143.545 26.919 143.384 26.81 143.25 26.672L142.426 25.853C142.151 25.578 141.996 25.205 141.996 24.816V6.99303C141.996 6.60403 142.15 6.23103 142.426 5.95603L143.244 5.13203C143.38 4.99603 143.542 4.88903 143.72 4.81603C143.897 4.74303 144.087 4.70603 144.279 4.70703H155.158C155.35 4.70603 155.541 4.74203 155.719 4.81503C155.897 4.88803 156.058 4.99603 156.195 5.13203L157.017 5.95603C157.291 6.23103 157.446 6.60403 157.447 6.99303V24.816L157.453 24.815ZM159.343 1.60103C158.838 1.09203 158.237 0.688029 157.575 0.413029C156.913 0.138029 156.202 -0.00197124 155.484 -0.000971243H143.964C143.247 -0.00197124 142.537 0.139029 141.874 0.413029C141.211 0.687029 140.611 1.09103 140.106 1.60003L138.873 2.83403C138.365 3.34003 137.961 3.94203 137.687 4.60403C137.413 5.26603 137.271 5.97703 137.273 6.69503V25.13C137.272 25.848 137.412 26.558 137.687 27.221C137.962 27.884 138.365 28.485 138.873 28.991L140.106 30.225C141.131 31.246 142.517 31.821 143.964 31.826H155.484C156.931 31.821 158.318 31.245 159.343 30.225L160.581 28.991C161.599 27.964 162.173 26.577 162.177 25.13V6.71103C162.178 5.99403 162.039 5.28303 161.765 4.62103C161.491 3.95903 161.089 3.35603 160.581 2.85003L159.343 1.61603V1.60103Z" fill="#031959"/>
<path d="M101.896 24.65C101.894 24.945 101.777 25.228 101.57 25.438L101.005 26.003C100.902 26.107 100.779 26.189 100.644 26.245C100.509 26.301 100.364 26.33 100.218 26.329H90.0913C89.9453 26.33 89.8003 26.301 89.6653 26.245C89.5303 26.189 89.4073 26.107 89.3043 26.003L88.7393 25.438C88.6353 25.335 88.5533 25.212 88.4973 25.077C88.4413 24.942 88.4123 24.797 88.4133 24.65V7.19499C88.4123 7.04899 88.4413 6.90299 88.4973 6.76799C88.5533 6.63299 88.6363 6.50999 88.7403 6.40699L89.3053 5.84199C89.4083 5.73799 89.5313 5.65599 89.6663 5.59999C89.8013 5.54399 89.9463 5.51499 90.0923 5.51599H100.219C100.365 5.51499 100.51 5.54399 100.645 5.59999C100.78 5.65599 100.903 5.73799 101.006 5.84199L101.571 6.40699C101.779 6.61599 101.897 6.89899 101.897 7.19499L101.896 24.65ZM105.346 1.61299C104.84 1.10499 104.238 0.702989 103.576 0.428989C102.914 0.154989 102.204 0.0149889 101.487 0.0169889H88.8073C88.0903 0.0159889 87.3803 0.156989 86.7173 0.430989C86.0543 0.704989 85.4533 1.10899 84.9483 1.61799L83.7153 2.85199C83.2063 3.35799 82.8023 3.95899 82.5283 4.62199C82.2543 5.28499 82.1133 5.99599 82.1153 6.71299V25.148C82.1143 25.866 82.2553 26.576 82.5293 27.239C82.8033 27.902 83.2073 28.503 83.7153 29.009L84.9483 30.243C85.4543 30.752 86.0553 31.155 86.7173 31.43C87.3793 31.705 88.0903 31.846 88.8073 31.844H101.477C102.195 31.846 102.906 31.705 103.569 31.43C104.232 31.155 104.834 30.752 105.341 30.243L106.574 29.009C107.082 28.503 107.484 27.901 107.758 27.238C108.032 26.575 108.172 25.865 108.169 25.148V6.71299C108.171 5.99599 108.031 5.28499 107.758 4.62299C107.485 3.96099 107.082 3.35799 106.574 2.85199L105.346 1.61299Z" fill="#031959"/>
<path d="M216.139 3.96004V0.171041H203.36C202.642 0.169041 201.931 0.310041 201.267 0.584041C200.605 0.859041 200.002 1.26304 199.496 1.77204L198.258 3.01104C197.749 3.51804 197.345 4.12004 197.071 4.78404C196.796 5.44804 196.655 6.15904 196.658 6.87804V24.981C196.655 25.699 196.796 26.411 197.071 27.075C197.345 27.739 197.749 28.341 198.258 28.848L199.496 30.082C200.001 30.592 200.603 30.997 201.267 31.272C201.931 31.547 202.642 31.687 203.36 31.684H216.139V27.926H204.012C203.668 27.927 203.329 27.86 203.012 27.728C202.693 27.596 202.405 27.403 202.163 27.159L201.206 26.205C200.72 25.711 200.446 25.047 200.444 24.355V7.53204C200.443 7.18904 200.508 6.84804 200.639 6.53004C200.77 6.21204 200.963 5.92404 201.207 5.68104L202.16 4.72704C202.651 4.23804 203.315 3.96204 204.009 3.96004H216.139Z" fill="#031959"/>
<path d="M189.576 0.171021V31.682H193.518V0.171021H189.576Z" fill="#031959"/>
<path d="M186.433 0.171021H163.543V4.34302H172.856V31.682H177.119V4.34302H186.432L186.433 0.171021Z" fill="#031959"/>
<path d="M14.1534 29.762V29.581C14.1534 29.478 14.1124 29.379 14.0394 29.306L13.9674 29.233C13.8924 29.16 13.7924 29.119 13.6874 29.119H13.0344C12.9824 29.119 12.9314 29.128 12.8834 29.148C12.8354 29.168 12.7914 29.196 12.7544 29.233L12.6814 29.306C12.6084 29.379 12.5674 29.478 12.5674 29.581V30.618C12.5674 30.721 12.6084 30.82 12.6814 30.893L12.7544 30.966C12.7914 31.003 12.8354 31.031 12.8834 31.051C12.9314 31.071 12.9824 31.08 13.0344 31.08H13.6664C13.7714 31.08 13.8714 31.039 13.9464 30.966L14.0194 30.893C14.0924 30.82 14.1334 30.721 14.1334 30.618V30.437H13.7864V30.598C13.7934 30.616 13.7934 30.637 13.7864 30.655L13.7294 30.712C13.7214 30.715 13.7124 30.717 13.7034 30.717C13.6944 30.717 13.6854 30.715 13.6774 30.712H13.0454C13.0284 30.718 13.0104 30.718 12.9934 30.712L12.9364 30.655C12.9314 30.636 12.9314 30.617 12.9364 30.598V29.561C12.9314 29.544 12.9314 29.526 12.9364 29.509L12.9934 29.452C13.0014 29.449 13.0104 29.447 13.0194 29.447C13.0284 29.447 13.0374 29.449 13.0454 29.452H13.6674C13.6754 29.449 13.6844 29.447 13.6934 29.447C13.7024 29.447 13.7114 29.449 13.7194 29.452L13.7764 29.509C13.7794 29.517 13.7814 29.526 13.7814 29.535C13.7814 29.544 13.7794 29.553 13.7764 29.561V29.727L14.1544 29.763L14.1534 29.762Z" fill="#031959"/>
<path d="M13.3798 28.2281C13.0068 28.2271 12.6408 28.3371 12.3308 28.5441C12.0208 28.7511 11.7778 29.0461 11.6338 29.3901C11.4908 29.7351 11.4528 30.1151 11.5248 30.4811C11.5968 30.8471 11.7768 31.1841 12.0408 31.4481C12.3048 31.7121 12.6408 31.8921 13.0078 31.9641C13.3748 32.0361 13.7538 31.9991 14.0978 31.8551C14.4428 31.7121 14.7368 31.4691 14.9438 31.1581C15.1508 30.8471 15.2608 30.4821 15.2598 30.1081C15.2588 29.6101 15.0598 29.1321 14.7078 28.7791C14.3558 28.4261 13.8778 28.2281 13.3798 28.2271V28.2281ZM13.3798 28.5391C13.7388 28.5411 14.0858 28.6671 14.3618 28.8961C14.6378 29.1251 14.8268 29.4431 14.8958 29.7951C14.9648 30.1471 14.9098 30.5131 14.7398 30.8291C14.5698 31.1451 14.2968 31.3931 13.9648 31.5301C13.6328 31.6671 13.2648 31.6861 12.9208 31.5821C12.5768 31.4781 12.2808 31.2591 12.0798 30.9611C11.8798 30.6631 11.7888 30.3051 11.8228 29.9481C11.8568 29.5911 12.0128 29.2561 12.2648 29.0011C12.4108 28.8541 12.5838 28.7371 12.7748 28.6581C12.9658 28.5791 13.1708 28.5391 13.3778 28.5401L13.3798 28.5391Z" fill="#031959"/>
</g>
<defs>
<clipPath id="clip0_5701_8773">
<rect width="242" height="32" fill="#031959"/>
</clipPath>
</defs>
</svg>
