<svg xmlns="http://www.w3.org/2000/svg" width="83" height="24" viewBox="0 0 83 24" fill="none"><path d="M59.5461 2.59482L65.7048 14.0801C66.2131 14.9989 66.2809 15.8582 66.2809 16.9557V21.6094C66.2809 23.1492 67.1365 24 68.6614 24H73.668C75.2014 24 76.0485 23.1492 76.0485 21.6094V16.9557C76.0485 15.8582 76.1163 15.0415 76.6585 14.0121L82.6817 2.66289C83.4272 1.25913 82.8511 0.068061 81.0806 0.068061H76.8279C75.3962 0.068061 74.7524 0.782701 74.1678 2.15243L72.3973 6.32116C72.194 6.83162 71.7874 7.10386 71.2028 7.10386H71.0334C70.4573 7.10386 70.0422 6.79759 69.8389 6.32116L68.1023 2.15243C67.5262 0.782701 66.8739 0.068061 65.4507 0.068061H61.0286C59.5122 0.068061 58.8683 1.30167 59.5461 2.59482ZM23.4575 23.9319H32.8185C34.3519 23.9319 35.199 23.0812 35.199 21.5413V18.0191C35.199 16.4793 34.3434 15.6285 32.8185 15.6285H30.1585C29.5147 15.6285 29.1334 15.2542 29.1334 14.5991V2.39064C29.1334 0.850762 28.2863 0 26.7529 0H23.4491C21.9157 0 21.0686 0.85927 21.0686 2.39064V21.5413C21.0771 23.0812 21.9242 23.9319 23.4575 23.9319ZM48.6517 7.96313C48.855 7.18043 50.5917 7.18043 50.795 7.96313L51.9895 12.4467C52.1589 13.1273 51.7862 13.5782 51.0746 13.5782H48.4484C47.7707 13.5782 47.3556 13.1698 47.5335 12.4467L48.6517 7.96313ZM43.1029 2.05034L37.5541 21.2691C37.0797 22.9451 37.893 23.9319 39.5957 23.9319H43.4757C44.8735 23.9319 45.7206 23.4555 45.9239 22.5622L46.4322 20.4778C46.6016 19.8313 46.9066 19.5165 47.525 19.5165L52.0149 19.5505C52.6249 19.5505 52.9298 19.8908 53.0738 20.5034L53.5483 22.5537C53.7855 23.6172 54.6411 23.9234 56.0304 23.9234H59.9103C61.6131 23.9234 62.4264 22.928 61.952 21.2605L56.5895 2.05034C56.2083 0.646579 55.3273 0 53.9295 0H45.7545C44.3652 0 43.5095 0.646579 43.1029 2.05034ZM11.9194 23.9319H15.7654C17.2988 23.9319 18.1459 23.0812 18.1459 21.5413L18.112 17.6108C18.112 16.2751 17.2564 15.5604 15.7315 15.5604H11.9194C9.74221 15.5604 8.00555 13.9865 8.00555 11.9702C8.00555 9.95392 9.74221 8.38001 11.9194 8.38001H15.596C17.1293 8.38001 17.9765 7.66537 17.9765 6.32967V2.39064C17.9765 0.850762 17.1209 0 15.596 0H11.9194C5.31162 0 0 5.33428 0 11.9702C0 18.6062 5.31162 23.9319 11.9194 23.9319Z" fill="#031959"></path></svg>